<svg height="241pt" viewBox="0 0 516 241" width="516pt" xmlns="http://www.w3.org/2000/svg"><g fill="none" transform="translate(.58717 .44439)"><g stroke="#b2b2b2" stroke-dasharray=".666667 .666667 .666667 .666667" stroke-width=".66667"><path d="m50.183 213.97h372.2"/><path d="m50.183 219.17h372.2"/><path d="m50.183 208.87h372.2"/><path d="m50.183 17.464h372.2"/><path d="m50.183 43.364h372.2"/><path d="m50.183 193.27h372.2"/><path d="m50.183 162.27h372.2"/><path d="m50.183 120.97h372.2"/><path d="m50.183 69.164h372.2"/><path d="m50.183 177.77h372.2"/><path d="m50.183 146.77h372.2"/><path d="m50.183 95.064h372.2"/><path d="m84.013 224.37v-206.9"/><path d="m117.89 224.37v-206.9"/><path d="m151.69 224.37v-206.9"/><path d="m185.49 224.37v-206.9"/><path d="m219.39 224.37v-206.9"/><path d="m253.19 224.37v-206.9"/><path d="m286.99 224.37v-206.9"/><path d="m320.89 224.37v-206.9"/><path d="m354.69 224.37v-206.9"/><path d="m388.49 224.37v-206.9"/><path d="m422.39 224.37v-206.9"/></g><g stroke="#000" stroke-linecap="round" stroke-linejoin="round" stroke-width="1.2"><path d="m50.183 167.77h378.7"/><path d="m50.183 71.074h378.6"/></g></g><g font-family="'DejaVu Sans'"><g transform="translate(6.5383 2.4782)"><text x="18.89879" y="124.10197"><tspan font-family="'DejaVu Sans'" font-size="10">10</tspan></text><text x="31.594908" y="118.37229"><tspan font-family="'DejaVu Sans'" font-size="6.667">20</tspan></text></g><g transform="translate(6.6783 2.5042)"><text x="18.89879" y="98.241966"><tspan font-family="'DejaVu Sans'" font-size="10">10</tspan></text><text x="31.594908" y="92.512291"><tspan font-family="'DejaVu Sans'" font-size="6.667">25</tspan></text></g><g transform="translate(6.5578 2.5142)"><text x="18.89879" y="72.371971"><tspan font-family="'DejaVu Sans'" font-size="10">10</tspan></text><text x="31.575377" y="66.642296"><tspan font-family="'DejaVu Sans'" font-size="6.667">30</tspan></text></g><g transform="translate(6.6978 2.5042)"><text x="18.89879" y="46.541969"><tspan font-family="'DejaVu Sans'" font-size="10">10</tspan></text><text x="31.575377" y="40.812294"><tspan font-family="'DejaVu Sans'" font-size="6.667">35</tspan></text></g><g transform="translate(6.3755 2.5342)"><text x="18.89879" y="20.641968"><tspan font-family="'DejaVu Sans'" font-size="10">10</tspan></text><text x="31.757677" y="14.912292"><tspan font-family="'DejaVu Sans'" font-size="6.667">40</tspan></text></g></g><g fill="none"><g stroke="#000" stroke-width=".9998"><path d="m50.77 17.908v208.5"/><path d="m48.18 224.81h374.8"/><path d="m118.48 226.41v-1.64"/><path d="m186.08 226.41v-1.64"/><path d="m389.08 226.41v-1.64"/></g><path d="m50.770181 224.80791 2.146-.1857c9.994-.9457 20-1.863 30-2.784l1.707-.1545m338.199999-31.12h6.465m-12.61.5879.0973-.0309h.1953l.0487-.0309h.2438l.0488-.0309h.244l.0488-.0311h.3903l.0485-.0309h.244l.0485-.0309h.2926l.049-.0309h.39l.0488-.0309h.1953l.0975-.0309h.195l.0488-.0312h.3903l.0485-.0309h.2443l.0482-.0309h.2444l.0484-.0309h.3904l.0975-.0309h.1465l.0485-.0309h.2441l.0487-.0312h.3901l.0975-.0309h.1463l.0487-.0309h.3901l.0978-.0309h.1465m-48.33 4.455.1947-.0309h.1465l.1463-.0309h.0978l.2925-.0312.1466-.0309h.1947l.2929-.0309.0977-.0309h.146l.1466-.0309h.4875l.2926-.0309.244-.0312.5851-.0618.1466-.0309h.195l.146-.0309h.4878l.1466-.0309.2925-.0309.5854-.0617h.2434l.5854-.0618.2443-.0309.2926-.0312.1463-.0309h.4872l.1466-.0309.244-.0309.5851-.0618h.3903l.1463-.0312.2438-.0309.0978-.0309h.39l.2438-.0309.1463-.0309h.1465l.2438-.0309h.2441l.2435-.0312.1465-.0309h.146l.2444-.0309h.2434l.4879-.0618.2441-.0308h.2434l.2444-.0312.2435-.0309.2438-.0309h.244l.4876-.0618h.2441l.2437-.0309.2438-.0309.2441-.0309h.2438l.1953-.0309.2435-.0309h.244l.2438-.0309.195-.0309h.2441l.2438-.0312.195-.0309h.2441l.195-.0309.2438-.0309h.2437l.1953-.0309.2435-.0309h.2929l.0978-.0312.1462-.0309h.341l.2444-.0308.1947-.0309h.1953l.2435-.0309.1953-.0309h.1953l.2438-.0312.2438-.0309h.195l.0975-.0309h.2926l.2443-.0309.1948-.0309h.244l.1948-.0309.1953-.0309h.1953l.0972-.0309h.2928l.2438-.0309.1953-.0309h.195l.0975-.0309h.2929l.2435-.0309.195-.0312h.1953l.0975-.0309h.2925l.3901-.0618h.1953l.0975-.0309h.3416l.0487-.0309h.4391l.0975-.0311.0975-.0309h.2438l.0975-.0309h.2926l.0975-.0309h.2925l.3903-.0618h.1466l.0975-.0312h.2925l.0976-.0309h.2925l.3906-.0618h.146l.0975-.0309h.2925l.0491-.0309h.341l.0978-.0312h.244l.0976-.0309h.2437l.0975-.0309h.2926l.1465-.0309.1953-.0309h.1948l.0487-.0309h.2926l.049-.0309h.2928l.0973-.0309h.2437l.0978-.0309h.2438l.0975-.0309h.2438l.0975-.0309h.2925l.0491-.0309h.2928l.0485-.0311h.2925l.0491-.0309h.2925l.0975-.0309h.1953l.0972-.0309h.2441l.0975-.0309h.2438l.0487-.0309h.2926l.0975-.0312h.1953l.0972-.0309h.2444l.0975-.0309h.2435l.049-.0309h.2435l.0978-.0309h.2441l.0975-.0309h.195l.0975-.0312h.2438l.0975-.0309h.3901l.0978-.0309h.195l.0978-.0309h.2438l.0487-.0309h.2438l.0487-.0309h.2441l.0975-.0309h.2438l.0488-.0309h.3903l.0485-.0309h.2925m-331.999999 30.53 1.609-.1548c5.609-.4878 11.22-1.05 16.829999-1.547l1.366-.1236 1.414-.1239c7.391-.7058 14.8-1.349 22.19-2.042l1.317-.1239 1.268-.1236c4.449-.3994 8.92-.8183 13.36-1.238l1.804-.1545 1.756-.1548c2.569-.2386 5.136-.4804 7.706-.7114l2.78-.2475 1.366-.1236 1.317-.1239 1.268-.1239 1.22-.0926 2.341-.2163 2.292-.2169 2.195-.1856 2.049-.1857 2-.1854 1.902-.1857 1.854-.1856 1.756-.1545 1.707-.1548 1.658-.1545.7807-.0618c1.444-.1808 3.056-.2781 4.536-.4025l.8291-.0927.9267-.093c2.04-.1652 4.123-.394 6.145-.5567l.8294-.0927.7317-.0618.6828-.0621 1.17-.1236 1.024-.0926 1.073-.0927.5366-.0621.5366-.0309.9754-.0927 1.024-.093.585-.0309.5854-.0618.6828-.0621c1.481-.1406 2.954-.3092 4.438-.4328l.6341-.0618.5363-.0621c.7806-.0643 1.692-.0964 2.439-.2166l.4879-.0308.5366-.0618c1.264-.0332 2.493-.2642 3.756-.3093l.5366-.0618.4388-.0312c.6216-.1057 1.452-.1542 2.097-.2165l.3903-.0309.4875-.0309.4879-.0618 1.122-.093 1.073-.0927.5366-.0618.4391-.0309.39-.0312.3413-.0309 1.171-.1236.6832-.0618.39-.0309.4878-.062.9267-.0927.9751-.093.4394-.0309.39-.0309.3413-.0309.2926-.0309.5365-.0312.4879-.0309.2435-.0309.3418-.0309.7314-.0618.8291-.0927.8294-.0618.8292-.0929 1.512-.1548 1.512-.1236.7313-.0621.7807-.0927.7316-.0618.6341-.0618.2926-.0309h.195l.4391-.0618.39-.0311h.2438l.2441-.0309.5853-.0618 1.366-.1239.6339-.0618 1.219-.1239 1.219-.0927 2.341-.2165 2.244-.2163 2.146-.1857 2.049-.1857 1.951-.1856.9751-.0927.9266-.0618.9267-.093.8779-.0927 1.756-.1547 1.707-.1548 1.658-.1548.7807-.0927 2.341-.1854.7314-.0929 2.195-.1857.3413-.0309.3416-.0309.2925-.0309.3904-.0309.4388-.0312.4875-.0618.4391-.0618.4388-.0309.6832-.0618.6338-.0309.6831-.0618.6336-.062.8779-.0927.3418-.0309.3901-.0309.4388-.0621.7804-.0618.3418-.0309.2926-.0309.5363-.0312 1.17-.1236.5366-.0621h.2925l.2929-.0308.3412-.0309.7804-.0618.3416-.0309.2925-.0309.2438-.0309.2441-.0309.2925-.0309.3413-.0309 1.024-.093.2929-.0309.2435-.0309.4878-.0309.4876-.0621h.2443l.2435-.0309.2925-.0309.3901-.0309h.3418l.2926-.0309.2435-.0309h.2443l.195-.0311.2438-.0309.2926-.0309.2928-.0309.3413-.0309.2925-.0309.4878-.0618.8779-.0618h.1953l.2435-.0309.5854-.0621.2925-.0309.2928-.0309.2438-.0309h.3906l.2435-.0309.5366-.0621.5366-.0618.5851-.0618h.2928l.2438-.0309.1953-.0311h.3901l.1953-.0309.2435-.0309h.2925l.2928-.0309.2438-.0309.3903-.0621h.195l.1951-.0309.4878-.0618.4876-.0309.7806-.0618.4879-.0309.4873-.0618.4878-.0618.4388-.0312.3419-.0309.39-.0309.4388-.0309.4879-.0309.439-.062.4388-.0309.6826-.0618.4391-.0618.4388-.0312.8782-.0618h.1463l.1953-.0309h.1462l.1463-.0309.39-.0618.4388-.0309.8295-.0618.4388-.0618.3903-.0312h.1465l.146-.0309h.2929l.39-.0309.39-.0617.7804-.0621.7804-.0618h.1466l.1462-.0309.0975-.0309h.1463l.3416-.0309.39-.0312.7316-.0618.3413-.0618.3901-.0309.7319-.0621.6826-.0618.244-.0309h.2926l.3413-.0309.3415-.0309.6341-.0617 1.366-.1239 1.268-.1236.6335-.0621.6344-.0618.8779-.0927h.3413l.5854-.0621.5853-.0618.5851-.0617.5854-.0309.5365-.0618.5854-.0618.5851-.0309.5363-.0621.5369-.0618.5363-.0309.5366-.0621.5363-.0309.5366-.0618.4878-.0618.5364-.0312.244-.0309.2438-.0308.2925-.0309h.3416l.4879-.0618.4878-.0309.4873-.0621.4878-.0309.4388-.0618.4879-.0309.5853-.0618.2441-.0309h.195l.4876-.0618.4388-.0312h.1953l.2437-.0309.2926-.0309.2928-.0309.2438-.0309h.195l.4391-.0309.3903-.062.2438-.0309h.2925l.2438-.0309.1953-.0309.4388-.0309h.1953l.1948-.0312.2443-.0309.2926-.0309.195-.0309h.195l.1953-.0309h.4388l.2925-.0309.3901-.0618.1953-.0309h.1947l.2444-.0309h.4388l.5853-.093.1948-.0309h.2443l.7801-.0618.1953-.0309.2435-.0309.3904-.0311.195-.0309h.244l.3901-.0309h.1463l.39-.0618.2444-.0309.1459-.0312h.1951l.195-.0309h.2441l.1462-.0309h.195l.1954-.0309h.2437l.1953-.0309h.1463l.1463-.0309h.195l.195-.0309h.4388l.1466-.0309.39-.0618.3413-.0312.3903-.0309.3416-.0309.3901-.0309.3413-.0309.1953-.0309h.1947l.1466-.0309h.1462l.195-.0309h.1954l.3412-.0311.3904-.0309.3413-.0309.6828-.0618.1466-.0309h.1463l.1947-.0312h.1953l.1463-.0309h.3415l.1948-.0309.1953-.0309.1463-.0309h.4388l.1953-.0309.1465-.0312h.146l.195-.0309h.1953l.3416-.0309.2925-.0309.3411-.0309.1953-.0309h.1465l.0972-.0309h.1463l.1466-.0309h.195l.3416-.0309.2925-.0309.1465-.0308h.1948l.2928-.0309.2925-.0312.1463-.0309h.195l.2928-.0309h.2926l.2925-.0309" stroke="#483434" stroke-dasharray="10.6677 1.06667 10.6677 1.06667" stroke-width="1.0667"/><path d="m50.770181 224.80791 2.146-.4023c10-1.828 20-3.666 30-5.506l1.707-.3095m338.299999-62.27h6.465m-12.76 1.145.1463-.0311.1463-.0309h.1465l.146-.0309.1466-.0309.1462-.0309.1466-.0309.146-.0309.1465-.0309.146-.0309h.1465l.1463-.0309.0975-.0309h.0973l.049-.0309h.0487l.1466-.0312.0975-.0309h.0972l.0488-.0309h.049l.1463-.0309.0975-.0309h.195l.1466-.0309.1463-.0312.1462-.0309.1463-.0309.1465-.0309h.146l.1466-.0309.1462-.0309.1466-.0311.146-.0309.1465-.0309h.0975l.146-.0309.1466-.0309.1462-.0309.1463-.0312.1463-.0309.1465-.0309h.0973l.1462-.0309.1466-.0309.146-.0309.1465-.0309h.0978m-48.33 8.878.1947-.0309.2928-.0618h.0978l.2925-.062.1466-.0309.1947-.0309.2929-.0618.0977-.0309h.146l.1466-.0312.1947-.0309.5854-.1236.244-.0309.5851-.1236.1466-.0309.195-.0312.146-.0309h.1465l.1953-.0618.146-.0309h.1466l.2925-.062.5854-.1236.2434-.0309.2929-.0621.2925-.0309.2443-.0618.2926-.0618.1463-.0312h.1462l.195-.0618.146-.0309h.1466l.244-.0618.2926-.0618.2925-.0309.2441-.0618.1462-.0311h.1463l.2438-.0618.0978-.0309h.0972l.1466-.0309.1462-.0309.2438-.0312.1463-.0309.1465-.0309.2438-.0309.2441-.0618.2435-.0312.2925-.0618.2444-.0309.2434-.0618.2441-.0309.2438-.0618.2441-.0309.2434-.0617.2444-.0312.2435-.0618.2438-.0309.244-.0618.2438-.0312.2438-.0618.4878-.0618.2438-.0621.2441-.0309.2438-.0618.1953-.0309.2435-.0309.244-.0618.2438-.0308.195-.0309.2441-.0621.2438-.0309.195-.0618.2441-.0309.195-.0309.2438-.0621.2437-.0309.1953-.0309.2435-.0309.1953-.0618.0976-.0312h.0978l.2925-.0618.0975-.0309h.0972l.2444-.0309.1947-.0308.1953-.0621.2435-.0309.3906-.0618.2438-.0618.2438-.0309.195-.0309.1953-.0618.1948-.0309.2443-.0312.1948-.0309.244-.0618.1948-.0309.1953-.0309.1953-.0312.1947-.0618.1953-.0308.2438-.0309.1953-.0309.195-.0312.1951-.0618.1953-.0309.2435-.0309.195-.0309.1953-.0309.195-.0618.195-.0309.3901-.0618.1953-.0312.2438-.0618.1953-.0309.1462-.0309.1951-.0309.1465-.0311h.0975l.0975-.0309h.0485l.1953-.0309.1948-.0618.1953-.0309.1953-.0312.1947-.0309.3903-.0618.1466-.0309.195-.0309.195-.0621.3901-.0618.3906-.0618.146-.0309.39-.0618h.0491l.195-.0618.146-.0309.0978-.0311h.0487l.3904-.0618.1462-.0309.3901-.0618.1465-.0312.3901-.0618.1462-.0309.0978-.0309h.0973l.1465-.0309.1953-.0312.1948-.0309.1462-.0309.1951-.0618h.1465l.1953-.0618.146-.0309h.195l.0978-.0309.0972-.0309.1466-.0309.0975-.0309h.0978l.146-.0311.0975-.0309h.0975l.1466-.0309.0978-.0309h.0972l.1463-.0309.1465-.0309.0972-.0312h.0978l.1463-.0309.0975-.0309h.0972l.2929-.0618.0978-.0309h.0972l.1465-.0312.1463-.0309.0972-.0309h.2444l.195-.0618h.146l.1465-.0309.146-.0311.0978-.0309h.0975l.1466-.0309.0975-.0309h.0978l.0482-.0309h.049l.0975-.0309h.0978l.146-.0309.0975-.0309h.0975l.0491-.0309h.0487l.0975-.0309h.0973l.2928-.0618.0978-.0312h.0972l.1466-.0309.1462-.0309h.1463l.1463-.0309.1465-.0309.0975-.0309h.0975l.1463-.0312.1466-.0309.1459-.0309.2929-.0618.0972-.0309h.0975m-331.999999 61.13 1.609-.3093c5.611-1.029 11.23-2.039 16.829999-3.093l1.366-.2475 1.414-.2784c7.419-1.299 14.79-2.716 22.19-4.052l1.317-.2475 1.268-.2474c4.452-.8204 8.914-1.617 13.36-2.444l1.804-.3404 1.756-.3093c2.56-.466 5.131-.9978 7.706-1.423l2.78-.5258 1.366-.2474 1.317-.2478 1.268-.2163 1.22-.2474 2.341-.4023 2.292-.4331 2.195-.4022 2.049-.402 2-.3713 1.902-.3402 1.854-.3404 1.756-.3093 1.707-.3093 1.658-.3095.7807-.1545c1.531-.2259 2.997-.5825 4.536-.8354l.8291-.1544.9267-.1857c2.017-.3376 4.137-.7382 6.145-1.114l.8294-.1544.7317-.1239.6828-.1236.5851-.1239.5853-.0927 1.024-.2165 1.073-.1857 1.073-.1854.9754-.1857 1.024-.1856.585-.093.5854-.1236.6828-.1236c1.475-.2781 2.957-.5383 4.438-.8045l.6341-.1236.5363-.0929c.7407-.1494 1.709-.362 2.439-.4641l.4879-.0927.5366-.0926c1.239-.2245 2.517-.4683 3.756-.6809l.5366-.0927.4388-.0927c.7095-.0989 1.399-.2687 2.097-.3714l.3903-.0926.4875-.093.4879-.0927 1.122-.2163 1.609-.2786.4391-.0927.39-.0621.3413-.0618.5853-.1239.5854-.0927.6832-.1236.39-.0618.4878-.0929.9267-.1857.9751-.1548.4394-.0927.39-.0618.3413-.0618.2926-.0618.5365-.0929.4879-.0927.2435-.0618.3418-.0621.7314-.1236 2.488-.464 3.024-.557.7313-.1236.7807-.1545.7316-.1239.6341-.1239.2926-.0618.195-.0309.4391-.0929.39-.0618.2438-.0309.2441-.0621.5853-.0927 1.366-.2472.6339-.1238 1.219-.2475 1.219-.2166 2.341-.4331 2.244-.4022 2.146-.402 2.049-.3713 2.926-.5568.9266-.1547 1.805-.3402 1.756-.3095 1.707-.3093 1.658-.3093.7807-.1547.7804-.1236 1.561-.3093.7314-.1239.7316-.1235.7316-.1548.7316-.1239.3413-.0618.3416-.0621.2925-.0618.3904-.0618.4388-.0926.4875-.0927.4391-.0621.4388-.0927.6832-.1239.6338-.1236.6831-.1238.6336-.1236.5853-.0927.2926-.0621.3418-.0618.3901-.0618.4388-.093.3903-.0927.3901-.0621.3418-.0617.2926-.0618.5363-.093 1.17-.1854.5366-.0927.5854-.1239.3412-.0618.3901-.0929.3903-.0618.3416-.0618.2925-.0621.2438-.0309.2441-.0309.2925-.0618 1.366-.2475.2929-.0618.2435-.0309.4878-.0929.4876-.0927.2443-.0309.2435-.0621.2925-.0618.3901-.0618.3418-.0621.2926-.0618.2435-.0618.2443-.0309.195-.0309.2438-.0618.5854-.1238.3413-.0309.2925-.0618.4878-.093.4388-.0618.4391-.093.1953-.0309.2435-.0618.5854-.1236.2925-.0309.2928-.0617.2438-.0309.1953-.0621.1953-.0309.2435-.0309.5366-.093.5366-.0927.5851-.1239.2928-.0309.2438-.0618.1953-.0309.3901-.062.1953-.0309.2435-.0618.2925-.0618.2928-.0309.2438-.0618.3903-.0618.195-.0312.1951-.0309.9754-.1857.3906-.0926.39-.0621.9752-.1854.4878-.0927.4388-.0618.3419-.0621.39-.0618.4388-.093.4879-.0926.439-.093.4388-.0618.6826-.1239.8779-.1854.4394-.0927.4388-.0618.1463-.0311.1953-.0309.2925-.0618.39-.093.4388-.0618.8295-.1239.4388-.0927.3903-.0618.1465-.0309.146-.0309.2929-.0618.39-.0929 1.17-.1857.3901-.0927.3903-.0618.2928-.0621h.0975l.1463-.0309.3416-.0618.39-.0618.7316-.1547 1.463-.2475.6826-.1236.244-.0621.2926-.0618.6828-.1238.6341-.1236.6829-.1236.6826-.093 1.902-.3713.6344-.1236.5854-.0927.2925-.0618.3413-.0621.5854-.0927.2925-.0618.2928-.0621.5851-.0927.5854-.1238.5365-.0927.2926-.0621.2928-.0618.5851-.0927.5363-.0927.5369-.0927.2435-.062.2928-.0618.5366-.093 1.073-.1857.4878-.0927.5364-.0927.244-.0309.2438-.0618.2925-.0618.3416-.062.2438-.0618.2441-.0309.4878-.093.4873-.0927.4878-.0621.4388-.0927.4879-.093.5853-.1235.2441-.0309.195-.0309.2438-.0309.2438-.0618.4388-.093.1953-.0309.2437-.0309.5854-.1239.2438-.0309.195-.0309.2441-.0618.5853-.0929.2438-.0618.2925-.0618.2438-.0309.1953-.0309.2435-.0618.1953-.0309.3901-.0621.2443-.0309.2926-.0618.195-.0618.195-.0312.3901-.0618.244-.0618.2925-.0309.1951-.0311.195-.0309.1953-.0309.1947-.0618.2444-.0621.2435-.0309.39-.0618.3906-.0618.1948-.0618.2443-.0309.3901-.0618.39-.0621.1953-.0618.2435-.0309.3904-.0618.195-.062.244-.0309.3901-.0618.1463-.0309.1953-.0312.1947-.0618.2444-.0309.1459-.0309.1951-.0309.195-.0618.2441-.0309.1462-.0309.195-.0309.1954-.0309.2437-.0312.1953-.0309.2926-.0618.195-.0308.195-.0621.2438-.0309.195-.0309.1466-.0309.39-.0618.3413-.0621.1953-.0618.195-.0309.3416-.0621.3901-.0618.3413-.0618.39-.0618.2928-.0617.195-.0618.1954-.0309.1465-.0312h.1947l.1954-.0309.195-.0618.3413-.0618.3415-.0621.3413-.0618.2929-.0618.1947-.0312.1953-.0309.2925-.0618.1953-.0309.1948-.0308.3416-.0618.2928-.0618.146-.0309.1953-.0309.2925-.0621.195-.0309.1953-.0309.3416-.0618.2925-.0621.3411-.0618.1953-.0309.1465-.0309.0972-.0312h.1463l.1466-.0309.195-.0308.3416-.0618.2925-.0621.1465-.0309.1948-.0309.2928-.0618.2925-.0309.1463-.0309.195-.0309.5854-.1236.2925-.0621" stroke="#5b835b" stroke-dasharray="10.6677 1.06667 10.6677 1.06667" stroke-width="1.0667"/><g stroke-width="2"><path d="m50.770181 224.50791h2.146c9.997-.1341 20-.0913 30-.2166h1.707m301.699999-206.400004v-4.639m-.1145 5.133.1145-.4947m-.3594 1.578.2444-1.083m-11.22 42.38.0488-.2166.0975-.2165.049-.1857.0488-.2166.0488-.2474.0975-.2784.1462-.557.1466-.5255.1947-.5262.1463-.5567.0978-.2783.0488-.2475.0977-.4331.0973-.2166.0487-.2166.1466-.5258.1947-.5258.2928-1.083.146-.5567.0978-.2786.0488-.2472.0978-.4331.0975-.1857.0487-.2166.0485-.2474.0978-.2784.1463-.5567.2925-1.052.1466-.5258.195-.5567.146-.557.0978-.2784.0487-.2475.0978-.4331.0485-.1854.049-.2165.0485-.2478.0975-.2781.1466-.557.2925-1.052.2928-1.083.146-.5567.0975-.2784.0491-.2474.0975-.4332.0978-.1856.0481-.2166.0491-.2475.0975-.2783.1463-.557.2925-1.083.2443-1.052.2926-1.083.2925-1.052.195-.866.0488-.2477.0972-.2784.1466-.5567.244-1.052.2926-1.082.2925-1.052.2441-1.083.1462-.5567.1463-.5261.1463-.5259.0975-.5258.195-.866.0491-.2477.0975-.2784.1462-.5567.2438-1.052.1463-.5567.1465-.5258.2438-1.052.2441-1.083.2435-1.083.2925-1.052m-281.5 204.600004 1.414-.0309c7.381-.0949 14.81-.2341 22.19-.3713l1.317-.0309 1.268-.0312c4.458-.0564 8.905-.2324 13.36-.309l1.804-.062 1.756-.0618c2.568-.0117 5.143-.218 7.706-.2475l2.78-.1239 1.366-.0618 1.317-.0309 1.268-.062 1.22-.0618 2.341-.1236 2.292-.0927 2.195-.093 2.049-.1236 2-.1239 1.902-.0929 1.854-.0927 1.756-.1236 1.707-.1236 1.658-.093.7807-.0618c1.439-.0623 3.072-.2097 4.536-.3095l.8291-.0618.9267-.0618c2.046-.1743 4.102-.3101 6.145-.4949l.8294-.0621.7317-.0618.6828-.0618.5851-.0621.5853-.0309 1.024-.1236 1.073-.0927.5366-.0618.5366-.0309.9754-.1238 1.024-.093.585-.0618.5854-.0618.6828-.0621c1.499-.2338 2.957-.301 4.438-.5255l.6341-.0621.5363-.0618c.805-.1329 1.633-.1772 2.439-.3095l.4879-.0618.5366-.0618c1.214-.1914 2.544-.3093 3.756-.495l.5366-.0618.4388-.062c.7016-.0967 1.401-.1942 2.097-.309l.3903-.0621.4875-.0618.4879-.093 1.122-.1856 1.073-.1545.5366-.093.4391-.0618.39-.0618.3413-.0618 1.171-.1857.6832-.1238.39-.0618.4878-.0927.9267-.1857.9751-.1545.4394-.093.39-.0617.3413-.0618.2926-.0621.5365-.0927.4879-.0621.2435-.0618.3418-.0618.7314-.1548.8291-.1544.8294-.1857.8292-.1548 1.512-.3401 1.512-.3093.7313-.1548.7807-.1856.7316-.1548.6341-.1545.2926-.0618.195-.0618.4391-.093.39-.0927.4879-.1238.5853-.1548 1.366-.3093.6339-.1545 1.219-.3095 1.219-.3402 2.341-.6497 2.244-.6497 2.146-.6185 2.049-.6497 1.951-.6497.9751-.3401.9266-.3096 1.805-.6185 1.756-.6497 1.707-.6494 1.658-.6497 2.341-.9281.7806-.3401.7314-.3405.7316-.3092.7316-.3405.7316-.3092.6829-.3093.2925-.1548.3904-.1856.4388-.1854.4875-.2475.4391-.2166.4388-.1856.3419-.1857.3413-.1545.6338-.3095.6831-.3402.6336-.3092.5853-.3096.2926-.1239.3418-.1853.3901-.2166.4388-.2166.7804-.4328.3418-.1857.2926-.1548.5363-.3095 1.17-.6494.5366-.3093.2925-.1239.2929-.1856.3412-.2166.7804-.4329.3416-.2165.5363-.3405.2441-.1236.2925-.1856 1.366-.8663.2929-.1857.2435-.1236 1.22-.7732.2435-.1857.2925-.2166.3901-.2165.3418-.2166.2926-.2166.4878-.3092.195-.1548.2438-.1545.5854-.4331.3413-.2166.2925-.2166.2441-.1856.2437-.1545.4388-.3096.4391-.3092.1953-.1545.2435-.1857.2929-.1857.2925-.2474.2925-.2166.2928-.1857.2438-.1856.1953-.1236.1953-.1548.2435-.1854.2438-.2165.2928-.2166.5366-.4331.8779-.6497.2438-.1854.1953-.1857.1948-.1239.1953-.1547.1953-.1854.2435-.2166.5853-.4331.2438-.2166.1953-.1854.195-.1548.195-.1238.1951-.1857.2438-.1854.244-.2474.2438-.2166.2438-.1857.1953-.1857.1953-.1235.1947-.1548.1953-.1857.9752-.8663.4878-.4328.4388-.4022.1953-.1857.1466-.1236.1947-.1548.1953-.1856.1953-.1857.2435-.2475.4879-.4328.439-.4332.2435-.2474.1953-.1857.1948-.1548.2928-.3092.195-.1545.1953-.1857.2438-.2477.4388-.4329.4394-.4331.2435-.2475.1953-.1856.1463-.1545.1953-.1548.2925-.3093.195-.1856.195-.2475.4388-.4331.8295-.866.4388-.4334.195-.2472.1953-.1857.5854-.6188.1947-.1854.1953-.2477.39-.4329.7804-.8662.3901-.4332.3903-.4019.1466-.1857.1462-.1239.0975-.1547.1463-.1857.1463-.2163.5853-.6497.7316-.8354.7314-.8659.7319-.8663.3413-.4329.3413-.4022.244-.3093.1466-.1547.146-.1857.6828-.8663.6341-.866.6829-.8353.6826-.866.6341-.8663.6344-.8351.6335-.8662.6344-.866.5854-.8354.2925-.4331.3413-.4329.5854-.8662.5853-.8351.5851-.8663.5854-.8663.5365-.835.5854-.8663.5851-.8663.5363-.8351.5369-.8662.5363-.866.5366-.8354.5363-.8663.5366-.8659.4878-.8663.5364-.8351.4878-.8663.1465-.2474.146-.2784.1951-.2784.1465-.2474.4879-.8663.4878-.866.4873-.8662.4878-.8351.4388-.8663.4879-.8663.1465-.2474.2925-.5567.1463-.2475.2441-.4331.195-.4332.4876-.8662.4388-.8351.1953-.4332.2437-.4331.1463-.2475.2926-.5567.1465-.2475.2438-.4331.195-.4331.4391-.866.3903-.8663.1463-.2474.0975-.2784.1463-.2784.1462-.2474.2438-.4332.1953-.4331.4388-.8351.1953-.4025.0973-.2163.0975-.2475.1465-.2474.0978-.3093.146-.2786.1466-.2475.195-.4328.195-.4023.1953-.4022.0975-.2166.0973-.2474.1462-.2475.0978-.3093.1466-.2786.1459-.2472.1951-.4331.195-.4023.1953-.4022.0975-.2166.0972-.2471.0978-.2475.1466-.3096.1463-.2783.0972-.2475.1953-.4331.1947-.402.1953-.4022.0976-.2166.0977-.2474.0973-.2475.0975-.3093.1465-.2786.0978-.2475.1948-.4328.1953-.4023.1953-.4022.0972-.2166.0975-.2474.0978-.2472.0975-.3095.146-.2787.0975-.2472.1953-.4331.0973-.1857.0978-.2163.0975-.2477.0975-.2784.1463-.3092.0977-.2475.0976-.2477.0975-.2163.195-.4023.1463-.4022.1953-.4329.0972-.2477.0975-.2781.1466-.3095.0978-.2475.0975-.2166.0484-.2165.1951-.4332.0978-.2471.0972-.2787.1465-.2783.0976-.2475.0977-.2166.0485-.2165.195-.4329.0976-.2477.0978-.2784.1465-.2784.0972-.2474.1953-.4332.1463-.4331.1463-.4328.195-.4332.0978-.2477.0972-.2781.1463-.2787.0975-.2474.195-.432904.0491-.2165.0975-.2169.0975-.2472.0978-.3095.0972-.2784.0975-.2472.0978-.2168.0485-.2166.0978-.1856.0972-.2163.0975-.2475.0978-.2786.0975-.309.0975-.2478.0976-.2165.0487-.2166.1953-.4328.0975-.2478.1951-.5567.0975-.2475.0978-.2165.0484-.2163.1951-.4334.0975-.2472.1953-.557.0972-.2472.0978-.2169.0975-.4331.0975-.2163.0978-.2474.0972-.3096.0976-.2784.0978-.2474.0975-.2166.049-.2166.0972-.1853.0975-.2166.0978-.2478.2926-.835.195-.5568.0488-.2786.0975-.2472.0975-.2166.0487-.2165.0978-.1857.0975-.2166.0976-.2474.0977-.2784.0482-.3092.0978-.2475.0975-.2169.0976-.4328.0978-.2166.0972-.2474.1953-.5568.0975-.2477.0972-.2163.0978-.4331.0975-.2166.3901-1.052.1953-.557.049-.2783.0973-.2475.0975-.2166.0978-.4328.0975-.2169.0975-.2474.0485-.2784.0975-.2783.0978-.2475.0975-.2166.0975-.4331.0975-.2166.0975-.2474.2928-.8351.1951-.5261.1465-.5256.0975-.2168.0972-.4329.0978-.2166.1463-.5261.1948-.5258.1953-.5567.049-.2784.0975-.2474.0972-.4332.0978-.2165.0485-.2166.1466-.5258.195-.5259.1953-.557.0485-.278.0978-.2478.0972-.2166.0975-.4328.0978-.2166.1465-.5258.1948-.5261.1462-.5567.0978-.2787.0488-.2472.0485-.2165.0975-.2166.049-.2166.0975-.2165.1463-.5259.195-.5258.1466-.5567.0975-.2787.0487-.2474.0491-.2166.0972-.2163.0488-.1856.0975-.2169.049-.2472.0975-.2783.146-.557.1953-.5568.0488-.2783.0978-.2475m-290.299999 163.500004h1.609c5.609-.0711 11.22-.1185 16.829999-.1854l1.366-.0309" stroke="#b1c900" stroke-dasharray="9.9992 1.9998 9.9992 1.9998"/><path d="m289.08018 19.277906.1459-.7115c.0562-.2166.1109-.4329.1644-.6495l18.64-4.622m-257.299999 209.900004 2.146-.0927c10-.4762 20.01-.8513 30-1.392l1.707-.0927 1.609-.093c5.646-.3197 11.23-.7393 16.829999-1.299l1.366-.1545 1.414-.1547c7.426-.8048 14.85-1.704 22.19-2.784l1.317-.1857 1.268-.1854c4.548-.7441 8.91-1.531 13.36-2.506l1.804-.4023 1.756-.4022c2.606-.5672 5.188-1.24 7.706-1.949l2.78-.7733 1.366-.4023 1.317-.371 1.268-.4022 3.561-1.176 2.292-.7733 2.195-.7733 2.049-.7735 2-.7733 1.902-.7736 1.854-.7733 1.756-.7733 1.707-.8042 1.658-.7733.7807-.3713c1.624-.7376 3.003-1.499 4.536-2.289l.8291-.4637.9267-.5261c2.114-1.15 4.096-2.394 6.145-3.588l1.561-.9902c1.214-.7387 2.279-1.502 3.414-2.289l.5363-.3714.5366-.371c1.086-.7393 2.108-1.511 3.122-2.289l.5854-.464.6828-.5258c1.489-1.202 2.975-2.405 4.438-3.619l.6341-.5258.5363-.4644c.9283-.7211 1.583-1.44 2.439-2.165l.4879-.4643.5366-.5258c1.361-1.16 2.458-2.432 3.756-3.619l.5366-.5258.4388-.464c.7404-.7172 1.363-1.477 2.097-2.196l.3903-.464.4875-.5259c1.066-1.192 2.105-2.452 3.219-3.619l.4391-.5261.39-.4637c.6296-.7311 1.216-1.467 1.853-2.196l.3419-.4643.39-.5258c.9862-1.157 1.835-2.437 2.829-3.619l.39-.5258.3413-.4641c.5414-.7378 1.101-1.404 1.56-2.165l.3418-.464.3413-.4949c.8348-1.194 1.655-2.393 2.487-3.588l.3906-.5879 1.512-2.351 1.512-2.32.39-.5877c.6392-1.216 1.512-2.369 2.195-3.588l.2928-.4952.2926-.4641c.3875-.7171.8503-1.48 1.268-2.196l.2441-.4643.2925-.4949c.6114-1.204 1.424-2.366 1.951-3.588l.3413-.5876 1.219-2.351 1.219-2.32 2.341-4.671 2.244-4.671 2.146-4.671 2.049-4.671 1.951-4.671.9751-2.351.9266-2.32 1.805-4.671004 1.756-4.671 1.707-4.671 1.658-4.671.7807-2.351.7804-2.32 1.561-4.64.7314-2.32 1.463-4.702.7316-2.32.1953-.5879c.3479-1.152.6378-2.287.9754-3.434l.1951-.6497.195-.7115c.5664-1.617.8705-3.216 1.414-4.826l.1947-.7112.1953-.65c.3169-1.122.5942-2.338.9754-3.434l.1463-.5879.6831-2.351.6336-2.32.1465-.5876c.332-1.14.5658-2.305.9267-3.434l.1465-.6497.1951-.7115c.3931-1.604.8421-3.187 1.219-4.795l.1951-.7112.1465-.6497c.3901-1.134.5593-2.292.8779-3.434l.1463-.5879 1.17-4.671.1465-.5876c.292-1.143.5415-2.29.8289-3.434l.1466-.6497" stroke="#e30079" stroke-dasharray="9.9992 1.9998 9.9992 1.9998"/><path d="m270.98018 20.387906.5729-2.475-1.389-4.622m-219.399999 209.200004 2.146-.1236c9.998-.6829 20.01-1.194 30-1.949l1.707-.1548 1.609-.1236c5.79-.4873 11.13-1.072 16.829999-1.918l1.366-.2166 1.414-.2165c7.462-1.18 14.89-2.451 22.19-3.991l1.317-.2784 1.268-.2784c4.622-1.018 8.972-2.282 13.36-3.65l1.804-.5568 1.756-.557c2.748-.8722 5.106-1.799 7.706-2.815l2.78-1.114 1.366-.5567 1.317-.5568 1.268-.5882 1.22-.5567 2.341-1.145 2.292-1.114 2.195-1.114 2.049-1.145 2-1.114 1.902-1.114 1.854-1.113 1.756-1.145 1.707-1.114 1.658-1.114.7807-.557c1.686-1.081 2.996-2.124 4.536-3.248l.8291-.6803.4391-.3713c2.477-1.942 4.728-3.995 7.072-6.001l.39-.3713.7317-.6803c1.193-1.023 2.32-2.182 3.414-3.248l.5363-.5568.5366-.557c1.115-1.055 2.079-2.166 3.122-3.248l.5854-.6806.3413-.3713c1.722-1.994 3.438-3.993 5.121-6.001l.2929-.3713.2925-.3405c1.004-1.274 1.966-2.517 2.926-3.805l.2438-.3402.244-.371c1.553-1.954 2.848-4.029 4.341-6.002l.2441-.3711.2435-.3404c.8424-1.278 1.66-2.554 2.488-3.836l.195-.3404.2438-.3711c1.234-1.984 2.418-4.002 3.707-5.97l.1951-.3714.195-.3401c.739-1.259 1.53-2.565 2.195-3.836l.1954-.3402.1947-.3713c1.095-1.985 2.14-3.982 3.219-5.97l.1953-.371.195-.3405c.622-1.282 1.288-2.555 1.902-3.836l.1465-.3405.3413-.7424c.8609-1.691 1.628-3.417 2.487-5.104l.3906-.866 3.024-6.744.39-.8663c.6616-1.716 1.484-3.42 2.195-5.135l.2928-.7424.146-.3405c.4952-1.268 1.068-2.53 1.512-3.805l.1466-.3405.2925-.7424c.6429-1.713004 1.404-3.408004 1.951-5.135004l.3413-.8663 2.439-6.744 2.341-6.744 2.244-6.713 2.146-6.744 2.049-6.744 1.951-6.744.9751-3.372.9266-3.372 1.805-6.713 1.756-6.744 1.707-6.744 1.658-6.744" stroke="#102a83" stroke-dasharray="9.9992 1.9998 1.9998 1.9998"/></g><path d="m50.77 224.81 2.146-.1857c10-.8898 20.07-1.514 30-2.722l1.707-.2163m128.4-203.7-18.64-4.622m17.32 11.61.1462-.7424c.4017-2.083.7915-4.165 1.169-6.248m-128.4 203.7 1.609-.2169c6.183-.8529 11.19-1.688 16.83-3.619l1.366-.4329 1.414-.4952c7.825-2.712 15.27-5.867 22.19-9.435l1.317-.7424 1.268-.7424c5.046-2.976 9.512-6.542 13.36-10.15l1.804-1.639 1.756-1.67c2.898-2.789 5.274-5.646 7.706-8.6l2.78-3.557 1.366-1.794 1.317-1.825 1.268-1.825 1.22-1.856 2.341-3.743 2.292-3.774 2.195-3.836 2.049-3.898 2-3.929 1.902-3.991 1.854-4.022 1.756-4.052 1.707-4.114 1.658-4.145.3901-1.021c1.958-4.839 3.716-9.71 5.317-14.6l.4388-1.33.2438-.6806c2.599-8.323 5.092-16.64 7.462-24.99l.1953-.7118.3901-1.361c1.418-5.209 2.803-10.42 3.999-15.65l.2925-1.145.2928-1.144c1.278-5.336 2.51-10.68 3.658-16.02l.2926-1.423.1462-.7424c1.915-9 3.706-18.02 5.463-27.04l.1463-.7736" stroke="#5aa16e" stroke-dasharray="10.6677 1.06667 10.6677 1.06667" stroke-width="1.0667"/><path d="m50.770181 224.80791 2.146-.0927c9.997-.4456 20.02-.688 30-1.33l1.707-.1238m338.299999-15.59h6.465m-12.76.3093h.1463l.0485-.0309h.5369l.0484-.0312h.6829l.0487-.0309h.5366l.0488-.0309h.7313l.0491-.0309h.6341l.0487-.0309h.6832l.0482-.0309h.4878l.0491-.0309h.6828l.0488-.0309h.6338l.0978-.0309m-48.33 2.227h.3412l.1463-.0309h.7316l.1463-.0309h.3903l.1466-.0309h.4875l.146-.0312h.6832l.1465-.0309h.4876l.146-.0309h.3418l.146-.0308h.7319l.146-.0309h.39l.1466-.0309h.6831l.146-.0312h.4391l.0975-.0309h.6341l.1466-.0309h.4385l.0975-.0309h.6829l.0978-.0309h.39l.0973-.0309h.6831l.0975-.0309h.6826l.1466-.0309h.3412l.0976-.0309h.6344l.0972-.0309h.6341l.0975-.0309h.3903l.0975-.0309h.6342l.0975-.0312h.6341l.1465-.0309h.5361l.0975-.0309h.5853l.0978-.0309h.5851l.0975-.0309h.5854l.1465-.0309h.536l.0978-.0311h.5854l.0975-.0309h.5363l.0978-.0309h.5363l.0975-.0309h.5854l.0975-.0309h.4876l.0978-.0309h.7801l.0978-.0312h.4875l.0978-.0309h.5366l.0975-.0309h.4879l.0972-.0309h.7316l.0975-.0309h.4876l.0978-.0309h.6828l.0973-.0309h.4878l.0975-.0309h.6832l.0972-.0309h.4878l.0488-.0312h.6831l.0976-.0309h.4878l.0482-.0309h.6344l.0975-.0309h.6829l.0484-.0309h.6344l.0975-.0309h.4388l.0978-.0309h.6339l.0487-.0309h.6344l.0482-.0309h.6344l.0975-.0311h.5854l.0978-.0309h.585l.0485-.0309h.5854l.0978-.0309h.585l.0488-.0309h.5853l.0488-.0309h.6344l.0482-.0312h.6831l.0975-.0309h.5851l.0975-.0309h.4879l.049-.0309h.5854l.0481-.0309h.5854m-331.999999 15.28 1.609-.0618c5.594-.3079 11.23-.5125 16.829999-.8045l1.366-.0618 1.414-.0618c7.397-.3444 14.79-.7001 22.19-1.021l1.317-.0618 1.268-.0618c4.452-.1851 8.914-.415 13.36-.5879l1.804-.0927 1.756-.093c2.544-.1148 5.174-.2154 7.706-.371l2.78-.1236 1.366-.0621 1.317-.0618 1.268-.0618 1.22-.0309 2.341-.1239 2.292-.0927 2.195-.0929 2.049-.0927 2-.0927 1.902-.093 1.854-.0927 1.756-.093 1.707-.0618 1.658-.0927.7807-.0311c1.517-.0618 3.003-.1803 4.536-.2163l.8291-.0309.9267-.0309c2.023-.1347 4.134-.1522 6.145-.2787l.8294-.0309.7317-.0309.6828-.0309 1.17-.0618 1.024-.0311 2.146-.1236.9754-.0309 1.024-.0618 1.17-.0618.6828-.0309c1.479-.0692 2.96-.1145 4.438-.1857l.6341-.0309.5363-.0312c.8226.0176 1.552-.1278 2.439-.0927l.4879-.0309.5366-.0309c1.252-.0623 2.504-.1193 3.756-.1856l.5366-.0312.4388-.0309c.699-.0003 1.395-.074 2.097-.0618l.3903-.0309.4875-.0309h.4879l1.122-.0618 1.073-.0618h.5366l.4391-.0309.39-.0309h.3413l.5853-.0312.5854-.0309h.3413l.3419-.0309.39-.0309h.4878l.9267-.0617.9751-.0312h.4394l.39-.0309.3413-.0309h.2926l.5365-.0309.4879-.0309h.2435l.3418-.0309.7314-.0312.8291-.0618 1.659-.0618 3.024-.1236.7313-.0309.7807-.0309.7316-.0309.6341-.0312h.2926l.195-.0309.4391-.0308h.39l.2438-.0309h.2441l.5853-.0309 1.366-.0621.6339-.0309 1.219-.0618 1.219-.0309 1.17-.0621 1.171-.0618 2.244-.0927 2.146-.093 2.049-.1235 2.926-.0927.9266-.0618 1.805-.093 1.756-.0927 1.707-.0621.8288-.0618.8291-.0309 1.561-.0621 1.561-.0618 2.926-.1235.3413-.0309.3416-.0309h.2925l.3904-.0309.4388-.0309h.4875l.4391-.0309h.7807l.3413-.0312.6338-.0309.6831-.0309.6336-.0309.5853-.0309.2926-.0309h.7319l.4388-.0312.3903-.0309h.7319l.2926-.0309.5363-.0309 1.17-.0618.5366-.0311.2925-.0309h.2929l.3412-.0309h.3901l.3903-.0309h.6341l.2438-.0309h.8779l.3416-.0309h.3413l.3415-.0312.2929-.0309h.2435l.9754-.0618h.7803l.3901-.0309h.3418l.2926-.0309.2435-.0309h.2443l.195-.0309h.5364l.2928-.0309h.6338l.4878-.0309.8779-.0618h.7317l.2925-.0312.2925-.0309h.5366l.1953-.0309h.4388l1.073-.0618.5851-.0309h.7319l.3901-.062h.4388l.2925-.0309h.9269l.195-.0309h.1951l.9754-.0618.3906-.0312h.8779l.4873-.0309.4878-.0309.4388-.0309.3419-.0309h.8288l.4879-.0309.8778-.0618.3413-.0309h.3413l.4391-.0309h.4388l.4394-.0309h.5851l.1953-.0309h.6825l.4388-.0312.8295-.0618.4388-.0309h.5368l.146-.0309h.2929l.39-.0309h.39l.7804-.0311.3901-.0309h.5369l.1462-.0309h.2438l.3416-.0309h.39l2.195-.093.3413-.0309h.3413l.244-.0309h.2926l.3413-.0309h.3415l.6341-.0309 1.366-.0621 2.536-.1236.5854-.0309.2925-.0309h.3413l.5854-.0309h.5853l1.17-.0618.5365-.0309.5854-.0308.5851-.0312.5363-.0309h.5369l2.146-.1236h.4878l.5364-.0312.244-.0309h.2438l.2925-.0309h.8295l1.463-.0927h.4388l.4879-.0312.2928-.0309h.2925l.2441-.0309h.6826l.4388-.0309.1953-.0309h1.073l.195-.0309.4391-.0309h.6341l.2925-.0309.2438-.0308h.8294l.1948-.0309.2443-.0309h.8779l.1948-.0309.244-.0312h.8779l.1947-.0309.2444-.0309h.6335l.1953-.0309h.6344l.7801-.0618h.4388l.3904-.0312.195-.0309h.6341l.1463-.0309h.6344l.1459-.0309h.7804l.195-.0309.1954-.0309h.5853l.1463-.0312h.6338l.195-.0309h.5366l.1463-.0309h.5853l.3416-.0309.3901-.0309h.3413l.1953-.0309h.4875l.195-.0311h.5366l.1954-.0309h.5363l.1462-.0309h.5366l.1466-.0309h.5363l.1463-.0309h.5363l.1953-.0309h.4391l.146-.0309h.4878l.195-.0309h.5369l.146-.0309h.4876l.1953-.0309h.39l.1466-.0309h.8291l.1465-.0309h.4876l.146-.0312h.4878l.1466-.0309h.4388l.1465-.0309h.146" stroke="#525266" stroke-dasharray="10.6677 1.06667 10.6677 1.06667" stroke-width="1.0667"/><path d="m222.88018 25.827906.0975-.6494c.4431-2.421.8705-4.845 1.29-7.27l7.98-4.622m-181.499999 211.500004 2.146-.0927c9.993-.4505 20-.9522 30-1.361l1.707-.0929 1.609-.1239c5.864-.4102 11.18-.9227 16.829999-2.073l1.366-.2781 1.414-.3095c7.611-1.641 15.11-3.544 22.19-5.97l1.317-.4641 1.268-.464c4.92-1.933 9.272-4.205 13.36-6.805l1.804-1.114 1.756-1.145c2.888-1.884 5.197-3.866 7.706-5.939l2.78-2.506 1.366-1.268 1.317-1.299 1.268-1.299 1.22-1.299 2.341-2.692 2.292-2.722 2.195-2.753 2.049-2.815 2-2.846 1.902-2.908 1.854-2.939 1.756-3.001 1.707-3.032 1.658-3.062.3901-.7733c1.971-3.569 3.727-7.184 5.317-10.83l.4388-.9899.4391-1.052c2.537-5.865 4.775-11.79 7.072-17.69l.39-1.082.3901-1.021c1.412-3.949 2.817-7.899 3.999-11.88l.2925-.866.2928-.8663c1.284-4.066 2.499-8.139 3.658-12.22l.2926-1.113.3413-1.176c1.732-6.518004 3.466-13.020004 5.121-19.550004l.2929-1.206.2925-1.114c1.047-4.26 1.997-8.505 2.926-12.78l.2438-1.145.244-1.237c1.547-6.868 2.87-13.76 4.341-20.63l.2441-1.268.2435-1.176c.8867-4.659 1.767-9.318 2.585-13.98l.0978-.6188" stroke="#a4027c" stroke-dasharray="10.6707 1.06697 10.6707 1.06697" stroke-width="1.067"/></g><g fill="#525266" transform="translate(4.9967 2.4421)"><path d="m428.54425 205.24359v4.1792h-.79102v-4.1792h-.66796v-.57568h.66796v-.53614q0-.65039.28565-.93603.28564-.28565.87451-.28565.32959 0 .55811.0527v.60205q-.19776-.0352-.35157-.0352-.30322 0-.43945.15381-.13623.15381-.13623.55811v.42627h.92725v.57568z"/><path d="m430.02 206.95525q0-1.27.39551-2.2808.3999-1.0107 1.2261-1.9028h.76465q-.82178.91406-1.2085 1.9424-.38232 1.0283-.38232 2.25 0 1.2173.37793 2.2412.38232 1.0239 1.2129 1.9512h-.76465q-.83057-.89648-1.2261-1.9072-.39551-1.0151-.39551-2.2764z"/><path d="m436.63019 208.02094q0 .67236-.50977 1.0371-.50537.36475-1.41943.36475-.8877 0-1.37109-.29004-.47901-.29443-.62403-.91406l.69873-.13623q.10108.38232.41748.5625.31641.17578.87891.17578.60205 0 .87891-.18457.28125-.18457.28125-.55371 0-.28125-.19336-.45703-.19336-.17578-.62403-.29004l-.56689-.14942q-.68115-.17578-.97119-.34277-.28565-.17139-.44825-.41309-.16259-.24169-.16259-.59326 0-.65039.46142-.98877.46582-.34277 1.35352-.34277.78662 0 1.24804.27686.46583.27685.58887.88769l-.71191.0879q-.0659-.3164-.35596-.4834-.28564-.17138-.76904-.17138-.53613 0-.79102.16259-.25488.1626-.25488.49219 0 .20215.10547.33399.10547.13183.31201.22412.20654.0923.87012.25488.62842.1582.90527.29443.27686.13184.43506.29444.1626.16259.25049.37793.0879.21093.0879.4834z"/><path d="m439.39 206.97285q0 1.27-.3999 2.2808-.39551 1.0107-1.2217 1.9028h-.76465q.82617-.92285 1.2085-1.9424.38233-1.0239.38233-2.25 0-1.2261-.38672-2.25-.38232-1.0239-1.2041-1.9424h.76465q.83056.89648 1.2261 1.9116.39551 1.0107.39551 2.272z"/><path d="m440.39 206.16424v-.65039h4.3726v.65039zm0 2.25v-.65039h4.3726v.65039z"/><path d="m449.38312 208.02094q0 .67236-.50977 1.0371-.50537.36475-1.41943.36475-.8877 0-1.3711-.29004-.479-.29443-.62402-.91406l.69873-.13623q.10108.38232.41748.5625.31641.17578.87891.17578.60205 0 .8789-.18457.28125-.18457.28125-.55371 0-.28125-.19335-.45703-.19336-.17578-.62403-.29004l-.56689-.14942q-.68115-.17578-.97119-.34277-.28565-.17139-.44825-.41309-.16259-.24169-.16259-.59326 0-.65039.46142-.98877.46582-.34277 1.35352-.34277.78662 0 1.24804.27686.46582.27685.58887.88769l-.71191.0879q-.0659-.3164-.35596-.4834-.28564-.17138-.76904-.17138-.53614 0-.79102.16259-.25488.1626-.25488.49219 0 .20215.10547.33399.10547.13183.31201.22412.20654.0923.87012.25488.62841.1582.90527.29443.27686.13184.43506.29444.1626.16259.25049.37793.0879.21093.0879.4834z"/></g><g fill="none" stroke="#000" stroke-width=".9998" transform="translate(.58717 .44439)"><path d="m354.69 225.97v-1.64"/><path d="m84.013 225.97v-1.64"/><path d="m151.69 225.97v-1.64"/><path d="m320.89 225.97v-1.64"/><path d="m286.99 225.97v-1.64"/><path d="m253.19 225.97v-1.64"/><path d="m219.39 225.97v-1.64"/><path d="m422.39 225.97v-1.64"/></g><g font-family="'DejaVu Sans'" transform="translate(.58717 .44439)"><text x="12.959319" y="222.80783"><tspan font-family="'DejaVu Sans'" font-size="10">10</tspan></text><text x="27.163897" y="217.60783"><tspan font-family="'DejaVu Sans'" font-size="10">100</tspan></text><text x=".234709" y="212.40784"><tspan font-family="'DejaVu Sans'" font-size="10">1000</tspan></text><text x="3.584796" y="196.99573"><tspan font-family="'DejaVu Sans'" font-size="10">1 million</tspan></text><text x="6.97835" y="181.49573"><tspan font-family="'DejaVu Sans'" font-size="10">1 billion</tspan></text><text x="5.29378" y="165.99573"><tspan font-family="'DejaVu Sans'" font-size="10">1 trillion</tspan></text><text x="246.76186" y="238.63362"><tspan font-family="'DejaVu Sans'" font-size="10">64</tspan></text><text x="277.24155" y="238.63362"><tspan font-family="'DejaVu Sans'" font-size="10">128</tspan></text><text x="178.89584" y="238.63362"><tspan font-family="'DejaVu Sans'" font-size="10">16</tspan></text><text x="213.14984" y="238.63875"><tspan font-family="'DejaVu Sans'" font-size="10">32</tspan></text><text x="311.29779" y="238.63362"><tspan font-family="'DejaVu Sans'" font-size="10">256</tspan></text><text x="345.26382" y="238.63362"><tspan font-family="'DejaVu Sans'" font-size="10">512</tspan></text><text x="375.49936" y="238.63362"><tspan font-family="'DejaVu Sans'" font-size="10">1024</tspan></text><text x="409.64349" y="238.63362"><tspan font-family="'DejaVu Sans'" font-size="10">2048</tspan></text></g><g fill="none" stroke="#000" stroke-width=".9998" transform="translate(.58717 .44439)"><path d="m50.183 17.464h-2.585"/><path d="m50.183 43.334h-2.585"/><path d="m50.183 69.174h-2.585"/><path d="m50.183 95.034h-2.585"/><path d="m50.183 120.87h-2.585"/><path d="m50.183 146.77h-2.585"/><path d="m50.183 162.27h-2.585"/><path d="m50.183 177.77h-2.585"/><path d="m50.183 193.27h-2.585"/><path d="m50.183 208.77h-21.92"/><path d="m50.183 213.97h-2.585"/><path d="m50.183 219.17h-21.92"/></g><text font-family="'DejaVu Sans'" x="431.26456" y="170.53481"><tspan font-family="'DejaVu Sans'" font-size="9">ms per day</tspan></text><text font-family="'DejaVu Sans'" font-size="13.067" x="54.284531" y="32.661079"><tspan font-family="'DejaVu Sans'" font-size="13.333">f(s)</tspan></text><text x="205.92331" y="9.266789"><tspan x="205.92331" y="44.65741"/></text><g fill="#5b835b" transform="translate(4.9967 2.4421)"><path d="m428.54425 153.89252v4.1792h-.79102v-4.1792h-.66796v-.57569h.66796v-.53613q0-.65039.28565-.93604.28564-.28564.87451-.28564.32959 0 .55811.0527v.60206q-.19776-.0352-.35157-.0352-.30322 0-.43945.15381-.13623.15381-.13623.5581v.42627h.92725v.57569z"/><path d="m430.02 155.60418q0-1.27.39551-2.2808.3999-1.0107 1.2261-1.9028h.76465q-.82178.91406-1.2085 1.9424-.38232 1.0283-.38232 2.25 0 1.2173.37793 2.2412.38232 1.0239 1.2129 1.9512h-.76465q-.83057-.89649-1.2261-1.9072-.39551-1.0151-.39551-2.2764z"/><path d="m436.63019 156.66986q0 .67236-.50977 1.03711-.50537.36475-1.41943.36475-.8877 0-1.37109-.29004-.47901-.29444-.62403-.91407l.69873-.13623q.10108.38233.41748.5625.31641.17579.87891.17579.60205 0 .87891-.18457.28125-.18458.28125-.55372 0-.28125-.19336-.45703-.19336-.17578-.62403-.29004l-.56689-.14941q-.68115-.17578-.97119-.34277-.28565-.17139-.44825-.41309-.16259-.2417-.16259-.59326 0-.65039.46142-.98877.46582-.34277 1.35352-.34277.78662 0 1.24804.27685.46583.27686.58887.8877l-.71191.0879q-.0659-.31641-.35596-.4834-.28564-.17139-.76904-.17139-.53613 0-.79102.1626-.25488.1626-.25488.49219 0 .20215.10547.33398.10547.13184.31201.22412.20654.0923.87012.25489.62842.1582.90527.29443.27686.13184.43506.29443.1626.1626.25049.37793.0879.21094.0879.4834z"/><path d="m439.39 155.62178q0 1.27-.3999 2.2808-.39551 1.0108-1.2217 1.9028h-.76465q.82617-.92285 1.2085-1.9424.38233-1.0239.38233-2.25 0-1.2261-.38672-2.25-.38232-1.0239-1.2041-1.9424h.76465q.83056.89649 1.2261 1.9116.39551 1.0107.39551 2.272z"/><path d="m440.39 154.81317v-.65039h4.3726v.65039zm0 2.25v-.65039h4.3726v.65039z"/><path d="m449.38312 156.66986q0 .67236-.50977 1.03711-.50537.36475-1.41943.36475-.8877 0-1.3711-.29004-.479-.29444-.62402-.91407l.69873-.13623q.10108.38233.41748.5625.31641.17579.87891.17579.60205 0 .8789-.18457.28125-.18458.28125-.55372 0-.28125-.19335-.45703-.19336-.17578-.62403-.29004l-.56689-.14941q-.68115-.17578-.97119-.34277-.28565-.17139-.44825-.41309-.16259-.2417-.16259-.59326 0-.65039.46142-.98877.46582-.34277 1.35352-.34277.78662 0 1.24804.27685.46582.27686.58887.8877l-.71191.0879q-.0659-.31641-.35596-.4834-.28564-.17139-.76904-.17139-.53614 0-.79102.1626-.25488.1626-.25488.49219 0 .20215.10547.33398.10547.13184.31201.22412.20654.0923.87012.25489.62841.1582.90527.29443.27686.13184.43506.29443.1626.1626.25049.37793.0879.21094.0879.4834z"/><path d="m452.6745 152.36925v1.03846h-.55341v-1.03846h-2.16157v-.45575l2.09972-3.0926h.61526v3.08609h.64456v.46226zm-.55341-2.88751q-.007.0195-.0911.17253-.0846.153-.12696.21486l-1.17519 1.73185-.17579.2409-.0521.0651h1.62118z"/></g><g fill="#483434" transform="translate(4.9967 2.4421)"><path d="m428.54425 188.13681v4.1792h-.79102v-4.1792h-.66796v-.57568h.66796v-.53614q0-.65039.28565-.93603.28564-.28565.87451-.28565.32959 0 .55811.0527v.60205q-.19776-.0352-.35157-.0352-.30322 0-.43945.15381-.13623.15381-.13623.55811v.42627h.92725v.57568z"/><path d="m430.02 189.84847q0-1.27.39551-2.2808.3999-1.0108 1.2261-1.9028h.76465q-.82178.91407-1.2085 1.9424-.38232 1.0283-.38232 2.25 0 1.2173.37793 2.2412.38232 1.0239 1.2129 1.9512h-.76465q-.83057-.89648-1.2261-1.9072-.39551-1.0151-.39551-2.2764z"/><path d="m436.63019 190.91415q0 .67237-.50977 1.03711-.50537.36475-1.41943.36475-.8877 0-1.37109-.29004-.47901-.29443-.62403-.91406l.69873-.13623q.10108.38232.41748.5625.31641.17578.87891.17578.60205 0 .87891-.18457.28125-.18457.28125-.55371 0-.28125-.19336-.45703-.19336-.17579-.62403-.29004l-.56689-.14942q-.68115-.17578-.97119-.34277-.28565-.17139-.44825-.41309-.16259-.2417-.16259-.59326 0-.65039.46142-.98877.46582-.34277 1.35352-.34277.78662 0 1.24804.27685.46583.27686.58887.8877l-.71191.0879q-.0659-.31641-.35596-.4834-.28564-.17138-.76904-.17138-.53613 0-.79102.16259-.25488.1626-.25488.49219 0 .20215.10547.33398.10547.13184.31201.22413.20654.0923.87012.25488.62842.1582.90527.29443.27686.13184.43506.29444.1626.16259.25049.37793.0879.21093.0879.48339z"/><path d="m439.39 189.86607q0 1.27-.3999 2.2808-.39551 1.0107-1.2217 1.9028h-.76465q.82617-.92285 1.2085-1.9424.38233-1.0239.38233-2.25 0-1.2261-.38672-2.25-.38232-1.0239-1.2041-1.9424h.76465q.83056.89649 1.2261 1.9116.39551 1.0107.39551 2.272z"/><path d="m440.39 189.05746v-.65039h4.3726v.65039zm0 2.25v-.65039h4.3726v.65039z"/><path d="m449.38312 190.91415q0 .67237-.50977 1.03711-.50537.36475-1.41943.36475-.8877 0-1.3711-.29004-.479-.29443-.62402-.91406l.69873-.13623q.10108.38232.41748.5625.31641.17578.87891.17578.60205 0 .8789-.18457.28125-.18457.28125-.55371 0-.28125-.19335-.45703-.19336-.17579-.62403-.29004l-.56689-.14942q-.68115-.17578-.97119-.34277-.28565-.17139-.44825-.41309-.16259-.2417-.16259-.59326 0-.65039.46142-.98877.46582-.34277 1.35352-.34277.78662 0 1.24804.27685.46582.27686.58887.8877l-.71191.0879q-.0659-.31641-.35596-.4834-.28564-.17138-.76904-.17138-.53614 0-.79102.16259-.25488.1626-.25488.49219 0 .20215.10547.33398.10547.13184.31201.22413.20654.0923.87012.25488.62841.1582.90527.29443.27686.13184.43506.29444.1626.16259.25049.37793.0879.21093.0879.48339z"/><path d="m450.83051 188.85803v-.41343q.16603-.38088.40367-.67061.2409-.29298.50458-.52737.26369-.23764.52086-.43947.26043-.20183.46877-.40367.20835-.20183.33531-.4232.13021-.22136.13021-.50132 0-.37763-.22136-.58597-.22137-.20834-.61527-.20834-.37437 0-.61852.20508-.2409.20184-.28322.56969l-.59899-.0553q.0651-.55015.46552-.87569.40367-.32554 1.03521-.32554.69339 0 1.06451.32879.37436.32554.37436.92778 0 .26695-.1237.53063-.12045.26369-.36135.52737-.24089.26369-.92127.8171-.37436.306-.59573.55341-.22136.24415-.31902.47203h2.39269v.49807z"/></g><g transform="translate(4.8297 2.4421)"><path d="m428.08 65.278v2.6104h-.81299v-6.7939h.81299v.74707q.25488-.43945.6416-.65039.39112-.21533.93164-.21533.89649 0 1.4546.71191.5625.71191.5625 1.8721 0 1.1602-.5625 1.8721-.5581.71191-1.4546.71191-.54052 0-.93164-.21094-.38672-.21533-.6416-.65479zm2.751-1.7183q0-.89209-.36914-1.3975-.36475-.50977-1.0064-.50977-.64165 0-1.0107.50977-.36475.50537-.36475 1.3975 0 .89213.36475 1.4019.36914.50537 1.0107.50537.64156 0 1.0064-.50537.36914-.50976.36914-1.4019z"/><path d="m433.01 61.094h.8086v4.9219h-.8086zm0-1.916h.8086v1.0239h-.8086z"/><path d="m439.05157 61.283195v.75586q-.34277-.188965-.68994-.28125-.34277-.09668-.69433-.09668-.78662 0-1.22168.500977-.43506.496582-.43506 1.397461 0 .900879.43506 1.401855.43506.496582 1.22168.496582.35156 0 .69433-.09229.34717-.09668.68994-.285645v.747071q-.33837.158203-.70312.237304-.36035.0791-.76904.0791-1.11182 0-1.7666-.69873-.65479-.698731-.65479-1.885254 0-1.204102.65918-1.894043.66357-.689942 1.81494-.689942.37354 0 .72949.0791.35596.07471.68994.228515z"/><path d="m442.37 61.661q-.65039 0-1.0283.50977-.37793.50537-.37793 1.3887 0 .8833.37354 1.3931.37793.50537 1.0327.50537.646 0 1.0239-.50976.37793-.50977.37793-1.3887 0-.87451-.37793-1.3843-.37793-.51416-1.0239-.51416zm0-.68555q1.0547 0 1.6567.68555.602.68555.60205 1.8984 0 1.2085-.60205 1.8984-.60205.68555-1.6567.68555-1.0591 0-1.6611-.68555-.59766-.68994-.59766-1.8984 0-1.2129.59766-1.8984.60205-.68555 1.6611-.68555z"/><path d="m449.10187 61.23925v.764649q-.34278-.175782-.71192-.263672-.36914-.08789-.76464-.08789-.60206 0-.90528.18457-.29883.184571-.29883.553711 0 .28125.21534.443848.21533.158203.86572.303223l.27685.06152q.86133.18457 1.22168.522949.36475.333985.36475.936035 0 .685547-.54492 1.08545-.54053.399902-1.48975.399902-.39551 0-.82617-.0791-.42627-.07471-.90088-.228515v-.834961q.44824.23291.8833.351562.43506.114258.86133.114258.57129 0 .87891-.193359.30761-.197754.30761-.553711 0-.32959-.22412-.505371-.21972-.175781-.97119-.338379l-.28125-.06592q-.75146-.158203-1.08545-.483398-.33398-.32959-.33398-.900879 0-.694336.49218-1.072266.49219-.37793 1.39747-.37793.44824 0 .84375.06592.3955.06592.72949.197754z"/><path d="m454.8631 63.35302v.395508h-3.71778q.0527.83496.50098 1.274414.45264.435058 1.25684.435058.46582 0 .90088-.114258.43945-.114257.87011-.342773v.764648q-.43506.184571-.89209.28125-.45703.09668-.92724.09668-1.17774 0-1.86768-.685547-.68555-.685547-.68555-1.854492 0-1.208496.6504-1.916016.65478-.711914 1.7622-.711914.99317 0 1.56885.641602.58008.637207.58008 1.73584zm-.8086-.237305q-.009-.663574-.37353-1.059082-.36035-.395508-.95801-.395508-.67676 0-1.08545.382324-.40429.382325-.46582 1.076661z"/><path d="m459.73224 61.283195v.75586q-.34277-.188965-.68994-.28125-.34278-.09668-.69434-.09668-.78662 0-1.22168.500977-.43506.496582-.43506 1.397461 0 .900879.43506 1.401855.43506.496582 1.22168.496582.35156 0 .69434-.09229.34717-.09668.68994-.285645v.747071q-.33838.158203-.70313.237304-.36035.0791-.76904.0791-1.11182 0-1.7666-.69873-.65479-.698731-.65479-1.885254 0-1.204102.65918-1.894043.66358-.689942 1.81495-.689942.37353 0 .72949.0791.35595.07471.68994.228515z"/><path d="m463.05 61.661q-.6504 0-1.0283.50977-.37793.50537-.37793 1.3887 0 .8833.37353 1.3931.37793.50537 1.0327.50537.64599 0 1.0239-.50976.37793-.50977.37793-1.3887 0-.87451-.37793-1.3843-.37793-.51416-1.0239-.51416zm0-.68555q1.0547 0 1.6567.68555.602.68555.60205 1.8984 0 1.2085-.60205 1.8984-.60205.68555-1.6567.68555-1.0591 0-1.6611-.68555-.59765-.68994-.59765-1.8984 0-1.2129.59765-1.8984.60205-.68555 1.6611-.68555z"/><path d="m470.74 63.045v2.9707h-.8086v-2.9443q0-.69873-.27246-1.0459-.27246-.34717-.81738-.34717-.65479 0-1.0327.41748-.37793.41748-.37793 1.1382v2.7817h-.81299v-4.9219h.81299v.76465q.29004-.44385.68116-.66357.3955-.21973.90966-.21973.84815 0 1.2832.52734.43506.52295.43506 1.5425z"/><path d="m475.58771 61.841301v-2.663086h.80859v6.837891h-.80859v-.738282q-.25489.439454-.646.654786-.38672.210937-.93164.210937-.89209 0-1.45459-.711914-.5581-.711914-.5581-1.87207 0-1.160157.5581-1.872071.5625-.711914 1.45459-.711914.54492 0 .93164.215332.39111.210938.646.650391zm-2.75537 1.718262q0 .89209.36474 1.401855.36914.505371 1.01074.505371.64161 0 1.01075-.505371.36914-.509765.36914-1.401855 0-.89209-.36914-1.397461-.36914-.509766-1.01075-.509766-.6416 0-1.01074.509766-.36474.505371-.36474 1.397461z"/><path d="m481.19952 61.23925v.764649q-.34277-.175782-.71191-.263672-.36914-.08789-.76465-.08789-.60205 0-.90527.18457-.29883.184571-.29883.553711 0 .28125.21533.443848.21533.158203.86572.303223l.27686.06152q.86133.18457 1.22168.522949.36475.333985.36475.936035 0 .685547-.54493 1.08545-.54052.399902-1.48974.399902-.39551 0-.82617-.0791-.42627-.07471-.90088-.228515v-.834961q.44824.23291.8833.351562.43506.114258.86133.114258.57129 0 .8789-.193359.30762-.197754.30762-.553711 0-.32959-.22412-.505371-.21973-.175781-.97119-.338379l-.28125-.06592q-.75147-.158203-1.08545-.483398-.33399-.32959-.33399-.900879 0-.694336.49219-1.072266.49219-.37793 1.39746-.37793.44824 0 .84375.06592.39551.06592.72949.197754z"/><path d="m430.75031 72.012535v.764649q-.34278-.175782-.71192-.263672-.36914-.08789-.76465-.08789-.60205 0-.90527.18457-.29883.184571-.29883.553711 0 .28125.21533.443848.21534.158203.86573.303223l.27685.06152q.86133.18457 1.22168.522949.36475.333985.36475.936035 0 .685547-.54492 1.08545-.54053.399902-1.48975.399902-.39551 0-.82617-.0791-.42627-.07471-.90088-.228515v-.834961q.44824.23291.8833.351562.43506.114258.86133.114258.57129 0 .8789-.193359.30762-.197754.30762-.553711 0-.32959-.22412-.505371-.21973-.175781-.97119-.338379l-.28125-.06592q-.75147-.158203-1.08545-.483399-.33399-.329589-.33399-.900878 0-.694336.49219-1.072266.49219-.37793 1.39746-.37793.44825 0 .84375.06592.39551.06592.7295.197754z"/><path d="m432.3 71.868h.8086v4.9219h-.8086zm0-1.916h.8086v1.0239h-.8086z"/><path d="m438.89 73.819v2.9707h-.80859v-2.9443q0-.69873-.27246-1.0459-.27246-.34717-.81739-.34717-.65478 0-1.0327.41748-.37793.41748-.37793 1.1382v2.7817h-.81299v-4.9219h.81299v.76465q.29004-.44385.68115-.66357.39551-.21973.90967-.21973.84814 0 1.2832.52734.43506.52295.43506 1.5425z"/><path d="m444.04816 72.05648v.75586q-.34278-.188965-.68994-.28125-.34278-.09668-.69434-.09668-.78662 0-1.22168.500977-.43506.496582-.43506 1.397461 0 .900879.43506 1.401855.43506.496582 1.22168.496582.35156 0 .69434-.09229.34716-.09668.68994-.285645v.747071q-.33838.158203-.70313.237304-.36035.0791-.76904.0791-1.11182 0-1.7666-.69873-.65479-.698731-.65479-1.885254 0-1.204102.65918-1.894043.66358-.689942 1.81494-.689942.37354 0 .7295.0791.35595.07471.68994.228515z"/><path d="m449.66437 74.126305v.395507h-3.71778q.0527.834961.50098 1.274415.45264.435058 1.25684.435058.46582 0 .90088-.114258.43945-.114258.87011-.342773v.764648q-.43506.184571-.89209.28125-.45703.09668-.92724.09668-1.17774 0-1.86768-.685547-.68555-.685547-.68555-1.854492 0-1.208496.65039-1.916016.65479-.711914 1.76221-.711914.99317 0 1.56885.641602.58008.637207.58008 1.73584zm-.8086-.237305q-.009-.663574-.37353-1.059082-.36035-.395508-.95801-.395508-.67676 0-1.08545.382324-.4043.382325-.46582 1.07666z"/><path d="m454.65 70.47v1.3975h1.6655v.62842h-1.6655v2.6719q0 .60205.1626.77344.16699.17139.67236.17139h.83057v.67676h-.83057q-.93603 0-1.292-.34717-.35596-.35156-.35596-1.2744v-2.6719h-.59326v-.62842h.59326v-1.3975z"/><path d="m461.47 73.819v2.9707h-.80859v-2.9443q0-.69873-.27246-1.0459-.27246-.34717-.81738-.34717-.65479 0-1.0327.41748-.37793.41748-.37793 1.1382v2.7817h-.81299v-6.8379h.81299v2.6807q.29004-.44385.68115-.66357.39551-.21973.90967-.21973.84815 0 1.2832.52734.43506.52295.43506 1.5425z"/><path d="m467.29523 74.126305v.395507h-3.71778q.0527.834961.50098 1.274415.45264.435058 1.25684.435058.46582 0 .90088-.114258.43945-.114258.87011-.342773v.764648q-.43506.184571-.89209.28125-.45703.09668-.92724.09668-1.17774 0-1.86768-.685547-.68555-.685547-.68555-1.854492 0-1.208496.65039-1.916016.65479-.711914 1.76221-.711914.99317 0 1.56885.641602.58008.637207.58008 1.73584zm-.8086-.237305q-.009-.663574-.37353-1.059082-.36035-.395508-.95801-.395508-.67676 0-1.08545.382324-.4043.382325-.46582 1.07666z"/><path d="m475.02 74.333q0-.89209-.36914-1.3975-.36475-.50977-1.0064-.50977-.64165 0-1.0107.50977-.36475.50537-.36475 1.3975 0 .89209.36475 1.4019.36914.50537 1.0107.50537.64156 0 1.0064-.50537.36914-.50977.36914-1.4019zm-2.751-1.7183q.25488-.43945.6416-.65039.39112-.21533.93164-.21533.89649 0 1.4546.71191.5625.71191.5625 1.8721 0 1.1602-.5625 1.8721-.5581.71191-1.4546.71191-.54052 0-.93164-.21094-.38672-.21533-.6416-.65478v.73828h-.81299v-6.8379h.81299z"/><path d="m477.2 71.868h.80859v4.9219h-.80859zm0-1.916h.80859v1.0239h-.80859z"/><path d="m482.93536 74.271324q0-.878906-.36474-1.362305-.36035-.483398-1.01514-.483398-.65039 0-1.01514.483398-.36035.483399-.36035 1.362305 0 .874512.36035 1.35791.36475.483399 1.01514.483399.65479 0 1.01514-.483399.36474-.483398.36474-1.35791zm.8086 1.907227q0 1.256836-.55811 1.867676-.5581.615234-1.70947.615234-.42627 0-.8042-.06592-.37793-.06152-.73389-.193359v-.786622q.35596.19336.70313.285645.34717.09229.70752.09229.79541 0 1.19092-.41748.3955-.413086.3955-1.252442v-.399902q-.25048.435059-.6416.650391-.39111.215332-.93603.215332-.90528 0-1.45899-.689942-.55371-.689941-.55371-1.828125 0-1.142578.55371-1.832519.55371-.689942 1.45899-.689942.54492 0 .93603.215332.39112.215332.6416.650391v-.74707h.8086z"/><path d="m491.8 74.333q0-.89209-.36914-1.3975-.36475-.50977-1.0064-.50977-.64165 0-1.0107.50977-.36475.50537-.36475 1.3975 0 .89209.36475 1.4019.36914.50537 1.0107.50537.64156 0 1.0064-.50537.36914-.50977.36914-1.4019zm-2.751-1.7183q.25488-.43945.6416-.65039.39112-.21533.93164-.21533.89649 0 1.4546.71191.5625.71191.5625 1.8721 0 1.1602-.5625 1.8721-.5581.71191-1.4546.71191-.54052 0-.93164-.21094-.38672-.21533-.6416-.65478v.73828h-.81299v-6.8379h.81299z"/><path d="m496.22003 74.315269q-.97998 0-1.35791.224122-.37793.224121-.37793.764648 0 .430664.28125.685547.28565.250488.77344.250488.67236 0 1.07666-.474609.40869-.479004.40869-1.27002v-.180176zm1.61279-.333984v2.808106h-.80859v-.747071q-.27685.448242-.68994.663574-.41309.210938-1.01074.210938-.75586 0-1.2041-.421875-.44385-.42627-.44385-1.138184 0-.830566.55371-1.252441.5581-.421875 1.66113-.421875h1.13379v-.0791q0-.558105-.36914-.861328-.36475-.307617-1.02832-.307617-.42187 0-.82178.101074-.3999.101075-.76904.303223v-.74707q.44385-.171387.86133-.254883.41748-.08789.81299-.08789 1.06787 0 1.59521.553711.52734.553711.52734 1.678711z"/><path d="m503.59 73.819v2.9707h-.80859v-2.9443q0-.69873-.27246-1.0459-.27246-.34717-.81739-.34717-.65478 0-1.0327.41748-.37793.41748-.37793 1.1382v2.7817h-.81299v-4.9219h.81299v.76465q.29004-.44385.68115-.66357.39551-.21973.90967-.21973.84814 0 1.2832.52734.43506.52295.43506 1.5425z"/><path d="m508.44122 74.271324q0-.878906-.36474-1.362305-.36035-.483398-1.01514-.483398-.65039 0-1.01514.483398-.36035.483399-.36035 1.362305 0 .874512.36035 1.35791.36475.483399 1.01514.483399.65479 0 1.01514-.483399.36474-.483398.36474-1.35791zm.8086 1.907227q0 1.256836-.55811 1.867676-.5581.615234-1.70947.615234-.42627 0-.8042-.06592-.37793-.06152-.73389-.193359v-.786622q.35596.19336.70313.285645.34717.09229.70752.09229.79541 0 1.19092-.41748.3955-.413086.3955-1.252442v-.399902q-.25049.435059-.6416.650391-.39111.215332-.93603.215332-.90528 0-1.45899-.689942-.55371-.689941-.55371-1.828125 0-1.142578.55371-1.832519.55371-.689942 1.45899-.689942.54492 0 .93603.215332.39111.215332.6416.650391v-.74707h.8086z"/></g><g font-family="'DejaVu Sans'" transform="translate(.58717 .44439)"><text x="411.05823" y="220.81308"><tspan font-family="'DejaVu Sans'" font-size="13.333">s</tspan></text><g transform="translate(6.3352 2.0319)"><text x="18.89879" y="149.95996"><tspan font-family="'DejaVu Sans'" font-size="10">10</tspan></text><text x="31.350756" y="144.23029"><tspan font-family="'DejaVu Sans'" font-size="6.667">15</tspan></text></g><text x="148.51381" y="238.63362"><tspan font-family="'DejaVu Sans'" font-size="10">8</tspan></text><text x="114.11909" y="238.75569"><tspan font-family="'DejaVu Sans'" font-size="10">4</tspan></text><text x="80.965652" y="238.75569"><tspan font-family="'DejaVu Sans'" font-size="10">2</tspan></text><text x="46.913486" y="238.75569"><tspan font-family="'DejaVu Sans'" font-size="10">1</tspan></text></g><g transform="translate(4.8297 .44206)"><g fill="#5aa16e"><path d="m176.2 5.8158311v4.1792h-.79101v-4.1792h-.66797v-.57568h.66797v-.53613q0-.65039.28564-.93604.28565-.28564.87451-.28564.32959 0 .55811.052734v.60205q-.19775-.035156-.35156-.035156-.30323 0-.43946.15381-.13623.15381-.13623.55811v.42627h.92725v.57568z"/><path d="m177.67 7.5274911q0-1.27.39551-2.2808.3999-1.0107 1.2261-1.9028h.76465q-.82178.91406-1.2085 1.9424-.38233 1.0283-.38233 2.25 0 1.2173.37793 2.2412.38232 1.0238999 1.2129 1.9511999h-.76465q-.83056-.89648-1.2261-1.9071999-.39551-1.0151-.39551-2.2764z"/><path d="m184.28157 8.5931761q0 .672363-.50977 1.037109-.50537.364746-1.41943.364746-.88769 0-1.37109-.290039-.47901-.294433-.62403-.914062l.69873-.136231q.10108.382325.41748.5625.31641.175782.87891.175782.60205 0 .87891-.184571.28125-.18457.28125-.553711 0-.28125-.19336-.457031-.19336-.175781-.62403-.290039l-.56689-.149414q-.68115-.1757813-.97119-.3427735-.28565-.1713867-.44824-.4130859-.1626-.2416992-.1626-.5932617 0-.6503907.46142-.9887696.46582-.3427734 1.35352-.3427734.78662 0 1.24805.2768555.46582.2768554.58886.8876953l-.71191.087891q-.0659-.3164063-.35596-.4833984-.28564-.1713868-.76904-.1713868-.53613 0-.79102.1625977-.25488.1625977-.25488.4921875 0 .2021484.10547.3339844.10547.1318359.31201.2241211.20655.092285.87012.2548828.62842.1582031.90527.2944336.27686.1318359.43506.2944336.1626.1625976.25049.3779288.0879.210938.0879.483399z"/><path d="m187.05 7.5451q0 1.27-.3999 2.2808-.39551 1.0107-1.2217 1.9028h-.76465q.82617-.92285 1.2085-1.9424.38232-1.0239.38232-2.25 0-1.2261-.38672-2.25-.38232-1.0239-1.2041-1.9424h.76465q.83056.89648 1.2261 1.9116.39551 1.0107.39551 2.272z"/><path d="m188.04 6.7364861v-.65039h4.3726v.65039zm0 2.25v-.65039h4.3726v.65039z"/><path d="m197.0345 8.5931761q0 .672363-.50977 1.037109-.50537.364746-1.41943.364746-.88769 0-1.37109-.290039-.47901-.294433-.62403-.914062l.69873-.136231q.10108.382325.41748.5625.31641.175782.87891.175782.60205 0 .87891-.184571.28125-.18457.28125-.553711 0-.28125-.19336-.457031-.19336-.175781-.62403-.290039l-.56689-.149414q-.68115-.1757813-.97119-.3427735-.28565-.1713867-.44824-.4130859-.1626-.2416992-.1626-.5932617 0-.6503907.46142-.9887696.46582-.3427734 1.35352-.3427734.78662 0 1.24805.2768555.46582.2768554.58886.8876953l-.71191.087891q-.0659-.3164063-.35596-.4833984-.28564-.1713868-.76904-.1713868-.53613 0-.79102.1625977-.25488.1625977-.25488.4921875 0 .2021484.10547.3339844.10547.1318359.31201.2241211.20654.092285.87012.2548828.62842.1582031.90527.2944336.27686.1318359.43506.2944336.1626.1625976.25049.3779288.0879.210938.0879.483399z"/><path d="m200.82208 3.93763q0 .4980718-.37762.7682676-.37437.2701958-1.05149.2701958-.65758 0-1.01567-.2148545-.35484-.2181099-.46227-.6771172l.51761-.1009165q.0749.2832173.30926.4166875.23438.1302148.65107.1302148.44599 0 .65108-.1367255.20834-.1367256.20834-.4101768 0-.2083437-.14324-.3385586-.14323-.1302148-.46226-.2148545l-.41994-.1106826q-.50458-.1302148-.71944-.2539189-.2116-.1269595-.33205-.3060049-.12045-.1790454-.12045-.4394751 0-.4817949.34182-.7324584.34507-.253919 1.00265-.253919.58271 0 .92453.2050884.34507.2050884.43622.6575849l-.52737.065107q-.0488-.2343867-.26369-.3580908-.2116-.1269594-.56969-.1269594-.39715 0-.58596.1204487-.18882.1204487-.18882.3646015 0 .1497471.0781.2474082.0781.097661.23113.166024.15301.068363.64457.1888115.46552.1171933.6706.2181098.20509.097661.32229.2181099.12044.1204487.18555.2799619.0651.1562578.0651.3580908z"/></g><g fill="#102a83"><path d="m252.38 5.8158311v4.1792h-.79102v-4.1792h-.66796v-.57568h.66796v-.53613q0-.65039.28565-.93604.28564-.28564.87451-.28564.32959 0 .55811.052734v.60205q-.19776-.035156-.35157-.035156-.30322 0-.43945.15381-.13623.15381-.13623.55811v.42627h.92725v.57568z"/><path d="m253.86 7.527491q0-1.27.39551-2.2808.3999-1.0107 1.2261-1.9028h.76465q-.82178.91406-1.2085 1.9424-.38232 1.0283-.38232 2.25 0 1.2173.37793 2.2412.38232 1.0239 1.2129 1.9512h-.76465q-.83057-.89648-1.2261-1.9072-.39551-1.0151-.39551-2.2764z"/><path d="m260.46947 8.593176q0 .6723631-.50977 1.0371091-.50537.364746-1.41943.364746-.8877 0-1.3711-.290039-.479-.294433-.62402-.914062l.69873-.136231q.10108.382325.41748.5625.31641.175782.87891.175782.60205 0 .8789-.184571.28125-.1845701.28125-.553711 0-.28125-.19336-.4570311-.19335-.175781-.62402-.290039l-.56689-.149414q-.68116-.1757813-.97119-.3427735-.28565-.1713867-.44825-.4130859-.16259-.2416992-.16259-.5932617 0-.6503907.46142-.9887696.46582-.3427734 1.35352-.3427734.78662 0 1.24804.2768555.46582.2768554.58887.8876953l-.71191.087891q-.0659-.3164063-.35596-.4833984-.28564-.1713868-.76904-.1713868-.53614 0-.79102.1625977-.25488.1625977-.25488.4921875 0 .2021484.10547.3339844.10547.1318359.31201.2241211.20654.092285.87012.2548828.62841.1582031.90527.2944336.27686.1318359.43506.2944336.1626.1625976.25049.3779288.0879.210938.0879.483399z"/><path d="m263.23 7.545091q0 1.27-.39991 2.2808-.3955 1.0107-1.2217 1.9028h-.76465q.82617-.92285 1.2085-1.9424.38233-1.0239.38233-2.25 0-1.2261-.38672-2.25-.38233-1.0239-1.2041-1.9424h.76465q.83056.89648 1.2261 1.9116.39551 1.0107.39551 2.272z"/><path d="m264.23 6.736486v-.65039h4.3726v.65039zm0 2.25v-.65039h4.3726v.65039z"/><path d="m270.26 7.703351q0 .81738.33838 1.2612.33838.44382.98877.44385.51416 0 .82178-.20654.31201-.20654.42187-.52295l.69434.19775q-.42627 1.125-1.938 1.125-1.0547 0-1.6084-.62842-.54931-.62842-.54931-1.8677 0-1.1777.54931-1.8062.55371-.62842 1.5776-.62842 2.0962 0 2.0962 2.5269v.10547zm2.5752-.60645q-.0659-.75146-.38233-1.0942-.3164-.34717-.90966-.34717-.57569 0-.91407.38672-.33398.38232-.36035 1.0547z"/><path d="m276.90992 3.93763q0 .4980718-.37762.7682676-.37437.2701958-1.05148.2701958-.65759 0-1.01568-.2148545-.35483-.2181099-.46226-.6771172l.5176-.1009165q.0749.2832173.30926.4166875.23439.1302148.65108.1302148.44598 0 .65107-.1367255.20834-.1367256.20834-.4101768 0-.2083437-.14323-.3385586-.14324-.1302148-.46226-.2148545l-.41995-.1106826q-.50458-.1302148-.71943-.2539189-.2116-.1269595-.33205-.3060049-.12045-.1790454-.12045-.4394751 0-.4817949.34181-.7324584.34507-.253919 1.00266-.253919.58271 0 .92452.2050884.34507.2050884.43622.6575849l-.52737.065107q-.0488-.2343867-.26368-.3580908-.2116-.1269594-.56969-.1269594-.39716 0-.58597.1204487-.18881.1204487-.18881.3646015 0 .1497471.0781.2474082.0781.097661.23113.166024.153.068363.64456.1888115.46552.1171933.67061.2181098.20509.097661.32228.2181099.12045.1204487.18556.2799619.0651.1562578.0651.3580908z"/></g><g fill="#e30079"><path d="m330.52484 3.9376868q0 .4981078-.37761.7683233-.37437.2702153-1.05148.2702153-.65758 0-1.01567-.21487-.35483-.2181258-.46226-.6771664l.51761-.1009236q.0749.2832378.30926.4167177.23437.1302243.65106.1302243.44599 0 .65107-.1367356.20834-.1367355.20834-.4102064 0-.2083588-.14323-.3385832-.14324-.1302243-.46226-.2148701l-.41995-.1106905q-.50457-.1302243-.71942-.2539373-.2116-.1269688-.33205-.3060271-.12051-.1790584-.12051-.439507 0-.48183.34181-.7325117.34507-.2539374 1.00264-.2539374.58271 0 .92453.2051032.34507.2051033.43622.6576328l-.52737.065112q-.0489-.2344037-.26368-.3581167-.2116-.1269688-.5697-.1269688-.39714 0-.58596.1204573-.18881.1204573-.18881.3646281 0 .149758.0781.2474262.0781.097668.23112.1660359.153.068368.64457.1888252.46551.1172017.67059.2181257.20509.097668.32229.2181258.12039.1204573.18554.2799821.0651.1562692.0651.3581169z"/><path d="m305.39 6.499181v4.1792h-.79101v-4.1792h-.66797v-.57568h.66797v-.53613q0-.65039.28564-.93604.28565-.28564.87451-.28564.32959 0 .55811.052734v.60205q-.19776-.035156-.35156-.035156-.30323 0-.43946.15381-.13623.15381-.13623.55811v.42627h.92725v.57568z"/><path d="m306.86 7.527491q0-1.27.39551-2.2808.3999-1.0107 1.2261-1.9028h.76465q-.82178.91406-1.2085 1.9424-.38232 1.0283-.38232 2.25 0 1.2173.37793 2.2412.38232 1.0239 1.2129 1.9512h-.76465q-.83056-.89648-1.2261-1.9072-.39551-1.0151-.39551-2.2764z"/><path d="m313.47757 8.5931761q0 .672363-.50977 1.037109-.50537.364746-1.41943.364746-.88769 0-1.37109-.290039-.47901-.294433-.62403-.914062l.69873-.136231q.10108.382325.41748.5625.31641.175782.87891.175782.60205 0 .87891-.184571.28125-.18457.28125-.553711 0-.28125-.19336-.457031-.19336-.175781-.62403-.290039l-.56689-.149414q-.68115-.1757813-.97119-.3427735-.28565-.1713867-.44824-.4130859-.1626-.2416992-.1626-.5932617 0-.6503907.46142-.9887696.46582-.3427735 1.35352-.3427735.78662 0 1.24805.2768555.46582.2768554.58886.8876953l-.71191.087891q-.0659-.3164062-.35596-.4833984-.28564-.1713868-.76904-.1713868-.53613 0-.79102.1625977-.25488.1625977-.25488.4921875 0 .2021485.10547.3339845.10547.1318359.31201.224121.20654.092285.87012.2548828.62842.1582031.90527.2944336.27686.1318359.43506.2944336.1626.1625976.25049.3779288.0879.210938.0879.483399z"/><path d="m316.24 7.545091q0 1.27-.3999 2.2808-.39551 1.0107-1.2217 1.9028h-.76465q.82617-.92285 1.2085-1.9424.38232-1.0239.38232-2.25 0-1.2261-.38672-2.25-.38232-1.0239-1.2041-1.9424h.76465q.83056.89648 1.2261 1.9116.39551 1.0107.39551 2.272z"/><path d="m317.24 6.736486v-.65039h4.3726v.65039zm0 2.25v-.65039h4.3726v.65039z"/><path d="m322.50833 10.678381v-.558106q.22412-.51416.54492-.905273.3252-.395508.68116-.7119142.35595-.3208008.70312-.5932618.35156-.2724609.63281-.5449218.28125-.272461.45264-.5712891.17578-.2988281.17578-.6767578 0-.5097656-.29883-.7910156-.29883-.28125-.83056-.28125-.50537 0-.83496.2768554-.3252.272461-.38233.769043l-.80859-.074707q.0879-.7426758.62842-1.1821289.54492-.4394532 1.39746-.4394532.93603 0 1.43701.4438477.50537.4394531.50537 1.2524414 0 .3603516-.16699.7163086-.1626.355957-.4878.7119141-.32519.355957-1.24365 1.1030273-.50537.4130859-.8042.7470699-.29883.32959-.43066.637207h3.22998v.672364z"/></g><g fill="#b1c900"><path d="m364.77 5.8158311v4.1792h-.79101v-4.1792h-.66797v-.57568h.66797v-.53613q0-.65039.28564-.93604.28565-.28564.87451-.28564.32959 0 .55811.052734v.60205q-.19775-.035156-.35156-.035156-.30323 0-.43946.15381-.13623.15381-.13623.55811v.42627h.92725v.57568z"/><path d="m366.24 7.527491q0-1.27.39551-2.2808.3999-1.0107 1.2261-1.9028h.76465q-.82177.91406-1.2085 1.9424-.38233 1.0283-.38233 2.25 0 1.2173.37793 2.2412.38233 1.0239 1.2129 1.9512h-.76465q-.83056-.89648-1.2261-1.9072-.39551-1.0151-.39551-2.2764z"/><path d="m372.85327 8.593176q0 .6723631-.50976 1.0371091-.50538.364746-1.41944.364746-.88769 0-1.37109-.290039-.47901-.294433-.62402-.914062l.69873-.136231q.10107.382325.41748.5625.3164.175782.8789.175782.60205 0 .87891-.184571.28125-.18457.28125-.553711 0-.28125-.19336-.457031-.19336-.1757811-.62402-.290039l-.5669-.1494141q-.68115-.1757812-.97119-.3427734-.28564-.1713868-.44824-.413086-.1626-.2416992-.1626-.5932617 0-.6503907.46143-.9887696.46582-.3427734 1.35351-.3427734.78662 0 1.24805.2768555.46582.2768554.58887.8876953l-.71192.087891q-.0659-.3164063-.35596-.4833984-.28564-.1713868-.76904-.1713868-.53613 0-.79101.1625977-.25489.1625977-.25489.4921875 0 .2021484.10547.3339844.10547.1318359.31201.2241211.20655.092285.87012.2548828.62842.1582031.90527.2944336.27686.1318359.43506.2944336.1626.1625976.25049.3779288.0879.210938.0879.483399z"/><path d="m375.62 7.545091q0 1.27-.3999 2.2808-.39551 1.0107-1.2217 1.9028h-.76465q.82617-.92285 1.2085-1.9424.38232-1.0239.38232-2.25 0-1.2261-.38672-2.25-.38232-1.0239-1.2041-1.9424h.76465q.83057.89648 1.2261 1.9116.39551 1.0107.39551 2.272z"/><path d="m376.61 6.736486v-.65039h4.3726v.65039zm0 2.25v-.65039h4.3726v.65039z"/><path d="m382.12 10.632226v-.67236h1.5776v-4.7637l-1.3975.99756v-.74707l1.4634-1.0063h.72949v5.5195h1.5073v.67236z"/><path d="m387.26 10.632v-.9624h.85694v.9624z"/><path d="m389.62 10.632226v-.67236h1.5776v-4.7637l-1.3975.99756v-.74707l1.4634-1.0063h.72949v5.5195h1.5073v.67236z"/><path d="m397.23317 3.93763q0 .4980718-.37763.7682676-.37436.2701958-1.05148.2701958-.65759 0-1.01568-.2148545-.35483-.2181099-.46226-.6771172l.5176-.1009165q.0749.2832173.30926.4166875.23439.1302148.65108.1302148.44598 0 .65107-.1367255.20835-.1367256.20835-.4101768 0-.2083437-.14324-.3385586-.14324-.1302148-.46226-.2148545l-.41995-.1106826q-.50458-.1302148-.71943-.2539189-.2116-.1269595-.33205-.3060049-.12045-.1790454-.12045-.4394751 0-.4817949.34182-.7324584.34506-.253919 1.00265-.253919.58271 0 .92452.2050884.34507.2050884.43622.6575849l-.52737.065107q-.0488-.2343867-.26368-.3580908-.2116-.1269594-.56969-.1269594-.39716 0-.58597.1204487-.18881.1204487-.18881.3646015 0 .1497471.0781.2474082.0781.097661.23113.166024.153.068363.64456.1888115.46552.1171933.67061.2181098.20509.097661.32228.2181099.12045.1204487.18556.2799619.0651.1562578.0651.3580908z"/></g><g fill="#a4027c"><path d="m213.31 5.8158309v4.1792001h-.79101v-4.1792001h-.66797v-.57568h.66797v-.53613q0-.65039.28564-.93604.28564-.28564.87451-.28564.32959 0 .55811.052734v.60205q-.19776-.035156-.35157-.035156-.30322 0-.43945.15381-.13623.15381-.13623.55811v.42627h.92725v.57568z"/><path d="m214.78 7.5274909q0-1.27.39551-2.2808.3999-1.0107 1.2261-1.9028h.76465q-.82178.91406-1.2085 1.9424-.38232 1.0283-.38232 2.25 0 1.2173001.37793 2.2412.38232 1.0239001 1.2129 1.9512001h-.76465q-.83057-.89648-1.2261-1.9072001-.39551-1.0151-.39551-2.2764z"/><path d="m221.39731 8.593176q0 .672363-.50977 1.037109-.50537.364746-1.41943.364746-.8877 0-1.37109-.290039-.47901-.294433-.62403-.914062l.69873-.136231q.10108.382325.41748.5625.31641.175782.87891.175782.60205 0 .87891-.184571.28125-.18457.28125-.553711 0-.28125-.19336-.457031-.19336-.175781-.62403-.290039l-.56689-.149414q-.68115-.1757813-.97119-.3427735-.28565-.1713867-.44825-.4130859-.16259-.2416992-.16259-.5932617 0-.6503907.46142-.9887696.46582-.3427734 1.35352-.3427734.78662 0 1.24805.2768555.46582.2768554.58886.8876953l-.71191.087891q-.0659-.3164063-.35596-.4833984-.28564-.1713868-.76904-.1713868-.53613 0-.79102.1625977-.25488.1625977-.25488.4921875 0 .2021484.10547.3339844.10547.1318359.31201.2241211.20654.092285.87012.2548828.62842.1582031.90527.2944336.27686.1318359.43506.2944336.1626.1625976.25049.3779288.0879.210938.0879.483399z"/><path d="m224.16 7.545091q0 1.27-.3999 2.2808-.39551 1.0107-1.2217 1.9028h-.76465q.82617-.92285 1.2085-1.9424.38233-1.0239.38233-2.2500001 0-1.2261-.38672-2.25-.38232-1.0239-1.2041-1.9424h.76465q.83056.89648 1.2261 1.9116.39551 1.0107.39551 2.272z"/><path d="m225.16 6.7365v-.65039h4.3726v.65039zm0 2.25v-.65039h4.3726v.65039z"/><path d="m234.15024 8.593176q0 .672363-.50977 1.037109-.50537.364746-1.41943.364746-.8877 0-1.37109-.290039-.47901-.294433-.62403-.914062l.69873-.136231q.10108.382325.41748.5625.31641.175782.87891.175782.60205 0 .87891-.184571.28125-.18457.28125-.553711 0-.28125-.19336-.457031-.19336-.175781-.62403-.290039l-.56689-.149414q-.68115-.1757813-.97119-.3427735-.28565-.1713867-.44825-.4130859-.16259-.2416992-.16259-.5932617 0-.6503907.46142-.9887696.46582-.3427734 1.35352-.3427734.78662 0 1.24804.2768555.46583.2768554.58887.8876953l-.71191.087891q-.0659-.3164063-.35596-.4833984-.28564-.1713868-.76904-.1713868-.53613 0-.79102.1625977-.25488.1625977-.25488.4921875 0 .2021484.10547.3339844.10547.1318359.31201.2241211.20654.092285.87012.2548828.62842.1582031.90527.2944336.27686.1318359.43506.2944336.1626.1625976.25049.3779288.0879.210938.0879.483399z"/><path d="m236.05 8.163h-.65039l-.10547-4.4473h.86133zm-.76465 1.7446v-.8833h.85254v.8833z"/></g></g></svg>