<?xml version="1.0" encoding="UTF-8"?>
<svg width="348pt" height="202.1pt" viewBox="0 0 122.7 71.32" xmlns="http://www.w3.org/2000/svg"><linearGradient id="a" x1="57.39" x2="436.6" y1="107.5" y2="107.5" gradientTransform="matrix(.2605 0 0 -.2251 -2.19 116.1)" gradientUnits="userSpaceOnUse"><stop stop-color="#f00" offset="0"/><stop stop-color="#0f0" offset="1"/></linearGradient><text x="66.946266" y="7.439257" font-family="sans-serif" font-size="3.176" letter-spacing="0" stroke-width=".2647" word-spacing="0" xml:space="preserve"><tspan x="66.946266" y="7.439257">Different algorithms offer different</tspan><tspan x="66.946266" y="11.850438">trade-offs between runtime and</tspan><tspan x="66.946266" y="16.261621">solution quality. Good algorithms</tspan><tspan x="66.946266" y="20.672804"><tspan fill="#00f">resulting from research</tspan> push the</tspan><tspan x="66.946266" y="25.083986">frontier of what can be achieved</tspan><tspan x="66.946266" y="29.495169">towards the bottom-left corner.</tspan></text><path d="m25.07 24.2.007-.0896.018.0497.007-.002h.0469l-.01.008-.0233.0181zm4.543-9.806-.3376-.06216-.1834.1877-.1655.2451-.0289.01516-.1086.12-.1076.1005-.146.1598-.1654.1873-.1845.05539-.102.06311-.2812.229-.0938.1185-.1143-.08435-.0949-.0412.0356-.1571.1337-.2232.0194-.284-.0787-.1253-.1517.04561-.3679.412-.1418.1034-.2011.365-.1902.07595-.1986-.0085-.0289-.0053-.1115.3333.008.02082.0868.1624.0303.0222.0483.05112.1556-.0056.1588-.02082.0522.1295-.0208.1474.3418.06202.1284-.1859.1319-.1104.2233.07578.1104.05405.1489-.05116.1679.02759.0469.06876-.0303.1185-.0674.07733-.1393.0013-.339.1721.0236.02646-.0526.06174-.0109.1408-.1213.04547-.0621.02604-.1129.2121-.1542.2759-.0138.0095.0289.146.3306.1502.1503.2135.2134.4851.1902.2318.2399.2135-.3002.0152-.302-.0427.018.0208.1983.0674.2053.0977.0868.0554.0663.2519-.1199.0758-.0825.0773-.1736.1242-.12.0688.2699-.006.3006.0816.0674.1142-.1598.128.0924-.0179.1238.0635-.0452.0715-.003-.0179-.007.0236-.0783-.0346-.0332.0854.0579.1063-.0109.0758.0109.0938.0194.0907-.1171.0744-.0924-.0124-.0152.1133-.1185.055-.018.1793-.0385.1954-.0787-.004-.0208-.007.0455.0649-.2078.1735-.054.0868.01.1006-.0127.157.0346.1422-.0194.1086-.1143.0402-.0483.1447-.1182.1749-.0279.0938-.1475.0452-.1171.054.0303.0882-.2618.2798-.0688.062-.0677.0617-.0854.0882-.1542.0554.0617.0854-.0977.1389-.2879.0592-.1654.0731-.1845.0897-.0663-.0579-.0977.055-.1034-.009-.0208.006.004.019.0138.0692-.0924-.0814-.0688-.011-.0825-.0593-.0568.1076-.01.1475.01.01.0303.0319.0564-.0594-.0152.04.007.0236-.001.004-.0384.002.0593.0853-.0759-.0769-.0564-.043-.1048.0606-.0977-.1446-.0815.2232-.1556.0247-.091.0925-.0829-.0289-.0508-.001-.0815.0331-.0716.0992-.1514.0317-.2039.0398-.1118.0346-.0882.1101.003.1739-.01.2314-.1394-.0828-.1048-.1404-.0219-.1736.0317-.109.007-.0948-.0787-.0692-.0233-.066-.003.1062-.1916.0165-.1086-.1076-.0692.0152-.0413-.0882-.0522.047-.0469.0744-.2096-.01-.1475-.0136-.2494-.1447-.1185-.0839-.0289-.2428-.0455-.183-.1803-.0276-.1559-.029-.0854-.0952-.1171-.073-.1792.1517-.1654.1323-.1803.01-.1739-.0511-.1542.0317-.4054.0455-.1968.004-.0854.2424.0138.313-.1295.008-.109-.2194-.2921.0649-.1475-.0854-.0536-.1612-.2688-.2603.0854-.2153-.2039-.2409-.0247-.1119-.0416-.1375-.0152-.1422-.4505.0237.0427-.2356.0222-.1531.0702-.1337.1817-.149.1588-.1513.0811-.0966.0388-.1087.0494-.244v-.1694l-.0882-.229-.0854-.1929-.003-.1006-.0536-.081-.0801-.0484-.1432.0222-.0469.0565-.0342.1308-.0759.0386h-.001l-.0261-.0219-.1185-.0854-.2812-.1778-.1242-.0317h-.007l-.5016.2286-.4879.2508h-.0261l-.1143-.018-.4149-.1446-.0261-.2234-.0871-.2024-.2656-.1063-.1612-.0991-.1891-.0949-.4134.2798-.0674.0755-.0275-.4174-.3362.002-.1323.0152-.3186-.1902-.194-.0622-.1185.003-.1199-.1725-.1612-.0744-.007-.1585-.2589-.1778-.0247-.1968-.2607-.1352-.1887-.237-.1902-.2689-.1295-.164-.0233-.02896-.2565.08573-.146-.2304-.2868-.3471-.1044-.06491-.1132-.1432-.0342-.1337.0289-.1201.0138-.128-.007-.2314.1281-.03997.2124.0149-.0702-.3871.0483-.1943.0949-.1447.0289-.04547-.1129-.1943-.0663-.3197.0113-.1393-.3404-.2053-.0744-.1542-.1432-.1047.0494-.2465-.1199-.1902-.2011-.2039-.1048-.05112.1683-.02082.0854-.2078.0825-.3365-.2191-.1694-.084-.1778.0138-.1669.1584-.1472.2798-.1379.229-.08957.2314.06212.0469.128.3306-.1323h.4177l.1432-.06491h.1736l.4314-.09493.212-.1916.1517-.1682.0536-.09208.073-.2854.0222-.3281-.0815-.2865.2646.0016.3845-.0085.2275.1488-.036-.237.2427-.3732.2769-.2152.4011.2205.1612.0043.2604-.5305.4216-.2453.1944-.02896.109.1944.0854.1651.2371.2935.194.116.1697.441.0166.3828-.12.2289.1983.3584.1626.05652.8326.5111.1778.0882.005.09493.0953.3888.1171.2811.0497.0095.2395.02508.714.1348.8004.127.2233.1943.5539.2078.1901.09246.9056-.3252.7923-.05652.2783-.1366.2589-.2822.0427-.422.1351-.3802.321.1212.4135-.1418.2618-.1739.3778-.2053.0607-.2053.2949-.164.2342-.1266.1693-.02466.3309.01516-.2346-.4396-.1044-.08573-.3641-.0303-.2508.02508-.332.08957-.007-.32.2247-.6847.4632-.0081.2286-.1601.018-.1902.1062-.3154.1489-.3831.0854-.3195-.182-.08297.0388-.1432.2769-.2494.0607-.02466.2272-.07055.175-.02617.5789.07867.3404.1172.1252.2191.0688.05923.007.1185.1295.2191.0607.1129.1157.1877.1214.23.1475.2921.3775.02893.2205.02896.3073.1612.0896.1929.0138.1531.1944.08961.3556-.07581.2081-.248.3746-.2343.0413.2343-.0603.3552-.008.1877.0194.1997-.0691.3528-.037.2976-.4604.149-.1626.1542.1902.6092.006.01902-.004.1877-.1626.237.0402.09356-.2371-.2053-.054.09906.007.1764-.0868.01807-.3514.2811-.004.1309-.01.1778zm-1.155 7.975h.003l.003.002.003.001h.003l.004.004.004.001.006.008.002.001v.001l.001.003-.001.006.003.002.003.001h.003l.001.001-.003.002.001.003.007.007.008-.001.007-.006.001.003-.002.002h-.001l-.001.003.001.001-.004.003v.004l.006.003.001.001h.003v.004l.001.001h.006l.003.003.002.001h.003l.001.001v.004l.001.001-.003.004h.001l.007-.007-.003-.003v-.003h.001l.001.003h.001l.001-.003.003.001v.003h.001l.003.002.003.003.003-.003h.002v.004l.001.003h.003l.003-.001h.003l-.003.003v.003l.001.001h.003l.001-.001.002-.001.004.001h.01l.01.001h.003l.004-.001.003-.001h.004v.003l-.003.003.003.003v.004l-.001.002-.003.007.001.004.007.006v.001l-.001.001v.01l.001.001.007.006.006.001.003-.001.001-.002h.004l.001.002.003.001.001.002.001-.001h.001l.002.002v.004h-.002l-.001.001-.004.003-.001.001h-.003l-.001.002-.005.001-.003.001h-.001l-.003.001-.001.002h-.001l-.005.003-.004.008h-.001l-.003.001-.001.003-.002.001-.004.003v.007l-.006.006h-.001l-.005.007-.003.002-.003.004-.001.001-.003.006-.002.007-.001.003-.001.004.001.005-.003.004v.006l-.001.0205.003.001-.001.003.001.004.001.002v.003l.001.002.004.006v.0204l.001.001v.006l.006.0138v.001l.003.003v.001l.005.001.006.006-.003.001h-.003v-.003l-.003-.001h-.002v.003l.002.003v.001l.003.002h.003-.003v.001l.003.001v.001h-.003l-.001.003.001.003v.006l.001.003v.004l.001.003-.001.003h-.003l-.004.003-.004.001-.001.001-.003.001v.007l.004.003v.003l.003.002.003.001-.001.002h-.003l-.007.003-.007.006v.002l-.001.004-.001.001-.004.003-.001.002-.001.004-.002.006v.003l-.001.001v.0181l-.003.004v.003l-.004.007v.004l.001.003v.007l-.001.003h-.001l-.001.002-.004.003-.003.005-.001.008-.001.002-.001.004h-.001l-.001.003h-.001l-.004.001-.006.007-.001.001-.003.001-.004.004h-.003l-.003.002-.006.008-.001.004v.008l.003.007-.001.008h-.001l-.001.003-.007.007-.003.001-.004.004-.002.004v.0165l.001.002v.004l.0109.0109v.003l-.001.005-.003-.001v.003l.001.001-.003.001-.001.004h.003l-.001.004h-.003l-.001-.001h-.001l-.003.001v.001l-.001.003-.003.004.003.004v.01l-.001.0113v.003l-.001.007v.007l-.004.007v.007l-.004.008-.004.006-.001.004v.0179l-.001.01-.006.007-.001.001v.003l-.001.003v.002h.001l.001.004-.001.001-.001.003v.002l-.001.0109-.001.001v.001l.001.002-.001.001-.003.001v.004l-.003.003v.0194l-.001.001v.007l-.001.004-.001.001-.001.003-.003.002v.003l-.001.006v.006l-.001.001-.001.003.001.002v.007l.003.004v.006l-.001.003-.001.002h-.004v.001l.003.001-.001.002v.006l-.001.004-.005.0138v.003l-.001.001-.003.0177-.003.006v.008l-.001.008-.003.001h-.004l-.003.001-.001.005-.003.003v.003l-.001.003-.001.001v.005l-.001.001-.001.003v.003l-.002.01.002.003-.001.003-.001.001h-.003l-.001-.003-.001.001.001.001v.001l-.004.002v.0124l.004.008-.001.004-.001.002v.008l.004.004-.001.004h-.006l-.001.001-.002.007h-.008l-.003.003v.002l-.001.003v.003l-.002.004-.001.007-.003.002-.001.008-.001.002v.003h-.001l-.001.003-.002.004-.001.001-.001.008-.001.001v.004l-.006.005v.001l-.003.002-.004.004v.004l-.006.0109-.003.003-.003.005-.001.006-.001.001h-.001l-.004.004v.004l-.006-.001-.001.001-.005.002-.008.007-.001.001v.001l.003.005.001.001h-.003l-.001.003.001.002h.001l.001.003v.002l.001.003v.003l-.004.003-.001.002-.002.001-.001.0109-.003.003-.004.002-.003.001v.001l-.004.003-.003.003-.003.001-.008.008h-.003l-.001.002-.003.001h-.003l-.001.001h-.002l-.006.006-.004.001v.002l-.003.001h-.002l-.001.003-.006.001-.001.001-.003.004-.001.004-.001.003v.003l-.002.003v.0136l-.001.003v.001l-.003.004-.006.004-.001.003-.002.001-.001.001v.002l-.001.001v.003l-.001.003v.003l-.001.001v.002l-.004.01v.003l-.001.001v.005l-.002.007v.003l-.003.002v.004l-.001.001-.001.006-.001.001v.003l-.003.004v.001l-.001.003-.005.0138-.001.001-.001.008-.003.003-.004.0138v.006l-.001.001v.008l.003.003.001.0233.001.001v.003l-.001.001-.001.004.001.001v.007h-.001l-.001.001v.004l.001.001v.006l.001.001-.003.003v.002l.001.001v.005l.001.002-.001.001v.001h-.003v.008l.001.003.003.003h.003v.003l-.001.002-.004.007v.003l.001.003v.0124l.003.004v.003l-.006.002-.001.006h-.001l-.001.001-.001.003v.001l-.001.002h-.003v.001l-.003.001h-.005v.003l-.001.001v.0179l.007.011v.006l.003.003v.002l-.001.001h-.003l-.004-.004v-.001l-.001-.003-.001-.002h-.003v-.003l-.006-.006h-.002l-.003-.001-.001-.001h-.003v-.001l-.003-.002h-.004l-.006-.004-.001-.001h-.004l-.003.004h-.002v.01l-.004.004h-.006l-.001-.003-.001-.004-.003-.001-.001-.001.001-.004v-.008l.001-.004v-.004l-.003-.003-.001-.003-.006-.004v-.003l-.001-.001v-.003l-.002-.002v-.005l.007-.006-.003-.001.001-.003.006-.005-.001-.001v-.006h-.003l-.001-.003.008-.002.001-.001v-.003l-.001-.002v-.006l-.003-.003v-.002l-.003-.003v-.003l-.001-.003v-.003l-.001-.004v-.008l-.003-.007-.001-.001-.001-.003v-.003l.001-.003-.004-.005-.001-.004-.001-.003-.003-.003-.007-.005v-.002l.001-.003v-.003l-.001-.005-.003-.004v-.008l-.01-.0109-.007-.005v-.001l-.003-.007-.001-.003-.0166-.0123h-.001l-.001-.003-.0148-.007-.003-.003-.003-.001-.001-.001-.003-.002-.004-.001-.002-.002-.004-.001-.004-.004-.008-.006-.003-.002.001-.001v-.003l-.003-.003h-.004v-.0138l-.001-.001.001-.003v-.005l.001-.001v-.003h-.003l-.001.002-.001.004.001.0208v.001l-.008-.003-.004-.004h-.002l-.018-.0138-.001-.002-.003-.004h-.003l-.003-.005h-.008v-.001l.001-.001h.003v-.002l-.006-.006v-.001l-.001-.003h-.003l-.002-.005-.006-.008-.003-.003.001-.001v-.002l-.001-.001v-.003l-.005-.006v-.005l.001-.006.006-.006-.004-.008.006.006.004-.004-.007-.008-.007-.0152-.003-.001-.001-.006v-.003l-.0138-.0305v-.001l-.003-.005v-.003l-.001-.003v-.003l.001-.001v.001l.003.002h.003v-.003l-.003-.007h-.003l-.001.002v.003h-.001v-.003l-.004-.01-.001-.005-.003-.006.001-.002v-.0165l-.003-.002v-.003l.003.003h.003l.001-.001-.004-.001v-.002l.003-.006-.001.001-.004.003-.001.001-.004-.005-.0124-.0124-.003-.001-.005-.007-.006-.001-.001-.003h-.001l-.007-.004v-.005l-.004.002-.003.001v-.001l-.004-.004v-.0113h-.002l-.001-.001v-.005l-.001-.001.001-.004.004-.003.004-.004.006-.001h.001l.004-.003.001-.007-.001-.001-.002-.001v-.0113h-.004l-.001.003.001-.004v-.004l.008-.0138v-.0113l.001-.001.003.001.003-.005.003-.003v-.003l-.001-.003.001-.001.005-.001.003-.006-.003.001-.001-.001-.004-.001.001-.003.001-.001v-.003h-.001v-.002l.005-.01.0109.003.001.001-.001-.003-.001-.001h-.006l-.001-.001v-.008l.004-.01h.003l.005-.003.001-.007.001-.002v-.004l-.001-.002-.001.002-.001-.002-.001-.003v-.003l.001-.004v-.003h-.003v-.003l.004-.006h-.003l-.002-.001v-.002l.001-.003v-.003l.001-.001v-.003l.001-.003v-.002h-.0138l-.001-.003.001-.0138h.001l.006-.006.003.003h.002l.001-.003h.001l-.007-.007v-.006l.001-.003v-.003h-.001l-.003-.001v-.002l.003-.003h.002v-.003l-.002-.001v-.0152l.004-.011.001-.003.001-.004.003-.005.001-.001.001-.004.003-.004-.001-.002-.003-.001v-.007h.001v-.004l.003-.001v-.004h.005l.001-.004.001-.003-.003-.003v-.002l.001-.001.001-.006v-.003l.004-.003.001-.001h.002v-.001l.01-.0152h.003v-.003h.002l.001.002h.006v-.002l.001-.006.001-.001h.003v-.001l-.001-.001v-.002h.003l.001-.003.001-.001.003-.001h.001v-.003l.001-.003.001-.001.003-.004v-.003l.004-.003.001-.007.001-.001.001-.003v-.001l.001-.003.007-.0109v-.001h-.006v-.001l.001-.007.003-.001h.005l.001-.004.001-.001v-.003l.001-.003v-.002l.001-.004.006-.004.001-.003h.001l.004-.002.003-.001.001-.001h.004v-.003l.001-.006.003-.002.001-.003.004-.002.003-.003v-.003l-.001-.002v-.003l.003-.002v-.006l.001-.001v-.003l.001-.002.001-.001v-.006l-.003-.001v-.003h.008l.001-.001.008-.0109.003-.001v-.002l-.001-.003h.003v-.002l.001-.006.003-.001.005-.008v-.006l-.002-.001-.001-.003-.003-.001.004-.01.001-.001v.001l-.001.003.001.003h.001l.003-.002v.002l.001.003v-.001l.001-.003v-.001l-.006-.008.001-.002.004-.003v-.004l.004-.002.002-.003.003.004h.001l.001-.003v-.001l-.004-.002.003.001.001-.001v-.007l.007-.004.001-.002.004-.003v-.002l.003-.003-.001-.006.003-.007.0138-.0179v-.004l.006-.001.005-.004.004-.006.001-.003.007-.01.001-.004.003-.003.0138-.0413.003-.004v-.001l.003-.001.004-.001.005.005v-.005l.004-.002h.003v-.003h-.003l-.001-.003.001-.001.001-.004.004-.008h.002l.003-.003.008-.001.005-.002h.004l.006.002.001.001h.003l.003-.001-.001-.001h-.003l-.002-.003-.003-.002v-.003l.003-.003.008-.005v-.003l.001-.002.001-.003v-.003l.001-.004.002-.003.008-.004.004-.003v-.003l.001-.001-.001-.001v-.003l.002-.004v-.006l.001-.001v-.005l.001-.001v-.003h-.003l-.001-.002.001-.001-.001-.004.001-.001.008-.01.004-.004.002-.004v-.003l.001-.002.001-.004.008-.0113-.001-.001v-.002l.008-.014.007-.007v-.001l.007-.007v-.004l-.001-.003v-.003l.004-.005.001-.004.0124-.0123.006-.001.003-.002.001-.001h.003l.007-.007h.003l.002-.002.004-.001h.003l.021-.007.004-.003.006-.004.003-.003h.002l.0127-.004h.002l.001-.001.006-.002.003.002.004.003h.002l.001-.001.004-.003h.018l.001-.001.007-.002.007-.004h.001l.002-.001.004-.003.006-.004.001-.004.001-.001h.002l.004.003.008.008v.003l.003.006v.003l.001.001h.001l-.001-.011-.003-.007-.001-.001-.002-.001-.001-.004-.006-.003h-.003l-.005-.004v-.003l.001.001.002-.001.004-.008.004-.004.001-.003.001-.001.001-.003.001-.004.001-.001v-.003l.001-.001.006.001h.001l.004-.0109.002-.001.001-.002.006-.001.003-.001v-.002h.001v.001h.008l.001-.001v-.003l.001-.001.003.003h.008l.001-.002zm-.8227-6.474-.1143.06198-.0758.02053.0455-.1072.1143-.03182zm.3845-.1391-.0166.0495v-.0495zm.1408-.0043-.0388-.01791.0455.01378zm-.2991-.0441.0194.01241zm-.4452.4989-.0328-.0222zm-.0384.1076-.0388.02466zm.0247.04794.0289.02082zm-.1171.04561.0593.0441-.0621-.03323zm1.116 3.317.0208.0579.007-.004-.0466-.0317zm.0991-.0265-.0384-.0219.0247-.0152zm.0332.0237.0318.0289zm.0815.1185-.0166.0138zm-.0635.1651.004.0427zm-.0512-.0276.0455.0208zm-.1196-.1238.0508.0398-.0924.008-.002-.0398zm-.1379.11-.008.0375-.0141-.0441zm.1764.0276-.1034-.048.0289.01.0469.0138zm-.128.0402.1129.1224-.1337-.0371zm.0935.2135-.0247.033-.0233.002.001-.0402.0356-.0551.036.0208zm-.0261.1128-.007.0441.004-.0205zm-.0536.1366.0289.0331zm-.0635.2508.0303.0233zm.0649.0882.0328.0649-.0536-.0554zm-.2565.2673.018-.007-.0621.0511zm-.0744.0787.0208.0452zm.0497.0301.0289-.0177.018.0204zm.0441-1.75.0783.0357zm-4.969 5.323.0332.0194zm.0455.0829v.0152zm-.229.9369.1199-.2413.1171-.1375.146-.0594.1697-.0359.102-.0261.175-.007.1418.0233.0152.001.004.1845-.073.0745-.1517.3679-.1902.135-.2162.0825-.339-.2106zm5.297-4.828-.0275-.003zm-1.546 2.559.018.008zm.9013-1.246.0522.0592-.0536.0896-.006-.055-.0204-.0841zm-.1143.2522.066.0222zm.2272-.7592-.12.1072.0981-.1172zm-.1224.1735.0138.0441-.043.0138zm-.8188 1.324-.0289.091.0208-.0332zm-2.992 1.53.005.1048-.0289-.0635-.055-.0412.0385-.0152.0568-.0456.0152-.001zm1.609-.55.0441.003-.0646.0152zm-.0564.0274h.0483zm-.037.0497.005.0441zm.8294.4368.006.0441zm-.8872-.5733.0275-.0495zm2.801-8.514-.084.0013-.0289-.02604zm.0801-.0441-.0374.02082.0194-.02466zm-.01-.07966.0152.04121zm-.0109-.02368-.000996.01651zm-.8033-.3542.0204.03034-.0247-.03034zm.9977 5.381-.0318.0237.0275-.0223zm-.2618-1.228.1542.0716-.0536.0371-.1626-.0631-.054-.0208zm-1.339 4.016.0219.0165zm-.1394.157.0138.0441-.0441-.0371zm-2.784 1.645.0635-.0371.01.0177zm1.172-.7759-.007-.0469.007-.0194zm.0868-.0715-.0399-.0237zm-.2452.1361-.0289.0844-.0896-.0251.0797-.0466zm.6089-.2575.0194-.0815.01.0317zm-.332.0635.003-.001zm2.305-8.007h.0385z" fill="none" stroke="#b6242a" stroke-linecap="round" stroke-linejoin="round" stroke-width=".5868"/><path transform="matrix(.2647 0 0 .2647 -.05366 0)" d="m120.9 132.6-36.01 38.99c-5.027-6.34-9.182-13.16-12.12-20.15l-9.242 43.29-.2812.3008.1836.1602-6.561 30.75 73.04-21.73c-7.315-2.483-14.52-6.158-21.3-10.71l36.01-38.99-23.71-21.91zm-48.14 18.84v-.00391l-.01172-.02148c.003594.00855.008122.01684.01172.02539zm40.98 7.43c.6765.02844 1.376.3768 2.1 1.045l3.26 3.012-1.588 1.721-.5312-.4902-1.955-1.807c-.4684-.4327-.8002-.7178-.9961-.8574-.1929-.1428-.3544-.2284-.4844-.2539-.1734-.0361-.3433-.02369-.5098.03516-.1697.05585-.3216.1562-.457.3027-.3297.3569-.4502.7666-.3613 1.227.08566.4571.3718.909.8594 1.359l2.633 2.434-1.58 1.711-7.438-6.869 1.58-1.711 2.869 2.648c-.07385-.5466-.05096-1.034.07031-1.459.1181-.4283.3403-.8175.6641-1.168.571-.6182 1.192-.9105 1.865-.8789zm-6.191 6.156 1.396 1.289c-.3742.08544-.7077.2098-1.002.375-.2913.162-.5546.3694-.7871.6211-.4415.478-.6445.9811-.6113 1.508.03291.5206.2986 1.011.7988 1.473.5003.4621 1.012.691 1.537.6856.5245-.01158 1.008-.2564 1.449-.7344.2472-.2677.4409-.5585.582-.8711.144-.3158.2334-.6479.2656-.9961l1.4 1.295c-.1485.3589-.3269.6982-.5352 1.02-.2022.3211-.4314.6212-.6875.8984-.8918.9655-1.837 1.491-2.834 1.58-1 .0857-1.942-.2784-2.824-1.094s-1.32-1.724-1.311-2.725c.00625-1.004.4558-1.99 1.348-2.955.259-.2804.5387-.5321.8398-.7559.3009-.2299.6256-.4337.9746-.6133zm-5.041 4.939 1.553 1.426c-.2084.085-.3982.1883-.5684.3086-.1704.1142-.3246.2467-.4629.3965-.4062.4397-.5785.9092-.5156 1.41.06259.4948.357.985.8828 1.471l2.467 2.279-1.582 1.711-5.352-4.945 1.58-1.711.8789.8125c-.1474-.5436-.169-1.03-.06641-1.461.1024-.4369.3372-.8556.7051-1.254.05298-.05736.1135-.1166.1816-.1777.06496-.06402.1651-.1529.2988-.2656zm-5.203 6.705c.7766-.0799 1.594.2766 2.451 1.068l3.055 2.822-1.594 1.725-.793-.7324c.1131.5296.1112 1.007-.0039 1.432-.1183.4222-.3684.839-.7481 1.25-.5122.5544-1.088.8562-1.73.9062-.6429.04391-1.224-.1716-1.74-.6484-.6277-.5798-.8894-1.221-.7852-1.922.1072-.7042.5878-1.517 1.441-2.441l.9316-1.01-.1328-.123c-.2708-.2502-.5672-.3253-.8887-.2266-.3247.09575-.6973.3698-1.115.8223-.3385.3664-.6159.7399-.834 1.123s-.3788.7793-.4824 1.186l-1.305-1.207c.2493-.4489.5215-.8782.8184-1.289.2936-.4138.6117-.8042.9531-1.174.8919-.9655 1.725-1.487 2.502-1.561zm1.502 3.391-.8203.8887c-.3297.3569-.5178.6811-.5645.9746-.04375.2903.05131.5458.2871.7637.2167.2002.4542.2845.7109.2559.2565-.03473.5038-.1814.7422-.4395.2973-.3218.4326-.6971.4062-1.129-.02952-.4347-.2171-.8139-.5645-1.135l-.1973-.1797zm-7.246 3.203c.9746-.03864 1.885.3342 2.732 1.117l.4883.4512-3.695 4c.4398.3294.8744.4615 1.305.3984.4303-.06311.8516-.3176 1.264-.7637.3326-.3601.6192-.7769.8613-1.25.2419-.4792.4386-1.017.5898-1.615l1.32 1.219c-.2209.546-.48 1.056-.7773 1.531-.2942.4783-.6281.9195-1.002 1.324-.8948.9687-1.836 1.497-2.824 1.582-.9884.07909-1.927-.2921-2.816-1.113-.8731-.8065-1.317-1.705-1.332-2.693-.01166-.9911.4101-1.947 1.264-2.871.7771-.8412 1.651-1.281 2.623-1.316zm-.5098 1.914c-.3744.00257-.7018.157-.9844.4629-.3061.3314-.4615.6856-.4648 1.066-.006502.3778.1419.7541.4453 1.129l2.053-2.221c-.325-.3002-.6747-.4462-1.049-.4375zm-5.705 3.885 1.301 1.199c-.4914.2252-.9328.4738-1.324.7441-.3914.2703-.7282.5567-1.008.8594-.3002.325-.4826.6059-.5469.8418-.06458.2297-.01264.4221.1562.5781.137.1266.2983.1654.4805.1152.1851-.05338.4373-.2194.7578-.4961l.3203-.2617c.921-.7732 1.649-1.193 2.184-1.26.5345-.06724 1.074.151 1.619.6543.5704.5269.8049 1.133.7031 1.818-.1018.6855-.5374 1.446-1.309 2.281-.3267.3537-.6939.6933-1.102 1.02-.4015.326-.8428.6363-1.322.9316l-1.301-1.201c.4806-.1879.9273-.4228 1.34-.7031.4155-.2835.7953-.6089 1.137-.9785.3091-.3346.495-.6286.5586-.8828.06359-.2542.003897-.467-.1777-.6348-.1529-.1413-.3198-.1869-.502-.1367-.1824.04408-.4542.2222-.8164.5312l-.3164.2656c-.7991.6733-1.469 1.044-2.01 1.111-.5407.06748-1.074-.1432-1.6-.6289-.5672-.5239-.8097-1.106-.7246-1.748.08506-.6419.4985-1.365 1.24-2.168.2914-.3155.6216-.6246.9902-.9277.3686-.3032.7928-.6102 1.271-.9238zm-5.297 6.662c.9746-.03864 1.887.3342 2.734 1.117l.4883.4492-3.695 4.002c.4398.3294.8744.4615 1.305.3984.4303-.0631.8516-.3176 1.264-.7637.3326-.3601.6192-.7769.8613-1.25.2419-.4792.4386-1.017.5898-1.615l1.32 1.219c-.2209.546-.48 1.056-.7773 1.531-.2942.4782-.6281.9195-1.002 1.324-.8948.9687-1.838 1.495-2.826 1.58-.9884.0791-1.925-.2921-2.814-1.113-.8731-.8065-1.317-1.704-1.332-2.691-.01166-.9911.4081-1.947 1.262-2.871.7771-.8412 1.651-1.281 2.623-1.316zm-.5078 1.914c-.3744.00256-.7038.155-.9863.4609-.3061.3314-.4596.6876-.4629 1.068-.006502.3778.1419.7542.4453 1.129l2.053-2.223c-.325-.3002-.6747-.4442-1.049-.4356zm-5.236 2.857 1.553 1.426c-.2084.085-.3962.1883-.5664.3086-.1704.1142-.3265.2448-.4648.3945-.4062.4397-.5765.9112-.5137 1.412.06259.4948.3571.985.8828 1.471l2.465 2.277-1.58 1.711-5.354-4.945 1.582-1.711.8789.8125c-.1474-.5436-.171-1.03-.06836-1.461.1024-.4369.3391-.8536.707-1.252.05298-.05736.1135-.1166.1816-.1777.06496-.06402.1632-.1529.2969-.2656z" fill="#00f" stroke-width="3.778"/><path d="m121.6 65.24h-111.8v-64.53" fill="none" stroke="#000" stroke-width=".758"/><path d="m10.98 21.54c10.66.1348 31.06 39.29 110.1 42.55" fill="none" stroke="url(#a)" stroke-linecap="round" stroke-width="1.937"/><g transform="scale(1 -1)" stroke-width=".3528"><text x="70.166862" y="-8.433134"><tspan x="70.166862" y="-8.433134" stroke-width=".3528"/></text><text x="101.70519" y="-8.433134"><tspan x="101.70519" y="-8.433134" stroke-width=".3528"/></text><text x="111.05381" y="-8.433134"><tspan x="111.05381" y="-8.433134" stroke-width=".3528"/></text><text x="78.457146" y="-12.384241"><tspan x="78.457146" y="-12.384241" stroke-width=".3528"/></text></g><path d="m121.1 64.04c0 .5733-.4396 1.038-.9839 1.038-.5429 0-.9839-.4643-.9839-1.038 0-.5733.441-1.039.9839-1.039.5443 0 .9839.466.9839 1.039z" fill="#0f0"/><path d="m121.1 64.04c0 .5733-.4396 1.038-.9839 1.038-.5429 0-.9839-.4643-.9839-1.038 0-.5733.441-1.039.9839-1.039.5443 0 .9839.466.9839 1.039z" fill="none" stroke="#000" stroke-linecap="round" stroke-linejoin="round" stroke-width=".5868"/><path d="m106.9 62.75c0 .5733-.441 1.039-.9839 1.039-.5443 0-.9839-.4656-.9839-1.039 0-.5733.4396-1.038.9839-1.038.5429 0 .9839.4643.9839 1.038z" fill="#06f600"/><path d="m106.9 62.75c0 .5733-.441 1.039-.9839 1.039-.5443 0-.9839-.4656-.9839-1.039 0-.5733.4396-1.038.9839-1.038.5429 0 .9839.4643.9839 1.038z" fill="none" stroke="#000" stroke-linecap="round" stroke-linejoin="round" stroke-width=".5868"/><path d="m94.37 60.71c0 .5733-.4396 1.038-.9839 1.038-.5429 0-.9839-.4643-.9839-1.038 0-.5733.441-1.039.9839-1.039.5443 0 .9839.4661.9839 1.039z" fill="#0bdf00"/><path d="m94.37 60.71c0 .5733-.4396 1.038-.9839 1.038-.5429 0-.9839-.4643-.9839-1.038 0-.5733.441-1.039.9839-1.039.5443 0 .9839.4661.9839 1.039z" fill="none" stroke="#000" stroke-linecap="round" stroke-linejoin="round" stroke-width=".5868"/><path d="m81.77 58.36c0 .5733-.441 1.039-.9839 1.039-.5443 0-.9839-.4656-.9839-1.039 0-.5733.4396-1.039.9839-1.039.5429 0 .9839.4661.9839 1.039z" fill="#1ac700"/><path d="m81.77 58.36c0 .5733-.441 1.039-.9839 1.039-.5443 0-.9839-.4656-.9839-1.039 0-.5733.4396-1.039.9839-1.039.5429 0 .9839.4661.9839 1.039z" fill="none" stroke="#000" stroke-linecap="round" stroke-linejoin="round" stroke-width=".5868"/><path d="m65.37 53.43c0 .5733-.4396 1.038-.9839 1.038-.5429 0-.9839-.4643-.9839-1.038 0-.5733.441-1.039.9839-1.039.5443 0 .9839.4661.9839 1.039z" fill="#08a700"/><path d="m65.37 53.43c0 .5733-.4396 1.038-.9839 1.038-.5429 0-.9839-.4643-.9839-1.038 0-.5733.441-1.039.9839-1.039.5443 0 .9839.4661.9839 1.039z" fill="none" stroke="#000" stroke-linecap="round" stroke-linejoin="round" stroke-width=".5868"/><path d="m56.07 49.31c0 .5733-.441 1.038-.9853 1.038-.5429 0-.9839-.4646-.9839-1.038 0-.5747.441-1.039.9839-1.039.5443 0 .9853.4643.9853 1.039z" fill="#929b00"/><path d="m56.07 49.31c0 .5733-.441 1.038-.9853 1.038-.5429 0-.9839-.4646-.9839-1.038 0-.5747.441-1.039.9839-1.039.5443 0 .9853.4643.9853 1.039z" fill="none" stroke="#000" stroke-linecap="round" stroke-linejoin="round" stroke-width=".5868"/><path d="m12.15 21.74c0 .5733-.441 1.039-.9839 1.039-.5443 0-.9839-.4657-.9839-1.039s.4396-1.039.9839-1.039c.543 0 .9839.466.9839 1.039z" fill="#f00"/><path d="m12.15 21.74c0 .5733-.441 1.039-.9839 1.039-.5443 0-.9839-.4657-.9839-1.039s.4396-1.039.9839-1.039c.543 0 .9839.466.9839 1.039z" fill="none" stroke="#000" stroke-linecap="round" stroke-linejoin="round" stroke-width=".5868"/><path d="m16.77 23.39c0 .5733-.441 1.039-.9842 1.039-.543 0-.9839-.466-.9839-1.039s.441-1.039.9839-1.039c.5432 0 .9842.4657.9842 1.039z" fill="#ec1700"/><path d="m16.77 23.39c0 .5733-.441 1.039-.9842 1.039-.543 0-.9839-.466-.9839-1.039s.441-1.039.9839-1.039c.5432 0 .9842.4657.9842 1.039z" fill="none" stroke="#000" stroke-linecap="round" stroke-linejoin="round" stroke-width=".5868"/><path d="m24.9 29.33c0 .5733-.441 1.038-.9853 1.038-.5429 0-.9839-.4646-.9839-1.038 0-.5747.441-1.039.9839-1.039.5443 0 .9853.4643.9853 1.039z" fill="#ee4d00"/><path d="m24.9 29.33c0 .5733-.441 1.038-.9853 1.038-.5429 0-.9839-.4646-.9839-1.038 0-.5747.441-1.039.9839-1.039.5443 0 .9853.4643.9853 1.039z" fill="none" stroke="#000" stroke-linecap="round" stroke-linejoin="round" stroke-width=".5868"/><path d="m32.67 35.89c0 .5733-.441 1.039-.9853 1.039-.5429 0-.9839-.4656-.9839-1.039 0-.5733.441-1.038.9839-1.038.5443 0 .9853.4643.9853 1.038z" fill="#bf7e00"/><path d="m32.67 35.89c0 .5733-.441 1.039-.9853 1.039-.5429 0-.9839-.4656-.9839-1.039 0-.5733.441-1.038.9839-1.038.5443 0 .9853.4643.9853 1.038z" fill="none" stroke="#000" stroke-linecap="round" stroke-linejoin="round" stroke-width=".5868"/><path d="m40.77 41.66c0 .5733-.441 1.038-.9839 1.038-.5443 0-.9839-.4643-.9839-1.038 0-.5733.4396-1.039.9839-1.039.5429 0 .9839.4661.9839 1.039z" fill="#bd6700"/><path d="m40.77 41.66c0 .5733-.441 1.038-.9839 1.038-.5443 0-.9839-.4643-.9839-1.038 0-.5733.4396-1.039.9839-1.039.5429 0 .9839.4661.9839 1.039z" fill="none" stroke="#000" stroke-linecap="round" stroke-linejoin="round" stroke-width=".5868"/><path d="m92.57 48.62c0 .5748-.441 1.039-.9839 1.039-.5443 0-.9839-.4645-.9839-1.039 0-.5733.4396-1.038.9839-1.038.5429 0 .9839.4643.9839 1.038z" fill="#42e300"/><path d="m86.77 54.49c0 .5733-.441 1.038-.9839 1.038-.5443 0-.9853-.4643-.9853-1.038 0-.5733.441-1.039.9853-1.039.5429 0 .9839.4661.9839 1.039z" fill="#ace500"/><path d="m79.27 52.45c0 .5748-.4396 1.039-.9839 1.039-.5429 0-.9839-.4645-.9839-1.039 0-.5733.441-1.038.9839-1.038.5443 0 .9839.4643.9839 1.038z" fill="#9bf800"/><path d="m78.37 44.2c0 .5733-.4396 1.039-.9839 1.039-.5429 0-.9839-.4656-.9839-1.039 0-.5733.441-1.039.9839-1.039.5443 0 .9839.4661.9839 1.039z" fill="#3cde00"/><path d="m72.67 50.1c0 .5733-.4396 1.038-.9839 1.038-.5429 0-.9839-.4646-.9839-1.038 0-.5747.441-1.039.9839-1.039.5443 0 .9839.4643.9839 1.039z" fill="#6ba300"/><path d="m61.97 45.81c0 .5733-.441 1.039-.9839 1.039s-.9839-.4656-.9839-1.039c0-.5733.441-1.038.9839-1.038s.9839.4643.9839 1.038z" fill="#8bbf00"/><path d="m61.77 39.86c0 .5733-.441 1.039-.9839 1.039s-.9839-.4656-.9839-1.039c0-.5733.441-1.038.9839-1.038s.9839.4643.9839 1.038z" fill="#a2be00"/><path d="m49.17 40.39c0 .5733-.441 1.039-.9853 1.039-.5429 0-.9839-.4656-.9839-1.039 0-.5733.441-1.038.9839-1.038.5443 0 .9853.4643.9853 1.038z" fill="#cd5b00"/><path d="m38.57 37.16c0 .5733-.441 1.038-.9853 1.038-.5429 0-.9839-.4643-.9839-1.038 0-.5733.441-1.039.9839-1.039.5443 0 .9853.4661.9853 1.039z" fill="#a47400"/><path d="m46.67 30.52c0 .5733-.441 1.038-.9839 1.038-.5443 0-.9853-.4646-.9853-1.038 0-.5747.441-1.039.9853-1.039.5429 0 .9839.4643.9839 1.039z" fill="#ae6b00"/><path d="m39.37 27.03c0 .5733-.441 1.039-.9853 1.039-.5429 0-.9839-.4657-.9839-1.039s.441-1.038.9839-1.038c.5443 0 .9853.4643.9853 1.038z" fill="#b77600"/><path d="m33.17 31.29c0 .5747-.4394 1.039-.9839 1.039-.5428 0-.9838-.4646-.9838-1.039 0-.5733.441-1.038.9838-1.038.5445 0 .9839.4643.9839 1.038z" fill="#b49400"/><path d="m32.17 27.48c0 .5733-.441 1.038-.9839 1.038-.5443 0-.9853-.4646-.9853-1.038 0-.5747.441-1.039.9853-1.039.5429 0 .9839.4643.9839 1.039z" fill="#c94e00"/><path d="m20.19 22.92 4.287-1.53.6406-1.064-.2257-1.408.6875-3.276 3.156-3.084-.9493 7.133-.8602-.4135-.7909.2603-3.022-1.075-1.144 2.23 3.225 3.471z" fill="none" stroke="#ff2b00" stroke-linecap="round" stroke-linejoin="round" stroke-width=".5868"/><path d="m29.17 12.56c0 .2275-.1764.412-.393.412-.2162 0-.3912-.1845-.3912-.412 0-.2286.175-.4135.3912-.4135.2166 0 .393.1849.393.4135z" fill="#00f"/><path d="m29.17 12.56c0 .2275-.1764.412-.393.412-.2162 0-.3912-.1845-.3912-.412 0-.2286.175-.4135.3912-.4135.2166 0 .393.1849.393.4135z" fill="none" stroke="#fff" stroke-linecap="round" stroke-linejoin="round" stroke-width=".1467"/><path d="m28.21 19.64c0 .2286-.1764.4131-.393.4131-.2162 0-.3912-.1845-.3912-.4131 0-.2275.175-.412.3912-.412.2166 0 .393.1845.393.412z" fill="#00f"/><path d="m28.21 19.64c0 .2286-.1764.4131-.393.4131-.2162 0-.3912-.1845-.3912-.4131 0-.2275.175-.412.3912-.412.2166 0 .393.1845.393.412z" fill="none" stroke="#fff" stroke-linecap="round" stroke-linejoin="round" stroke-width=".1467"/><path d="m27.31 19.28c0 .229-.175.4135-.3912.4135-.2166 0-.393-.1845-.393-.4135 0-.2272.1764-.412.393-.412.2162 0 .3912.1849.3912.412z" fill="#00f"/><path d="m27.31 19.28c0 .229-.175.4135-.3912.4135-.2166 0-.393-.1845-.393-.4135 0-.2272.1764-.412.393-.412.2162 0 .3912.1849.3912.412z" fill="none" stroke="#fff" stroke-linecap="round" stroke-linejoin="round" stroke-width=".1467"/><path d="m26.52 19.54c0 .2272-.1764.412-.3926.412-.2164 0-.3912-.1849-.3912-.412 0-.229.1749-.4135.3912-.4135.2162 0 .3926.1845.3926.4135z" fill="#00f"/><path d="m26.52 19.54c0 .2272-.1764.412-.3926.412-.2164 0-.3912-.1849-.3912-.412 0-.229.1749-.4135.3912-.4135.2162 0 .3926.1845.3926.4135z" fill="none" stroke="#fff" stroke-linecap="round" stroke-linejoin="round" stroke-width=".1467"/><path d="m25.51 20.32c0 .2275-.175.4135-.3914.4135-.2162 0-.3915-.1859-.3915-.4135 0-.2286.1753-.4135.3915-.4135.2164 0 .3914.1849.3914.4135z" fill="#00f"/><path d="m25.51 20.32c0 .2275-.175.4135-.3914.4135-.2162 0-.3915-.1859-.3915-.4135 0-.2286.1753-.4135.3915-.4135.2164 0 .3914.1849.3914.4135z" fill="none" stroke="#fff" stroke-linecap="round" stroke-linejoin="round" stroke-width=".1467"/><path d="m24.87 21.4c0 .2286-.175.4135-.3917.4135-.2162 0-.3912-.1849-.3912-.4135 0-.2275.175-.412.3912-.412.2166 0 .3917.1845.3917.412z" fill="#00f"/><path d="m24.87 21.4c0 .2286-.175.4135-.3917.4135-.2162 0-.3912-.1849-.3912-.4135 0-.2275.175-.412.3912-.412.2166 0 .3917.1845.3917.412z" fill="none" stroke="#fff" stroke-linecap="round" stroke-linejoin="round" stroke-width=".1467"/><path d="m25.58 24.16c0 .2272-.175.412-.3912.412s-.3912-.1849-.3912-.412c0-.229.175-.4135.3912-.4135s.3912.1845.3912.4135z" fill="#00f"/><path d="m25.58 24.16c0 .2272-.175.412-.3912.412s-.3912-.1849-.3912-.412c0-.229.175-.4135.3912-.4135s.3912.1845.3912.4135z" fill="none" stroke="#fff" stroke-linecap="round" stroke-linejoin="round" stroke-width=".1467"/><path d="m20.58 22.92c0 .2286-.175.4131-.3912.4131-.2166 0-.3915-.1845-.3915-.4131 0-.2275.1749-.412.3915-.412.2162 0 .3912.1845.3912.412z" fill="#00f"/><path d="m20.58 22.92c0 .2286-.175.4131-.3912.4131-.2166 0-.3915-.1845-.3915-.4131 0-.2275.1749-.412.3915-.412.2162 0 .3912.1845.3912.412z" fill="none" stroke="#fff" stroke-linecap="round" stroke-linejoin="round" stroke-width=".1467"/><path d="m22.4 20.63c0 .2275-.175.412-.3912.412-.2164 0-.3912-.1845-.3912-.412 0-.2286.1749-.4131.3912-.4131.2162 0 .3912.1845.3912.4131z" fill="#00f"/><path d="m22.4 20.63c0 .2275-.175.412-.3912.412-.2164 0-.3912-.1845-.3912-.412 0-.2286.1749-.4131.3912-.4131.2162 0 .3912.1845.3912.4131z" fill="none" stroke="#fff" stroke-linecap="round" stroke-linejoin="round" stroke-width=".1467"/><path d="m23.45 18.42c0 .229-.1749.4135-.3912.4135-.2162 0-.3915-.1845-.3915-.4135 0-.2272.1753-.412.3915-.412.2164 0 .3912.1849.3912.412z" fill="#00f"/><path d="m23.45 18.42c0 .229-.1749.4135-.3912.4135-.2162 0-.3915-.1845-.3915-.4135 0-.2272.1753-.412.3915-.412.2164 0 .3912.1849.3912.412z" fill="none" stroke="#fff" stroke-linecap="round" stroke-linejoin="round" stroke-width=".1467"/><path d="m25.97 15.64c0 .2286-.1749.4135-.3912.4135-.2162 0-.3912-.1849-.3912-.4135 0-.2275.175-.412.3912-.412.2164 0 .3912.1845.3912.412z" fill="#00f"/><g fill="none" stroke-linecap="round" stroke-linejoin="round"><path d="m25.97 15.64c0 .2286-.1749.4135-.3912.4135-.2162 0-.3912-.1849-.3912-.4135 0-.2275.175-.412.3912-.412.2164 0 .3912.1845.3912.412z" stroke="#fff" stroke-width=".1467"/><g stroke-width=".5868"><path d="m115.3 59.51.007-.08957.018.04974.007-.0016h.0469l-.01.0081-.0233.01807zm4.543-9.806-.3376-.06216-.1834.1877-.1655.2451-.0289.01516-.1086.12-.1076.1005-.146.1598-.1654.1873-.1845.05539-.102.06311-.2812.229-.0938.1185-.1143-.08435-.0949-.0412.0356-.1571.1337-.2232.0194-.284-.0787-.1253-.1517.04561-.368.412-.1418.1034-.2011.365-.1902.07595-.1986-.0085-.0289-.0053-.1115.3333.008.02082.0868.1623.0303.0222.0483.05112.1556-.0056.1588-.02082.0522.1295-.0208.1474.3418.06202.1284-.1859.1319-.1104.2233.07578.1104.05405.1489-.05116.1679.02759.0469.06876-.0303.1185-.0674.07733-.1394.0013-.339.1721.0236.02646-.0526.06174-.0109.1408-.1214.04547-.0621.02604-.1129.2121-.1542.2759-.0138.0095.0289.146.3306.1502.1503.2135.2134.4851.1902.2318.2399.2135-.3002.01516-.302-.04272.018.02082.1983.06738.2053.09768.0868.05542.0663.2519-.12.07581-.0825.0773-.1736.1242-.12.06876.2699-.0056.3006.08156.0674.1142-.1598.128.0924-.01791.1238.06353-.0452.07154-.003-.01791-.007.02357-.0783-.03461-.0332.08544.0579.1063-.0109.07578.0109.09384.0194.0907-.1171.0744-.0924-.01238-.0152.1133-.1185.05496-.018.1793-.0385.1954-.0787-.0038-.0208-.007.0455.06488-.2078.1735-.054.08682.01.1006-.0127.157.0346.1422-.0194.1086-.1143.04022-.0483.1447-.1182.1749-.0279.09384-.1475.04519-.1171.05401.0303.08819-.2618.2798-.0688.06202-.0677.06174-.0854.08819-.1542.05539.0617.08544-.0977.1389-.2879.05923-.1654.07306-.1845.08971-.0663-.05789-.0977.055-.1034-.0095-.0208.0056.004.01902.0138.06918-.0924-.08142-.0688-.01103-.0825-.05927-.0568.1076-.01.1475.01.0095.0303.03186.0564-.05941-.0152.03997.007.02357-.001.0038-.0384.0016.0593.0853-.0759-.07687-.0564-.043-.1048.06064-.0977-.1446-.0815.2232-.1556.02466-.091.09246-.0829-.02893-.0508-.0013-.0815.03306-.0716.09924-.1514.03168-.2039.03983-.1118.03461-.0882.1101.003.1739-.01.2314-.1394-.08283-.1048-.1404-.0219-.1736.0317-.109.007-.09479-.0787-.06918-.0233-.066-.003.1062-.1916.01654-.1086-.1076-.0692.01516-.0413-.08819-.0522.04699-.0469.07444-.2096-.0099-.1475-.01363-.2494-.1447-.1185-.08393-.0289-.2428-.0455-.183-.1803-.02755-.1559-.02896-.0854-.09521-.1171-.07303-.1792.1517-.1654.1323-.1803.0095-.1739-.05112-.1542.03168-.4054.04547-.1968.0043-.0854.2424.0138.313-.1295.0084-.109-.2194-.2921.06491-.1475-.08544-.0536-.1612-.2688-.2603.0854-.2153-.2039-.2409-.0247-.1119-.0416-.1375-.0152-.1422-.4505.02368.0427-.2356.0222-.1531.0702-.1337.1817-.149.1588-.1513.0811-.09659.0388-.1087.0494-.2441v-.1694l-.0882-.229-.0854-.1929-.003-.1006-.0536-.08103-.0801-.04837-.1432.0222-.0469.05648-.0342.1308-.0759.0386h-.001l-.0261-.02191-.1185-.08544-.2812-.1778-.1242-.03172h-.007l-.5016.2286-.4879.2508h-.0261l-.1143-.01802-.4149-.1446-.0261-.2234-.0871-.2024-.2656-.1063-.1612-.0991-.1891-.09493-.4134.2798-.0674.07549-.0275-.4174-.3362.0016-.1323.01516-.3186-.1902-.194-.06216-.1185.0029-.1199-.1725-.1612-.07444-.007-.1585-.2589-.1778-.0247-.1968-.2607-.1352-.1887-.237-.1902-.2689-.1295-.164-.0233-.02896-.2565.08573-.146-.2304-.2868-.3471-.1044-.06491-.1132-.1432-.0342-.1337.0289-.1201.0138-.128-.007-.2314.1281-.03997.2124.0149-.0702-.3871.0483-.1943.0949-.1447.0289-.04547-.1129-.1943-.0663-.3197.0113-.1393-.3404-.2053-.0744-.1542-.1432-.1047.0494-.2465-.1199-.1902-.2011-.2039-.1048-.05112.1683-.02082.0854-.2078.0825-.3365-.2191-.1694-.084-.1778.0138-.1669.1584-.1472.2798-.1379.229-.08957.2314.06212.0469.128.3306-.1323h.4177l.1432-.06491h.1736l.4314-.09493.212-.1916.1517-.1682.0536-.09208.073-.2854.0222-.3281-.0815-.2865.2646.0016.3845-.0085.2275.1488-.036-.237.2427-.3732.2769-.2152.4011.2205.1612.0043.2604-.5305.4216-.2453.1944-.02896.109.1944.0854.1651.2371.2935.194.116.1697.441.0166.3828-.12.2289.1983.3584.1626.05652.8326.5111.1778.0882.005.09493.0953.3888.1171.2811.0497.0095.2395.02508.714.1348.8004.127.2233.1943.5539.2078.1901.09246.9056-.3252.7923-.05652.2783-.1366.2589-.2822.0427-.422.1351-.3802.321.1212.4135-.1418.2618-.1739.3778-.2053.0607-.2053.2949-.164.2342-.1266.1693-.02466.3309.01516-.2346-.4396-.1044-.08573-.3641-.0303-.2508.02508-.332.08957-.007-.32.2247-.6847.4632-.0081.2286-.1601.018-.1902.1062-.3154.1489-.3831.0854-.3195-.182-.08297.0388-.1432.2769-.2494.0607-.02466.2272-.07055.175-.02617.5789.07867.3404.1172.1252.2191.0688.05923.007.1185.1295.2191.0607.1129.1157.1877.1214.23.1475.2921.3775.02893.2205.02896.3073.1612.0896.1929.0138.1531.1944.08961.3556-.07581.2081-.248.3746-.2343.0413.2343-.0603.3552-.008.1877.0194.1997-.0691.3528-.037.2976-.4604.149-.1626.1542.1902.6092.006.01902-.004.1877-.1626.237.0402.09356-.2371-.2053-.054.09906.007.1764-.0868.01807-.3514.2811-.004.1309-.01.1778zm-1.155 7.975h.003l.003.0024.003.0013h.003l.004.0043.004.0013.006.0081.002.0013v.0013l.001.0029-.001.0056.003.0024.003.0013h.003l.001.0013-.003.0016.001.0028.007.007.008-.0013.007-.0056.001.0028-.002.0016h-.001l-.001.0028.001.0011-.004.0028v.0043l.006.0029.001.0013h.003v.0038l.001.0013h.006l.003.0029.002.0013h.003l.001.0013v.0043l.001.0013-.003.0038h.001l.007-.0066-.003-.0029v-.0028h.001l.001.0028h.001l.001-.0028.003.0013v.0028h.001l.003.0016.003.0028.003-.0028h.002v.0039l.001.0028h.003l.003-.0013h.003l-.003.0029v.0028l.001.0013h.003l.001-.0013.002-.0013.004.0013h.01l.01.0013h.003l.004-.0013.003-.0013h.004v.0028l-.003.0029.003.0028v.0039l-.001.0016-.003.007.001.0038.007.0056v.0013l-.001.0013v.0097l.001.0013.007.0056.006.0013.003-.0013.001-.0016h.004l.001.0016.003.0013.001.0024.001-.0011h.001l.002.0024v.0043h-.002l-.001.0013-.004.0029-.001.0013h-.003l-.001.0024-.005.0013-.003.0013h-.001l-.003.0013-.001.0016h-.001l-.005.0028-.004.0081h-.001l-.003.0013-.001.0029-.002.0013-.004.0028v.0068l-.006.0056h-.001l-.005.007-.003.0024-.003.0043-.001.0013-.003.0057-.002.0067-.001.0028-.001.0043.001.0053-.003.0043v.0056l-.001.02053.003.0013-.001.0028.001.0043.001.0024v.0028l.001.0016.004.0056v.0204l.001.0013v.0056l.006.01378v.0013l.003.0029v.0013l.005.0011.006.0056-.003.0013h-.003v-.0029l-.003-.0013h-.002v.0029l.002.0028v.0013l.003.0016h.003-.003v.0013l.003.0013v.0011h-.003l-.001.0028.001.0029v.0056l.001.0028v.0039l.001.0029-.001.0028h-.003l-.004.0029-.004.0013-.001.0013-.003.0011v.007l.004.0029v.0028l.003.0024.003.0013-.001.0016h-.003l-.007.0028-.007.0056v.0024l-.001.0043-.001.0013-.004.0028-.001.0016-.001.0038-.002.0056v.0028l-.001.0013v.01807l-.003.0039v.0029l-.004.007v.0038l.001.0028v.0072l-.001.0028h-.001l-.001.0024-.004.0029-.003.0055-.001.0082-.001.0016-.001.0041h-.001l-.001.0029h-.001l-.004.0013-.006.0067-.001.0013-.003.0013-.004.0043h-.003l-.003.0024-.006.0084-.001.0043v.0081l.003.007-.001.0081h-.001l-.001.0028-.007.0068-.003.0013-.004.0043-.002.0043v.01654l.001.0024v.0043l.0109.0109v.0029l-.001.0055-.003-.0013v.0029l.001.0013-.003.0013-.001.0039h.003l-.001.0043h-.003l-.001-.0013h-.001l-.003.0013v.0013l-.001.0029-.003.0038.003.0043v.0095l-.001.0113v.0028l-.001.0068v.007l-.004.0067v.007l-.004.0082-.004.0056-.001.0038v.01791l-.001.0099-.006.0067-.001.0013v.0028l-.001.0029v.0024h.001l.001.0043-.001.0013-.001.0028v.0016l-.001.01087-.001.0013v.0013l.001.0016-.001.0013-.003.0013v.0038l-.003.0029v.01945l-.001.0013v.0066l-.001.0043-.001.0013-.001.0029-.003.0024v.0028l-.001.0056v.0056l-.001.0011-.001.0028.001.0016v.007l.003.0038v.0056l-.001.0028-.001.0016h-.004v.0013l.003.0013-.001.0024v.0056l-.001.0043-.005.01378v.0028l-.001.0013-.003.01765-.003.0056v.0081l-.001.0085-.003.0013h-.004l-.003.0013-.001.0052-.003.0029v.0028l-.001.0029-.001.0013v.0054l-.001.0013-.001.0028v.0029l-.002.0095.002.0028-.001.0029-.001.0013h-.003l-.001-.0028-.001.0013.001.0013v.0013l-.004.0024v.01241l.004.0084-.001.0043-.001.0024v.0084l.004.0043-.001.0038h-.006l-.001.0013-.002.0072h-.008l-.003.0028v.0024l-.001.0029v.0028l-.002.0043-.001.0066-.003.0016-.001.0084-.001.0024v.0028h-.001l-.001.0029-.002.0043-.001.0013-.001.0081-.001.0013v.0043l-.006.0053v.0013l-.003.0016-.004.0041v.0043l-.006.01087-.003.0029-.003.0053-.001.0056-.001.0013h-.001l-.004.0043v.0039l-.006-.0013-.001.0013-.005.0016-.008.007-.001.0013v.0013l.003.0054.001.0013h-.003l-.001.0028.001.0016h.001l.001.0028v.0024l.001.0029v.0028l-.004.0028-.001.0016-.002.0013-.001.0109-.003.0029-.004.0024-.003.0013v.0013l-.004.0029-.003.0028-.003.0013-.008.0081h-.003l-.001.0016-.003.0013h-.003l-.001.0013h-.002l-.006.0056-.004.0013v.0024l-.003.0013h-.002l-.001.0029-.006.0013-.001.0013-.003.0043-.001.0038-.001.0029v.0028l-.002.0029v.01365l-.001.0029v.0013l-.003.0039-.006.0043-.001.0029-.002.0013-.001.0013v.0024l-.001.0013v.0029l-.001.0028v.0029l-.001.0013v.0024l-.004.0098v.0029l-.001.0013v.0054l-.002.007v.0028l-.003.0024v.0043l-.001.0013-.001.0057-.001.0011v.0028l-.003.0043v.0013l-.001.0029-.005.01378-.001.0013-.001.0081-.003.0028-.004.01379v.0056l-.001.0013v.0082l.003.0029.001.02328.001.0013v.0028l-.001.0013-.001.0043.001.0011v.0071h-.001l-.001.0013v.0043l.001.0011v.0056l.001.0013-.003.0028v.0016l.001.0013v.0053l.001.0016-.001.0013v.0013h-.003v.0081l.001.0028.003.0029h.003v.0028l-.001.0016-.004.0066v.0029l.001.0028v.01241l.003.0041v.0029l-.006.0024-.001.0057h-.001l-.001.0013-.001.0029v.0013l-.001.0024h-.003v.0013l-.003.0013h-.005v.0029l-.001.0013v.01791l.007.01103v.0056l.003.0028v.0024l-.001.0013h-.003l-.004-.0038v-.0013l-.001-.0028-.001-.0016h-.003v-.0028l-.006-.0057h-.002l-.003-.0011-.001-.0013h-.003v-.0013l-.003-.0016h-.004l-.006-.0041-.001-.0013h-.004l-.003.0041h-.002v.0095l-.004.0043h-.006l-.001-.0028-.001-.0043-.003-.0011-.001-.0013.001-.0043v-.0084l.001-.0039v-.0043l-.003-.0029-.001-.0028-.006-.0038v-.0029l-.001-.0013v-.0028l-.002-.0016v-.0053l.007-.0056-.003-.0013.001-.0029.006-.0053-.001-.0013v-.0056h-.003l-.001-.0029.008-.0024.001-.0013v-.0028l-.001-.0016v-.0056l-.003-.0028v-.0024l-.003-.0029v-.0028l-.001-.0028v-.0029l-.001-.0039v-.0085l-.003-.0066-.001-.0013-.001-.0029v-.0028l.001-.0029-.004-.0053-.001-.0043-.001-.0028-.003-.0029-.007-.0053v-.0016l.001-.0028v-.0029l-.001-.0052-.003-.0043v-.0084l-.01-.01087-.007-.0054v-.0013l-.003-.007-.001-.0029-.0166-.01225h-.001l-.001-.0029-.0148-.0068-.003-.0028-.003-.0013-.001-.0013-.003-.0016-.004-.0013-.002-.0024-.004-.0013-.004-.0043-.008-.0056-.003-.0024.001-.0013v-.0028l-.003-.0029h-.004v-.01378l-.001-.0013.001-.0028v-.0054l.001-.0013v-.0029h-.003l-.001.0016-.001.0039.001.02082v.0013l-.008-.0028-.004-.0043h-.002l-.018-.01376-.001-.0024-.003-.0043h-.003l-.004-.0056h-.008v-.0013l.001-.0013h.003v-.0024l-.006-.0056v-.0013l-.001-.0029h-.003l-.002-.0053-.006-.0084-.003-.0029.001-.0013v-.0024l-.001-.0013v-.0029l-.005-.0056v-.0052l.001-.0056.006-.0057-.004-.0081.006.0056.004-.0043-.007-.0084-.007-.01516-.003-.0011-.001-.0056v-.0028l-.0138-.03048v-.0013l-.003-.0052v-.0029l-.001-.0028v-.0029l.001-.0013v.0013l.003.0016h.003v-.0029l-.003-.0068h-.003l-.001.0016v.0028h-.001v-.0028l-.004-.0099-.001-.0053-.003-.0056.001-.0016v-.01651l-.003-.0024v-.0028l.003.0028h.003l.001-.0013-.004-.0013v-.0016l.003-.0055-.001.0013-.004.0028-.001.0013-.004-.0055-.0124-.01241-.003-.0013-.005-.0067-.006-.0013-.001-.0029h-.001l-.007-.0041v-.0054l-.004.0024-.003.0013v-.0013l-.004-.0039v-.0113h-.002l-.001-.0013v-.0054l-.001-.0013.001-.0043.004-.0028.004-.0038.006-.0013h.001l.004-.0029.001-.0071-.001-.0011-.002-.0013v-.0113h-.004l-.001.0029.001-.0043v-.0039l.008-.01376v-.01132l.001-.0011.003.0011.003-.0054.003-.0028v-.0028l-.001-.0029.001-.0013.005-.0011.003-.0057-.003.0013-.001-.0013-.004-.0013.001-.0029.001-.0013v-.0028h-.001v-.0024l.005-.0099.0109.0029.001.0013-.001-.0029-.001-.0013h-.006l-.001-.0013v-.0081l.004-.0095h.003l.005-.0029.001-.007.001-.0024v-.0041l-.001-.0016-.001.0016-.001-.0016-.001-.0028v-.0029l.001-.0039v-.0028h-.003v-.0029l.004-.0056h-.003l-.002-.0013v-.0024l.001-.0028v-.0029l.001-.0013v-.0029l.001-.0028v-.0024h-.0138l-.001-.0028.001-.01378h.001l.006-.0056.003.0028h.002l.001-.0028h.001l-.007-.0067v-.0057l.001-.0028v-.0029h-.001l-.003-.0013v-.0024l.003-.0028h.002v-.0029l-.002-.0013v-.01516l.004-.01103.001-.0028.001-.0043.003-.0052.001-.0013.001-.0043.003-.0043-.001-.0024-.003-.0013v-.007h.001v-.0043l.003-.0013v-.0039h.005l.001-.0043.001-.0029-.003-.0028v-.0024l.001-.0013.001-.0056v-.0029l.004-.0028.001-.0011h.002v-.0013l.01-.01516h.003v-.0029h.002l.001.0016h.006v-.0016l.001-.0056.001-.0013h.003v-.0013l-.001-.0013v-.0024h.003l.001-.0029.001-.0013.003-.0013h.001v-.0029l.001-.0028.001-.0011.003-.0043v-.0028l.004-.0028.001-.0068.001-.0013.001-.0029v-.0013l.001-.0029.007-.01087v-.0013h-.006v-.0013l.001-.0068.003-.0013h.005l.001-.0043.001-.0013v-.0029l.001-.0028v-.0024l.001-.0043.006-.0043.001-.0028h.001l.004-.0024.003-.0013.001-.0013h.004v-.0029l.001-.0056.003-.0024.001-.0028.004-.0016.003-.0028v-.0028l-.001-.0016v-.0028l.003-.0024v-.0056l.001-.0013v-.0029l.001-.0024.001-.0013v-.0056l-.003-.0013v-.0029h.008l.001-.0013.008-.0109.003-.0013v-.0016l-.001-.0028h.003v-.0024l.001-.0056.003-.0013.005-.0081v-.0056l-.002-.0013-.001-.0029-.003-.0013.004-.0095.001-.0013v.0013l-.001.0028.001.0029h.001l.003-.0016v.0016l.001.0028v-.0013l.001-.0029v-.0013l-.006-.0084.001-.0024.004-.0029v-.0041l.004-.0016.002-.0028.003.0043h.001l.001-.0029v-.0013l-.004-.0024.003.0013.001-.0013v-.007l.007-.0043.001-.0024.004-.0028v-.0016l.003-.0028-.001-.0056.003-.0068.0138-.01789v-.0043l.006-.0013.005-.0038.004-.0056.001-.0029.007-.0095.001-.0043.003-.0028.0138-.04134.003-.0041v-.0011l.003-.0013.004-.0013.005.0052v-.0052l.004-.0016h.003v-.0028h-.003l-.001-.0029.001-.0013.001-.0039.004-.0084h.002l.003-.0029.008-.0013.005-.0024h.004l.006.0024.001.0013h.003l.003-.0013-.001-.0011h-.003l-.002-.0028-.003-.0016v-.0028l.001-.0013.002-.0016.008-.0052v-.0028l.001-.0016.001-.0028v-.0029l.001-.0039.002-.0028.008-.0043.004-.0028v-.0029l.001-.0013-.001-.0011v-.0028l.002-.0043v-.0056l.001-.0013v-.0054l.001-.0013v-.0028h-.003l-.001-.0016.001-.0013-.001-.0039.001-.0013.008-.0099.004-.0039.002-.0043v-.0028l.001-.0016.001-.0038.008-.0113-.001-.0013v-.0024l.008-.01405.007-.0068v-.0013l.007-.007v-.0038l-.001-.0029v-.0028l.004-.0054.001-.0043.0124-.01228.006-.0013.003-.0016.001-.0013h.003l.007-.007h.003l.002-.0024.004-.0013h.003l.018-.0056.003-.0013.004-.0029.006-.0039.003-.0029h.002l.0127-.0041h.002l.001-.0013.006-.0016.003.0016.004.0028h.002l.001-.0013.004-.0029h.018l.001-.0013.007-.0024.007-.0043h.001l.002-.0013.004-.0028.006-.0043.001-.0038.001-.0013h.002l.004.0028.008.0081v.0028l.002.0043.001.0024v.0029l.001.0013h.001l-.001-.01103-.003-.007-.001-.0013-.002-.0013-.001-.0038-.006-.0029h-.003l-.005-.0043v-.0028l.001.0013.002-.0013.004-.0081.004-.0043.001-.0028.001-.0011.001-.0028.001-.0043.001-.0013v-.0029l.001-.0013.006.0013h.001l.004-.01087.002-.0013.001-.0016.006-.0013.003-.0013v-.0024h.001v.0013h.008l.001-.0013v-.0029l.001-.0013.003.0029h.008l.001-.0016zm-.8227-6.474-.1143.06198-.0758.02053.0455-.1072.1143-.03182zm.3845-.1391-.0166.0495v-.0495zm.1408-.0043-.0388-.01791.0455.01378zm-.2992-.0441.0194.01241zm-.4452.4989-.0328-.0222zm-.0384.1076-.0388.02466zm.0247.04794.0289.02082zm-.1171.04561.0593.0441-.0621-.03323zm1.116 3.317.0208.05789.007-.0043-.0466-.03171zm.0991-.02646-.0384-.02191.0247-.01516zm.0332.02371.0318.02893zm.0815.1185-.0166.01378zm-.0635.1651.004.04272zm-.0512-.02755.0455.02082zm-.1196-.1238.0508.03983-.0924.0081-.002-.03979zm-.1379.11-.008.0375-.0141-.0441zm.1764.02759-.1034-.04798.0289.0095.0469.01376zm-.1281.04022.1129.1224-.1337-.03708zm.0935.2135-.0247.03305-.0233.0016.001-.04022.0356-.05514.036.02082zm-.0261.1129-.007.0441.004-.02053zm-.0536.1366.0289.03309zm-.0635.2508.0303.02328zm.0649.08819.0328.06488-.0536-.05539zm-.2565.2673.018-.007-.0621.05112zm-.0744.07867.0208.04519zm.0497.03006.0289-.01765.018.0204zm.0441-1.75.0783.0357zm-4.969 5.323.0332.01945zm.0455.08294v.01516zm-.229.9369.1199-.2413.1171-.1375.146-.05941.1697-.03595.102-.02606.175-.0067.1418.02328.0152.0013.004.1845-.073.07454-.1517.3679-.1902.135-.2162.08255-.339-.2106zm5.297-4.829-.0275-.0028zm-1.546 2.559.018.0084zm.9014-1.246.0522.05923-.0536.08957-.006-.05496-.0204-.08407zm-.1143.2522.066.0222zm.2272-.7592-.12.1072.0981-.1172zm-.1224.1735.0138.0441-.043.01378zm-.8188 1.324-.0289.09098.0208-.03323zm-2.992 1.53.005.1047-.0289-.06353-.055-.04121.0385-.01516.0568-.04561.0152-.0013zm1.609-.55.0441.0028-.0646.01516zm-.0564.02741h.0483zm-.037.04974.005.0441zm.8294.4368.006.0441zm-.8872-.5733.0275-.04946zm2.801-8.514-.084.0013-.0289-.02604zm.0801-.0441-.0374.02082.0194-.02466zm-.01-.07966.0152.04121zm-.0109-.02368-.001.01651zm-.8033-.3542.0204.03034-.0247-.03034zm.9977 5.381-.0318.02368.0275-.0223zm-.2618-1.228.1542.07165-.0536.03708-.1626-.06311-.054-.02082zm-1.34 4.016.0219.01654zm-.1394.157.0138.0441-.0441-.03708zm-2.784 1.645.0635-.03708.01.01765zm1.172-.7759-.007-.04685.007-.01939zm.0868-.07151-.0399-.02371zm-.2452.1361-.0289.08435-.0896-.02508.0797-.04657zm.6089-.2575.0194-.08146.01.03171zm-.332.0635.003-.0013zm2.305-8.007h.0385z" stroke="#b6242a"/><path d="m110.5 58.16 1.826-2.293 1.049-2.205 2.514-2.778 3.157-3.085-.8777 7.095-.9327-.3747-.7913.2605-1.009.7813-.642 1.079.7108 2.766z" stroke="#0f0"/></g></g><path d="m119.5 47.82c0 .2272-.175.412-.3916.412-.2162 0-.3912-.1848-.3912-.412 0-.2289.175-.4134.3912-.4134.2166 0 .3916.1845.3916.4134z" fill="#00f"/><path d="m119.5 47.82c0 .2272-.175.412-.3916.412-.2162 0-.3912-.1848-.3912-.412 0-.2289.175-.4134.3912-.4134.2166 0 .3916.1845.3916.4134z" fill="none" stroke="#fff" stroke-linecap="round" stroke-linejoin="round" stroke-width=".1467"/><path d="m118.6 54.88c0 .2275-.175.4134-.3916.4134-.2162 0-.3912-.1859-.3912-.4134 0-.2286.175-.4134.3912-.4134.2166 0 .3916.1848.3916.4134z" fill="#00f"/><path d="m118.6 54.88c0 .2275-.175.4134-.3916.4134-.2162 0-.3912-.1859-.3912-.4134 0-.2286.175-.4134.3912-.4134.2166 0 .3916.1848.3916.4134z" fill="none" stroke="#fff" stroke-linecap="round" stroke-linejoin="round" stroke-width=".1467"/><path d="m117.7 54.54c0 .2289-.175.4134-.3912.4134-.2166 0-.3916-.1845-.3916-.4134 0-.2273.175-.412.3916-.412.2163 0 .3912.1848.3912.412z" fill="#00f"/><path d="m117.7 54.54c0 .2289-.175.4134-.3912.4134-.2166 0-.3916-.1845-.3916-.4134 0-.2273.175-.412.3916-.412.2163 0 .3912.1848.3912.412z" fill="none" stroke="#fff" stroke-linecap="round" stroke-linejoin="round" stroke-width=".1467"/><path d="m116.9 54.8c0 .2289-.175.4134-.3912.4134-.2166 0-.3916-.1845-.3916-.4134 0-.2273.175-.412.3916-.412.2163 0 .3912.1848.3912.412z" fill="#00f"/><path d="m116.9 54.8c0 .2289-.175.4134-.3912.4134-.2166 0-.3916-.1845-.3916-.4134 0-.2273.175-.412.3916-.412.2163 0 .3912.1848.3912.412z" fill="none" stroke="#fff" stroke-linecap="round" stroke-linejoin="round" stroke-width=".1467"/><path d="m115.9 55.57c0 .229-.175.4135-.3912.4135s-.3912-.1845-.3912-.4135c0-.2271.175-.4134.3912-.4134s.3912.1863.3912.4134z" fill="#00f"/><path d="m115.9 55.57c0 .229-.175.4135-.3912.4135s-.3912-.1845-.3912-.4135c0-.2271.175-.4134.3912-.4134s.3912.1863.3912.4134z" fill="none" stroke="#fff" stroke-linecap="round" stroke-linejoin="round" stroke-width=".1467"/><path d="m115.2 56.66c0 .2289-.175.4134-.3916.4134-.2163 0-.3912-.1845-.3912-.4134 0-.2273.175-.412.3912-.412.2166 0 .3916.1848.3916.412z" fill="#00f"/><path d="m115.2 56.66c0 .2289-.175.4134-.3916.4134-.2163 0-.3912-.1845-.3912-.4134 0-.2273.175-.412.3912-.412.2166 0 .3916.1848.3916.412z" fill="none" stroke="#fff" stroke-linecap="round" stroke-linejoin="round" stroke-width=".1467"/><path d="m116 59.41c0 .229-.175.4135-.3912.4135-.2166 0-.3916-.1845-.3916-.4135 0-.2271.175-.4134.3916-.4134.2162 0 .3912.1863.3912.4134z" fill="#00f"/><path d="m116 59.41c0 .229-.175.4135-.3912.4135-.2166 0-.3916-.1845-.3916-.4135 0-.2271.175-.4134.3916-.4134.2162 0 .3912.1863.3912.4134z" fill="none" stroke="#fff" stroke-linecap="round" stroke-linejoin="round" stroke-width=".1467"/><path d="m110.9 58.16c0 .2273-.175.4122-.3912.4122-.2166 0-.3916-.1849-.3916-.4122 0-.2289.175-.4134.3916-.4134.2162 0 .3912.1845.3912.4134z" fill="#00f"/><path d="m110.9 58.16c0 .2273-.175.4122-.3912.4122-.2166 0-.3916-.1849-.3916-.4122 0-.2289.175-.4134.3916-.4134.2162 0 .3912.1845.3912.4134z" fill="none" stroke="#fff" stroke-linecap="round" stroke-linejoin="round" stroke-width=".1467"/><path d="m112.8 55.89c0 .2272-.175.412-.3916.412-.2162 0-.3912-.1848-.3912-.412 0-.2289.175-.4134.3912-.4134.2166 0 .3916.1845.3916.4134z" fill="#00f"/><path d="m112.8 55.89c0 .2272-.175.412-.3916.412-.2162 0-.3912-.1848-.3912-.412 0-.2289.175-.4134.3912-.4134.2166 0 .3916.1845.3916.4134z" fill="none" stroke="#fff" stroke-linecap="round" stroke-linejoin="round" stroke-width=".1467"/><path d="m113.8 53.67c0 .2273-.175.4122-.3916.4122-.2162 0-.3912-.1849-.3912-.4122 0-.2289.175-.4134.3912-.4134.2166 0 .3916.1845.3916.4134z" fill="#00f"/><path d="m113.8 53.67c0 .2273-.175.4122-.3916.4122-.2162 0-.3912-.1849-.3912-.4122 0-.2289.175-.4134.3912-.4134.2166 0 .3916.1845.3916.4134z" fill="none" stroke="#fff" stroke-linecap="round" stroke-linejoin="round" stroke-width=".1467"/><path d="m116.3 50.89c0 .2273-.175.4122-.3916.4122-.2163 0-.3912-.1849-.3912-.4122 0-.2289.175-.4134.3912-.4134.2166 0 .3916.1845.3916.4134z" fill="#00f"/><path d="m116.3 50.89c0 .2273-.175.4122-.3916.4122-.2163 0-.3912-.1849-.3912-.4122 0-.2289.175-.4134.3912-.4134.2166 0 .3916.1845.3916.4134z" fill="none" stroke="#fff" stroke-linecap="round" stroke-linejoin="round" stroke-width=".1467"/><g stroke-width=".3528"><g fill="#00a400"><path d="m79.56 34.9q0-.3101-.1287-.4806-.1271-.1705-.3581-.1705-.2294 0-.3581.1705-.1271.1705-.1271.4806 0 .3085.1271.479.1287.1705.3581.1705.231 0 .3581-.1705.1287-.1705.1287-.479zm.2853.6728q0 .4434-.1969.6589-.1969.217-.6031.217-.1504 0-.2837-.02325-.1333-.02171-.2589-.06821v-.2775q.1256.06821.248.1008.1225.03256.2496.03256.2806 0 .4201-.1473.1395-.1457.1395-.4418v-.1411q-.08837.1535-.2263.2294-.138.07596-.3302.07596-.3194 0-.5147-.2434-.1953-.2434-.1953-.6449 0-.4031.1953-.6465.1953-.2434.5147-.2434.1922 0 .3302.07596.138.07596.2263.2294v-.2636h.2853z"/><path d="m81.92 34.85v.1395h-1.312q.0186.2946.1767.4496.1597.1535.4434.1535.1643 0 .3178-.04031.155-.04031.307-.1209v.2698q-.1535.06511-.3147.09922-.1612.03411-.3271.03411-.4155 0-.6589-.2418-.2418-.2418-.2418-.6542 0-.4263.2294-.6759.231-.2511.6217-.2511.3504 0 .5535.2263.2046.2248.2046.6124zm-.2853-.08372q-.0031-.2341-.1318-.3736-.1271-.1395-.338-.1395-.2387 0-.3829.1349-.1426.1349-.1643.3798z"/><path d="m82.67 33.56v.493h.5876v.2217h-.5876v.9426q0 .2124.05736.2729.05891.06046.2372.06046h.293v.2387h-.293q-.3302 0-.4558-.1225-.1256-.124-.1256-.4496v-.9426h-.2093v-.2217h.2093v-.493z"/><path d="m83.91 33.56v.493h.5876v.2217h-.5876v.9426q0 .2124.05736.2729.05891.06046.2372.06046h.293v.2387h-.293q-.3302 0-.4558-.1225-.1256-.124-.1256-.4496v-.9426h-.2093v-.2217h.2093v-.493z"/><path d="m84.88 34.06h.2853v1.736h-.2853zm0-.6759h.2853v.3612h-.2853z"/><path d="m87.2 34.74v1.048h-.2853v-1.039q0-.2465-.09612-.369-.09612-.1225-.2884-.1225-.231 0-.3643.1473-.1333.1473-.1333.4015v.9813h-.2868v-1.736h.2868v.2698q.1023-.1566.2403-.2341.1395-.07751.3209-.07751.2992 0 .4527.186.1535.1845.1535.5442z"/><path d="m88.91 34.9q0-.3101-.1287-.4806-.1271-.1705-.3581-.1705-.2294 0-.3581.1705-.1271.1705-.1271.4806 0 .3085.1271.479.1287.1705.3581.1705.231 0 .3581-.1705.1287-.1705.1287-.479zm.2853.6728q0 .4434-.1969.6589-.1969.217-.6031.217-.1504 0-.2837-.02325-.1333-.02171-.2589-.06821v-.2775q.1256.06821.248.1008.1225.03256.2496.03256.2806 0 .4201-.1473.1395-.1457.1395-.4418v-.1411q-.08837.1535-.2263.2294-.138.07596-.3302.07596-.3194 0-.5147-.2434-.1953-.2434-.1953-.6449 0-.4031.1953-.6465.1953-.2434.5147-.2434.1922 0 .3302.07596.138.07596.2263.2294v-.2636h.2853z"/><path d="m91.08 33.56v.493h.5876v.2217h-.5876v.9426q0 .2124.05736.2729.05891.06046.2372.06046h.293v.2387h-.293q-.3302 0-.4558-.1225-.1256-.124-.1256-.4496v-.9426h-.2093v-.2217h.2093v-.493z"/><path d="m93.48 34.74v1.048h-.2853v-1.039q0-.2465-.09612-.369-.09612-.1225-.2884-.1225-.231 0-.3643.1473-.1333.1473-.1333.4015v.9813h-.2868v-2.412h.2868v.9457q.1023-.1566.2403-.2341.1395-.07751.3209-.07751.2992 0 .4527.186.1535.1845.1535.5442z"/><path d="m95.55 34.85v.1395h-1.312q.0186.2946.1767.4496.1597.1535.4434.1535.1643 0 .3178-.04031.155-.04031.307-.1209v.2698q-.1535.06511-.3147.09922-.1612.03411-.3271.03411-.4155 0-.6589-.2418-.2418-.2418-.2418-.6542 0-.4263.2294-.6759.231-.2511.6217-.2511.3504 0 .5535.2263.2046.2248.2046.6124zm-.2853-.08372q-.0031-.2341-.1318-.3736-.1271-.1395-.338-.1395-.2387 0-.3829.1349-.1426.1349-.1643.3798z"/><path d="m97.7 34.26q-.2294 0-.3628.1798-.1333.1783-.1333.4899 0 .3116.1318.4914.1333.1783.3643.1783.2279 0 .3612-.1798.1333-.1798.1333-.4899 0-.3085-.1333-.4883-.1333-.1814-.3612-.1814zm0-.2418q.3721 0 .5845.2418.2124.2418.2124.6697 0 .4263-.2124.6697-.2124.2418-.5845.2418-.3736 0-.586-.2418-.2108-.2434-.2108-.6697 0-.4279.2108-.6697.2124-.2418.586-.2418z"/><path d="m99.25 35.53v.9209h-.2868v-2.397h.2868v.2636q.08992-.155.2263-.2294.138-.07596.3287-.07596.3163 0 .5131.2511.1984.2511.1984.6604 0 .4093-.1984.6604-.1969.2511-.5131.2511-.1907 0-.3287-.07441-.1364-.07597-.2263-.231zm.9705-.6062q0-.3147-.1302-.493-.1287-.1798-.355-.1798-.2263 0-.3566.1798-.1287.1783-.1287.493 0 .3147.1287.4945.1302.1783.3566.1783.2264 0 .355-.1783.1302-.1798.1302-.4945z"/><path d="m101.3 33.56v.493h.5876v.2217h-.5876v.9426q0 .2124.0574.2729.0589.06046.2372.06046h.293v.2387h-.293q-.3302 0-.4558-.1225-.1256-.124-.1256-.4496v-.9426h-.2093v-.2217h.2093v-.493z"/><path d="m102.2 34.06h.2852v1.736h-.2852zm0-.6759h.2852v.3612h-.2852z"/><path d="m104.5 34.39q.107-.1922.2558-.2837.1488-.09147.3504-.09147.2713 0 .4186.1907.1473.1891.1473.5395v1.048h-.2868v-1.039q0-.2496-.0884-.3705-.0884-.1209-.2698-.1209-.2217 0-.3504.1473-.1287.1473-.1287.4015v.9813h-.2868v-1.039q0-.2511-.0884-.3705-.0884-.1209-.2729-.1209-.2186 0-.3473.1488-.1287.1473-.1287.4v.9813h-.2868v-1.736h.2868v.2698q.0977-.1597.2341-.2356.1364-.07596.324-.07596.1891 0 .3209.09612.1333.09612.1969.2791z"/><path d="m107 34.92q-.3457 0-.479.07906-.1333.07906-.1333.2698 0 .1519.0992.2418.1008.08837.2728.08837.2372 0 .3798-.1674.1442-.169.1442-.448v-.06356zm.569-.1178v.9906h-.2852v-.2636q-.0977.1581-.2434.2341-.1457.07441-.3566.07441-.2666 0-.4248-.1488-.1566-.1504-.1566-.4015 0-.293.1953-.4418.1969-.1488.586-.1488h.4v-.0279q0-.1969-.1302-.3039-.1287-.1085-.3628-.1085-.1488 0-.2899.03566-.1411.03566-.2713.107v-.2636q.1566-.06046.3038-.08992.1473-.03101.2868-.03101.3767 0 .5628.1953.186.1953.186.5922z"/><path d="m108.2 33.38h.2852v2.412h-.2852z"/><path d="m111.2 34.11v.2698q-.1209-.06201-.2511-.09302-.1302-.03101-.2698-.03101-.2124 0-.3194.06511-.1054.06511-.1054.1953 0 .09922.076.1566.076.05581.3054.107l.0977.0217q.3038.06511.431.1845.1287.1178.1287.3302 0 .2418-.1922.3829-.1907.1411-.5256.1411-.1395 0-.2915-.02791-.1504-.02635-.3178-.08062v-.2945q.1581.08217.3116.124.1535.04031.3039.04031.2015 0 .3101-.06821.1085-.06976.1085-.1953 0-.1163-.0791-.1783-.0775-.06201-.3426-.1194l-.0992-.02325q-.2651-.05581-.3829-.1705-.1178-.1163-.1178-.3178 0-.2449.1736-.3783.1736-.1333.493-.1333.1581 0 .2977.02325.1395.02325.2573.06976z"/><path d="m112.4 34.26q-.2294 0-.3628.1798-.1333.1783-.1333.4899 0 .3116.1318.4914.1333.1783.3643.1783.2279 0 .3612-.1798.1333-.1798.1333-.4899 0-.3085-.1333-.4883-.1333-.1814-.3612-.1814zm0-.2418q.3721 0 .5845.2418.2124.2418.2124.6697 0 .4263-.2124.6697-.2124.2418-.5845.2418-.3736 0-.586-.2418-.2108-.2434-.2108-.6697 0-.4279.2108-.6697.2124-.2418.586-.2418z"/><path d="m113.6 33.38h.2852v2.412h-.2852z"/><path d="m114.5 35.11v-1.051h.2853v1.04q0 .2465.0961.3705.0961.1225.2884.1225.231 0 .3643-.1473.1349-.1473.1349-.4015v-.9844h.2852v1.736h-.2852v-.2666q-.1039.1581-.2418.2356-.1364.07596-.3178.07596-.2992 0-.4542-.186-.155-.186-.155-.5442z"/><path d="m116.8 33.56v.493h.5876v.2217h-.5876v.9426q0 .2124.0574.2729.0589.06046.2372.06046h.293v.2387h-.293q-.3302 0-.4558-.1225-.1256-.124-.1256-.4496v-.9426h-.2093v-.2217h.2093v-.493z"/><path d="m117.8 34.06h.2853v1.736h-.2853zm0-.6759h.2853v.3612h-.2853z"/><path d="m119.3 34.26q-.2294 0-.3628.1798-.1333.1783-.1333.4899 0 .3116.1318.4914.1333.1783.3643.1783.2279 0 .3612-.1798.1333-.1798.1333-.4899 0-.3085-.1333-.4883-.1333-.1814-.3612-.1814zm0-.2418q.3721 0 .5845.2418.2124.2418.2124.6697 0 .4263-.2124.6697-.2124.2418-.5845.2418-.3736 0-.586-.2418-.2108-.2434-.2108-.6697 0-.4279.2108-.6697.2124-.2418.586-.2418z"/><path d="m122 34.74v1.048h-.2852v-1.039q0-.2465-.0961-.369-.0961-.1225-.2884-.1225-.231 0-.3643.1473-.1333.1473-.1333.4015v.9813h-.2868v-1.736h.2868v.2698q.1023-.1566.2403-.2341.1395-.07751.3209-.07751.2992 0 .4527.186.1535.1845.1535.5442z"/><path d="m79.3 37.79v.2372h-.2729q-.1535 0-.2139.06201-.05891.06201-.05891.2232v.1535h.4697v.2217h-.4697v1.515h-.2868v-1.515h-.2729v-.2217h.2729v-.1209q0-.2899.1349-.4217.1349-.1333.4279-.1333z"/><path d="m80.21 38.67q-.2294 0-.3628.1798-.1333.1783-.1333.4899 0 .3116.1318.4914.1333.1783.3643.1783.2279 0 .3612-.1798.1333-.1798.1333-.4899 0-.3085-.1333-.4883-.1333-.1814-.3612-.1814zm0-.2418q.3721 0 .5845.2418.2124.2418.2124.6697 0 .4263-.2124.6697-.2124.2418-.5845.2418-.3736 0-.586-.2418-.2108-.2434-.2108-.6697 0-.4279.2108-.6697.2124-.2418.586-.2418z"/><path d="m82.48 38.73q-.04806-.02791-.1054-.04031-.05581-.01395-.124-.01395-.2418 0-.3721.1581-.1287.1566-.1287.4511v.9147h-.2868v-1.736h.2868v.2698q.08992-.1581.2341-.2341.1442-.07751.3504-.07751.02945 0 .06511.0047.03566.0031.07906.01085z"/><path d="m84.58 39.33q-.3457 0-.479.07906-.1333.07906-.1333.2698 0 .1519.09922.2418.1008.08837.2729.08837.2372 0 .3798-.1674.1442-.169.1442-.448v-.06356zm.569-.1178v.9906h-.2853v-.2636q-.09767.1581-.2434.2341-.1457.07441-.3566.07441-.2667 0-.4248-.1488-.1566-.1504-.1566-.4015 0-.293.1953-.4418.1969-.1488.586-.1488h.4v-.0279q0-.1969-.1302-.3039-.1287-.1085-.3628-.1085-.1488 0-.2899.03566-.1411.03566-.2713.107v-.2636q.1566-.06046.3039-.08992.1473-.03101.2868-.03101.3767 0 .5628.1953.186.1953.186.5922z"/><path d="m86.44 37.89h1.958v.2636h-.8217v2.051h-.3147v-2.051h-.8217z"/><path d="m90.09 37.96v.3054q-.1783-.08527-.3364-.1271-.1581-.04186-.3054-.04186-.2558 0-.3953.09922-.138.09922-.138.2822 0 .1535.09147.2325.09302.07751.3504.1256l.1891.03876q.3504.06666.5162.2356.1674.1674.1674.4496 0 .3364-.2263.51-.2248.1736-.6604.1736-.1643 0-.3504-.03721-.1845-.03721-.3829-.1101v-.3225q.1907.107.3736.1612.1829.05426.3597.05426.2682 0 .4139-.1054.1457-.1054.1457-.3008 0-.1705-.1054-.2666-.1039-.09612-.3426-.1442l-.1907-.03721q-.3504-.06976-.5069-.2186-.1566-.1488-.1566-.4139 0-.307.2155-.4837.217-.1767.5969-.1767.1628 0 .3318.02946.169.02945.3457.08837z"/><path d="m91.03 38.14v.8697h.3938q.2186 0 .338-.1132.1194-.1132.1194-.3225 0-.2077-.1194-.3209-.1194-.1132-.338-.1132zm-.3132-.2573h.7069q.3891 0 .5876.1767.2.1752.2.5147 0 .3426-.2.5178-.1984.1752-.5876.1752h-.3938v.9302h-.3132z"/><path d="m94.98 38.8q.107-.1922.2558-.2837.1488-.09147.3504-.09147.2713 0 .4186.1907.1473.1891.1473.5395v1.048h-.2868v-1.039q0-.2496-.08837-.3705-.08837-.1209-.2698-.1209-.2217 0-.3504.1473-.1287.1473-.1287.4015v.9813h-.2868v-1.039q0-.2511-.08837-.3705-.08837-.1209-.2729-.1209-.2186 0-.3473.1488-.1287.1473-.1287.4v.9813h-.2868v-1.736h.2868v.2698q.09767-.1597.2341-.2356.1364-.07596.324-.07596.1891 0 .3209.09612.1333.09612.1969.2791z"/><path d="m97.51 39.33q-.3457 0-.479.07906-.1333.07906-.1333.2698 0 .1519.09922.2418.1008.08837.2729.08837.2372 0 .3798-.1674.1442-.169.1442-.448v-.06356zm.569-.1178v.9906h-.2853v-.2636q-.09767.1581-.2434.2341-.1457.07441-.3566.07441-.2666 0-.4248-.1488-.1566-.1504-.1566-.4015 0-.293.1953-.4418.1969-.1488.586-.1488h.4v-.0279q0-.1969-.1302-.3039-.1287-.1085-.3628-.1085-.1488 0-.2899.03566-.1411.03566-.2713.107v-.2636q.1566-.06046.3039-.08992.1473-.03101.2868-.03101.3767 0 .5628.1953.186.1953.186.5922z"/><path d="m99.4 40.36q-.1209.3101-.2356.4046-.1147.09457-.307.09457h-.2279v-.2387h.1674q.1178 0 .1829-.05581.06511-.05581.1442-.2636l.05116-.1302-.7023-1.708h.3023l.5426 1.358.5426-1.358h.3023z"/><path d="m101.9 37.97v.493h.5876v.2217h-.5876v.9426q0 .2124.0574.2729.0589.06046.2372.06046h.293v.2387h-.293q-.3302 0-.4558-.1225-.1256-.124-.1256-.4496v-.9426h-.2093v-.2217h.2093v-.493z"/><path d="m103.6 39.33q-.3457 0-.479.07906-.1333.07906-.1333.2698 0 .1519.0992.2418.1008.08837.2728.08837.2372 0 .3798-.1674.1442-.169.1442-.448v-.06356zm.569-.1178v.9906h-.2852v-.2636q-.0977.1581-.2434.2341-.1457.07441-.3566.07441-.2666 0-.4248-.1488-.1566-.1504-.1566-.4015 0-.293.1953-.4418.1969-.1488.586-.1488h.4v-.0279q0-.1969-.1302-.3039-.1287-.1085-.3628-.1085-.1488 0-.2899.03566-.1411.03566-.2713.107v-.2636q.1566-.06046.3039-.08992.1473-.03101.2868-.03101.3767 0 .5628.1953.186.1953.186.5922z"/><path d="m104.7 37.79h.2868v1.425l.8511-.7488h.3643l-.9209.8124.9596.924h-.3721l-.8821-.848v.848h-.2868z"/><path d="m108 39.26v.1395h-1.312q.0186.2946.1767.4496.1597.1535.4434.1535.1643 0 .3178-.04031.155-.04031.307-.1209v.2698q-.1535.06511-.3147.09922-.1612.03411-.3271.03411-.4155 0-.6589-.2418-.2418-.2418-.2418-.6542 0-.4263.2294-.6759.231-.2511.6217-.2511.3504 0 .5534.2263.2046.2248.2046.6124zm-.2853-.08372q-.003-.2341-.1318-.3736-.1271-.1395-.338-.1395-.2388 0-.3829.1349-.1426.1349-.1643.3798z"/><path d="m109.7 37.97v.493h.5876v.2217h-.5876v.9426q0 .2124.0574.2729.0589.06046.2372.06046h.293v.2387h-.293q-.3302 0-.4558-.1225-.1256-.124-.1256-.4496v-.9426h-.2093v-.2217h.2093v-.493z"/><path d="m111.4 38.67q-.2294 0-.3628.1798-.1333.1783-.1333.4899 0 .3116.1318.4914.1333.1783.3643.1783.2279 0 .3612-.1798.1333-.1798.1333-.4899 0-.3085-.1333-.4883-.1333-.1814-.3612-.1814zm0-.2418q.3721 0 .5845.2418.2124.2418.2124.6697 0 .4263-.2124.6697-.2124.2418-.5845.2418-.3736 0-.586-.2418-.2108-.2434-.2108-.6697 0-.4279.2108-.6697.2124-.2418.586-.2418z"/><path d="m113.3 38.67q-.2294 0-.3628.1798-.1333.1783-.1333.4899 0 .3116.1318.4914.1333.1783.3643.1783.2279 0 .3612-.1798.1333-.1798.1333-.4899 0-.3085-.1333-.4883-.1333-.1814-.3612-.1814zm0-.2418q.3721 0 .5845.2418.2124.2418.2124.6697 0 .4263-.2124.6697-.2124.2418-.5845.2418-.3736 0-.586-.2418-.2108-.2434-.2108-.6697 0-.4279.2108-.6697.2124-.2418.586-.2418z"/><path d="m115.6 37.79h.2852v2.412h-.2852z"/><path d="m117.2 38.67q-.2294 0-.3628.1798-.1333.1783-.1333.4899 0 .3116.1318.4914.1333.1783.3643.1783.2279 0 .3612-.1798.1333-.1798.1333-.4899 0-.3085-.1333-.4883-.1333-.1814-.3612-.1814zm0-.2418q.3721 0 .5845.2418.2124.2418.2124.6697 0 .4263-.2124.6697-.2124.2418-.5845.2418-.3736 0-.586-.2418-.2108-.2434-.2108-.6697 0-.4279.2108-.6697.2124-.2418.586-.2418z"/><path d="m119.9 39.15v1.048h-.2852v-1.039q0-.2465-.0961-.369-.0961-.1225-.2884-.1225-.231 0-.3643.1473-.1333.1473-.1333.4015v.9813h-.2868v-1.736h.2868v.2698q.1023-.1566.2403-.2341.1395-.07751.3209-.07751.2992 0 .4527.186.1535.1845.1535.5442z"/><path d="m121.6 39.31q0-.3101-.1287-.4806-.1271-.1705-.3581-.1705-.2294 0-.3581.1705-.1271.1705-.1271.4806 0 .3085.1271.479.1287.1705.3581.1705.231 0 .3581-.1705.1287-.1705.1287-.479zm.2852.6728q0 .4434-.1969.6589-.1969.217-.6031.217-.1504 0-.2837-.02325-.1333-.0217-.2589-.06821v-.2775q.1256.06821.248.1008.1225.03256.2496.03256.2806 0 .4201-.1473.1395-.1457.1395-.4418v-.1411q-.0884.1535-.2263.2294-.138.07597-.3302.07597-.3194 0-.5147-.2434-.1953-.2434-.1953-.6449 0-.4031.1953-.6465.1953-.2434.5147-.2434.1922 0 .3302.07596.138.07596.2263.2294v-.2636h.2852z"/></g><g fill="#950000"><path d="m14.21 1.47v.2698q-.1209-.06201-.2511-.09302-.1302-.03101-.2698-.03101-.2124 0-.3194.06511-.1054.06511-.1054.1953 0 .09922.07596.1566.07597.05581.3054.107l.09767.0217q.3039.06511.431.1845.1287.1178.1287.3302 0 .2418-.1922.3829-.1907.1411-.5255.1411-.1395 0-.2915-.0279-.1504-.02636-.3178-.08062v-.2946q.1581.08216.3116.124.1535.04031.3039.04031.2015 0 .3101-.06821.1085-.06976.1085-.1953 0-.1163-.07906-.1783-.07752-.06201-.3426-.1194l-.09922-.02326q-.2651-.05581-.3829-.1705-.1178-.1163-.1178-.3178 0-.2449.1736-.3783.1736-.1334.493-.1333.1581 0 .2977.02325.1396.02325.2573.06976z"/><path d="m15.43 1.619q-.2294 0-.3628.1798-.1333.1783-.1333.4899 0 .3116.1318.4914.1333.1783.3643.1783.2279 0 .3612-.1798.1333-.1798.1333-.4899 0-.3085-.1333-.4883-.1333-.1814-.3612-.1814zm0-.2418q.3721 0 .5845.2418.2124.2418.2124.6697 0 .4263-.2124.6697-.2124.2418-.5845.2418-.3736 0-.586-.2418-.2108-.2434-.2108-.6697 0-.4279.2108-.6697.2124-.2418.586-.2418z"/><path d="m18.06 1.752q.107-.1922.2558-.2837.1488-.09147.3504-.09147.2713 0 .4186.1907.1473.1891.1473.5395v1.048h-.2868v-1.039q0-.2496-.08837-.3705-.08837-.1209-.2698-.1209-.2217 0-.3504.1473-.1287.1473-.1287.4015v.9813h-.2868v-1.039q0-.2511-.08837-.3705-.08837-.1209-.2729-.1209-.2186 0-.3473.1488-.1287.1473-.1287.4v.9813h-.2868v-1.736h.2868v.2698q.09767-.1597.2341-.2356.1364-.07596.324-.07596.1891 0 .3209.09612.1333.09612.1969.2791z"/><path d="m21.28 2.215v.1395h-1.312q.0186.2946.1767.4496.1597.1535.4434.1535.1643 0 .3178-.04031.155-.04031.307-.1209v.2698q-.1535.06511-.3147.09922-.1612.03411-.3271.03411-.4155 0-.6589-.2418-.2418-.2418-.2418-.6542 0-.4263.2294-.6759.231-.2511.6217-.2511.3504 0 .5535.2263.2046.2248.2046.6124zm-.2853-.08372q-.0031-.2341-.1318-.3736-.1271-.1395-.338-.1395-.2387 0-.3829.1349-.1426.1349-.1643.3798z"/><path d="m23.44.7457q-.2077.3566-.3085.7054-.1008.3488-.1008.7069 0 .3581.1008.71.1023.3504.3085.7054h-.248q-.2325-.3643-.3488-.7162-.1147-.3519-.1147-.6992 0-.3457.1147-.6961.1147-.3504.3488-.7162z"/><path d="m25.24 2.288q0-.3147-.1302-.493-.1287-.1798-.355-.1798-.2263 0-.3566.1798-.1287.1783-.1287.493 0 .3147.1287.4945.1302.1783.3566.1783.2263 0 .355-.1783.1302-.1798.1302-.4945zm-.9705-.6062q.08992-.155.2263-.2294.138-.07596.3287-.07596.3163 0 .5131.2511.1984.2511.1984.6604 0 .4093-.1984.6604-.1969.2511-.5131.2511-.1907 0-.3287-.07441-.1364-.07596-.2263-.231v.2604h-.2868v-2.412h.2868z"/><path d="m26.8 2.282q-.3457 0-.479.07906-.1333.07906-.1333.2698 0 .1519.09922.2418.1008.08837.2729.08837.2372 0 .3798-.1674.1442-.169.1442-.448v-.06356zm.569-.1178v.9906h-.2853v-.2635q-.09767.1581-.2434.2341-.1457.07441-.3566.07441-.2667 0-.4248-.1488-.1566-.1504-.1566-.4015 0-.293.1953-.4418.1969-.1488.586-.1488h.4v-.0279q0-.1969-.1302-.3039-.1287-.1085-.3628-.1085-.1488 0-.2899.03566-.1411.03566-.2713.107v-.2636q.1566-.06046.3039-.08992.1473-.03101.2868-.03101.3767 0 .5628.1953.1861.1953.186.5922z"/><path d="m29.1 1.682v-.9395h.2853v2.412h-.2853v-.2604q-.08992.155-.2279.231-.1364.07441-.3287.07441-.3147 0-.5131-.2511-.1969-.2511-.1969-.6604 0-.4093.1969-.6604.1984-.2511.5131-.2511.1922 0 .3287.07596.138.07441.2279.2294zm-.972.6062q0 .3147.1287.4945.1302.1783.3566.1783.2264 0 .3566-.1783.1302-.1798.1302-.4945 0-.3147-.1302-.493-.1302-.1798-.3566-.1798-.2264 0-.3566.1798-.1287.1783-.1287.493z"/><path d="m29.93.7457h.248q.2325.3659.3473.7162.1163.3504.1163.6961 0 .3473-.1163.6992-.1147.3519-.3473.7162h-.248q.2062-.355.307-.7054.1023-.3519.1023-.71 0-.3581-.1023-.7069-.1008-.3488-.307-.7054z"/><path d="m33.34 1.47v.2698q-.1209-.06201-.2511-.09302-.1302-.03101-.2698-.03101-.2124 0-.3194.06511-.1054.06511-.1054.1953 0 .09922.07596.1566.07597.05581.3054.107l.09767.0217q.3039.06511.431.1845.1287.1178.1287.3302 0 .2418-.1922.3829-.1907.1411-.5255.1411-.1395 0-.2915-.0279-.1504-.02636-.3178-.08062v-.2946q.1581.08216.3116.124.1535.04031.3039.04031.2015 0 .3101-.06821.1085-.06976.1085-.1953 0-.1163-.07906-.1783-.07751-.06201-.3426-.1194l-.09922-.02325q-.2651-.05581-.3829-.1705-.1178-.1163-.1178-.3178 0-.2449.1736-.3783.1736-.1333.493-.1333.1581 0 .2977.02325.1396.02325.2573.06976z"/><path d="m34.56 1.619q-.2294 0-.3628.1798-.1333.1783-.1333.4899 0 .3116.1318.4914.1333.1783.3643.1783.2279 0 .3612-.1798.1333-.1798.1333-.4899 0-.3085-.1333-.4883-.1333-.1814-.3612-.1814zm0-.2418q.3721 0 .5845.2418.2124.2418.2124.6697 0 .4263-.2124.6697-.2124.2418-.5845.2418-.3736 0-.586-.2418-.2108-.2434-.2108-.6697 0-.4279.2108-.6697.2124-.2418.586-.2418z"/><path d="m35.83.7426h.2853v2.412h-.2853z"/><path d="m36.68 2.47v-1.051h.2853v1.04q0 .2465.09612.3705.09612.1225.2884.1225.231 0 .3643-.1473.1349-.1473.1349-.4015v-.9844h.2853v1.736h-.2853v-.2667q-.1039.1581-.2418.2356-.1364.07596-.3178.07596-.2992 0-.4542-.186-.155-.186-.155-.5442z"/><path d="m39.01.9255v.493h.5876v.2217h-.5876v.9426q0 .2124.05736.2729.05891.06046.2372.06046h.293v.2387h-.293q-.3302 0-.4558-.1225-.1256-.124-.1256-.4496v-.9426h-.2093v-.2217h.2093v-.493z"/><path d="m39.97 1.419h.2853v1.736h-.2853zm0-.6759h.2853v.3612h-.2853z"/><path d="m41.53 1.619q-.2294 0-.3628.1798-.1333.1783-.1333.4899 0 .3116.1318.4914.1333.1783.3643.1783.2279 0 .3612-.1798.1333-.1798.1333-.4899 0-.3085-.1333-.4883-.1333-.1814-.3612-.1814zm0-.2418q.3721 0 .5845.2418.2124.2418.2124.6697 0 .4263-.2124.6697-.2124.2418-.5845.2418-.3736 0-.586-.2418-.2108-.2434-.2108-.6697 0-.4279.2108-.6697.2124-.2418.586-.2418z"/><path d="m44.24 2.107v1.048h-.2853v-1.039q0-.2465-.09612-.369-.09612-.1225-.2884-.1225-.231 0-.3643.1473-.1333.1473-.1333.4015v.9813h-.2868v-1.736h.2868v.2698q.1023-.1566.2403-.2341.1395-.07752.3209-.07752.2992 0 .4527.186.1535.1845.1535.5442z"/><path d="m46.7.7426v.2372h-.2729q-.1535 0-.2139.06201-.05891.06201-.05891.2232v.1535h.4697v.2217h-.4697v1.515h-.2868v-1.515h-.2729v-.2217h.2729v-.1209q0-.2899.1349-.4217.1349-.1333.4279-.1333z"/><path d="m47.61 1.619q-.2294 0-.3628.1798-.1333.1783-.1333.4899 0 .3116.1318.4914.1333.1783.3643.1783.2279 0 .3612-.1798.1333-.1798.1333-.4899 0-.3085-.1333-.4883-.1333-.1814-.3612-.1814zm0-.2418q.3721 0 .5845.2418.2124.2418.2124.6697 0 .4263-.2124.6697-.2124.2418-.5845.2418-.3736 0-.586-.2418-.2108-.2434-.2108-.6697 0-.4279.2108-.6697.2124-.2418.586-.2418z"/><path d="m49.89 1.685q-.04806-.0279-.1054-.04031-.05581-.01395-.124-.01395-.2418 0-.3721.1581-.1287.1566-.1287.4511v.9147h-.2868v-1.736h.2868v.2698q.08992-.1581.2341-.2341.1442-.07752.3504-.07752.02946 0 .06511.00465.03566.0031.07906.01085z"/><path d="m51.48.9255v.493h.5876v.2217h-.5876v.9426q0 .2124.05736.2729.05891.06046.2372.06046h.293v.2387h-.293q-.3302 0-.4558-.1225-.1256-.124-.1256-.4496v-.9426h-.2093v-.2217h.2093v-.493z"/><path d="m53.88 2.107v1.048h-.2853v-1.039q0-.2465-.09612-.369-.09612-.1225-.2884-.1225-.231 0-.3643.1473-.1333.1473-.1333.4015v.9813h-.2868v-2.412h.2868v.9457q.1023-.1566.2403-.2341.1395-.07752.3209-.07752.2992 0 .4527.186.1535.1845.1535.5442z"/><path d="m55.95 2.215v.1395h-1.312q.0186.2946.1767.4496.1597.1535.4434.1535.1643 0 .3178-.04031.155-.04031.307-.1209v.2698q-.1535.06511-.3147.09922-.1612.03411-.3271.03411-.4155 0-.6589-.2418-.2418-.2418-.2418-.6542 0-.4263.2294-.6759.231-.2511.6217-.2511.3504 0 .5535.2263.2046.2248.2046.6124zm-.2853-.08372q-.0031-.2341-.1318-.3736-.1271-.1395-.338-.1395-.2387 0-.3829.1349-.1426.1349-.1643.3798z"/><path d="m12.8 5.25h1.958v.2635h-.8217v2.051h-.3147v-2.051h-.8217z"/><path d="m16.45 5.326v.3054q-.1783-.08527-.3364-.1271-.1581-.04186-.3054-.04186-.2558 0-.3953.09922-.138.09922-.138.2822 0 .1535.09147.2325.09302.07752.3504.1256l.1891.03876q.3504.06666.5162.2356.1674.1674.1674.4496 0 .3364-.2263.51-.2248.1736-.6604.1736-.1643 0-.3504-.03721-.1845-.03721-.3829-.1101v-.3225q.1907.107.3736.1612.1829.05426.3597.05426.2682 0 .4139-.1054.1457-.1054.1457-.3008 0-.1705-.1054-.2667-.1039-.09612-.3426-.1442l-.1907-.03721q-.3504-.06976-.5069-.2186-.1566-.1488-.1566-.4139 0-.307.2155-.4837.217-.1767.5969-.1767.1628 0 .3318.02946.169.02946.3457.08837z"/><path d="m17.39 5.507v.8697h.3938q.2186 0 .338-.1132.1194-.1132.1194-.3225 0-.2077-.1194-.3209-.1194-.1132-.338-.1132zm-.3132-.2573h.7069q.3891 0 .5876.1767.2.1752.2.5147 0 .3426-.2.5178-.1984.1752-.5876.1752h-.3938v.9302h-.3132z"/><path d="m21.24 5.895v.2667q-.1209-.06666-.2434-.09922-.1209-.03411-.2449-.03411-.2775 0-.431.1767-.1535.1752-.1535.493 0 .3178.1535.4945.1535.1752.431.1752.124 0 .2449-.03256.1225-.03411.2434-.1008v.2635q-.1194.05581-.248.08372-.1271.0279-.2713.0279-.3922 0-.6232-.2465-.231-.2465-.231-.6651 0-.4248.2325-.6682.2341-.2434.6403-.2434.1318 0 .2573.0279.1256.02636.2434.08062z"/><path d="m22.52 6.692q-.3457 0-.479.07906-.1333.07906-.1333.2698 0 .1519.09922.2418.1008.08837.2729.08837.2372 0 .3798-.1674.1442-.169.1442-.448v-.06356zm.569-.1178v.9906h-.2853v-.2635q-.09767.1581-.2434.2341-.1457.07441-.3566.07441-.2666 0-.4248-.1488-.1566-.1504-.1566-.4015 0-.293.1953-.4418.1969-.1488.586-.1488h.4v-.0279q0-.1969-.1302-.3039-.1287-.1085-.3628-.1085-.1488 0-.2899.03566-.1411.03566-.2713.107v-.2636q.1566-.06046.3039-.08992.1473-.03101.2868-.03101.3767 0 .5628.1953.186.1953.186.5922z"/><path d="m25.13 6.517v1.048h-.2853v-1.039q0-.2465-.09612-.369-.09612-.1225-.2884-.1225-.231 0-.3643.1473-.1333.1473-.1333.4015v.9813h-.2868v-1.736h.2868v.2698q.1023-.1566.2403-.2341.1395-.07752.3209-.07752.2992 0 .4527.186.1535.1845.1535.5442z"/><path d="m27.96 6.698q0-.3147-.1302-.493-.1287-.1798-.355-.1798-.2263 0-.3566.1798-.1287.1783-.1287.493 0 .3147.1287.4945.1302.1783.3566.1783.2263 0 .355-.1783.1302-.1798.1302-.4945zm-.9705-.6062q.08992-.155.2263-.2294.138-.07596.3287-.07596.3163 0 .5131.2511.1984.2511.1984.6604 0 .4093-.1984.6604-.1969.2511-.5131.2511-.1907 0-.3287-.07441-.1364-.07596-.2263-.231v.2604h-.2868v-2.412h.2868z"/><path d="m30.21 6.625v.1395h-1.312q.0186.2946.1767.4496.1597.1535.4434.1535.1643 0 .3178-.04031.155-.04031.307-.1209v.2698q-.1535.06511-.3147.09922-.1612.03411-.3271.03411-.4155 0-.6589-.2418-.2418-.2418-.2418-.6542 0-.4263.2294-.6759.231-.2511.6217-.2511.3504 0 .5535.2263.2046.2248.2046.6124zm-.2853-.08372q-.0031-.2341-.1318-.3736-.1271-.1395-.338-.1395-.2387 0-.3829.1349-.1426.1349-.1643.3798z"/><path d="m32.36 6.028q-.2294 0-.3628.1798-.1333.1783-.1333.4899 0 .3116.1318.4914.1333.1783.3643.1783.2279 0 .3612-.1798.1333-.1798.1333-.4899 0-.3085-.1333-.4883-.1333-.1814-.3612-.1814zm0-.2418q.3721 0 .5845.2418.2124.2418.2124.6697 0 .4263-.2124.6697-.2124.2418-.5845.2418-.3736 0-.586-.2418-.2108-.2434-.2108-.6697 0-.4279.2108-.6697.2124-.2418.586-.2418z"/><path d="m34.88 6.698q0-.3147-.1302-.493-.1287-.1798-.355-.1798-.2263 0-.3566.1798-.1287.1783-.1287.493 0 .3147.1287.4945.1302.1783.3566.1783.2263 0 .355-.1783.1302-.1798.1302-.4945zm-.9705-.6062q.08992-.155.2263-.2294.138-.07596.3287-.07596.3163 0 .5131.2511.1984.2511.1984.6604 0 .4093-.1984.6604-.1969.2511-.5131.2511-.1907 0-.3287-.07441-.1364-.07596-.2263-.231v.2604h-.2868v-2.412h.2868z"/><path d="m35.93 5.335v.493h.5876v.2217h-.5876v.9426q0 .2124.05736.2729.05891.06046.2372.06046h.293v.2387h-.293q-.3302 0-.4558-.1225-.1256-.124-.1256-.4496v-.9426h-.2093v-.2217h.2093v-.493z"/><path d="m37.68 6.692q-.3457 0-.479.07906-.1333.07906-.1333.2698 0 .1519.09922.2418.1008.08837.2729.08837.2372 0 .3798-.1674.1442-.169.1442-.448v-.06356zm.569-.1178v.9906h-.2853v-.2635q-.09767.1581-.2434.2341-.1457.07441-.3566.07441-.2666 0-.4248-.1488-.1566-.1504-.1566-.4015 0-.293.1953-.4418.1969-.1488.586-.1488h.4v-.0279q0-.1969-.1302-.3039-.1287-.1085-.3628-.1085-.1488 0-.2899.03566-.1411.03566-.2713.107v-.2636q.1566-.06046.3039-.08992.1473-.03101.2868-.03101.3767 0 .5628.1953.186.1953.186.5922z"/><path d="m38.84 5.828h.2853v1.736h-.2853zm0-.6759h.2853v.3612h-.2853z"/><path d="m41.17 6.517v1.048h-.2853v-1.039q0-.2465-.09612-.369-.09612-.1225-.2884-.1225-.231 0-.3643.1473-.1333.1473-.1333.4015v.9813h-.2868v-1.736h.2868v.2698q.1023-.1566.2403-.2341.1395-.07752.3209-.07752.2992 0 .4527.186.1535.1845.1535.5442z"/><path d="m43.23 6.625v.1395h-1.312q.0186.2946.1767.4496.1597.1535.4434.1535.1643 0 .3178-.04031.155-.04031.307-.1209v.2698q-.1535.06511-.3147.09922-.1612.03411-.3271.03411-.4155 0-.6589-.2418-.2418-.2418-.2418-.6542 0-.4263.2294-.6759.231-.2511.6217-.2511.3504 0 .5535.2263.2046.2248.2046.6124zm-.2853-.08372q-.0031-.2341-.1318-.3736-.1271-.1395-.338-.1395-.2387 0-.3829.1349-.1426.1349-.1643.3798z"/><path d="m44.84 6.092v-.9395h.2853v2.412h-.2853v-.2604q-.08992.155-.2279.231-.1364.07441-.3287.07441-.3147 0-.5131-.2511-.1969-.2511-.1969-.6604 0-.4093.1969-.6604.1984-.2511.5131-.2511.1922 0 .3287.07596.138.07441.2279.2294zm-.972.6062q0 .3147.1287.4945.1302.1783.3566.1783.2264 0 .3566-.1783.1302-.1798.1302-.4945 0-.3147-.1302-.493-.1302-.1798-.3566-.1798-.2264 0-.3566.1798-.1287.1783-.1287.493z"/><path d="m46.89 6.698q0 .3147.1287.4945.1302.1783.3566.1783.2264 0 .3566-.1783.1302-.1798.1302-.4945 0-.3147-.1302-.493-.1302-.1798-.3566-.1798-.2264 0-.3566.1798-.1287.1783-.1287.493zm.972.6062q-.08992.155-.2279.231-.1364.07441-.3287.07441-.3147 0-.5131-.2511-.1969-.2511-.1969-.6604 0-.4093.1969-.6604.1984-.2511.5131-.2511.1922 0 .3287.07596.138.07441.2279.2294v-.2635h.2853v2.397h-.2853z"/><path d="m48.71 6.879v-1.051h.2853v1.04q0 .2465.09612.3705.09612.1225.2884.1225.231 0 .3643-.1473.1349-.1473.1349-.4015v-.9844h.2853v1.736h-.2853v-.2667q-.1039.1581-.2418.2356-.1364.07596-.3178.07596-.2992 0-.4542-.186-.155-.186-.155-.5442z"/><path d="m50.75 5.828h.2853v1.736h-.2853zm0-.6759h.2853v.3612h-.2853z"/><path d="m52.88 5.895v.2667q-.1209-.06666-.2434-.09922-.1209-.03411-.2449-.03411-.2775 0-.431.1767-.1535.1752-.1535.493 0 .3178.1535.4945.1535.1752.431.1752.124 0 .2449-.03256.1225-.03411.2434-.1008v.2635q-.1194.05581-.248.08372-.1271.0279-.2713.0279-.3922 0-.6232-.2465-.231-.2465-.231-.6651 0-.4248.2325-.6682.2341-.2434.6403-.2434.1318 0 .2573.0279.1256.02636.2434.08062z"/><path d="m53.37 5.152h.2868v1.425l.8511-.7488h.3643l-.9209.8124.9596.924h-.3721l-.8821-.848v.848h-.2868z"/><path d="m55.23 5.152h.2853v2.412h-.2853z"/><path d="m56.83 7.726q-.1209.3101-.2356.4046-.1147.09457-.307.09457h-.2279v-.2387h.1674q.1178 0 .1829-.05581.06511-.05581.1442-.2635l.05116-.1302-.7023-1.708h.3023l.5426 1.358.5426-1.358h.3023z"/></g></g><path d="m25.5 27.95c12.14-10.46 23.55-16.86 40.66-21.67-12.19 13.22-11.73 22.98-11.14 41.24" fill="none" stroke="#000" stroke-linecap="round" stroke-linejoin="round" stroke-width=".2201"/><path d="m26.16 27.38.04561-.6216-.8792 1.339 1.454-.671z" fill-rule="evenodd"/><path d="m26.16 27.38.04547-.6212-.8791 1.339 1.454-.6713z" fill="none" stroke="#000" stroke-width=".1174"/><path d="m54.97 46.65-.4547-.4258.4907 1.526.3898-1.555z" fill-rule="evenodd"/><path d="m54.97 46.65-.4547-.4258.4904 1.526.3902-1.554z" fill="none" stroke="#000" stroke-width=".1174"/><g font-family="sans-serif" letter-spacing="0" word-spacing="0"><g font-size="3.175" stroke-width=".2646"><text x="9.271687" y="69.949043"><tspan x="9.271687" y="69.949043" font-family="sans-serif" font-size="3.175" stroke-width=".2646">very little / fast</tspan></text><text x="43.600437" y="69.949043"><tspan x="43.600437" y="69.949043" font-family="sans-serif" font-size="3.175" stroke-width=".2646">consumed runtime</tspan></text><text x="83.704018" y="69.949043"><tspan x="83.704018" y="69.949043" font-family="sans-serif" font-size="3.175" stroke-width=".2646">very much / too (?) long</tspan></text></g><g transform="rotate(-90)" font-size="3.529" stroke-width=".2647"><text x="-65.903175" y="3.385705" fill="#0f0"><tspan x="-65.903175" y="3.385705" fill="#0f0" font-family="sans-serif" font-size="3.176" stroke-width=".2647">better</tspan></text><text x="-65.387566" y="7.2296" fill="#0f0"><tspan x="-65.387566" y="7.2296" fill="#0f0" font-family="sans-serif" font-size="3.176" stroke-width=".2647">lower</tspan></text><text x="-45.660469" y="3.07789"><tspan x="-45.660469" y="3.07789" font-family="sans-serif" font-size="3.176" stroke-width=".2647">solution quality</tspan></text><text x="-51.966408" y="6.921785"><tspan x="-51.966408" y="6.921785" font-family="sans-serif" font-size="3.176" stroke-width=".2647">e.g., cost, tour length...</tspan></text><g fill="#f00"><text x="-10.367405" y="2.760772"><tspan x="-10.367405" y="2.760772" fill="#f00" font-family="sans-serif" font-size="3.176" stroke-width=".2647">worse</tspan></text><text x="-10.893867" y="6.604667"><tspan x="-10.893867" y="6.604667" fill="#f00" font-family="sans-serif" font-size="3.176" stroke-width=".2647">higher</tspan></text></g></g></g></svg>
