<svg clip-rule="evenodd" fill-rule="evenodd" height="230.04559pt" image-rendering="optimizeQuality" shape-rendering="geometricPrecision" text-rendering="geometricPrecision" viewBox="0 0 7194.6942 3195.0776" width="518.01794pt" xml:space="preserve" xmlns="http://www.w3.org/2000/svg"><circle cx="2320.6594" cy="2747.6289" fill="#ff5900" r="433.56"/><circle cx="2716.6094" cy="2232.1787" fill="#ed4200" r="433.56"/><circle cx="2856.9893" cy="1597.5389" fill="#d92e00" r="433.56"/><circle cx="2716.6094" cy="962.89893" fill="#c71700" r="433.56"/><circle cx="2320.6594" cy="447.44888" fill="#b20000" r="433.56"/><path d="m13.88889 604.26501v1986.57229c447.3225-.01 894.64762-.021 1341.98001-.021 548.48 0 993.2659-444.7562 993.2659-993.2862s-444.7859-993.26581-993.2659-993.26581v.0208c-447.33239 0-894.65792-.009-1341.98001-.0208z" fill="#fd9967"/><g fill="#1f1a17"><g font-family="'DejaVu Sans'" font-size="152.78"><text x="185.65948" y="1168.7789">optimization</text><text x="185.65948" y="1392.449">operations research</text><text x="185.65948" y="1616.1089">computational intelligence</text><text x="185.65948" y="1839.7789">machine learning</text><text x="185.65948" y="2063.4487">data mining</text><text x="2514.2493" y="1550.329">manage-</text><text x="2653.9792" y="1728.1689">ment</text><text x="2305.9294" y="1005.069">production</text><text x="2011.9794" y="489.61893">delivery</text><text x="2125.6494" y="2804.6189">sales</text></g><text x="3093.8193" y="343.6889"/><text x="2696.5293" y="983.68896"/><text x="2696.5293" y="1274.689"/><g font-family="'DejaVu Sans'" font-size="125"><text x="2947.5229" y="133.77394">- optimized logistics (business-to-customer)</text><text x="3093.3557" y="279.27396">- planning and scheduling of maintenance visits</text><text x="3197.522" y="424.77396">- planning and scheduling of supply visits</text><text x="3322.5215" y="628.27399">- production planning and scheduling</text><text x="3385.0212" y="773.77399">- optimized assignment of jobs/orders to machines</text><text x="3447.5217" y="919.27393">- optimization of production processes</text><text x="3489.1887" y="1064.7742">- optimization of stock-keeping</text><text x="3510.0222" y="1210.2742">- optimization of intra-enterprise logistics</text><text x="3530.8557" y="1355.7742">- optimization of supply chains</text><text x="3550.739" y="1501.2742">- optimization of factory layouts and intra-factory logistics</text><text x="3551.6892" y="1704.7742">- scheduling of employee work</text><text x="3549.3796" y="1850.2742">- optimal assignment of employees to tasks or customers</text><text x="3530.8557" y="1995.7738">- optimized locations for new branch offices</text><text x="3599.4597" y="2141.2734">   (based current or predicted future customers)</text><text x="3447.5217" y="2344.7734">- optimization of product design</text><text x="3385.0212" y="2490.2734">- optimization of product feature configuration</text><text x="3322.5215" y="2635.7734">- optimization of service offers</text><text x="3239.1885" y="2781.2734">- improved tailoring of products/services to customers</text><text x="3114.189" y="2984.7734">- optimization of pricing and offers</text><text x="2968.3562" y="3130.2734">- mining of customer data for targeted offers</text></g></g><path d="m2716.6095 529.33891c9.97 0 19.84.37 29.65 1.03-38.71 199.76-214.55 350.64-425.6 350.64-9.97 0-19.85-.37-29.65-1.04 38.71-199.75 214.55-350.63 425.59-350.63z" fill="#bc0b00"/><path d="m3066.9895 1218.1989c-78.86 108.03-206.42 178.26-350.38 178.26-76.2 0-147.78-19.7-210.01-54.24 78.86-108.03 206.42-178.24 350.38-178.24 76.2 0 147.78 19.68 210.01 54.22z" fill="#d02200"/><path d="m3066.9895 1976.8689c-62.22 34.54-133.81 54.23-210 54.23-143.96 0-271.52-70.24-350.38-178.27 62.23-34.53 133.81-54.21 210-54.21 143.96 0 271.52 70.22 350.38 178.25z" fill="#e33900"/><path d="m2746.2595 2664.6989c-9.8.66-19.68 1.04-29.65 1.04-211.05 0-386.89-150.89-425.59-350.64 9.8-.66 19.68-1.03 29.65-1.03 211.05 0 386.89 150.88 425.6 350.63z" fill="#f64d00"/><g fill="#1f1a17" font-family="'DejaVu Sans'" font-size="152.78"><text x="2335.5593" y="2185.2888">products /</text><text x="2405.7793" y="2302.0188">services</text></g></svg>