<svg clip-rule="evenodd" fill-rule="evenodd" height="246.12283pt" image-rendering="optimizeQuality" shape-rendering="geometricPrecision" text-rendering="geometricPrecision" viewBox="0 0 5753.8119 3418.3726" width="414.27444pt" xmlns="http://www.w3.org/2000/svg"><circle cx="1756.2429" cy="2859.2766" fill="#ff5900" r="433.56"/><circle cx="2152.1929" cy="2343.8264" fill="#ed4200" r="433.56"/><circle cx="2292.573" cy="1709.1865" fill="#d92e00" r="433.56"/><circle cx="2152.1929" cy="1074.5464" fill="#c71700" r="433.56"/><circle cx="1756.2429" cy="559.09644" fill="#b20000" r="433.56"/><path d="m13.888889 715.91659v1986.55201c259.187501-.01 518.359101-.021 777.547301-.021 548.48001 0 993.28611-444.7357 993.28611-993.2657s-444.8061-993.26581-993.28611-993.26581c-259.1882 0-518.361.01-777.547301 0z" fill="#ff9967"/><g fill="#1f1a17"><g font-family="Noto Sans CJK SC"><g font-size="250"><text x="167.57614" y="1160.4885">优化</text><text x="167.57614" y="1482.0901">运营研究</text><text x="165.32614" y="1803.6914">计算智能</text><text x="169.82614" y="2125.543">机器学习</text><text x="167.07614" y="2446.8945">数据挖掘</text></g><g font-size="236.11"><text x="2055.2827" y="1799.1443">管理</text><text x="1918.208" y="1163.5598">生产</text><text x="1518.8345" y="648.7002">运输</text></g><text font-size="250" x="1513.7432" y="2954.2766">销售</text></g><text x="2204.4128" y="276.25644"/><text x="2516.9128" y="276.25644"/><text x="2146.9128" y="441.91635"/><text x="2175.1628" y="441.91635"/><text x="2446.1228" y="441.91635"/><text x="2146.9128" y="614.37646"/><text x="2542.4429" y="614.37646"/><text x="2615.6328" y="614.37646"/><text x="2803.1328" y="614.37646"/><text x="2146.9128" y="836.87646"/><text x="2683.7029" y="874.37646"/><text x="2702.533" y="874.37646"/><text x="2778.8728" y="849.37646"/><text x="2966.373" y="849.37646"/><text x="2146.9128" y="1015.0364"/><text x="2740.2029" y="1048.3765"/><text x="2860.4729" y="1015.0364"/><text x="2818.6729" y="1187.4966"/><text x="2146.9128" y="1187.4966"/><text x="2740.2029" y="1220.8364"/><text x="2932.6729" y="1187.4966"/><text x="3120.1726" y="1187.4966"/><text x="2146.9128" y="1353.1665"/><text x="2740.2029" y="1386.4966"/><text x="2912.853" y="1386.4966"/><text x="2986.043" y="1353.1665"/><text x="2146.9128" y="1525.6165"/><text x="2966.2231" y="1575.6165"/><text x="3033.1328" y="1525.6165"/><text x="3220.6326" y="1525.6165"/><text x="2146.9128" y="1710.6165"/><text x="2740.2029" y="1743.9565"/><text x="2997.603" y="1768.9465"/><text x="3061.3828" y="1710.6165"/><text x="3248.8826" y="1710.6165"/><text x="2146.9128" y="1895.6165"/><text x="3080.2231" y="1895.6165"/><text x="3267.7229" y="1895.6165"/><text x="2994.4731" y="2161.2866"/><text x="3070.8027" y="2111.2864"/><text x="2966.2231" y="2314.4065"/><text x="3042.5527" y="2264.4065"/><text x="2937.9629" y="2486.8665"/><text x="3014.3027" y="2436.8665"/><text x="3576.8025" y="2436.8665"/><text x="2824.9629" y="2702.5366"/><text x="2846.9329" y="2702.5366"/><text x="2926.4028" y="2652.5266"/><text x="2768.4529" y="2805.6465"/><text x="2854.2029" y="2805.6465"/><text x="2146.9128" y="3153.1062"/><text x="2661.7229" y="3053.1064"/><text x="2680.563" y="3053.1064"/><text x="2756.8928" y="2978.1064"/><text x="2944.3931" y="2978.1064"/><text x="2175.1628" y="3143.7766"/><text x="2146.9128" y="3143.7766"/><text x="2203.4128" y="3143.7766"/><text x="2570.6929" y="3293.7766"/><text x="2637.6128" y="3143.7766"/><text x="2411.593" y="3366.2263"/><text x="2724.093" y="3366.2263"/><g font-size="125"><text font-family="'Symbol'" x="2146.9128" y="114.07566">·</text><text font-family="Noto Sans CJK SC" x="2266.9128" y="119.26389">物流优化 (商家-消费者)</text><text font-family="'Symbol'" x="2388.6228" y="272.42316">·</text><text font-family="Noto Sans CJK SC" x="2508.6228" y="284.92389">维修访问计划与调度</text><text font-family="'Symbol'" x="2558.1328" y="445.07065">·</text><text font-family="Noto Sans CJK SC" x="2678.1328" y="457.38388">供应访问计划与调度</text><text font-family="'Symbol'" x="2721.3728" y="680.19568">·</text><text font-family="Noto Sans CJK SC" x="2841.3728" y="692.38391">生产计划与调度</text><text font-family="'Symbol'" x="2802.9729" y="851.85565">·</text><text font-family="Noto Sans CJK SC" x="2922.9731" y="858.04388">优化作业/订单到机器的分配</text><text font-family="'Symbol'" x="2875.1729" y="1018.5657">·</text><text font-family="Noto Sans CJK SC" x="2995.1729" y="1030.5039">生产过程优化</text><text font-family="'Symbol'" x="2928.543" y="1184.1731">·</text><text font-family="Noto Sans CJK SC" x="3069.3765" y="1196.1738">库存优化</text><text font-family="'Symbol'" x="2975.6328" y="1355.8107">·</text><text font-family="Noto Sans CJK SC" x="3095.6328" y="1368.6239">企业内部物流优化</text><text font-family="'Symbol'" x="3003.8828" y="1541.3107">·</text><text font-family="Noto Sans CJK SC" x="3123.8828" y="1553.6239">供应链优化</text><text font-family="'Symbol'" x="3022.7231" y="1726.6857">·</text><text font-family="Noto Sans CJK SC" x="3142.7231" y="1738.6239">工厂布局以及场内物流优化</text><text font-family="'Symbol'" x="3013.3027" y="1941.8556">·</text><text font-family="Noto Sans CJK SC" x="3133.3027" y="1954.2938">员工工作调度</text><text font-family="'Symbol'" x="2985.0527" y="2094.9131">·</text><text font-family="Noto Sans CJK SC" x="3105.0527" y="2107.4138">员工对任务或客户的最优分配</text><text font-family="'Symbol'" x="2956.8027" y="2267.5605">·</text><text font-family="Noto Sans CJK SC" x="3076.8027" y="2279.8738">新分支机构位置的优化（基于当前或未来的客户）</text><text font-family="'Symbol'" x="2868.9028" y="2483.5957">·</text><text font-family="Noto Sans CJK SC" x="2988.9028" y="2495.5339">产品设计优化</text><text font-family="'Symbol'" x="2796.7029" y="2636.5281">·</text><text font-family="Noto Sans CJK SC" x="2916.7031" y="2648.6538">产品特征的优化配置</text><text font-family="'Symbol'" x="2699.3928" y="2808.8005">·</text><text font-family="Noto Sans CJK SC" x="2819.3928" y="2821.1138">服务提供优化</text><text font-family="'Symbol'" x="2580.1128" y="2974.4707">·</text><text font-family="Noto Sans CJK SC" x="2700.1128" y="2986.7839">为客户提供量身定制的产品或服务</text><text font-family="'Symbol'" x="2354.093" y="3196.9832">·</text><text font-family="Noto Sans CJK SC" x="2474.093" y="3209.2339">定价优化</text></g><text x="2391.9128" y="3551.2263"/></g><path d="m2152.1928 640.98639c9.97 0 19.84.37 29.65 1.03-38.71 199.76-214.55 350.64-425.6 350.64-9.97 0-19.85-.37-29.65-1.04 38.71-199.75 214.55-350.63 425.59-350.63z" fill="#bc0b00"/><text fill="#1f1a17" font-family="'Symbol'" font-size="125" x="2146.9128" y="3381.7332">·</text><text fill="#1f1a17" font-family="Noto Sans CJK SC" font-size="125" x="2266.9128" y="3394.2339">客户消费目标的数据挖掘</text><path d="m2502.5728 1329.8464c-78.86 108.03-206.42 178.26-350.38 178.26-76.2 0-147.78-19.7-210.01-54.24 78.86-108.03 206.42-178.24 350.38-178.24 76.2 0 147.78 19.68 210.01 54.22z" fill="#d02200"/><path d="m2502.5728 2088.5164c-62.22 34.54-133.81 54.23-210 54.23-143.96 0-271.52-70.24-350.38-178.27 62.23-34.53 133.81-54.21 210-54.21 143.96 0 271.52 70.22 350.38 178.25z" fill="#e33900"/><path d="m2181.8428 2776.3464c-9.8.66-19.68 1.04-29.65 1.04-211.05 0-386.89-150.89-425.59-350.64 9.8-.66 19.68-1.03 29.65-1.03 211.05 0 386.89 150.88 425.6 350.63z" fill="#f64d00"/><g fill="#1f1a17" font-family="Noto Sans CJK SC" font-size="222.22"><text x="1883.6404" y="2314.6628">产品/</text><text x="1930.7507" y="2541.877">服务</text></g></svg>