<svg clip-rule="evenodd" fill-rule="evenodd" height="230.05pt" image-rendering="optimizeQuality" shape-rendering="geometricPrecision" text-rendering="geometricPrecision" viewBox="0 0 7232.6 3195.1" width="520.74pt" xmlns="http://www.w3.org/2000/svg"><circle cx="2320.7" cy="2747.6" fill="#ff5900" r="433.56"/><circle cx="2716.6" cy="2232.2" fill="#ed4200" r="433.56"/><circle cx="2857" cy="1597.5" fill="#d92e00" r="433.56"/><circle cx="2716.6" cy="962.9" fill="#c71700" r="433.56"/><circle cx="2320.7" cy="447.45" fill="#b20000" r="433.56"/><path d="m13.889 604.26v1986.6c447.32-.01 894.65-.021 1342-.021 548.48 0 993.27-444.76 993.27-993.29s-444.79-993.27-993.27-993.27v.021c-447.33 0-894.66-.01-1342-.021z" fill="#fd9967"/><g fill="#1f1a17"><g font-family="DejaVu Sans" font-size="152.78"><text x="185.65941" y="1168.7788">Optimierungsverfahren</text><text x="185.65941" y="1392.4489">Operations Research</text><text x="185.65941" y="1616.1088">Computational Intelligence</text><text x="185.65941" y="1839.7788">Machinelles Lernen</text><text x="185.65941" y="2063.4487">Data Mining</text><g transform="translate(7.9742 -.00007)"><text x="2514.2493" y="1550.329">Manage-</text><text x="2653.9792" y="1728.1689">ment</text></g><text x="2306.9456" y="1019.8557">Produktion</text><text x="1958.702" y="489.59756">Lieferung</text><text x="2028.863" y="2804.5857">Verkauf</text></g><text x="3093.8193" y="343.68887"/><text x="2696.5293" y="983.6889"/><text x="2696.5293" y="1274.6888"/><g font-family="DejaVu Sans" font-size="125"><text x="2947.5229" y="133.77383">- optimierte Logistik (business-to-customer)</text><text x="3093.3557" y="279.27383">- Planung von Wartungsfahrten</text><text x="3197.522" y="424.77383">- Planung von Versorgungs und Lieferungsfahrten</text><text x="3322.5215" y="628.27386">- Planung der Produktion</text><text x="3385.0212" y="773.77386">- optimierte Zuweisung von Aufträgen an Maschinen</text><text x="3447.5217" y="919.27386">- Optimierung von Produktionsprozessen</text><text x="3489.1887" y="1064.774">- Optimierung der Lagerhaltung</text><text x="3510.0222" y="1210.274">- Optimierung der Logistik innerhalb einer Firma</text><text x="3530.8557" y="1355.774">- Optimierung der Beschaffungskette</text><text x="3550.739" y="1501.274">- Optimierung des Layouts und der Logistik einer Fabrik</text><text x="3551.6892" y="1704.774">- Zeitplanung der Arbeit von Angestellten</text><text x="3549.3796" y="1850.274">- Zuweisung von Arbeitern zu Kunden oder Aufgaben</text><text x="3530.8557" y="1995.7737">- optimierte Standortauswahl für neue Niederlassungen</text><text x="3599.4597" y="2141.2734">(basierent auf aktuellen oder vorhergesehenen Kunden)</text><text x="3447.5217" y="2344.7734">- Optimierung des Produktdesigns</text><text x="3385.0212" y="2490.2734">- optimierte Konfiguration von Produkteigenschaften</text><text x="3322.5215" y="2635.7734">- Optimierung von Dienstangeboten</text><text x="3239.1885" y="2781.2734">- verbesserte Anpassungen von Produkten/Diensten an Kunden</text><text x="3114.189" y="2984.7734">- Optimierung von Preisen und Angeboten</text><text x="2968.3562" y="3130.2734">- Analyse von Kundendaten für optimierte Angebote</text></g></g><path d="m2716.6 529.34c9.97 0 19.84.37 29.65 1.03-38.71 199.76-214.55 350.64-425.6 350.64-9.97 0-19.85-.37-29.65-1.04 38.71-199.75 214.55-350.63 425.59-350.63z" fill="#bc0b00"/><path d="m3067 1218.2c-78.86 108.03-206.42 178.26-350.38 178.26-76.2 0-147.78-19.7-210.01-54.24 78.86-108.03 206.42-178.24 350.38-178.24 76.2 0 147.78 19.68 210.01 54.22z" fill="#d02200"/><path d="m3067 1976.9c-62.22 34.54-133.81 54.23-210 54.23-143.96 0-271.52-70.24-350.38-178.27 62.23-34.53 133.81-54.21 210-54.21 143.96 0 271.52 70.22 350.38 178.25z" fill="#e33900"/><path d="m2746.3 2664.7c-9.8.66-19.68 1.04-29.65 1.04-211.05 0-386.89-150.89-425.59-350.64 9.8-.66 19.68-1.03 29.65-1.03 211.05 0 386.89 150.88 425.6 350.63z" fill="#f64d00"/><g fill="#1f1a17" font-family="DejaVu Sans" font-size="152.78"><text x="2323.2102" y="2162.0896">Produkte /</text><text x="2424.3672" y="2327.5054">Dienste</text></g></svg>