<?xml version="1.0" encoding="UTF-8"?>
<svg width="709.4pt" height="214.9pt" clip-rule="evenodd" fill-rule="evenodd" image-rendering="optimizeQuality" shape-rendering="geometricPrecision" text-rendering="geometricPrecision" viewBox="0 0 9.853 2.984" xmlns="http://www.w3.org/2000/svg" xmlns:xlink="http://www.w3.org/1999/xlink"><mask id="a"><path d="m5.808 3.489h.6093v.3934h-.6093z" clip-rule="evenodd" fill="url(#s)" fill-rule="evenodd" image-rendering="optimizeQuality" shape-rendering="geometricPrecision"/></mask><mask id="b"><path d="m8.798 3.495h.6093v.3934h-.6093z" clip-rule="evenodd" fill="url(#t)" fill-rule="evenodd" image-rendering="optimizeQuality" shape-rendering="geometricPrecision"/></mask><mask id="c"><path d="m5.513 2.972h.8267v.6404h-.8267z" clip-rule="evenodd" fill="url(#u)" fill-rule="evenodd" image-rendering="optimizeQuality" shape-rendering="geometricPrecision"/></mask><mask id="d"><path d="m8.472 2.951h.8267v.6404h-.8267z" clip-rule="evenodd" fill="url(#v)" fill-rule="evenodd" image-rendering="optimizeQuality" shape-rendering="geometricPrecision"/></mask><linearGradient id="e" x1="7.6644" x2="7.6644" y1="2.419" y2=".805" gradientUnits="userSpaceOnUse"><stop stop-color="#ff5900" offset="0"/><stop stop-color="#c95618" offset="1"/></linearGradient><linearGradient id="f" x1="7.4704" x2="7.4624" y1="1.482" y2=".883" gradientUnits="userSpaceOnUse"><stop stop-color="#75c5f0" offset="0"/><stop stop-color="#fff" offset="1"/></linearGradient><linearGradient id="g" x1="9.084" x2="9.121" y1="3.497" y2="3.888" gradientUnits="userSpaceOnUse"><stop stop-color="#fff" offset="0"/><stop stop-color="#fff" offset="1"/></linearGradient><linearGradient id="h" x1="6.093" x2="6.131" y1="3.49" y2="3.881" gradientUnits="userSpaceOnUse" xlink:href="#g"/><radialGradient id="i" cx="3.641" cy="3.003" r=".9324" gradientUnits="userSpaceOnUse"><stop stop-color="#ff5900" offset="0"/><stop stop-color="#ac4632" offset="1"/></radialGradient><linearGradient id="j" x1="5.791" x2="6.062" y1="2.966" y2="3.618" gradientUnits="userSpaceOnUse" xlink:href="#g"/><linearGradient id="k" x1="8.75" x2="9.021" y1="2.946" y2="3.597" gradientUnits="userSpaceOnUse" xlink:href="#g"/><radialGradient id="l" cx="4.788" cy="2.657" r=".8586" gradientUnits="userSpaceOnUse"><stop stop-color="#782f2f" offset="0"/><stop stop-color="#ff5900" offset="1"/></radialGradient><radialGradient id="m" cx="7.7444" cy="1.056" r=".8818" gradientUnits="userSpaceOnUse" xlink:href="#l"/><filter id="n" x="-.068884" y="-.15827" width="1.1378" height="1.3165" color-interpolation-filters="sRGB"><feGaussianBlur stdDeviation=".10217835"/></filter><pattern id="o" patternTransform="matrix(10 0 0 10 -43.38 -138.7)" xlink:href="#p"/><pattern id="p" width="2" height="2" clip-rule="evenodd" fill-rule="evenodd" shape-rendering="geometricPrecision" text-rendering="geometricPrecision" patternTransform="scale(10)" patternUnits="userSpaceOnUse"><path d="m0 0h1v1h-1z" image-rendering="optimizeQuality"/><path d="m1 1h1v1h-1z" image-rendering="optimizeQuality"/></pattern><filter id="q" x="-.00766" y="-.030336" width="1.0153" height="1.0607" color-interpolation-filters="sRGB"><feGaussianBlur stdDeviation="1.090752"/></filter><linearGradient id="r"><stop stop-color="#fff" offset="0"/><stop stop-color="#fff" stop-opacity="0" offset="1"/></linearGradient><linearGradient id="s" x1="6.091" x2="6.134" y1="3.463" y2="3.908" gradientUnits="userSpaceOnUse" xlink:href="#r"/><linearGradient id="t" x1="9.081" x2="9.124" y1="3.47" y2="3.914" gradientUnits="userSpaceOnUse" spreadMethod="reflect" xlink:href="#r"/><linearGradient id="u" x1="5.753" x2="6.1" y1="2.874" y2="3.709" gradientUnits="userSpaceOnUse" xlink:href="#r"/><linearGradient id="v" x1="8.712" x2="9.059" y1="2.854" y2="3.689" gradientUnits="userSpaceOnUse" spreadMethod="reflect" xlink:href="#r"/><path d="m1.139 1.534h7.575c.6134-.0000315 1.111.3185 1.111.7113l.0000079.0000315c-.0000079.3928-.4974.7113-1.111.7113l-7.575.0000512c-.6134-.0000512-1.111-.3186-1.111-.7114l-.00001574.0000315c.00001574-.3928.4974-.7114 1.111-.7114z" fill="#aaa9a9"/><path transform="translate(.03245 -1.564)" d="m2.307 3.61.763.336.884-.323v-.707l-.763-.336-.884.323z" fill="none" stroke="#fff" stroke-linecap="round" stroke-linejoin="round" stroke-width=".041665"/><path transform="translate(.03245 -1.564)" d="m3.191 2.58-.884.323v.707l.763.336.884-.323v-.707z" fill="url(#i)"/><g fill="none" stroke="#1f1a17" stroke-linecap="round" stroke-linejoin="round" stroke-width=".031945"><path transform="translate(.03245 -1.564)" d="m3.07 3.946.884-.323v-.707l-.763-.336-.884.323v.707z"/><path d="m3.158 1.348c-.02527-.3119-.3979.01411 0 0z"/><g transform="translate(.03245 -1.564)"><path d="m2.688 3.778v-.707l.885-.323"/><path d="m3.512 3.784v-.707l-.763-.335"/><path d="m2.307 3.276.763.316.884-.323"/></g><path d="m3.102 1.675v.707"/><path transform="translate(.03245 -1.564)" d="m2.307 2.903.763.336.884-.323"/><path d="m3.163 1.346c.02527-.3119.3979.01411 0 0z"/></g><path transform="translate(.03245 -1.564)" d="m3.191 1.746-.884.323v.707l.763.336.884-.323v-.707z" fill="none" stroke="#fff" stroke-linecap="round" stroke-linejoin="round" stroke-width=".041665"/><path transform="translate(.03245 -1.564)" d="m3.191 1.746-.884.323v.707l.763.336.884-.323v-.707z" fill="url(#i)"/><g fill="none" stroke="#1f1a17" stroke-linecap="round" stroke-linejoin="round" stroke-width=".031945"><path transform="translate(.03245 -1.564)" d="m2.307 2.069v.707l.763.336.884-.323v-.707l-.763-.336z"/><path d="m3.158.5138c-.02527-.3119-.3979.01411 0 0z"/><g transform="translate(.03245 -1.564)"><path d="m2.688 2.944v-.707l.885-.323"/><path d="m3.512 2.95v-.706l-.763-.336"/><path d="m2.307 2.443.763.315.884-.323"/></g><path d="m3.102.8413v.7067"/><path transform="translate(.03245 -1.564)" d="m2.307 2.069.763.336.884-.323"/><path d="m3.163.5119c.02527-.3119.3979.01411 0 0z"/></g><path transform="translate(.03245 -1.564)" d="m1.28 1.652-.4395.16v.351l.3795.167.439-.16v-.352z" fill="none" stroke="#fff" stroke-linecap="round" stroke-linejoin="round" stroke-width=".041665"/><path transform="translate(.03245 -1.564)" d="m1.28 1.652-.4395.16v.351l.3795.167.439-.16v-.352z" fill="url(#i)"/><g fill="none" stroke="#1f1a17" stroke-linecap="round" stroke-linejoin="round" stroke-width=".031945"><path transform="translate(.03245 -1.564)" d="m1.22 2.33.439-.16v-.352l-.379-.166-.4395.16v.351z"/><path d="m1.28.2525c-.01255-.1549-.1977.00701 0 0z"/><g transform="translate(.03245 -1.564)"><path d="m1.03 2.247v-.352l.439-.16"/><path d="m1.439 2.25v-.351l-.379-.167"/><path d="m.8405 1.998.3795.156.439-.16"/></g><path d="m1.252.4152v.3511"/><path transform="translate(.03245 -1.564)" d="m.8405 1.812.3795.167.439-.161"/><path d="m1.282.2516c.01255-.1549.1977.00701 0 0z"/></g><path transform="translate(.03245 -1.564)" d="m1.763 2.266-.44.16v.352l.379.166.44-.16v-.351z" fill="none" stroke="#fff" stroke-linecap="round" stroke-linejoin="round" stroke-width=".041665"/><path transform="translate(.03245 -1.564)" d="m1.763 2.266-.44.16v.352l.379.166.44-.16v-.351z" fill="url(#i)"/><g fill="none" stroke="#1f1a17" stroke-linecap="round" stroke-linejoin="round" stroke-width=".031945"><path transform="translate(.03245 -1.564)" d="m1.702 2.944.44-.16v-.351l-.379-.167-.44.16v.352z"/><path d="m1.762.867c-.01256-.1549-.1977.00701 0 0z"/><g transform="translate(.03245 -1.564)"><path d="m1.513 2.861v-.351l.439-.161"/><path d="m1.922 2.864v-.351l-.379-.167"/><path d="m1.323 2.612.379.157.44-.161"/></g><path d="m1.735 1.03v.351"/><path transform="translate(.03245 -1.564)" d="m1.323 2.426.379.167.44-.16"/><path d="m1.765.866c.01256-.1549.1977.00701 0 0z"/></g><path transform="translate(.03245 -1.564)" d="m1.763 1.871-.44.16v.352l.379.166.44-.16v-.351z" fill="none" stroke="#fff" stroke-linecap="round" stroke-linejoin="round" stroke-width=".041665"/><path transform="translate(.03245 -1.564)" d="m1.763 1.871-.44.16v.352l.379.166.44-.16v-.351z" fill="url(#i)"/><g fill="none" stroke="#1f1a17" stroke-linecap="round" stroke-linejoin="round" stroke-width=".031945"><path transform="translate(.03245 -1.564)" d="m1.702 2.549.44-.16v-.351l-.379-.167-.44.16v.352z"/><path d="m1.762.472c-.01256-.1549-.1977.00701 0 0z"/><g transform="translate(.03245 -1.564)"><path d="m1.513 2.466v-.351l.439-.161"/><path d="m1.922 2.469v-.351l-.379-.167"/><path d="m1.323 2.217.379.157.44-.161"/></g><path d="m1.735.6346v.3512"/><path transform="translate(.03245 -1.564)" d="m1.323 2.031.379.167.44-.16"/><path d="m1.765.471c.01256-.1549.1977.00701 0 0z"/></g><path transform="translate(.03245 -1.564)" d="m.7533 3.056-.4394.16v.352l.379.166.4391-.16v-.351z" fill="none" stroke="#fff" stroke-linecap="round" stroke-linejoin="round" stroke-width=".041665"/><path transform="translate(.03245 -1.564)" d="m.7533 3.056-.4394.16v.352l.379.166.4391-.16v-.351z" fill="url(#i)"/><g fill="none" stroke="#1f1a17" stroke-linecap="round" stroke-linejoin="round" stroke-width=".031945"><path transform="translate(.03245 -1.564)" d="m.6929 3.734.4391-.16v-.351l-.3787-.167-.4394.16v.352z"/><path d="m.7529 1.657c-.01255-.1549-.1977.00701 0 0z"/><g transform="translate(.03245 -1.564)"><path d="m.5034 3.651v-.351l.4394-.161"/><path d="m.9126 3.654v-.351l-.379-.167"/><path d="m.3139 3.402.379.157.4391-.161"/></g><path d="m.7254 1.82v.351"/><path transform="translate(.03245 -1.564)" d="m.3139 3.216.379.167.4391-.16"/><path d="m.7555 1.656c.01255-.1549.1977.00701 0 0z"/></g><path transform="translate(.03245 -1.564)" d="m.7533 2.661-.4394.16v.352l.379.166.4391-.16v-.351z" fill="none" stroke="#fff" stroke-linecap="round" stroke-linejoin="round" stroke-width=".041665"/><path transform="translate(.03245 -1.564)" d="m.7533 2.661-.4394.16v.352l.379.166.4391-.16v-.351z" fill="url(#i)"/><g fill="none" stroke="#1f1a17" stroke-linecap="round" stroke-linejoin="round" stroke-width=".031945"><path transform="translate(.03245 -1.564)" d="m.6929 3.339.4391-.16v-.351l-.3787-.167-.4394.16v.352z"/><path d="m.7529 1.262c-.01255-.1549-.1977.00701 0 0z"/><g transform="translate(.03245 -1.564)"><path d="m.5034 3.256v-.351l.4394-.161"/><path d="m.9126 3.259v-.351l-.379-.167"/><path d="m.3139 3.007.379.157.4391-.161"/></g><path d="m.7254 1.425v.351"/><path transform="translate(.03245 -1.564)" d="m.3139 2.821.379.167.4391-.16"/><path d="m.7555 1.261c.01255-.1549.1977.00701 0 0z"/></g><path transform="translate(.03245 -1.564)" d="m.7533 2.266-.4394.16v.352l.379.166.4391-.16v-.351z" fill="none" stroke="#fff" stroke-linecap="round" stroke-linejoin="round" stroke-width=".041665"/><path transform="translate(.03245 -1.564)" d="m.7533 2.266-.4394.16v.352l.379.166.4391-.16v-.351z" fill="url(#i)"/><g fill="none" stroke="#1f1a17" stroke-linecap="round" stroke-linejoin="round" stroke-width=".031945"><path transform="translate(.03245 -1.564)" d="m.6929 2.944.4391-.16v-.351l-.3787-.167-.4394.16v.352z"/><path d="m.7529.867c-.01255-.1549-.1977.00701 0 0z"/><g transform="translate(.03245 -1.564)"><path d="m.5034 2.861v-.351l.4394-.161"/><path d="m.9126 2.864v-.351l-.379-.167"/><path d="m.3139 2.612.379.157.4391-.161"/></g><path d="m.7254 1.03v.351"/><path transform="translate(.03245 -1.564)" d="m.3139 2.426.379.167.4391-.16"/><path d="m.7555.866c.01255-.1549.1977.00701 0 0z"/></g><path transform="translate(.03245 -1.564)" d="m.7533 1.871-.4394.16v.352l.379.166.4391-.16v-.351z" fill="none" stroke="#fff" stroke-linecap="round" stroke-linejoin="round" stroke-width=".041665"/><path transform="translate(.03245 -1.564)" d="m.7533 1.871-.4394.16v.352l.379.166.4391-.16v-.351z" fill="url(#i)"/><g fill="none" stroke="#1f1a17" stroke-linecap="round" stroke-linejoin="round" stroke-width=".031945"><path transform="translate(.03245 -1.564)" d="m.6929 2.549.4391-.16v-.351l-.3787-.167-.4394.16v.352z"/><path d="m.7529.472c-.01255-.1549-.1977.00701 0 0z"/><g transform="translate(.03245 -1.564)"><path d="m.5034 2.466v-.351l.4394-.161"/><path d="m.9126 2.469v-.351l-.379-.167"/><path d="m.3139 2.217.379.157.4391-.161"/></g><path d="m.7254.6346v.3512"/><path transform="translate(.03245 -1.564)" d="m.3139 2.031.379.167.4391-.16"/><path d="m.7555.471c.01255-.1549.1977.00701 0 0z"/></g><path transform="translate(.03245 -1.564)" d="m1.236 3.276-.4393.16v.351l.3793.167.439-.161v-.351z" fill="none" stroke="#fff" stroke-linecap="round" stroke-linejoin="round" stroke-width=".041665"/><path transform="translate(.03245 -1.564)" d="m1.236 3.276-.4393.16v.351l.3793.167.439-.161v-.351z" fill="url(#i)"/><g fill="none" stroke="#1f1a17" stroke-linecap="round" stroke-linejoin="round" stroke-width=".031945"><path transform="translate(.03245 -1.564)" d="m1.176 3.954.439-.161v-.351l-.379-.166-.4393.16v.351z"/><path d="m1.236 1.876c-.01256-.1549-.1977.00701 0 0z"/><g transform="translate(.03245 -1.564)"><path d="m.9862 3.87v-.351l.4398-.16"/><path d="m1.395 3.874v-.351l-.379-.167"/><path d="m.7967 3.621.3793.157.439-.16"/></g><path d="m1.208 2.039v.351"/><path transform="translate(.03245 -1.564)" d="m.7967 3.436.3793.167.439-.161"/><path d="m1.238 1.875c.01256-.1549.1977.00701 0 0z"/></g><path transform="translate(.03245 -1.564)" d="m1.236 2.881-.4393.16v.351l.3793.167.439-.161v-.351z" fill="none" stroke="#fff" stroke-linecap="round" stroke-linejoin="round" stroke-width=".041665"/><path transform="translate(.03245 -1.564)" d="m1.236 2.881-.4393.16v.351l.3793.167.439-.161v-.351z" fill="url(#i)"/><g fill="none" stroke="#1f1a17" stroke-linecap="round" stroke-linejoin="round" stroke-width=".031945"><path transform="translate(.03245 -1.564)" d="m1.176 3.559.439-.161v-.351l-.379-.166-.4393.16v.351z"/><path d="m1.236 1.481c-.01256-.1549-.1977.00701 0 0z"/><g transform="translate(.03245 -1.564)"><path d="m.9862 3.475v-.351l.4398-.16"/><path d="m1.395 3.479v-.351l-.379-.167"/><path d="m.7967 3.226.3793.157.439-.16"/></g><path d="m1.208 1.644v.351"/><path transform="translate(.03245 -1.564)" d="m.7967 3.041.3793.167.439-.161"/><path d="m1.238 1.48c.01256-.1549.1977.00701 0 0z"/></g><path transform="translate(.03245 -1.564)" d="m1.236 2.486-.4393.16v.351l.3793.167.439-.161v-.351z" fill="none" stroke="#fff" stroke-linecap="round" stroke-linejoin="round" stroke-width=".041665"/><path transform="translate(.03245 -1.564)" d="m1.236 2.486-.4393.16v.351l.3793.167.439-.161v-.351z" fill="url(#i)"/><g fill="none" stroke="#1f1a17" stroke-linecap="round" stroke-linejoin="round" stroke-width=".031945"><path transform="translate(.03245 -1.564)" d="m1.176 3.164.439-.161v-.351l-.379-.166-.4393.16v.351z"/><path d="m1.236 1.086c-.01256-.1549-.1977.00701 0 0z"/><g transform="translate(.03245 -1.564)"><path d="m.9862 3.08v-.351l.4398-.16"/><path d="m1.395 3.084v-.351l-.379-.167"/><path d="m.7967 2.831.3793.157.439-.16"/></g><path d="m1.208 1.249v.351"/><path transform="translate(.03245 -1.564)" d="m.7967 2.646.3793.167.439-.161"/><path d="m1.238 1.085c.01256-.1549.1977.00701 0 0z"/></g><path transform="translate(.03245 -1.564)" d="m1.236 2.091-.4393.16v.351l.3793.167.439-.161v-.351z" fill="none" stroke="#fff" stroke-linecap="round" stroke-linejoin="round" stroke-width=".041665"/><path transform="translate(.03245 -1.564)" d="m1.236 2.091-.4393.16v.351l.3793.167.439-.161v-.351z" fill="url(#i)"/><g fill="none" stroke="#1f1a17" stroke-linecap="round" stroke-linejoin="round" stroke-width=".031945"><path transform="translate(.03245 -1.564)" d="m1.176 2.769.439-.161v-.351l-.379-.166-.4393.16v.351z"/><path d="m1.236.6914c-.01256-.1549-.1977.00701 0 0z"/><g transform="translate(.03245 -1.564)"><path d="m.9862 2.685v-.351l.4398-.16"/><path d="m1.395 2.689v-.351l-.379-.167"/><path d="m.7967 2.436.3793.157.439-.16"/></g><path d="m1.208.8541v.3509"/><path transform="translate(.03245 -1.564)" d="m.7967 2.251.3793.167.439-.161"/><path d="m1.238.6905c.01256-.1549.1977.00701 0 0z"/></g><path transform="translate(.03245 -1.564)" d="m1.445 3.744-.189.069v.151l.163.071.189-.068v-.151z" fill="none" stroke="#fff" stroke-linecap="round" stroke-linejoin="round" stroke-width=".041665"/><path transform="translate(.03245 -1.564)" d="m1.445 3.744-.189.069v.151l.163.071.189-.068v-.151z" fill="url(#i)"/><g fill="none" stroke="#1f1a17" stroke-linecap="round" stroke-linejoin="round" stroke-width=".031945"><path transform="translate(.03245 -1.564)" d="m1.419 4.035.189-.068v-.151l-.163-.072-.189.069v.151z"/><path d="m1.463 2.251c-.00539-.06652-.08486.00301 0 0z"/><g transform="translate(.03245 -1.564)"><path d="m1.338 4v-.151l.188-.069"/><path d="m1.513 4.001v-.151l-.163-.071"/><path d="m1.256 3.893.163.067.189-.069"/></g><path d="m1.451 2.321v.151"/><path transform="translate(.03245 -1.564)" d="m1.256 3.813.163.072.189-.069"/><path d="m1.464 2.251c.00539-.06652.08486.00301 0 0z"/></g><path transform="translate(.03245 -1.564)" d="m1.664 3.832-.188.069v.151l.162.071.189-.069v-.15z" fill="none" stroke="#fff" stroke-linecap="round" stroke-linejoin="round" stroke-width=".041665"/><path transform="translate(.03245 -1.564)" d="m1.664 3.832-.188.069v.151l.162.071.189-.069v-.15z" fill="url(#i)"/><g fill="none" stroke="#1f1a17" stroke-linecap="round" stroke-linejoin="round" stroke-width=".031945"><path transform="translate(.03245 -1.564)" d="m1.638 4.123.189-.069v-.15l-.163-.072-.188.069v.151z"/><path d="m1.683 2.339c-.00539-.06652-.08486.00301 0 0z"/><g transform="translate(.03245 -1.564)"><path d="m1.557 4.087v-.15l.189-.069"/><path d="m1.733 4.089v-.151l-.163-.072"/><path d="m1.476 3.981.162.067.189-.069"/></g><path d="m1.671 2.409v.151"/><path transform="translate(.03245 -1.564)" d="m1.476 3.901.162.071.189-.068"/><path d="m1.684 2.339c.00539-.06652.08486.00301 0 0z"/></g><path transform="translate(.03245 -1.564)" d="m1.884 3.92-.189.069v.15l.163.072.188-.069v-.151z" fill="none" stroke="#fff" stroke-linecap="round" stroke-linejoin="round" stroke-width=".041665"/><path transform="translate(.03245 -1.564)" d="m1.884 3.92-.189.069v.15l.163.072.188-.069v-.151z" fill="url(#i)"/><g fill="none" stroke="#1f1a17" stroke-linecap="round" stroke-linejoin="round" stroke-width=".031945"><path transform="translate(.03245 -1.564)" d="m1.858 4.211.188-.069v-.151l-.162-.071-.189.069v.15z"/><path d="m1.902 2.427c-.00539-.06652-.08486.00301 0 0z"/><g transform="translate(.03245 -1.564)"><path d="m1.776 4.175v-.151l.189-.068"/><path d="m1.952 4.177v-.151l-.163-.072"/><path d="m1.695 4.068.163.068.188-.069"/></g><path d="m1.89 2.497v.15"/><path transform="translate(.03245 -1.564)" d="m1.695 3.989.163.071.188-.069"/><path d="m1.903 2.426c.00539-.06652.08486.00301 0 0z"/></g><path transform="translate(.03245 -1.564)" d="m2.849 3.744-.188.069v.151l.162.071.189-.068v-.151z" fill="none" stroke="#fff" stroke-linecap="round" stroke-linejoin="round" stroke-width=".041665"/><path transform="translate(.03245 -1.564)" d="m2.849 3.744-.188.069v.151l.162.071.189-.068v-.151z" fill="url(#i)"/><g fill="none" stroke="#1f1a17" stroke-linecap="round" stroke-linejoin="round" stroke-width=".031945"><path transform="translate(.03245 -1.564)" d="m2.823 4.035.189-.068v-.151l-.163-.072-.188.069v.151z"/><path d="m2.868 2.251c-.00539-.06652-.08486.00301 0 0z"/><g transform="translate(.03245 -1.564)"><path d="m2.742 4v-.151l.189-.069"/><path d="m2.918 4.001v-.151l-.163-.071"/><path d="m2.661 3.893.162.067.189-.069"/></g><path d="m2.856 2.321v.151"/><path transform="translate(.03245 -1.564)" d="m2.661 3.813.162.072.189-.069"/><path d="m2.869 2.251c.00539-.06652.08486.00301 0 0z"/></g><path transform="translate(.03245 -1.564)" d="m2.601 3.832-.189.069v.151l.163.071.188-.069v-.15z" fill="none" stroke="#fff" stroke-linecap="round" stroke-linejoin="round" stroke-width=".041665"/><path transform="translate(.03245 -1.564)" d="m2.601 3.832-.189.069v.151l.163.071.188-.069v-.15z" fill="url(#i)"/><g fill="none" stroke="#1f1a17" stroke-linecap="round" stroke-linejoin="round" stroke-width=".031945"><path transform="translate(.03245 -1.564)" d="m2.575 4.123.188-.069v-.15l-.162-.072-.189.069v.151z"/><path d="m2.619 2.339c-.00539-.06652-.08486.00301 0 0z"/><g transform="translate(.03245 -1.564)"><path d="m2.493 4.087v-.15l.189-.069"/><path d="m2.669 4.089v-.151l-.163-.072"/><path d="m2.412 3.981.163.067.188-.069"/></g><path d="m2.607 2.409v.151"/><path transform="translate(.03245 -1.564)" d="m2.412 3.901.163.071.188-.068"/><path d="m2.62 2.339c.00539-.06652.08486.00301 0 0z"/></g><path transform="translate(.03245 -1.564)" d="m2.352 3.92-.189.069v.15l.163.072.189-.069v-.151z" fill="none" stroke="#fff" stroke-linecap="round" stroke-linejoin="round" stroke-width=".041665"/><path transform="translate(.03245 -1.564)" d="m2.352 3.92-.189.069v.15l.163.072.189-.069v-.151z" fill="url(#i)"/><g fill="none" stroke="#1f1a17" stroke-linecap="round" stroke-linejoin="round" stroke-width=".031945"><path transform="translate(.03245 -1.564)" d="m2.326 4.211.189-.069v-.151l-.163-.071-.189.069v.15z"/><path d="m2.37 2.427c-.00539-.06652-.08486.00301 0 0z"/><g transform="translate(.03245 -1.564)"><path d="m2.245 4.175v-.151l.188-.068"/><path d="m2.42 4.177v-.151l-.162-.072"/><path d="m2.163 4.068.163.068.189-.069"/></g><path d="m2.358 2.497v.15"/><path transform="translate(.03245 -1.564)" d="m2.163 3.989.163.071.189-.069"/><path d="m2.371 2.426c.00539-.06652.08486.00301 0 0z"/></g><path transform="translate(.03245 -1.564)" d="m2.103 4.008-.189.068v.151l.163.072.189-.069v-.151z" fill="none" stroke="#fff" stroke-linecap="round" stroke-linejoin="round" stroke-width=".041665"/><path transform="translate(.03245 -1.564)" d="m2.103 4.008-.189.068v.151l.163.072.189-.069v-.151z" fill="url(#i)"/><g fill="none" stroke="#1f1a17" stroke-linecap="round" stroke-linejoin="round" stroke-width=".031945"><path transform="translate(.03245 -1.564)" d="m2.077 4.299.189-.069v-.151l-.163-.071-.189.068v.151z"/><path d="m2.122 2.515c-.00539-.06652-.08486.00301 0 0z"/><g transform="translate(.03245 -1.564)"><path d="m1.996 4.263v-.151l.189-.069"/><path d="m2.172 4.264v-.15l-.163-.072"/><path d="m1.914 4.156.163.067.189-.068"/></g><path d="m2.11 2.584v.151"/><path transform="translate(.03245 -1.564)" d="m1.914 4.076.163.072.189-.069"/><path d="m2.123 2.514c.00539-.06652.08486.00301 0 0z"/></g><path transform="translate(.03245 -1.564)" d="m1.445 3.525-.189.069v.15l.163.072.189-.069v-.151z" fill="none" stroke="#fff" stroke-linecap="round" stroke-linejoin="round" stroke-width=".041665"/><path transform="translate(.03245 -1.564)" d="m1.445 3.525-.189.069v.15l.163.072.189-.069v-.151z" fill="url(#i)"/><g fill="none" stroke="#1f1a17" stroke-linecap="round" stroke-linejoin="round" stroke-width=".031945"><path transform="translate(.03245 -1.564)" d="m1.419 3.816.189-.069v-.151l-.163-.071-.189.069v.15z"/><path d="m1.463 2.032c-.00539-.06652-.08486.00301 0 0z"/><g transform="translate(.03245 -1.564)"><path d="m1.338 3.78v-.151l.188-.068"/><path d="m1.513 3.782v-.151l-.163-.072"/><path d="m1.256 3.673.163.068.189-.069"/></g><path d="m1.451 2.102v.15"/><path transform="translate(.03245 -1.564)" d="m1.256 3.594.163.071.189-.069"/><path d="m1.464 2.031c.00539-.06652.08486.00301 0 0z"/></g><path transform="translate(.03245 -1.564)" d="m1.664 3.613-.188.068v.151l.162.072.189-.069v-.151z" fill="none" stroke="#fff" stroke-linecap="round" stroke-linejoin="round" stroke-width=".041665"/><path transform="translate(.03245 -1.564)" d="m1.664 3.613-.188.068v.151l.162.072.189-.069v-.151z" fill="url(#i)"/><g fill="none" stroke="#1f1a17" stroke-linecap="round" stroke-linejoin="round" stroke-width=".031945"><path transform="translate(.03245 -1.564)" d="m1.638 3.904.189-.069v-.151l-.163-.071-.188.068v.151z"/><path d="m1.683 2.12c-.00539-.06652-.08486.00301 0 0z"/><g transform="translate(.03245 -1.564)"><path d="m1.557 3.868v-.151l.189-.069"/><path d="m1.733 3.869v-.15l-.163-.072"/><path d="m1.476 3.761.162.067.189-.068"/></g><path d="m1.671 2.189v.151"/><path transform="translate(.03245 -1.564)" d="m1.476 3.681.162.072.189-.069"/><path d="m1.684 2.119c.00539-.06652.08486.00301 0 0z"/></g><path transform="translate(.03245 -1.564)" d="m1.884 3.7-.189.069v.151l.163.072.188-.069v-.151z" fill="none" stroke="#fff" stroke-linecap="round" stroke-linejoin="round" stroke-width=".041665"/><path transform="translate(.03245 -1.564)" d="m1.884 3.7-.189.069v.151l.163.072.188-.069v-.151z" fill="url(#i)"/><g fill="none" stroke="#1f1a17" stroke-linecap="round" stroke-linejoin="round" stroke-width=".031945"><path transform="translate(.03245 -1.564)" d="m1.858 3.992.188-.069v-.151l-.162-.072-.189.069v.151z"/><path d="m1.902 2.207c-.00539-.06652-.08486.00301 0 0z"/><g transform="translate(.03245 -1.564)"><path d="m1.776 3.956v-.151l.189-.069"/><path d="m1.952 3.957v-.151l-.163-.071"/><path d="m1.695 3.849.163.067.188-.069"/></g><path d="m1.89 2.277v.151"/><path transform="translate(.03245 -1.564)" d="m1.695 3.769.163.072.188-.069"/><path d="m1.903 2.207c.00539-.06652.08486.00301 0 0z"/></g><path transform="translate(.03245 -1.564)" d="m2.849 3.525-.188.069v.15l.162.072.189-.069v-.151z" fill="none" stroke="#fff" stroke-linecap="round" stroke-linejoin="round" stroke-width=".041665"/><path transform="translate(.03245 -1.564)" d="m2.849 3.525-.188.069v.15l.162.072.189-.069v-.151z" fill="url(#i)"/><g fill="none" stroke="#1f1a17" stroke-linecap="round" stroke-linejoin="round" stroke-width=".031945"><path transform="translate(.03245 -1.564)" d="m2.823 3.816.189-.069v-.151l-.163-.071-.188.069v.15z"/><path d="m2.868 2.032c-.00539-.06652-.08486.00301 0 0z"/><g transform="translate(.03245 -1.564)"><path d="m2.742 3.78v-.151l.189-.068"/><path d="m2.918 3.782v-.151l-.163-.072"/><path d="m2.661 3.673.162.068.189-.069"/></g><path d="m2.856 2.102v.15"/><path transform="translate(.03245 -1.564)" d="m2.661 3.594.162.071.189-.069"/><path d="m2.869 2.031c.00539-.06652.08486.00301 0 0z"/></g><path transform="translate(.03245 -1.564)" d="m2.601 3.613-.189.068v.151l.163.072.188-.069v-.151z" fill="none" stroke="#fff" stroke-linecap="round" stroke-linejoin="round" stroke-width=".041665"/><path transform="translate(.03245 -1.564)" d="m2.601 3.613-.189.068v.151l.163.072.188-.069v-.151z" fill="url(#i)"/><g fill="none" stroke="#1f1a17" stroke-linecap="round" stroke-linejoin="round" stroke-width=".031945"><path transform="translate(.03245 -1.564)" d="m2.575 3.904.188-.069v-.151l-.162-.071-.189.068v.151z"/><path d="m2.619 2.12c-.00539-.06652-.08486.00301 0 0z"/><g transform="translate(.03245 -1.564)"><path d="m2.493 3.868v-.151l.189-.069"/><path d="m2.669 3.869v-.15l-.163-.072"/><path d="m2.412 3.761.163.067.188-.068"/></g><path d="m2.607 2.189v.151"/><path transform="translate(.03245 -1.564)" d="m2.412 3.681.163.072.188-.069"/><path d="m2.62 2.119c.00539-.06652.08486.00301 0 0z"/></g><path transform="translate(.03245 -1.564)" d="m2.352 3.7-.189.069v.151l.163.072.189-.069v-.151z" fill="none" stroke="#fff" stroke-linecap="round" stroke-linejoin="round" stroke-width=".041665"/><path transform="translate(.03245 -1.564)" d="m2.352 3.7-.189.069v.151l.163.072.189-.069v-.151z" fill="url(#i)"/><g fill="none" stroke="#1f1a17" stroke-linecap="round" stroke-linejoin="round" stroke-width=".031945"><path transform="translate(.03245 -1.564)" d="m2.326 3.992.189-.069v-.151l-.163-.072-.189.069v.151z"/><path d="m2.37 2.207c-.00539-.06652-.08486.00301 0 0z"/><g transform="translate(.03245 -1.564)"><path d="m2.245 3.956v-.151l.188-.069"/><path d="m2.42 3.957v-.151l-.162-.071"/><path d="m2.163 3.849.163.067.189-.069"/></g><path d="m2.358 2.277v.151"/><path transform="translate(.03245 -1.564)" d="m2.163 3.769.163.072.189-.069"/><path d="m2.371 2.207c.00539-.06652.08486.00301 0 0z"/></g><path transform="translate(.03245 -1.564)" d="m2.103 3.788-.189.069v.151l.163.071.189-.069v-.15z" fill="none" stroke="#fff" stroke-linecap="round" stroke-linejoin="round" stroke-width=".041665"/><path transform="translate(.03245 -1.564)" d="m2.103 3.788-.189.069v.151l.163.071.189-.069v-.15z" fill="url(#i)"/><g fill="none" stroke="#1f1a17" stroke-linecap="round" stroke-linejoin="round" stroke-width=".031945"><path transform="translate(.03245 -1.564)" d="m2.077 4.079.189-.069v-.15l-.163-.072-.189.069v.151z"/><path d="m2.122 2.295c-.00539-.06652-.08486.00301 0 0z"/><g transform="translate(.03245 -1.564)"><path d="m1.996 4.044v-.151l.189-.069"/><path d="m2.172 4.045v-.151l-.163-.071"/><path d="m1.914 3.937.163.067.189-.069"/></g><path d="m2.11 2.365v.151"/><path transform="translate(.03245 -1.564)" d="m1.914 3.857.163.072.189-.069"/><path d="m2.123 2.295c.00539-.06652.08486.00301 0 0z"/></g><path transform="translate(.03245 -1.564)" d="m1.445 3.305-.189.069v.151l.163.072.189-.069v-.151z" fill="none" stroke="#fff" stroke-linecap="round" stroke-linejoin="round" stroke-width=".041665"/><path transform="translate(.03245 -1.564)" d="m1.445 3.305-.189.069v.151l.163.072.189-.069v-.151z" fill="url(#i)"/><g fill="none" stroke="#1f1a17" stroke-linecap="round" stroke-linejoin="round" stroke-width=".031945"><path transform="translate(.03245 -1.564)" d="m1.419 3.597.189-.069v-.151l-.163-.072-.189.069v.151z"/><path d="m1.463 1.812c-.00539-.06652-.08486.00301 0 0z"/><g transform="translate(.03245 -1.564)"><path d="m1.338 3.561v-.151l.188-.069"/><path d="m1.513 3.562v-.151l-.163-.071"/><path d="m1.256 3.454.163.067.189-.069"/></g><path d="m1.451 1.882v.151"/><path transform="translate(.03245 -1.564)" d="m1.256 3.374.163.072.189-.069"/><path d="m1.464 1.812c.00539-.06652.08486.00301 0 0z"/></g><path transform="translate(.03245 -1.564)" d="m1.664 3.393-.188.069v.151l.162.071.189-.069v-.15z" fill="none" stroke="#fff" stroke-linecap="round" stroke-linejoin="round" stroke-width=".041665"/><path transform="translate(.03245 -1.564)" d="m1.664 3.393-.188.069v.151l.162.071.189-.069v-.15z" fill="url(#i)"/><g fill="none" stroke="#1f1a17" stroke-linecap="round" stroke-linejoin="round" stroke-width=".031945"><path transform="translate(.03245 -1.564)" d="m1.638 3.684.189-.069v-.15l-.163-.072-.188.069v.151z"/><path d="m1.683 1.9c-.00539-.06652-.08486.00301 0 0z"/><g transform="translate(.03245 -1.564)"><path d="m1.557 3.649v-.151l.189-.069"/><path d="m1.733 3.65v-.151l-.163-.071"/><path d="m1.476 3.542.162.067.189-.069"/></g><path d="m1.671 1.97v.151"/><path transform="translate(.03245 -1.564)" d="m1.476 3.462.162.072.189-.069"/><path d="m1.684 1.9c.00539-.06652.08486.00301 0 0z"/></g><path transform="translate(.03245 -1.564)" d="m1.884 3.481-.189.069v.15l.163.072.188-.069v-.15z" fill="none" stroke="#fff" stroke-linecap="round" stroke-linejoin="round" stroke-width=".041665"/><path transform="translate(.03245 -1.564)" d="m1.884 3.481-.189.069v.15l.163.072.188-.069v-.15z" fill="url(#i)"/><g fill="none" stroke="#1f1a17" stroke-linecap="round" stroke-linejoin="round" stroke-width=".031945"><path transform="translate(.03245 -1.564)" d="m1.858 3.772.188-.069v-.15l-.162-.072-.189.069v.15z"/><path d="m1.902 1.988c-.00539-.06652-.08486.00301 0 0z"/><g transform="translate(.03245 -1.564)"><path d="m1.776 3.736v-.15l.189-.069"/><path d="m1.952 3.738v-.151l-.163-.072"/><path d="m1.695 3.629.163.068.188-.069"/></g><path d="m1.89 2.058v.15"/><path transform="translate(.03245 -1.564)" d="m1.695 3.55.163.071.188-.068"/><path d="m1.903 1.987c.00539-.06652.08486.00301 0 0z"/></g><path transform="translate(.03245 -1.564)" d="m2.849 3.305-.188.069v.151l.162.072.189-.069v-.151z" fill="none" stroke="#fff" stroke-linecap="round" stroke-linejoin="round" stroke-width=".041665"/><path transform="translate(.03245 -1.564)" d="m2.849 3.305-.188.069v.151l.162.072.189-.069v-.151z" fill="url(#i)"/><g fill="none" stroke="#1f1a17" stroke-linecap="round" stroke-linejoin="round" stroke-width=".031945"><path transform="translate(.03245 -1.564)" d="m2.823 3.597.189-.069v-.151l-.163-.072-.188.069v.151z"/><path d="m2.868 1.812c-.00539-.06652-.08486.00301 0 0z"/><g transform="translate(.03245 -1.564)"><path d="m2.742 3.561v-.151l.189-.069"/><path d="m2.918 3.562v-.151l-.163-.071"/><path d="m2.661 3.454.162.067.189-.069"/></g><path d="m2.856 1.882v.151"/><path transform="translate(.03245 -1.564)" d="m2.661 3.374.162.072.189-.069"/><path d="m2.869 1.812c.00539-.06652.08486.00301 0 0z"/></g><path transform="translate(.03245 -1.564)" d="m2.601 3.393-.189.069v.151l.163.071.188-.069v-.15z" fill="none" stroke="#fff" stroke-linecap="round" stroke-linejoin="round" stroke-width=".041665"/><path transform="translate(.03245 -1.564)" d="m2.601 3.393-.189.069v.151l.163.071.188-.069v-.15z" fill="url(#i)"/><g fill="none" stroke="#1f1a17" stroke-linecap="round" stroke-linejoin="round" stroke-width=".031945"><path transform="translate(.03245 -1.564)" d="m2.575 3.684.188-.069v-.15l-.162-.072-.189.069v.151z"/><path d="m2.619 1.9c-.00539-.06652-.08486.00301 0 0z"/><g transform="translate(.03245 -1.564)"><path d="m2.493 3.649v-.151l.189-.069"/><path d="m2.669 3.65v-.151l-.163-.071"/><path d="m2.412 3.542.163.067.188-.069"/></g><path d="m2.607 1.97v.151"/><path transform="translate(.03245 -1.564)" d="m2.412 3.462.163.072.188-.069"/><path d="m2.62 1.9c.00539-.06652.08486.00301 0 0z"/></g><path transform="translate(.03245 -1.564)" d="m2.352 3.481-.189.069v.15l.163.072.189-.069v-.15z" fill="none" stroke="#fff" stroke-linecap="round" stroke-linejoin="round" stroke-width=".041665"/><path transform="translate(.03245 -1.564)" d="m2.352 3.481-.189.069v.15l.163.072.189-.069v-.15z" fill="url(#i)"/><g fill="none" stroke="#1f1a17" stroke-linecap="round" stroke-linejoin="round" stroke-width=".031945"><path transform="translate(.03245 -1.564)" d="m2.326 3.772.189-.069v-.15l-.163-.072-.189.069v.15z"/><path d="m2.37 1.988c-.00539-.06652-.08486.00301 0 0z"/><g transform="translate(.03245 -1.564)"><path d="m2.245 3.736v-.15l.188-.069"/><path d="m2.42 3.738v-.151l-.162-.072"/><path d="m2.163 3.629.163.068.189-.069"/></g><path d="m2.358 2.058v.15"/><path transform="translate(.03245 -1.564)" d="m2.163 3.55.163.071.189-.068"/><path d="m2.371 1.987c.00539-.06652.08486.00301 0 0z"/></g><path transform="translate(.03245 -1.564)" d="m2.103 3.569-.189.069v.15l.163.072.189-.069v-.151z" fill="none" stroke="#fff" stroke-linecap="round" stroke-linejoin="round" stroke-width=".041665"/><path transform="translate(.03245 -1.564)" d="m2.103 3.569-.189.069v.15l.163.072.189-.069v-.151z" fill="url(#i)"/><g fill="none" stroke="#1f1a17" stroke-linecap="round" stroke-linejoin="round" stroke-width=".031945"><path transform="translate(.03245 -1.564)" d="m2.077 3.86.189-.069v-.151l-.163-.071-.189.069v.15z"/><path d="m2.122 2.076c-.00539-.06652-.08486.00301 0 0z"/><g transform="translate(.03245 -1.564)"><path d="m1.996 3.824v-.151l.189-.069"/><path d="m2.172 3.825v-.15l-.163-.072"/><path d="m1.914 3.717.163.068.189-.069"/></g><path d="m2.11 2.145v.151"/><path transform="translate(.03245 -1.564)" d="m1.914 3.638.163.071.189-.069"/><path d="m2.123 2.075c.00539-.06652.08486.00301 0 0z"/></g><path transform="translate(.03245 -1.564)" d="m1.445 3.086-.189.069v.15l.163.072.189-.069v-.15z" fill="none" stroke="#fff" stroke-linecap="round" stroke-linejoin="round" stroke-width=".041665"/><path transform="translate(.03245 -1.564)" d="m1.445 3.086-.189.069v.15l.163.072.189-.069v-.15z" fill="url(#i)"/><g fill="none" stroke="#1f1a17" stroke-linecap="round" stroke-linejoin="round" stroke-width=".031945"><path transform="translate(.03245 -1.564)" d="m1.419 3.377.189-.069v-.15l-.163-.072-.189.069v.15z"/><path d="m1.463 1.593c-.00539-.06652-.08486.00301 0 0z"/><g transform="translate(.03245 -1.564)"><path d="m1.338 3.341v-.15l.188-.069"/><path d="m1.513 3.343v-.151l-.163-.072"/><path d="m1.256 3.234.163.068.189-.069"/></g><path d="m1.451 1.663v.15"/><path transform="translate(.03245 -1.564)" d="m1.256 3.155.163.071.189-.068"/><path d="m1.464 1.592c.00539-.06652.08486.00301 0 0z"/></g><path transform="translate(.03245 -1.564)" d="m1.664 3.174-.188.069v.15l.162.072.189-.069v-.151z" fill="none" stroke="#fff" stroke-linecap="round" stroke-linejoin="round" stroke-width=".041665"/><path transform="translate(.03245 -1.564)" d="m1.664 3.174-.188.069v.15l.162.072.189-.069v-.151z" fill="url(#i)"/><g fill="none" stroke="#1f1a17" stroke-linecap="round" stroke-linejoin="round" stroke-width=".031945"><path transform="translate(.03245 -1.564)" d="m1.638 3.465.189-.069v-.151l-.163-.071-.188.069v.15z"/><path d="m1.683 1.681c-.00539-.06652-.08486.00301 0 0z"/><g transform="translate(.03245 -1.564)"><path d="m1.557 3.429v-.151l.189-.069"/><path d="m1.733 3.43v-.15l-.163-.072"/><path d="m1.476 3.322.162.068.189-.069"/></g><path d="m1.671 1.75v.151"/><path transform="translate(.03245 -1.564)" d="m1.476 3.243.162.071.189-.069"/><path d="m1.684 1.68c.00539-.06652.08486.00301 0 0z"/></g><path transform="translate(.03245 -1.564)" d="m1.884 3.261-.189.069v.151l.163.072.188-.069v-.151z" fill="none" stroke="#fff" stroke-linecap="round" stroke-linejoin="round" stroke-width=".041665"/><path transform="translate(.03245 -1.564)" d="m1.884 3.261-.189.069v.151l.163.072.188-.069v-.151z" fill="url(#i)"/><g fill="none" stroke="#1f1a17" stroke-linecap="round" stroke-linejoin="round" stroke-width=".031945"><path transform="translate(.03245 -1.564)" d="m1.858 3.553.188-.069v-.151l-.162-.072-.189.069v.151z"/><path d="m1.902 1.768c-.00539-.06652-.08486.00301 0 0z"/><g transform="translate(.03245 -1.564)"><path d="m1.776 3.517v-.151l.189-.069"/><path d="m1.952 3.518v-.15l-.163-.072"/><path d="m1.695 3.41.163.067.188-.069"/></g><path d="m1.89 1.838v.151"/><path transform="translate(.03245 -1.564)" d="m1.695 3.33.163.072.188-.069"/><path d="m1.903 1.768c.00539-.06652.08486.00301 0 0z"/></g><path transform="translate(.03245 -1.564)" d="m2.849 3.086-.188.069v.15l.162.072.189-.069v-.15z" fill="none" stroke="#fff" stroke-linecap="round" stroke-linejoin="round" stroke-width=".041665"/><path transform="translate(.03245 -1.564)" d="m2.849 3.086-.188.069v.15l.162.072.189-.069v-.15z" fill="url(#i)"/><g fill="none" stroke="#1f1a17" stroke-linecap="round" stroke-linejoin="round" stroke-width=".031945"><path transform="translate(.03245 -1.564)" d="m2.823 3.377.189-.069v-.15l-.163-.072-.188.069v.15z"/><path d="m2.868 1.593c-.00539-.06652-.08486.00301 0 0z"/><g transform="translate(.03245 -1.564)"><path d="m2.742 3.341v-.15l.189-.069"/><path d="m2.918 3.343v-.151l-.163-.072"/><path d="m2.661 3.234.162.068.189-.069"/></g><path d="m2.856 1.663v.15"/><path transform="translate(.03245 -1.564)" d="m2.661 3.155.162.071.189-.068"/><path d="m2.869 1.592c.00539-.06652.08486.00301 0 0z"/></g><path transform="translate(.03245 -1.564)" d="m2.601 3.174-.189.069v.15l.163.072.188-.069v-.151z" fill="none" stroke="#fff" stroke-linecap="round" stroke-linejoin="round" stroke-width=".041665"/><path transform="translate(.03245 -1.564)" d="m2.601 3.174-.189.069v.15l.163.072.188-.069v-.151z" fill="url(#i)"/><g fill="none" stroke="#1f1a17" stroke-linecap="round" stroke-linejoin="round" stroke-width=".031945"><path transform="translate(.03245 -1.564)" d="m2.575 3.465.188-.069v-.151l-.162-.071-.189.069v.15z"/><path d="m2.619 1.681c-.00539-.06652-.08486.00301 0 0z"/><g transform="translate(.03245 -1.564)"><path d="m2.493 3.429v-.151l.189-.069"/><path d="m2.669 3.43v-.15l-.163-.072"/><path d="m2.412 3.322.163.068.188-.069"/></g><path d="m2.607 1.75v.151"/><path transform="translate(.03245 -1.564)" d="m2.412 3.243.163.071.188-.069"/><path d="m2.62 1.68c.00539-.06652.08486.00301 0 0z"/></g><path transform="translate(.03245 -1.564)" d="m2.352 3.261-.189.069v.151l.163.072.189-.069v-.151z" fill="none" stroke="#fff" stroke-linecap="round" stroke-linejoin="round" stroke-width=".041665"/><path transform="translate(.03245 -1.564)" d="m2.352 3.261-.189.069v.151l.163.072.189-.069v-.151z" fill="url(#i)"/><g fill="none" stroke="#1f1a17" stroke-linecap="round" stroke-linejoin="round" stroke-width=".031945"><path transform="translate(.03245 -1.564)" d="m2.326 3.553.189-.069v-.151l-.163-.072-.189.069v.151z"/><path d="m2.37 1.768c-.00539-.06652-.08486.00301 0 0z"/><g transform="translate(.03245 -1.564)"><path d="m2.245 3.517v-.151l.188-.069"/><path d="m2.42 3.518v-.15l-.162-.072"/><path d="m2.163 3.41.163.067.189-.069"/></g><path d="m2.358 1.838v.151"/><path transform="translate(.03245 -1.564)" d="m2.163 3.33.163.072.189-.069"/><path d="m2.371 1.768c.00539-.06652.08486.00301 0 0z"/></g><path transform="translate(.03245 -1.564)" d="m2.103 3.349-.189.069v.151l.163.071.189-.068v-.151z" fill="none" stroke="#fff" stroke-linecap="round" stroke-linejoin="round" stroke-width=".041665"/><path transform="translate(.03245 -1.564)" d="m2.103 3.349-.189.069v.151l.163.071.189-.068v-.151z" fill="url(#i)"/><g fill="none" stroke="#1f1a17" stroke-linecap="round" stroke-linejoin="round" stroke-width=".031945"><path transform="translate(.03245 -1.564)" d="m2.077 3.64.189-.068v-.151l-.163-.072-.189.069v.151z"/><path d="m2.122 1.856c-.00539-.06652-.08486.00301 0 0z"/><g transform="translate(.03245 -1.564)"><path d="m1.996 3.605v-.151l.189-.069"/><path d="m2.172 3.606v-.151l-.163-.071"/><path d="m1.914 3.498.163.067.189-.069"/></g><path d="m2.11 1.926v.151"/><path transform="translate(.03245 -1.564)" d="m1.914 3.418.163.072.189-.069"/><path d="m2.123 1.856c.00539-.06652.08486.00301 0 0z"/></g><path transform="translate(.03245 -1.564)" d="m1.694 2.779-.189.069v.15l.163.072.188-.069v-.151z" fill="none" stroke="#fff" stroke-linecap="round" stroke-linejoin="round" stroke-width=".041665"/><path transform="translate(.03245 -1.564)" d="m1.694 2.779-.189.069v.15l.163.072.188-.069v-.151z" fill="url(#i)"/><g fill="none" stroke="#1f1a17" stroke-linecap="round" stroke-linejoin="round" stroke-width=".031945"><path transform="translate(.03245 -1.564)" d="m1.668 3.07.188-.069v-.151l-.162-.071-.189.069v.15z"/><path d="m1.712 1.286c-.00539-.06652-.08486.00301 0 0z"/><g transform="translate(.03245 -1.564)"><path d="m1.586 3.034v-.151l.189-.069"/><path d="m1.762 3.035v-.15l-.163-.072"/><path d="m1.505 2.927.163.068.188-.069"/></g><path d="m1.7 1.355v.151"/><path transform="translate(.03245 -1.564)" d="m1.505 2.848.163.071.188-.069"/><path d="m1.713 1.285c.00539-.06652.08486.00301 0 0z"/></g><path transform="translate(.03245 -1.564)" d="m1.445 2.866-.189.069v.151l.163.072.189-.069v-.151z" fill="none" stroke="#fff" stroke-linecap="round" stroke-linejoin="round" stroke-width=".041665"/><path transform="translate(.03245 -1.564)" d="m1.445 2.866-.189.069v.151l.163.072.189-.069v-.151z" fill="url(#i)"/><g fill="none" stroke="#1f1a17" stroke-linecap="round" stroke-linejoin="round" stroke-width=".031945"><path transform="translate(.03245 -1.564)" d="m1.419 3.158.189-.069v-.151l-.163-.072-.189.069v.151z"/><path d="m1.463 1.373c-.00539-.06652-.08486.00301 0 0z"/><g transform="translate(.03245 -1.564)"><path d="m1.338 3.122v-.151l.188-.069"/><path d="m1.513 3.123v-.151l-.163-.071"/><path d="m1.256 3.015.163.067.189-.069"/></g><path d="m1.451 1.443v.151"/><path transform="translate(.03245 -1.564)" d="m1.256 2.935.163.072.189-.069"/><path d="m1.464 1.373c.00539-.06652.08486.00301 0 0z"/></g><path transform="translate(.03245 -1.564)" d="m1.664 2.954-.188.069v.151l.162.071.189-.068v-.151z" fill="none" stroke="#fff" stroke-linecap="round" stroke-linejoin="round" stroke-width=".041665"/><path transform="translate(.03245 -1.564)" d="m1.664 2.954-.188.069v.151l.162.071.189-.068v-.151z" fill="url(#i)"/><g fill="none" stroke="#1f1a17" stroke-linecap="round" stroke-linejoin="round" stroke-width=".031945"><path transform="translate(.03245 -1.564)" d="m1.638 3.245.189-.068v-.151l-.163-.072-.188.069v.151z"/><path d="m1.683 1.461c-.00539-.06652-.08486.00301 0 0z"/><g transform="translate(.03245 -1.564)"><path d="m1.557 3.21v-.151l.189-.069"/><path d="m1.733 3.211v-.151l-.163-.071"/><path d="m1.476 3.103.162.067.189-.069"/></g><path d="m1.671 1.531v.151"/><path transform="translate(.03245 -1.564)" d="m1.476 3.023.162.072.189-.069"/><path d="m1.684 1.461c.00539-.06652.08486.00301 0 0z"/></g><path transform="translate(.03245 -1.564)" d="m2.63 2.779-.189.069v.15l.163.072.189-.069v-.151z" fill="none" stroke="#fff" stroke-linecap="round" stroke-linejoin="round" stroke-width=".041665"/><path transform="translate(.03245 -1.564)" d="m2.63 2.779-.189.069v.15l.163.072.189-.069v-.151z" fill="url(#i)"/><g fill="none" stroke="#1f1a17" stroke-linecap="round" stroke-linejoin="round" stroke-width=".031945"><path transform="translate(.03245 -1.564)" d="m2.604 3.07.189-.069v-.151l-.163-.071-.189.069v.15z"/><path d="m2.648 1.286c-.00539-.06652-.08486.00301 0 0z"/><g transform="translate(.03245 -1.564)"><path d="m2.523 3.034v-.151l.188-.069"/><path d="m2.698 3.035v-.15l-.162-.072"/><path d="m2.441 2.927.163.068.189-.069"/></g><path d="m2.636 1.355v.151"/><path transform="translate(.03245 -1.564)" d="m2.441 2.848.163.071.189-.069"/><path d="m2.649 1.285c.00539-.06652.08486.00301 0 0z"/></g><path transform="translate(.03245 -1.564)" d="m1.884 3.042-.189.069v.151l.163.071.188-.069v-.15z" fill="none" stroke="#fff" stroke-linecap="round" stroke-linejoin="round" stroke-width=".041665"/><path transform="translate(.03245 -1.564)" d="m1.884 3.042-.189.069v.151l.163.071.188-.069v-.15z" fill="url(#i)"/><g fill="none" stroke="#1f1a17" stroke-linecap="round" stroke-linejoin="round" stroke-width=".031945"><path transform="translate(.03245 -1.564)" d="m1.858 3.333.188-.069v-.15l-.162-.072-.189.069v.151z"/><path d="m1.902 1.549c-.00539-.06652-.08486.00301 0 0z"/><g transform="translate(.03245 -1.564)"><path d="m1.776 3.297v-.15l.189-.069"/><path d="m1.952 3.299v-.151l-.163-.072"/><path d="m1.695 3.19.163.068.188-.069"/></g><path d="m1.89 1.619v.151"/><path transform="translate(.03245 -1.564)" d="m1.695 3.111.163.071.188-.068"/><path d="m1.903 1.549c.00539-.06652.08486.00301 0 0z"/></g><path transform="translate(.03245 -1.564)" d="m2.849 2.866-.188.069v.151l.162.072.189-.069v-.151z" fill="none" stroke="#fff" stroke-linecap="round" stroke-linejoin="round" stroke-width=".041665"/><path transform="translate(.03245 -1.564)" d="m2.849 2.866-.188.069v.151l.162.072.189-.069v-.151z" fill="url(#i)"/><g fill="none" stroke="#1f1a17" stroke-linecap="round" stroke-linejoin="round" stroke-width=".031945"><path transform="translate(.03245 -1.564)" d="m2.823 3.158.189-.069v-.151l-.163-.072-.188.069v.151z"/><path d="m2.868 1.373c-.00539-.06652-.08486.00301 0 0z"/><g transform="translate(.03245 -1.564)"><path d="m2.742 3.122v-.151l.189-.069"/><path d="m2.918 3.123v-.151l-.163-.071"/><path d="m2.661 3.015.162.067.189-.069"/></g><path d="m2.856 1.443v.151"/><path transform="translate(.03245 -1.564)" d="m2.661 2.935.162.072.189-.069"/><path d="m2.869 1.373c.00539-.06652.08486.00301 0 0z"/></g><path transform="translate(.03245 -1.564)" d="m2.601 2.954-.189.069v.151l.163.071.188-.068v-.151z" fill="none" stroke="#fff" stroke-linecap="round" stroke-linejoin="round" stroke-width=".041665"/><path transform="translate(.03245 -1.564)" d="m2.601 2.954-.189.069v.151l.163.071.188-.068v-.151z" fill="url(#i)"/><g fill="none" stroke="#1f1a17" stroke-linecap="round" stroke-linejoin="round" stroke-width=".031945"><path transform="translate(.03245 -1.564)" d="m2.575 3.245.188-.068v-.151l-.162-.072-.189.069v.151z"/><path d="m2.619 1.461c-.00539-.06652-.08486.00301 0 0z"/><g transform="translate(.03245 -1.564)"><path d="m2.493 3.21v-.151l.189-.069"/><path d="m2.669 3.211v-.151l-.163-.071"/><path d="m2.412 3.103.163.067.188-.069"/></g><path d="m2.607 1.531v.151"/><path transform="translate(.03245 -1.564)" d="m2.412 3.023.163.072.188-.069"/><path d="m2.62 1.461c.00539-.06652.08486.00301 0 0z"/></g><path transform="translate(.03245 -1.564)" d="m2.352 3.042-.189.069v.151l.163.071.189-.069v-.15z" fill="none" stroke="#fff" stroke-linecap="round" stroke-linejoin="round" stroke-width=".041665"/><path transform="translate(.03245 -1.564)" d="m2.352 3.042-.189.069v.151l.163.071.189-.069v-.15z" fill="url(#i)"/><g fill="none" stroke="#1f1a17" stroke-linecap="round" stroke-linejoin="round" stroke-width=".031945"><path transform="translate(.03245 -1.564)" d="m2.326 3.333.189-.069v-.15l-.163-.072-.189.069v.151z"/><path d="m2.37 1.549c-.00539-.06652-.08486.00301 0 0z"/><g transform="translate(.03245 -1.564)"><path d="m2.245 3.297v-.15l.188-.069"/><path d="m2.42 3.299v-.151l-.162-.072"/><path d="m2.163 3.19.163.068.189-.069"/></g><path d="m2.358 1.619v.151"/><path transform="translate(.03245 -1.564)" d="m2.163 3.111.163.071.189-.068"/><path d="m2.371 1.549c.00539-.06652.08486.00301 0 0z"/></g><path transform="translate(.03245 -1.564)" d="m2.103 3.13-.189.069v.15l.163.072.189-.069v-.151z" fill="none" stroke="#fff" stroke-linecap="round" stroke-linejoin="round" stroke-width=".041665"/><path transform="translate(.03245 -1.564)" d="m2.103 3.13-.189.069v.15l.163.072.189-.069v-.151z" fill="url(#i)"/><g fill="none" stroke="#1f1a17" stroke-linecap="round" stroke-linejoin="round" stroke-width=".031945"><path transform="translate(.03245 -1.564)" d="m2.077 3.421.189-.069v-.151l-.163-.071-.189.069v.15z"/><path d="m2.122 1.637c-.00539-.06652-.08486.00301 0 0z"/><g transform="translate(.03245 -1.564)"><path d="m1.996 3.385v-.151l.189-.068"/><path d="m2.172 3.387v-.151l-.163-.072"/><path d="m1.914 3.278.163.068.189-.069"/></g><path d="m2.11 1.707v.15"/><path transform="translate(.03245 -1.564)" d="m1.914 3.199.163.071.189-.069"/><path d="m2.123 1.636c.00539-.06652.08486.00301 0 0z"/></g><path transform="translate(.03245 -1.564)" d="m2.181 2.21-.62.227v.495l.535.236.62-.226v-.496z" fill="none" stroke="#fff" stroke-linecap="round" stroke-linejoin="round" stroke-width=".041665"/><path transform="translate(.03245 -1.564)" d="m2.181 2.21-.62.227v.495l.535.236.62-.226v-.496z" fill="url(#i)"/><g fill="none" stroke="#1f1a17" stroke-linecap="round" stroke-linejoin="round" stroke-width=".031945"><path transform="translate(.03245 -1.564)" d="m2.096 3.168.62-.226v-.496l-.535-.236-.62.227v.495z"/><path d="m2.167.8788c-.01773-.2188-.2791.0099 0 0z"/><g transform="translate(.03245 -1.564)"><path d="m1.828 3.05v-.496l.621-.226"/><path d="m2.406 3.055v-.496l-.535-.236"/><path d="m1.561 2.699.535.221.62-.226"/></g><path d="m2.128 1.109v.495"/><path transform="translate(.03245 -1.564)" d="m1.561 2.437.535.235.62-.226"/><path d="m2.171.8775c.01773-.2188.2791.0099 0 0z"/></g><path transform="translate(.03245 -1.564)" d="m3.903 3.491-.31.113v.248l.268.118.31-.113v-.248z" fill="none" stroke="#fff" stroke-linecap="round" stroke-linejoin="round" stroke-width=".041665"/><path transform="translate(.03245 -1.564)" d="m3.903 3.491-.31.113v.248l.268.118.31-.113v-.248z" fill="url(#i)"/><g fill="none" stroke="#1f1a17" stroke-linecap="round" stroke-linejoin="round" stroke-width=".031945"><path transform="translate(.03245 -1.564)" d="m3.861 3.97.31-.113v-.248l-.268-.118-.31.113v.248z"/><path d="m3.913 2.043c-.00887-.1094-.1396.00495 0 0z"/><g transform="translate(.03245 -1.564)"><path d="m3.727 3.911v-.248l.31-.113"/><path d="m4.016 3.913v-.248l-.268-.117"/><path d="m3.593 3.735.268.111.31-.113"/></g><path d="m3.893 2.158v.248"/><path transform="translate(.03245 -1.564)" d="m3.593 3.604.268.118.31-.113"/><path d="m3.915 2.043c.00886-.1094.1396.00495 0 0z"/></g><path transform="translate(.03245 -1.564)" d="m3.508 3.623-.31.113v.248l.268.118.31-.114v-.248z" fill="none" stroke="#fff" stroke-linecap="round" stroke-linejoin="round" stroke-width=".041665"/><path transform="translate(.03245 -1.564)" d="m3.508 3.623-.31.113v.248l.268.118.31-.114v-.248z" fill="url(#i)"/><g fill="none" stroke="#1f1a17" stroke-linecap="round" stroke-linejoin="round" stroke-width=".031945"><path transform="translate(.03245 -1.564)" d="m3.466 4.102.31-.114v-.248l-.268-.117-.31.113v.248z"/><path d="m3.518 2.175c-.00886-.1094-.1396.00495 0 0z"/><g transform="translate(.03245 -1.564)"><path d="m3.332 4.043v-.248l.31-.114"/><path d="m3.621 4.045v-.248l-.268-.118"/><path d="m3.198 3.867.268.111.31-.114"/></g><path d="m3.498 2.29v.248"/><path transform="translate(.03245 -1.564)" d="m3.198 3.736.268.118.31-.114"/><path d="m3.52 2.174c.00887-.1094.1396.00495 0 0z"/></g><path transform="translate(.03245 -1.564)" d="m3.113 3.754-.31.113v.248l.268.118.31-.113v-.248z" fill="none" stroke="#fff" stroke-linecap="round" stroke-linejoin="round" stroke-width=".041665"/><path transform="translate(.03245 -1.564)" d="m3.113 3.754-.31.113v.248l.268.118.31-.113v-.248z" fill="url(#i)"/><g fill="none" stroke="#1f1a17" stroke-linecap="round" stroke-linejoin="round" stroke-width=".031945"><path transform="translate(.03245 -1.564)" d="m3.071 4.233.31-.113v-.248l-.268-.118-.31.113v.248z"/><path d="m3.123 2.307c-.00886-.1094-.1396.00495 0 0z"/><g transform="translate(.03245 -1.564)"><path d="m2.937 4.174v-.248l.31-.113"/><path d="m3.226 4.177v-.248l-.268-.118"/><path d="m2.803 3.998.268.111.31-.113"/></g><path d="m3.103 2.422v.248"/><path transform="translate(.03245 -1.564)" d="m2.803 3.867.268.118.31-.113"/><path d="m3.125 2.306c.00886-.1094.1396.00495 0 0z"/></g><path transform="translate(.03245 -1.564)" d="m2.718 3.886-.31.113v.248l.268.118.31-.113v-.248z" fill="none" stroke="#fff" stroke-linecap="round" stroke-linejoin="round" stroke-width=".041665"/><path transform="translate(.03245 -1.564)" d="m2.718 3.886-.31.113v.248l.268.118.31-.113v-.248z" fill="url(#i)"/><g fill="none" stroke="#1f1a17" stroke-linecap="round" stroke-linejoin="round" stroke-width=".031945"><path transform="translate(.03245 -1.564)" d="m2.718 3.886-.31.113v.248l.268.118.31-.113v-.248z"/><path d="m2.728 2.438c-.00887-.1094-.1396.00495 0 0z"/><g transform="translate(.03245 -1.564)"><path d="m2.542 4.306v-.248l.31-.113"/><path d="m2.831 4.308v-.248l-.268-.117"/><path d="m2.408 4.13.268.111.31-.113"/></g><path d="m2.708 2.553v.248"/><path transform="translate(.03245 -1.564)" d="m2.408 3.999.268.118.31-.113"/><path d="m2.73 2.438c.00887-.1094.1396.00495 0 0z"/></g><path d="m7.362.8768c-.6974.0021-1.133.4326-1.477.7081.07513-.02918.157-.04512.2425-.04512.3661 0 .6633.2933.6633.6549 0 .07899-.0142.1547-.04018.2249l1.723-.00435c-.02878-.07334-.04461-.1531-.04461-.2364 0-.3615.2972-.6549.6633-.6549.1296 0 .2505.0368.3527.1003-.04047-.03515-.07966-.06521-.1129-.08441-.1378-.07955-.4386-.09651-.5102-.1114-.07087-.01471-.09226-.01838-.1122-.03716-.07394-.06975-.6419-.5855-1.347-.5144z" fill="url(#e)"/><path transform="matrix(.01042 0 0 .01042 -.1633 -2.476)" d="m591.8 379.7c-6.179 5.062-12.05 9.983-17.64 14.46 7.212-2.802 15.07-4.332 23.28-4.332 35.15 0 63.68 28.16 63.68 62.87 0 4.561-.5015 9.008-1.438 13.29h160.5c-1.166-4.755-1.791-9.717-1.791-14.82 0-34.71 28.53-62.87 63.68-62.87 12.44 0 24.05 3.533 33.86 9.631-3.885-3.374-7.647-6.261-10.84-8.104-11.56-6.674-35.06-8.758-45.4-10.13z" clip-rule="evenodd" fill="url(#o)" fill-rule="evenodd" filter="url(#q)" image-rendering="optimizeQuality" opacity=".2" shape-rendering="geometricPrecision" stroke-width="96"/><path d="m9.247 1.597c.167.1489.3126.3102.4332.4821.0506-.06413.05674-.1986.03661-.232-.08456-.1405-.2622-.23-.4698-.2501z" fill="#da251d" fill-opacity=".99216"/><path transform="translate(.03245 -1.564)" d="m6.415 3.799c-.2631-.3028-.3385.07624-.6063 0 0-.1674.1358-.3032.3031-.3032s.3031.1358.3031.3032z" fill="url(#h)" mask="url(#a)"/><path d="m6.131 1.535c-.3661 0-.6531.2935-.6531.655.00389.09643.1037.09349.1827.1229.03089-.3368.2195-.4886.5057-.486.293.00256.5068.3056.4301.5926l.1527-.0002835c.02868-.07322.04498-.146.04498-.2292 0-.3615-.297-.655-.6632-.655z" fill="url(#l)" fill-rule="nonzero"/><path transform="translate(.03245 -1.564)" d="m9.406 3.806c-.2631-.3028-.3386.07624-.6063 0 0-.1674.1358-.3032.3031-.3032s.3031.1358.3031.3032z" fill="url(#g)" mask="url(#b)"/><path d="m9.083 1.511c.3661 0 .4439.1858.6378.4357.05085.06555-.08051.331-.1092.4057l-.03156-.00554c.0173-.3307-.1552-.5201-.4494-.5313-.2199.0008464-.491.1674-.4318.6005l-.2346.00406c-.02868-.07472-.04437-.1559-.04437-.2408 0-.3689.297-.6684.6632-.6684z" fill="url(#m)" fill-rule="nonzero"/><path d="m6.126 1.861a.3832.3832 0 0 0 -.3832.3832.3832.3832 0 0 0 .3832.3832.3832.3832 0 0 0 .3832-.3832.3832.3832 0 0 0 -.3832-.3832zm0 .1145a.2687.2687 0 0 1 .2687.2687.2687.2687 0 0 1 -.2687.2687.2687.2687 0 0 1 -.2687-.2687.2687.2687 0 0 1 .2687-.2687z"/><path transform="translate(.03245 -1.564)" d="m6.093 3.134c-.1992-.02186-.5124.1217-.5784.4427.3171-.5692.8092-.3246.8237-.351-.07303-.05146-.158-.08262-.2454-.09173z" fill="url(#j)" fill-rule="nonzero" mask="url(#c)"/><path transform="translate(.03245 -1.564)" d="m9.052 3.113c-.1992-.02186-.5124.1217-.5783.4427.317-.5692.8092-.3246.8237-.351-.07302-.05145-.158-.08262-.2454-.09173z" fill="url(#k)" fill-rule="nonzero" mask="url(#d)"/><path d="m3.057.5765c.4999-.3392 1.794-.7319 2.856.09818" fill="none" stroke="#fff" stroke-linecap="round" stroke-linejoin="round" stroke-width=".30556"/><path d="m2.98.462.1552.229-.00599.00384-.00611.0035-.00622.00315-.00632.00281-.00641.00247-.00648.00214-.00654.0018-.00659.00147-.00663.00115-.00665.0008149-.00666.0004921-.00666.0001733-.00665-.0001536-.00663-.0004645-.00659-.0007835-.00654-.0011-.00648-.00141-.00641-.00172-.00633-.00202-.00623-.00233-.00613-.00263-.006-.00293-.00587-.00322-.00573-.00352-.00557-.00381-.00541-.0041-.00522-.00439-.00503-.00467-.00483-.00495-.00461-.00524-.00438-.00551-.00414-.00579-.00384-.00599-.0035-.00611-.00315-.00622-.00282-.00632-.00247-.00641-.00214-.00648-.0018-.00654-.00147-.00659-.00115-.00663-.000815-.00665-.0004921-.00666-.0001732-.00666.0001535-.00665.0004646-.00663.0007834-.00659.0011-.00654.00141-.00648.00172-.00641.00202-.00633.00233-.00623.00263-.00613.00293-.006.00322-.00587.00352-.00573.00381-.00557.0041-.00541.00439-.00522.00467-.00503.00495-.00483.00524-.00461.00551-.00438zm3.019.1036-.1704.2181-.0948-.06993-.09543-.06354-.09587-.05685-.09721-.05092-.09728-.04524-.0977-.03924-.09847-.03402-.09797-.0285-.09783-.02374-.09804-.01922-.09752-.01494-.09681-.0098-.09646-.00653-.09538-.0024-.09465.00149-.09265.00515-.09154.00804-.09025.01123-.08768.01418-.08601.01637-.08361.01886-.08102.02111-.0788.02314-.07528.02492-.07268.02594-.06934.02726-.06582.02835-.06156.02921-.0582.02928-.05356.02967-.04928.02928-.04482.02866-.1552-.229.0535-.03517.05797-.03471.06224-.03401.0658-.03362.07024-.03246.07341-.03161.07694-.03052.08028-.0292.08397-.02709.08639-.02531.08971-.02328.09229-.02102.09469-.01854.09745-.01527.09892-.01231.1013-.00912.1035-.00515.1044-.00149.1062.0024.1073.00653.1087.01197.1095.01603.11.02139.1108.027.111.03284.1104.03837.1107.04467.1103.05066.1091.05744.1089.06444.1074.07114zm.4726.5449-.7861-.1591.4417-.5652zm-.643-.3268.1704-.2181.0055.00452.00521.00475.00492.00496.00462.00515.00432.00534.00403.00551.00373.00567.00343.00582.00313.00596.00282.00608.00252.00619.00221.0063.0019.00638.00159.00646.00128.00652.0009685.00657.0006536.00661.0003346.00664.0000197.00665-.0002992.00665-.0006181.00664-.000941.00662-.00126.00658-.00159.00654-.00191.00648-.00224.00641-.00257.00632-.00291.00622-.00324.00612-.00357.006-.00391.00587-.00424.00572-.00452.0055-.00475.00521-.00496.00492-.00515.00462-.00534.00432-.00551.00403-.00567.00373-.00582.00343-.00596.00313-.00608.00282-.00619.00252-.0063.00221-.00638.0019-.00646.00159-.00652.00128-.00657.0009685-.00661.0006536-.00664.0003346-.00665.0000197-.00665-.0002992-.00664-.0006181-.00662-.000941-.00658-.00126-.00654-.00159-.00648-.00191-.00641-.00224-.00632-.00257-.00622-.00291-.00612-.00324-.006-.00357-.00587-.00391z" fill="#cc3b31" fill-rule="nonzero"/><path d="m9.135 1.861a.3832.3832 0 0 0 -.3832.3832.3832.3832 0 0 0 .3832.3832.3832.3832 0 0 0 .3832-.3832.3832.3832 0 0 0 -.3832-.3832zm0 .1145a.2687.2687 0 0 1 .2687.2687.2687.2687 0 0 1 -.2687.2687.2687.2687 0 0 1 -.2687-.2687.2687.2687 0 0 1 .2687-.2687z" clip-rule="evenodd" fill-rule="evenodd" image-rendering="optimizeQuality" shape-rendering="geometricPrecision"/><circle transform="matrix(.63715 .77074 -.77074 .63715 0 0)" cx="5.638" cy="-3.434" r=".03284" fill="#646464"/><g clip-rule="evenodd" fill="#646464" fill-rule="evenodd" image-rendering="optimizeQuality" shape-rendering="geometricPrecision"><g transform="matrix(.63715 .77074 -.77074 .63715 0 0)"><circle cx="5.772" cy="-3.347" r=".03284"/><circle cx="5.76" cy="-3.186" r=".03284"/><circle cx="5.617" cy="-3.118" r=".03284"/><circle cx="5.478" cy="-3.2" r=".03284"/></g><circle transform="matrix(.69151 .72236 -.72236 .69151 0 0)" cx="5.722" cy="-2.958" r=".03284"/><g transform="matrix(.023734 .99972 -.99972 .023734 0 0)"><circle cx="2.485" cy="-9.235" r=".03284"/><circle cx="2.62" cy="-9.149" r=".03284"/><circle cx="2.608" cy="-8.989" r=".03284"/><circle cx="2.46" cy="-8.923" r=".03284"/><circle cx="2.327" cy="-9.003" r=".03284"/></g><circle transform="matrix(.096367 .99535 -.99535 .096367 0 0)" cx="2.988" cy="-8.981" r=".03284"/></g><path d="m7.362.8768c-.6974.0021-1.133.4326-1.477.7081.07513-.02918.157-.04512.2425-.04512.3661 0 .6633.2933.6633.6549 0 .07899-.0142.1547-.04018.2249l1.723-.00435c-.02878-.07334-.04461-.1531-.04461-.2364 0-.3615.2972-.6549.6633-.6549.1296 0 .2505.0368.3527.1003-.04047-.03515-.07966-.06521-.1129-.08441-.1378-.07955-.4386-.09651-.5102-.1114-.07087-.01471-.09226-.01838-.1122-.03716-.07394-.06975-.6419-.5855-1.347-.5144z" clip-rule="evenodd" fill="url(#e)" fill-rule="evenodd" filter="url(#n)" image-rendering="optimizeQuality" opacity=".8" shape-rendering="geometricPrecision"/><path transform="translate(.03245 -1.564)" d="m8.422 3.853.026.13h-1.772l.078-.125z" fill="#ff5900"/><path d="m7.201.9645.02105.4989 1.412.0164c-.3844-.402-.8929-.5934-1.433-.5153zm-.1314.02648c-.5179.127-.7719.4617-.7719.4617l.7517.0087z" fill="url(#f)" stroke="#b20909" stroke-width=".010689"/><path d="m7.139.9604c-.00859 0-.02182.8277 0 1.336" fill="none" stroke="#b20000" stroke-width=".014252"/><path d="m8.428 2.296c-.3038.00955-.608.00275-.912.00607-.2404.001-.4833-.00149-.7222.00516-.0381.03446-.0007244.0303.03576.02785.5369-.00291 1.074-.0001575 1.611-.00115-.00459-.00905.00278-.0382-.01226-.03794z" fill="#fff" fill-opacity=".15294"/></svg>
