<svg height="250pt" viewBox="0 0 520 250" width="520pt" xmlns="http://www.w3.org/2000/svg" xmlns:xlink="http://www.w3.org/1999/xlink"><defs><g id="a"><path d="m3.6875-2.53125c0 .4375-.171875.828125-.46875 1.140625-.328125.296875-.703125.46875-1.140625.46875-.453125 0-.828125-.171875-1.140625-.46875-.3125-.3125-.46875-.703125-.46875-1.140625 0-.453125.15625-.828125.46875-1.140625s.6875-.46875 1.140625-.46875c.4375 0 .8125.15625 1.140625.46875.296875.3125.46875.6875.46875 1.140625zm0 0"/></g></defs><g fill-rule="evenodd"><path d="m223.23 176.59c17.238 0 31.215 13.98 31.215 31.219 0 17.234-13.977 31.215-31.215 31.215s-31.219-13.98-31.219-31.215c0-17.238 13.98-31.219 31.219-31.219" fill="#f03c00" fill-opacity=".95"/><g fill-opacity=".94902"><path d="m251.73 139.48c17.238 0 31.215 13.98 31.215 31.219 0 17.238-13.977 31.215-31.215 31.215s-31.219-13.977-31.219-31.215 13.98-31.219 31.219-31.219" fill="#ec3100"/><path d="m261.84 93.784c17.238 0 31.219 13.977 31.219 31.215s-13.98 31.219-31.219 31.219c-17.234 0-31.215-13.98-31.215-31.219s13.98-31.215 31.215-31.215" fill="#e92600"/><path d="m251.73 48.089c17.238 0 31.215 13.98 31.215 31.219 0 17.234-13.977 31.215-31.215 31.215s-31.219-13.98-31.219-31.215c0-17.238 13.98-31.219 31.219-31.219" fill="#e51a00"/></g><g fill-opacity=".95"><path d="m223.23 10.976c17.238 0 31.215 13.98 31.215 31.219 0 17.238-13.977 31.215-31.215 31.215s-31.219-13.977-31.219-31.215 13.98-31.219 31.219-31.219" fill="#e10f00"/><path d="m153.76 53.483c39.492 0 71.516 32.023 71.516 71.516 0 39.496-32.023 71.516-71.516 71.516-50.637 0-101.27.004-151.91.004v-143.04z" fill="#f78c48"/></g></g><g stroke="#000" stroke-linecap="round" stroke-linejoin="round" stroke-opacity=".85" transform="translate(1.8511 3.0341)"><use x="243.93694" xlink:href="#a" y="6.2359"/><use x="258.17603" xlink:href="#a" y="17.700399"/><use x="269.47644" xlink:href="#a" y="29.164499"/><use x="281.90732" xlink:href="#a" y="45.314899"/><use x="289.13898" xlink:href="#a" y="56.778999"/><use x="294.33701" xlink:href="#a" y="68.2435"/><use x="298.1796" xlink:href="#a" y="79.707603"/><use x="301.57022" xlink:href="#a" y="91.172096"/><use x="303.60422" xlink:href="#a" y="102.6362"/><use x="304.96045" xlink:href="#a" y="114.1007"/><use x="304.96045" xlink:href="#a" y="130.2507"/><use x="304.28235" xlink:href="#a" y="141.7148"/><use x="302.92648" xlink:href="#a" y="153.17931"/><use x="294.3378" xlink:href="#a" y="180.3152"/><use x="288.68741" xlink:href="#a" y="191.7793"/><use x="281.90735" xlink:href="#a" y="203.2438"/><use x="273.77063" xlink:href="#a" y="214.7079"/><use x="258.85382" xlink:href="#a" y="230.85831"/><use x="243.93701" xlink:href="#a" y="242.3224"/></g><g font-family="DejaVu Sans"><text style="fill:#fe0000;font-size:11;stroke:#f00;stroke-linecap:round;stroke-linejoin:round;stroke-opacity:.9;stroke-width:.7" x="98.337204" y="89.633163"><tspan style="fill:#fe0000;font-family:Calibri;font-size:11;stroke:#f00;stroke-linecap:round;stroke-linejoin:round;stroke-opacity:.9;stroke-width:.7" x="98.337204" y="89.633163">optimization</tspan></text><g stroke-width=".75"><text font-size="11" x="205.5721" y="44.95509"><tspan font-family="Calibri" font-size="11" stroke-width=".75" x="205.5721" y="44.95509">delivery</tspan></text><g font-size="9"><text x="251.95743" y="9.275913"><tspan font-family="Calibri" font-size="9" stroke-width=".75" x="251.95743" y="9.275913">optimized logistics (business-to-customer)</tspan></text><text x="266.20053" y="20.740412"><tspan font-family="Calibri" font-size="9" stroke-width=".75" x="266.20053" y="20.740412">planning and scheduling of maintenance visits</tspan></text><text x="277.50092" y="32.204514"><tspan font-family="Calibri" font-size="9" stroke-width=".75" x="277.50092" y="32.204514">planning and scheduling of supply visits</tspan></text><text x="289.93182" y="48.354912"><tspan font-family="Calibri" font-size="9" stroke-width=".75" x="289.93182" y="48.354912">production planning and scheduling</tspan></text><text x="302.55713" y="71.28791"><tspan font-family="Calibri" font-size="9" stroke-width=".75" x="302.55713" y="71.28791">optimization of production processes</tspan></text><text x="306.19971" y="82.747612"><tspan font-family="Calibri" font-size="9" stroke-width=".75" x="306.19971" y="82.747612">optimization of stock-keeping</tspan></text><text x="309.59073" y="94.212112"><tspan font-family="Calibri" font-size="9" stroke-width=".75" x="309.59073" y="94.212112">optimization of intra-enterprise logistics</tspan></text><text x="311.6243" y="105.68061"><tspan font-family="Calibri" font-size="9" stroke-width=".75" x="311.6243" y="105.68061">optimization of supply chains</tspan></text><text x="312.98056" y="117.14071"><tspan font-family="Calibri" font-size="9" stroke-width=".75" x="312.98056" y="117.14071">optimization of factory layouts and intra-factory logistics</tspan></text><text x="312.98886" y="133.29073"><tspan font-family="Calibri" font-size="9" stroke-width=".75" x="312.98886" y="133.29073">scheduling of employee work</tspan></text><text x="302.35788" y="183.35522"><tspan font-family="Calibri" font-size="9" stroke-width=".75" x="302.35788" y="183.35522">optimization of product design</tspan></text><text x="281.78961" y="217.74792"><tspan font-family="Calibri" font-size="9" stroke-width=".75" x="281.78961" y="217.74792">improved tailoring of products/services to customers</tspan></text><text x="266.87427" y="233.89832"><tspan font-family="Calibri" font-size="9" stroke-width=".75" x="266.87427" y="233.89832">optimization of pricing and offers</tspan></text><text x="251.96187" y="245.35983"><tspan font-family="Calibri" font-size="9" stroke-width=".75" x="251.96187" y="245.35983">mining of customer data for targeted offers</tspan></text><text x="289.9274" y="206.28821"><tspan font-family="Calibri" font-size="9" stroke-width=".75" x="289.9274" y="206.28821">optimization of service offers</tspan></text><text x="296.70789" y="194.81932"><tspan font-family="Calibri" font-size="9" stroke-width=".75" x="296.70789" y="194.81932">optimization of product feature configuration</tspan></text><text font-family="Calibri" font-size="9" stroke-width=".75" x="310.99216" xml:space="preserve" y="156.20976"><tspan x="310.99216" y="156.20976">optimized locations for new branch offices</tspan><tspan x="310.99216" y="167.09766">      (based current or predicted future customers)</tspan></text><text x="312.30283" y="144.75482"><tspan font-family="Calibri" font-size="9" stroke-width=".75" x="312.30283" y="144.75482">optimal assignment of employees to tasks or customers</tspan></text><text x="297.15906" y="59.819012"><tspan font-family="Calibri" font-size="9" stroke-width=".75" x="297.15906" y="59.819012">optimized assignment of jobs/orders to machines</tspan></text></g><g font-size="11"><text x="227.51938" y="82.05629"><tspan font-family="Calibri" font-size="11" stroke-width=".75" x="227.51938" y="82.05629">production</tspan></text><text x="232.38033" y="127.22712"><tspan font-family="Calibri" font-size="11" stroke-width=".75" x="232.38033" y="127.22712">management</tspan></text><text font-family="Calibri" font-size="11" stroke-width=".75" text-anchor="middle" x="251.35979" y="168.36037"><tspan x="251.35979" y="168.36037">products/</tspan><tspan x="251.35979" y="177.81779">services</tspan></text></g></g><g font-size="11"><text style="fill:#fe0000;stroke:#f00;stroke-linecap:round;stroke-linejoin:round;stroke-opacity:.9;stroke-width:.7" x="98.337204" y="104.80618"><tspan style="fill:#fe0000;font-family:Calibri;font-size:11;stroke:#f00;stroke-linecap:round;stroke-linejoin:round;stroke-opacity:.9;stroke-width:.7" x="98.337204" y="104.80618">operations research</tspan></text><text style="fill:#fe0000;stroke:#f00;stroke-linecap:round;stroke-linejoin:round;stroke-opacity:.9;stroke-width:.7" x="98.337204" y="135.20052"><tspan style="fill:#fe0000;font-family:Calibri;font-size:11;stroke:#f00;stroke-linecap:round;stroke-linejoin:round;stroke-opacity:.9;stroke-width:.7" x="98.337204" y="135.20052">computational intelligence</tspan></text><g stroke-width=".75"><text x="97.998825" y="150.37891"><tspan font-family="Calibri" font-size="11" stroke-width=".75" x="97.998825" y="150.37891">machine learning</tspan></text><text x="98.304977" y="165.5358"><tspan font-family="Calibri" font-size="11" stroke-width=".75" x="98.304977" y="165.5358">data mining</tspan></text><text x="98.326462" y="120.02214"><tspan font-family="Calibri" font-size="11" stroke-width=".75" x="98.326462" y="120.02214">artificial intelligence (AI)</tspan></text><text x="212.51465" y="211.48676"><tspan font-family="Calibri" font-size="11" stroke-width=".75" x="212.51465" y="211.48676">sales</tspan></text></g></g></g></svg>