<svg height="92pt" viewBox="0 0 422.66 122.67" width="317pt" xmlns="http://www.w3.org/2000/svg"><text font-family="'DejaVu Sans'" x="91.683311" y="14.256084"><tspan font-family="'DejaVu Sans'" font-size="10">road</tspan></text><path d="m19.293 9.1397c17.107-5.337 49.912-16.964 57.333 6.5373 8.8736 28.101 71.606 29.556 33.177 56.784-22.458 15.912-35.021 28.513-60.294 36.368-3.0792.9569-36.284-16.431-45.3-19.779-4.7963-1.7811-3.1552-51.382 4.7158-59.734 5.6264-5.9706 6.9395-10.458 10.367-20.176z" fill="#ffbf68" fill-rule="evenodd"/><g fill="#b6242a"><path d="m29.562 23.682a.23468.23468 0 0 0 -.32031.08203.23468.23468 0 0 0 .08203.32031c4.2299 2.5036 8.1562 5.366 11.344 8.9219 1.2852 1.4336 2.4553 2.1229 3.7012 2.5977 1.2459.47478 2.5575.74242 4.1875 1.3633 2.0414.77761 3.8114 2.489 5.707 3.5645a.23468.23468 0 0 0 .32031-.08789.23468.23468 0 0 0 -.08789-.32031c-1.8163-1.0304-3.6031-2.7678-5.7715-3.5937-1.6659-.63454-2.9901-.90698-4.1875-1.3633-1.1974-.4563-2.2781-1.0879-3.5195-2.4727-3.2318-3.6053-7.1998-6.4931-11.455-9.0117z"/><path d="m29.564 20.829c-3.3536-.34204-4.1209 5.1771-1.1281 6.2304 3.7871 1.4561 6.6181 4.6226 9.6402 7.2348 2.2881 2.1004 4.7293 4.2417 7.8768 4.8578 2.7989.31264 5.3173 2.6788 4.4463 5.6582-.42889 2.2067-1.1286 4.3861-.73631 6.6583.26697 3.0316-.22144 6.4772-2.8426 8.4209-3.7663 3.3695-9.1969 4.8174-11.923 9.323-2.1748 2.2354-1.5389 6.4915-4.8404 7.7168-3.3209-.05648-6.4015-1.8279-9.7836-1.3739-2.7121.41555-6.7833-2.2708-8.2228 1.1495-1.1463 3.3798 2.4225 4.8245 5.1317 4.7789 3.3422.35661 6.7887.17038 10.033 1.093 3.0804 1.0724 3.2027 4.5754 2.1331 7.1329-.81693 2.4979-3.0552 4.3092-5.5704 4.8638-3.0833 2.1014.66402 6.6187 3.6185 5.0357 3.3337-.67587 5.5975-3.6602 6.6227-6.7162 2.0954-2.6448 5.741-1.4997 8.5856-1.2715 4.9683.44281 9.9616.43328 14.945.40286 2.7366 1.3892 7.4668-1.552 5.4386-4.6652-2.0679-2.5367-5.6645-1.4071-8.4519-1.4472-5.6125.03963-11.217-.37233-16.8-.90642-3.1549-2.0842-.54262-5.9337-.13706-8.7248.45452-2.9789 3.3789-5.841 6.5354-4.8742 4.1354.40097 8.3689.97965 12.035 3.0752 4.1785 2.0207 8.91 1.6388 13.383 1.2163 2.547-.28445 5.0911.09112 7.5372.77762 3.3778.19919 6.7283-1.897 8.6754-4.5076 1.8028-2.6024-1.1403-5.7043-3.8235-4.2806-2.3083.74946-4.5731 2.5823-7.1244 1.7608-5.1672-.72604-10.563 1.3215-15.581-.50549-2.4622-1.7693-7.5606-1.3421-8.0998-4.8301.55868-2.4514 3.9996-3.4361 3.7053-6.2245.19021-2.8215.43267-7.2799 4.198-7.3632 4.0215-.16015 7.6671 3.4126 11.728 1.7257 3.4275-1.6656 2.6702-6.5509 5.8796-8.4555 3.3193-1.6604 1.572-6.8586-1.9787-6.5713-3.6388-.19207-4.8696 3.7087-5.8482 6.4686-1.1377 3.2082-4.9207 1.665-7.2633.92155-3.6496.74386-5.7694-3.1257-4.0352-6.1872 1.3122-3.281 1.6552-7.7053-1.0723-10.388-3.2258-1.602-4.9216 2.8261-4.313 5.076-2.6739 2.5695-6.3708-.52665-8.6935-2.2082-3.9586-3.2723-7.3499-7.4349-12.254-9.3637-.53455-.2549-1.077-.49336-1.6266-.71395zm51.754 50.895c.10512.23922-.40277-.26499 0 0z"/><path d="m74.355 40.1c-.54487.18259-1.0424.74585-1.5332 1.4551-.49079.70922-.95223 1.5761-1.3008 2.3887-.34855.8126-.5864 1.5586-.61523 2.0879-.05485 1.0062-.2477 1.7234-.53125 2.2148s-.65043.76469-1.1113.91016c-.9218.29094-2.2584.0078-3.7539-.46484-1.4956-.47261-3.1457-1.116-4.7422-1.457s-3.1614-.38311-4.4473.4082l-3.5156 2.1641.11328-1.9297a.23468.23468 0 0 0 -.2207-.24805.23468.23468 0 0 0 -.24805.2207l-.13867 2.3789a.2347.2347 0 0 0 .35742.21289l3.8984-2.3984c1.134-.69789 2.561-.67909 4.1035-.34961 1.5426.32948 3.1799.96581 4.6973 1.4453 1.5173.4795 2.9195.82015 4.0391.4668.55978-.17668 1.0392-.54306 1.375-1.125s.53635-1.3707.59375-2.4238c.02196-.40306.2412-1.1442.57812-1.9297.33693-.7855.78871-1.6296 1.2559-2.3047.46715-.67506.97358-1.169 1.2969-1.2773.16165-.05417.24865-.04325.36133.05273s.24619.32051.34375.71484a.23468.23468 0 0 0 .28516.17188.23468.23468 0 0 0 .16992-.28516c-.11051-.44666-.2631-.76217-.49414-.95898s-.54397-.23192-.81641-.14062z"/><path d="m40.851 67.184a.23468.23468 0 0 0 -.32227.08008.23468.23468 0 0 0 .08008.32227c1.3148.79227 3.1898 1.1161 5.1016 1.3125 1.9118.19635 3.8645.25885 5.2988.4707 1.7721.26173 2.7937.77791 3.7656 1.3496.97189.5717 1.8983 1.2082 3.4023 1.6426 5.004 1.4454 12.132.15672 17.453.30859 1.9489.05566 2.7375.38235 2.9355.58789.07217.07489.05654.11164.05078.15625-.1054.10556-.2567.22947-.30078.32617-.01906.0418-.04973.09221-.02148.19726.01413.05253.0575.11576.10938.14844.05187.03268.10101.03889.13672.03906.14283.000679.17669-.0482.23633-.0918.11927-.08718.24484-.22189.30664-.42188.0014-.0046-.0052-.01097-.0039-.01563.03826-.03637.01744-.02547.06445-.06641.5781-.50341 1.8498-1.4497 4.4121-3.0469a.23468.23468 0 0 0 .07617-.32422.23468.23468 0 0 0 -.32422-.07422c-2.5085 1.5637-3.7264 2.4709-4.3594 3.0137-.03058-.0564.0037-.11557-.04492-.16602-.39747-.41244-1.268-.67358-3.2598-.73047-5.4073-.15432-12.522 1.1-17.338-.29102-1.4366-.41491-2.3049-1.0134-3.2949-1.5957-.98999-.58235-2.0977-1.139-3.9336-1.4102-1.4817-.21885-3.4312-.27864-5.3203-.47266s-3.7145-.52991-4.9062-1.248z"/><path d="m14.807 77.637a.23468.23468 0 0 0 -.28711.16797.23468.23468 0 0 0 .16797.28516c3.2057.84363 4.6911.78859 7.8535.87695 2.7215.07624 5.4615 1.5284 8.0801 1.7988 1.1293.11658 2.1495-.09769 3.166.12695a.23468.23468 0 0 0 .2793-.17969.23468.23468 0 0 0 -.17773-.2793c-1.1374-.25136-2.182-.02774-3.2188-.13476-2.4766-.25577-5.2395-1.7202-8.1152-1.8008-3.1722-.08864-4.5813-.02796-7.748-.86133z"/><path d="m36.826 87.971c-1.4836.03335-2.9978.16791-4.5586.4707a.23468.23468 0 0 0 -.18555.27539.23468.23468 0 0 0 .27539.18555c6.123-1.1878 11.565.25977 17.48.25977 3.5987 0 7.1989-.04823 10.789.03125a.23468.23468 0 0 0 .24024-.23047.23468.23468 0 0 0 -.23047-.24023c-3.6013-.07972-7.2043-.03125-10.799-.03125-4.3787 0-8.5609-.82077-13.012-.7207z"/></g><path d="m74.713 63.953v12.65q0 1.5812 1.5812 1.5812h14.277q1.5812 0 1.5812-1.5812v-12.65q0-1.5812-1.5812-1.5812h-14.277q-1.5812 0-1.5812 1.5812z" fill="#f36716" fill-rule="evenodd" stroke="#b6242a" stroke-width=".9921"/><text fill="#b6242a" x="78.108971" y="73.860939"><tspan fill="#b6242a" font-family="Arial" font-size="10">L4</tspan></text><path d="m66.013 34.863v12.65q0 1.5812 1.5812 1.5812h14.277q1.5812 0 1.5812-1.5812v-12.65q0-1.5811-1.5812-1.5811h-14.277q-1.5812 0-1.5812 1.5811z" fill="#f36716" fill-rule="evenodd" stroke="#b6242a" stroke-width=".9921"/><text fill="#b6242a" x="69.397255" y="44.847153"><tspan fill="#b6242a" font-family="Arial" font-size="10">L3</tspan></text><path d="m51.913 82.633v12.65q0 1.5812 1.5812 1.5812h14.277q1.5812 0 1.5812-1.5812v-12.65q0-1.5812-1.5812-1.5812h-14.277q-1.5812 0-1.5812 1.5812z" fill="#f36716" fill-rule="evenodd" stroke="#b6242a" stroke-width=".9921"/><text fill="#b6242a" x="55.273354" y="92.600746"><tspan fill="#b6242a" font-family="Arial" font-size="10">L5</tspan></text><text x="5.208976" y="121.01107"><tspan font-family="'DejaVu Sans'" font-size="10">the land with 5 locations</tspan></text><path d="m81.682 88.554 8.3713 23.045" fill="none" stroke="#102a83" stroke-width=".216"/><text x="183.82912" y="119.02137"><tspan/></text><text x="89.520638" y="130.45009"><tspan x="89.520638" y="139.88759"/></text><path d="m87.922 13.783-32.982 16.662" fill="none" stroke="#102a83" stroke-width=".216"/><g fill="#b6242a"><path d="m161.73658 42.672756a.35439.35439 0 0 0 -.35547.35547v17.285a.35439.35439 0 0 0 .35547.35547h30.68a.35439.35439 0 0 0 .35351-.35547v-17.285a.35439.35439 0 0 0 -.35351-.35547zm.35351.70899h29.971v16.578h-29.971z"/><path d="m164.00658 31.082756a.35439.35439 0 0 0 -.35351.31836l-1.1777 11.586a.35439.35439 0 0 0 .35352.39063h7.4062a.35439.35439 0 0 0 .35156-.39063l-1.1777-11.586a.35439.35439 0 0 0 -.35157-.31836zm.31836.70898h4.4121l1.1055 10.877h-6.623z"/><path d="m185.04658 31.082756a.35439.35439 0 0 0 -.35156.31836l-1.1777 11.586a.35439.35439 0 0 0 .35156.39063h7.3594a.35439.35439 0 0 0 .35351-.39063l-1.1777-11.586a.35439.35439 0 0 0 -.35157-.31836zm.32032.70898h4.3652l1.1055 10.877h-6.5762z"/><path d="m174.52658 31.082756a.35439.35439 0 0 0 -.35351.31836l-1.207 11.586a.35439.35439 0 0 0 .35156.39063h7.3906a.35439.35439 0 0 0 .35352-.39063l-1.1777-11.586a.35439.35439 0 0 0 -.35352-.31836zm.31836.70898h4.3652l1.1074 10.877h-6.6055z"/><path d="m169.48 21.397c-1.6681.22659-2.8372 1.9351-2.7632 3.5608-.18559.7927.34738 1.6162-.0161 2.383-.66416.46181-1.5484.7019-1.9315 1.481-.59689.85812-.79453 2.1888-.0115 2.9959.59712.47857 1.6379.36561 2.0103-.34064.79625-.83988 2.1047-.60537 3.0083-1.2549.8851-.2714 1.2364-1.2521 1.9921-1.6989.7379-.25636 1.6482-.06043 2.253-.64916 1.2137-.85415 1.4233-2.6967.5711-3.8767-.4189-.65671-1.1067-1.1783-1.896-1.2633-.72076.242-1.6796-.04766-1.9437-.81253-.3019-.36922-.7943-.59374-1.2727-.52459zm.0352.70898c.6623-.0839.90546.64419 1.1653 1.1099.4155.8847 1.3594.07199 2.0374.23728 1.536.31094 2.2564 2.4809 1.1483 3.6149-.57283.70551-1.5148.60273-2.307.68561-.8857.3133-1.106 1.3933-1.9418 1.7821-.82759.48882-1.8133.55096-2.6918.89886-.51545.40811-1.1735 1.3314-1.8633.59618-.36832-.58754-.0313-1.3437.33448-1.8556.3652-.5083.89294-.89926 1.529-.96372.7296-.14641.81945-1.0402.63365-1.6313-.27802-1.1507-.20029-2.4669.45352-3.4835.34487-.51028.87887-.91484 1.5022-.99078z"/><path d="m190.51846 21.444236c-.92194.05834-1.75113.657063-2.18113 1.461763-.57032.918257-.67584 2.042228-.56162 3.096325.0247.443436.0653.885829.0894 1.329305-.27075.418735-.8851.277863-1.19947.652975-.92122.671986-1.50728 1.821892-1.41009 2.969645.17625.701192.88558 1.236421 1.60458 1.221558.55471-.07472.90902-.555319 1.24388-.952267.43666-.351697 1.04041-.257906 1.53758-.465997.9966-.307863 1.96566-.850506 2.59299-1.702065.17112-.437783.58518-.674401 1.04777-.61042.86061-.06769 1.80723-.311909 2.32345-1.061904.95466-1.322722.5318-3.374783-.83373-4.249213-.58503-.390273-1.37109-.541401-2.02486-.239707-.53597.105599-.59993-.512222-.81196-.835044-.33801-.397023-.88373-.685912-1.41676-.614954zm.0351.70899c.63417-.06699 1.1723.596858 1.0744 1.204529.0675.518757.73139.442799 1.06671.241372.58832-.207569 1.31004-.222034 1.80446.21105 1.00478.753288 1.26252 2.396015.38247 3.340672-.53797.529367-1.3495.57072-2.05917.614499-.41125-.05626-.83757.106502-.96963.5311-.26819.610298-.83321 1.029699-1.39494 1.355288-.71574.402964-1.52656.583368-2.32716.722358-.47418.13652-.72844.584223-1.04488.920957-.37609.326854-.95709.0055-1.09597-.415201-.14157-.401318.0543-.823655.19631-1.19685.31623-.689265.91343-1.350754 1.70171-1.450878.39239.07205.85621-.237946.75155-.672376-.12814-.83597-.18753-1.687611-.17112-2.534607-.003-1.049729.48107-2.16229 1.42332-2.68954.20774-.100369.43712-.140105.66194-.182373z"/><path d="m179.73135 21.352446c-1.57421.415594-2.58555 2.091761-2.47171 3.675149-.0156.681221.058 1.360299.14156 2.035309-.18402.558502-.89265.499571-1.27647.845929-.99548.701715-1.59408 2.017956-1.27476 3.221526.3043.836181 1.49984 1.255117 2.20276.653201.33648-.396126.68955-.903512 1.26546-.91559 1.26295-.244321 2.57976-.755944 3.34994-1.841966.17416-.347016.47007-.688639.89053-.688537.5242-.04773 1.07914.01143 1.55963-.250245.96255-.428218 1.60127-1.472152 1.53731-2.525333-.0185-1.282348-.89332-2.607747-2.19963-2.860505-.50305-.172288-1.03888.131461-1.51379.0077-.41216-.266821-.41342-.883652-.87899-1.1006-.39064-.252365-.8777-.312681-1.33184-.256035zm.10351.70703c.65089-.176777 1.37169.432852 1.29998 1.104813.12295.517571.80695.556103 1.19059.312509.44258-.218655.99191-.118073 1.42527.08746.75244.353296 1.23032 1.169428 1.20108 1.996744.01.909254-.60876 1.854883-1.54498 2.001979-.5848.121336-1.22908-.01189-1.77325.272167-.42174.34758-.49998.973128-.97833 1.26903-.88466.763608-2.06782.9823-3.17028 1.23906-.50474.221766-.67288.922756-1.26557.98835-.57352.0044-.94306-.687229-.73952-1.191494.19381-.891596.84919-1.774982 1.77944-1.956941.49221.01987 1.04782-.443808.87071-.966585-.16267-1.276329-.35463-2.648061.20626-3.858341.29608-.611136.84296-1.106121 1.4986-1.298754z"/><path d="m164.74658 45.032756a.35439.35439 0 0 0 -.35352.35546v2.3164a.35439.35439 0 0 0 .35352.35547h1.252a.35439.35439 0 0 0 .35352-.35547v-2.3164a.35439.35439 0 0 0 -.35352-.35546zm.35547.70898h.54101v1.6094h-.54101z"/><path d="m169.38658 45.032756a.35439.35439 0 0 0 -.35351.35546v2.3164a.35439.35439 0 0 0 .35351.35547h1.252a.35439.35439 0 0 0 .35351-.35547v-2.3164a.35439.35439 0 0 0 -.35351-.35546zm.35352.70898h.54297v1.6094h-.54297z"/><path d="m174.06658 45.032756a.35439.35439 0 0 0 -.35547.35546v2.3164a.35439.35439 0 0 0 .35547.35547h1.2031a.35439.35439 0 0 0 .35547-.35547v-2.3164a.35439.35439 0 0 0 -.35547-.35546zm.35352.70898h.49609v1.6094h-.49609z"/><path d="m178.69658 45.032756a.35439.35439 0 0 0 -.35352.35546v2.3164a.35439.35439 0 0 0 .35352.35547h1.2051a.35439.35439 0 0 0 .35547-.35547v-2.3164a.35439.35439 0 0 0 -.35547-.35546zm.35546.70898h.4961v1.6094h-.4961z"/><path d="m183.33658 45.032756a.35439.35439 0 0 0 -.35351.35546v2.3164a.35439.35439 0 0 0 .35351.35547h1.252a.35439.35439 0 0 0 .35352-.35547v-2.3164a.35439.35439 0 0 0 -.35352-.35546zm.35352.70898h.54297v1.6094h-.54297z"/><path d="m188.01658 45.032756a.35439.35439 0 0 0 -.35547.35546v2.3164a.35439.35439 0 0 0 .35547.35547h1.2051a.35439.35439 0 0 0 .35352-.35547v-2.3164a.35439.35439 0 0 0 -.35352-.35546zm.35352.70898h.49609v1.6094h-.49609z"/><path d="m164.74658 50.042756a.35439.35439 0 0 0 -.35352.35352v2.3652a.35439.35439 0 0 0 .35352.35352h1.252a.35439.35439 0 0 0 .35352-.35352v-2.3652a.35439.35439 0 0 0 -.35352-.35352zm.35547.70899h.54101v1.6543h-.54101z"/><path d="m169.38658 50.042756a.35439.35439 0 0 0 -.35351.35352v2.3652a.35439.35439 0 0 0 .35351.35352h1.252a.35439.35439 0 0 0 .35351-.35352v-2.3652a.35439.35439 0 0 0 -.35351-.35352zm.35352.70899h.54297v1.6543h-.54297z"/><path d="m174.06658 50.042756a.35439.35439 0 0 0 -.35547.35352v2.3652a.35439.35439 0 0 0 .35547.35352h1.2031a.35439.35439 0 0 0 .35547-.35352v-2.3652a.35439.35439 0 0 0 -.35547-.35352zm.35352.70899h.49609v1.6543h-.49609z"/><path d="m178.69658 50.042756a.35439.35439 0 0 0 -.35352.35352v2.3652a.35439.35439 0 0 0 .35352.35352h1.2051a.35439.35439 0 0 0 .35547-.35352v-2.3652a.35439.35439 0 0 0 -.35547-.35352zm.35546.70899h.4961v1.6543h-.4961z"/><path d="m183.33658 50.042756a.35439.35439 0 0 0 -.35351.35352v2.3652a.35439.35439 0 0 0 .35351.35352h1.252a.35439.35439 0 0 0 .35352-.35352v-2.3652a.35439.35439 0 0 0 -.35352-.35352zm.35352.70899h.54297v1.6543h-.54297z"/><path d="m188.01658 50.042756a.35439.35439 0 0 0 -.35547.35352v2.3652a.35439.35439 0 0 0 .35547.35352h1.2051a.35439.35439 0 0 0 .35352-.35352v-2.3652a.35439.35439 0 0 0 -.35352-.35352zm.35352.70899h.49609v1.6543h-.49609z"/><path d="m164.74658 54.952756a.35439.35439 0 0 0 -.35352.35547v2.3633a.35439.35439 0 0 0 .35352.35352h1.252a.35439.35439 0 0 0 .35352-.35352v-2.3633a.35439.35439 0 0 0 -.35352-.35547zm.35547.70899h.54101v1.6543h-.54101z"/><path d="m169.38658 54.952756a.35439.35439 0 0 0 -.35351.35547v2.3633a.35439.35439 0 0 0 .35351.35352h1.252a.35439.35439 0 0 0 .35351-.35352v-2.3633a.35439.35439 0 0 0 -.35351-.35547zm.35352.70899h.54297v1.6543h-.54297z"/><path d="m174.06658 54.952756a.35439.35439 0 0 0 -.35547.35547v2.3633a.35439.35439 0 0 0 .35547.35352h1.2031a.35439.35439 0 0 0 .35547-.35352v-2.3633a.35439.35439 0 0 0 -.35547-.35547zm.35352.70899h.49609v1.6543h-.49609z"/><path d="m178.69658 54.952756a.35439.35439 0 0 0 -.35352.35547v2.3633a.35439.35439 0 0 0 .35352.35352h1.2051a.35439.35439 0 0 0 .35547-.35352v-2.3633a.35439.35439 0 0 0 -.35547-.35547zm.35546.70899h.4961v1.6543h-.4961z"/><path d="m183.33658 54.952756a.35439.35439 0 0 0 -.35351.35547v2.3633a.35439.35439 0 0 0 .35351.35352h1.252a.35439.35439 0 0 0 .35352-.35352v-2.3633a.35439.35439 0 0 0 -.35352-.35547zm.35352.70899h.54297v1.6543h-.54297z"/><path d="m188.01658 54.952756a.35439.35439 0 0 0 -.35547.35547v2.3633a.35439.35439 0 0 0 .35547.35352h1.2051a.35439.35439 0 0 0 .35352-.35352v-2.3633a.35439.35439 0 0 0 -.35352-.35547zm.35352.70899h.49609v1.6543h-.49609z"/><path d="m230.94458 32.923756h.4027c-.0826-.408482-.22375-.80239-.37075-1.19131-.16329-.374063-.39593-.711746-.61741-1.05269-.14499-.187544-.3329-.335404-.49663-.505655-.27798-.270275-.5814-.52093-.93279-.690015-.38492-.200203-.78155-.385858-1.20082-.501656-.11033-.03565-.31035-.01255-.29244-.183188.0273-.191444-.009-.384809.0126-.576764-.0419-.07425-.14425-.02735-.21674-.0386-.57992 0-1.15983 0-1.73975 0v.7435c-.47509.06714-.91823.2655-1.34866.468379-.25644.124862-.49529.283904-.71006.471503-.30647.252877-.62901.498539-.86375.823409-.10791.156136-.1997.322888-.31886.471289-.26909.347611-.40433.772754-.53781 1.185524-.0504.15952-.10269.318516-.13778.481888-.003.165856.20367.07707.30388.09207 1.47702.0057 2.95413-.000149 4.43119.0023 1.54461.000065 3.08927.000195 4.63385.00006z" fill-rule="evenodd"/></g><g fill-rule="evenodd"><path d="m225.83298 29.485056c.12403.0086.33199-.02585.2788-.198004 0-.171533 0-.343066 0-.514599h.7125v.6816c.5692.05978 1.13571.200612 1.64054.476544.42023.217642.80244.507559 1.13562.842995.24342.258572.45736.546426.63323.855016.0749.135815.13919.277692.18799.424981.11912.105362.0401.325908-.12877.250646-2.63279-.000275-5.26559-.000031-7.89838-.000114.0995-.349719.29768-.658944.47593-.972106.17575-.253145.39073-.476502.59388-.7068.20215-.178136.43725-.31463.63541-.497745.17794-.124651.38676-.193793.57723-.296212.3271-.157884.67599-.269193 1.03533-.323455.0402-.0077.0805-.01521.12069-.02275z" fill="#fff"/><g transform="translate(12.666 1.1128)"><g fill="#b6242a"><path d="m201.05 57.9h16.419v-.6196h-16.419z"/><path d="m206.16 59.2h22.089v-.6196h-22.089z"/><path d="m233.02 46.743c-.006-1.7602-.44628-3.5488-1.4516-5.0111-.93346-1.5323-2.4279-2.6638-4.0722-3.3428-2.1174-.86676-4.578-.87923-6.683.03356-2.1538.89792-3.9449 2.6634-4.7923 4.8469-.25531.62534-.44775 1.2778-.55234 1.9457-.47757.28181-.60433-.40788-.48393-.7292-.0235-1.9811-.0828-3.9812.24913-5.9418.15118-.71522.76623-1.1679 1.2233-1.6889.82028-.85459 1.6693-1.7475 2.0759-2.8834.20322-.52181.76453-.05625 1.1258-.2731.32732-.30779.0338-.84498.13535-1.2515.0604-.46915-.50316-.25172-.79705-.2959h-11.196v1.58h1.1463c.52569 1.6185 1.8745 2.7462 2.7974 4.1254.33582.38271.40775.88829.42118 1.3775.0999 1.3023.10521 2.6101.0654 3.915h-3.16c-.0384-.61566-.30648-1.3584-.9676-1.529-.61138-.09607-1.0858.5066-1.1747 1.0564.0301.54165-.49035.52227-.87605.47298-.50149-.0055-1.003.0042-1.5045-.000375v3.5626h-4.3062v9.8516h17.813v-3.6865c.59281.52137 1.2184 1.0167 1.9241 1.3775.13637.33769.0238.70784.0587 1.0608v1.3722h-1.0224v.6196h2.5404v-.6196h-.8985v-2.0757c1.2079.51533 2.5332.7655 3.8441.73115.38934-.16269.78241.14476.56238.55428.13004.41064.0242.95557-.51603.78876-.20235.03144-.57547-.11221-.48249.21101.0161.12841-.0318.32078.0233.41016h2.4861v-.6196h-.8674v-1.487c1.479-.22701 2.865-.8903 4.0385-1.8088.13317.43913-.003.90231.0509 1.3516-.00004.64805.00019 1.2961.00004 1.9442h-1.0223v.6196h2.5093v-.6196h-.8675v-3.9035c1.3655-1.3596 2.3056-3.1658 2.5138-5.0909.0302-.51123.59227-.29495.92263-.32952.26108.02827.48799.0319.40514-.28031.0281-.24472.014-.44726-.30961-.34026-.30961.00004-.6193-.000017-.92886.000001z"/></g><g fill="#fff"><path d="m224.2 38.348c3.5217-.05941 6.9098 2.4527 7.8712 5.8426.21433.73224.32672 1.4945.34924 2.2563-.1008.45244-.68428.31822-1.0201.30157-5.1265-.01054-10.253-.0025-15.379-.0049-.0478-1.275.23649-2.5582.76861-3.7146 1.3297-2.7828 4.31-4.7189 7.4105-4.6811z"/><path d="m215.3969 46.7434h-10.2233v-2.9741h7.0323l-.0619 1.487h-4.523v.6196h7.0324l.3407.031v-.031h.4338l-.031.1549v.6506z"/><path d="m217.4416 52.1648v3.7796h-16.5742v-2.1687h14.0028v-.6195h-14.0028v-5.8242h3.9963v.0309h10.5642l.0929.5887.0929.5576.1239.5266.1859.5267.2169.5267.2478.4956.2788.4957.3099.4337h-10.0065v.6506h1.6419l.7745-.0309h7.5901l.3407.0309z"/><path d="m211.25 36.21c-.60454-.73722-1.2362-1.4832-1.5938-2.3782-.0774-.21288-.14274-.43524-.16552-.6592-.0942-.11657-.26064-.04723-.39021-.06047h-.66943v-.3408h10.75v.3408h-1.0533c-.12714.59782-.35293 1.1817-.72333 1.6722-.38267.55825-.83883 1.0616-1.2982 1.5568-.45358.45934-.93397.90644-1.2704 1.4633-.24601.41764-.27034.91486-.33424 1.3837-.0698.73038-.0997 1.4641-.13328 2.1968-.0416 1.2902-.0152 2.5812.0116 3.8714-.52667-.01033-1.0533-.02067-1.58-.031.0692-1.8862.0966-3.7753.0174-5.6617-.0132-.50654-.10983-1.0078-.21561-1.5012-.21524-.45876-.56174-.83733-.85379-1.2469-.14655-.21754-.32255-.41129-.49783-.60548z"/><path d="m225.71 54.581v-6.3818h-.6197v6.4748c-.42959.01617-.86088.1214-1.2898.03833-1.0444-.06621-2.0779-.3095-3.0361-.73193-.22404-.21843-.0546-.54328-.10462-.80944-.00041-1.6573.00002-3.3146-.00008-4.9719h-.6195v5.3905c-1.5536-.96632-2.8625-2.3934-3.4968-4.1267-.20506-.51446-.30116-1.0615-.42833-1.5975-.11852-.24028-.0597-.59814.28388-.52036.2794.04296.55915.01806.84039.02031 5.0433-.0069 10.087-.000236 15.13-.0027-.16442 1.2063-.5346 2.3965-1.1647 3.4427-.2107.33127-.45337.64039-.68917.9538-.21292.05895-.0428-.31893-.0981-.43768.00091-1.0408-.00035-2.0815.00015-3.1223h-.6195v4.2442c-.425.36748-.90856.65942-1.3602.99087-.5528.32562-1.1134.64738-1.725.85012-.32763.11953-.66139.22461-1.0028.29672z"/></g><g fill="#b6242a"><path d="m212.86 49.81h1.3632v-1.3632h-1.3632z"/><path d="m210.29 49.81h1.363v-1.3632h-1.363z"/><path d="m207.71 49.81h1.3321v-1.3632h-1.3321z"/><path d="m205.11 49.81h1.3631v-1.3632h-1.3631z"/><path d="m202.54 49.81h1.3321v-1.3632h-1.3321z"/><path d="m282.5833 45.2988c-.32047-.600129-.8347-1.068126-1.36484-1.481262-.40479-.273493-.84706-.495334-1.30798-.656897-.41003-.127167-.82944-.249327-1.26223-.25122-.32372-.02476-.64961-.03914-.97206.01086-.32952.04588-.65786.111676-.9775.202367-.30119.127577-.599.262928-.89635.399154-.23507-.05742-.22202-.365884-.3916-.504939-.29061-.446868-.6519-.844251-1.05686-1.189612-.26348-.225539-.59233-.354874-.87343-.553881-.64412-.292471-1.32595-.530563-2.03861-.563899-.6378-.06011-1.27471.06261-1.88556.237386-1.03619.303876-1.92808 1.002374-2.56855 1.860746-.4024.542091-.65991 1.177938-.84521 1.823156-.17932.672505-.20441 1.386283-.0879 2.071841.13498.632796.35044 1.254791.67748 1.814816.71211 1.184627 1.91928 2.062876 3.26886 2.364497.37235.0572.7468.124242 1.12421.125733.27112-.02553.54071-.06192.81296-.07451.31993-.02784.61849-.155048.92713-.234408.19585-.05789.38103-.148688.54525-.269127.27479-.160036.37595.158904.47139.344253.20639.241335.33748.538857.57175.758177.21462.211912.44823.403827.68221.593451.30809.196494.60482.416743.94466.55829.2958.150305.6221.224795.93481.3297.42762.09031.86175.148642 1.2991.154799.72409-.03264 1.451-.173324 2.10878-.486571.79419-.357969 1.47638-.936784 1.99573-1.632862.35419-.454063.58861-.988189.75238-1.537029.27694-.814645.3118-1.707675.10918-2.543309-.12248-.585858-.33132-1.161685-.68493-1.649281l-.0125-.02041z"/></g></g><path d="m294.71 46.761c-.88203-1.4703-2.6792-2.2993-4.3714-2.0676-.60463.09193-1.2161.26088-1.7354.59227-.19528.1897-.56505.40329-.6714.0013-.0678-.2788-.20039-.52445-.37253-.75171-.72987-1.1143-1.9494-1.9294-3.2914-2.0407-1.5657-.16827-3.2033.54176-4.1118 1.8362-4.6679 7.2207 13.669 9.9427 14.999 6.3019.45046-1.2701.30131-2.7427-.44541-3.8718z" fill="#fff"/><path d="m291.95 45.967c-1.4914.40197-2.9827.80393-4.4741 1.2059v-1.1742l-4.5375 1.1742v-1.079c-1.6923.37023-3.3847.74047-5.077 1.1107-.10577-2.3376-.21153-4.6751-.3173-7.0127h-2.6654c-.1481 2.3693-.2962 4.7386-.4443 7.1079h-.5394c-.10577-2.3693-.21153-4.7386-.3173-7.1079h-1.0472c.0101-1.0939.49767-2.3262 1.5669-2.7726.84923-.28322 1.7915.15326 2.2918.85735.70176.73287 1.787 1.1988 2.7922.86372.72132-.20404 1.2696-.75247 1.7299-1.3157.8636-.77986 2.3331-.59728 3.0436.30247.67982.95439 2.0105 1.3641 3.1064.94412.85254-.27379 1.2591-1.1725 2.0383-1.5543.49936.13101 1.0901-.73848.35816-.79495-.82465.08881-1.3926.76734-1.9647 1.2978-.51317.52177-1.3143.71944-2.004.46222-.51177-.16214-.89946-.55032-1.2306-.95398-.75388-.76652-1.9535-1.0617-2.9597-.65246-.61879.23038-1.1116.69684-1.5087 1.2102-.74833.7176-2.0452.65105-2.7476-.09962-.49626-.49523-1.0048-1.0394-1.7131-1.212-1.2089-.32399-2.5785.384-3.0256 1.5517-.22798.51941-.32205 1.0832-.41305 1.6392-.37218.348-1.3325.19332-1.0714.97556-.0946 2.1216-.26578 4.239-.38312 6.3594h-2.3481c.0106 3.0145.0211 6.0289.0317 9.0434h23.83c.00011-3.4588-.00025-6.9176.00018-10.376z" fill="#b6242a"/><path d="m286.07968 55.708856v-3.9347h-7.4569v-2.4751h-8.2183v.6029h7.552v2.5068h7.4885v3.3001h-16.6588l-.0317-7.7742h2.2846l.4442-7.0761h1.4597l.349 7.0761h1.7135l.4442-7.0761h1.4914l.3173 7.1713 5.0452-1.1106v1.1106l4.5058-1.2058v1.2058l4.4741-1.2058.0318 8.8848z" fill="#fff"/><path d="m267.14 57.771v-3.1731c.32381-.03874.63937-.13658.94717-.23746.61112-.34078 1.1713-.85614 1.3714-1.547.33376-.99923.0791-2.2039-.73251-2.9033-.81193-.75109-2.0982-.9066-3.0706-.38284-.93885.47083-1.5291 1.5306-1.4474 2.5762.0397.74855.39991 1.488 1.0242 1.9193.27954.19633.58228.37651.9108.47335.34739-.04134.50859.27285.43335.57876-.0175.70146-.001 1.404-.008 2.106-.0197.18664.0387.4513-.0284.59023h-2.4465v.6347h16.627v-.6347c-4.527-.000043-9.054.000089-13.581-.000066z" fill="#b6242a"/><path d="m264.85 51.901c-.0507-1.2852 1.3663-2.366 2.5932-1.9786 1.1164.27003 1.8354 1.6185 1.3846 2.6877-.3596 1.0334-1.6425 1.6639-2.6644 1.2199-.73997-.2815-1.3224-1.0177-1.3148-1.8254-.0393-.02887.0368-.07426.001-.10362z" fill="#fff"/><path d="m298.10568 51.678956c.0295-.767427-.22518-1.53705-.68704-2.148435-.47767-.715821-1.2365-1.221788-2.06212-1.446561-.67244-.185336-1.39804-.177446-2.06347.0344-.782.241388-1.5008.727783-1.96361 1.408885-.42973.629044-.66028 1.389661-.66658 2.150467.003.794249.28048 1.580417.75369 2.21579.36985.497287.87061.894786 1.43834 1.143075.26997.119543.55393.207628.84438.260808.17235-.01566.36789.01109.48891.147294.0836.08814.0825.218469.0586.329894-.0181.267757-.0135.536846-.0135.805204.006.409901.004.819807.00038 1.229709-.00066.251735-.00035.503472.00075.755205h.5712c0-1.078867 0-2.157733 0-3.2366.60311-.09253 1.21163-.264981 1.71191-.626623.53859-.390095.9681-.923589 1.25812-1.520472.22717-.465348.34238-.984814.33004-1.50204z" fill="#b6242a"/><path d="m291.32 51.679c-.0594-1.6191 1.4034-3.1176 3.0252-3.0891 1.441-.03869 2.8316 1.0754 3.0582 2.5081.2526 1.2931-.42113 2.7378-1.637 3.2884-1.2782.6359-2.9918.27508-3.8422-.89123-.39369-.51631-.62272-1.1644-.60409-1.8162z" fill="#fff"/><path d="m290.14 57.264c1.6447-.0657 2.9143-1.9351 2.3546-3.4874-.40305-1.3805-2.0373-2.2545-3.4033-1.7673-1.1727.3571-2.0532 1.5791-1.8849 2.8172.0836.92159.66527 1.8388 1.5428 2.1796.48811.08713.64844.31642.69292.36939l.0263 2.297c-4.8446.0061-9.9333.0048-14.116.003v.6347h16.849v-.6347h-2.0626c.00027-.80384-.00055-1.6077.00041-2.4115z" fill="#b6242a"/><path d="m287.86 54.566c-.0512-1.2611 1.3287-2.333 2.5379-1.97 1.0864.24931 1.856 1.5096 1.47 2.58-.32077 1.0402-1.5563 1.7473-2.6026 1.3602-.78842-.26125-1.4032-1.0354-1.404-1.877-.0382-.0251.0372-.06893-.001-.09323z" fill="#fff"/></g><g fill="#b6242a"><g fill-rule="evenodd"><path d="m278.02 54.693h1.1741v-1.1423h-1.1741z"/><path d="m275.45 54.693h1.1423v-1.1423h-1.1423z"/><path d="m272.85 54.693h1.174v-1.1423h-1.174z"/><path d="m270.44 54.693h1.1423v-1.1423h-1.1423z"/><path d="m283.2 54.693h1.1423v-1.1423h-1.1423z"/><path d="m280.59 54.693h1.1423v-1.1423h-1.1423z"/><path d="m275.45 52.123h1.1423v-1.1742h-1.1423z"/><path d="m272.85 52.123h1.174v-1.1742h-1.174z"/><path d="m270.41 52.123h1.174v-1.1742h-1.174z"/><path d="m283.1 50.603h1.1741v-1.1742h-1.1741z"/><path d="m280.5 50.603h1.174v-1.1742h-1.174z"/><path d="m285.89 50.603h1.174v-1.1742h-1.174z"/><path d="m288.65 50.603h1.174v-1.1742h-1.174z"/></g><path d="m372.78 39.873-1.4962 11.969c-1.7225.01662-3.4065.0293-5.1564.0293v.3047h-.002v8.3363h17.159v.1211h17.497v-7.346c-.55791.14235-1.6462-.11056-1.918-.1543-.004-3.4639-.0293-6.8447-.0293-10.325l-4.4611 4.6721v-4.6271l-4.2834 4.6096v-4.4631l-4.258 4.3771-.0293-4.3342-4.6974 4.7599-.33985-7.93h-3.5724l-.50392 9.5043-.35548-9.5043zm.56252.63674h2.377l.35939 9.6117h1.209l.50783-9.6117h2.3575l.37697 8.7816 4.6447-4.7033.0312 4.3478 4.2463-4.3674v4.5197l4.2814-4.6115v4.5959l4.4611-4.6721v8.7328h.0312v.79105h1.9161v.16798h-16.856l16.856.63674v5.2658h-16.221v-.11915h-17.157v-4.131h1.0489v-2.1856h11.139v-1.6876h-7.0296zm4.9728 12v.41017h-11.141v2.1856h-.40822v-2.2833l.30737-.30443c3.7749-.03989 7.8943-.0071 11.242-.0081z"/><path d="m379.69 54.363v1.9258h1.9258v-1.9258zm.63672.63672h.65039v.65039h-.65039z"/><path d="m377.06 54.363v1.9258h1.9258v-1.9258zm.63672.63672h.65039v.65039h-.65039z"/><path d="m374.36 54.363v1.9258h1.9551v-1.9258zm.63867.63672h.67968v.65039h-.67968z"/><path d="m376.97 57.173v1.9258h1.9551v-1.9258zm.63672.63671h.67969v.6504h-.67969z"/><path d="m374.24 57.173v1.9258h1.9238v-1.9258zm.63672.63671h.65039v.6504h-.65039z"/><path d="m371.48 57.173v1.9258h1.8965v-1.9258zm.63867.63671h.61914v.6504h-.61914z"/><path d="m368.79 57.173v1.9258h1.9258v-1.9258zm.63867.63671h.6504v.6504h-.6504z"/><path d="m393.19 50.113v1.9258h1.9258v-1.9258zm.63867.63672h.64844v.65039h-.64844z"/><path d="m390.32 50.113v1.9258h1.9258v-1.9258zm.63867.63672h.65039v.65039h-.65039z"/><path d="m387.45 50.113v1.9258h1.9238v-1.9258zm.63672.63672h.65039v.65039h-.65039z"/><path d="m384.6 50.113v1.9258h1.9258v-1.9258zm.63867.63672h.64844v.65039h-.64844z"/><path d="m384.57 55.323v4.2012h1.9258v-4.2012zm.63672.63868h.65039v2.9258h-.65039z"/><path d="m387.14 55.323v4.2012h1.9258v-4.2012zm.63867.63868h.65039v2.9258h-.65039z"/><path d="m389.72 55.323v4.2012h1.9258v-4.2012zm.63672.63868h.65039v2.9258h-.65039z"/><path d="m392.3 55.323v4.2012h1.9258v-4.2012zm.63867.63868h.6504v2.9258h-.6504z"/><path d="m394.9 55.323v4.2012h1.8965v-4.2012zm.63867.63868h.61914v2.9258h-.61914z"/><path d="m397.48 55.323v4.2012h1.9238v-4.2012zm.63672.63868h.65039v2.9258h-.65039z"/><path d="m398.19 50.867v2.2696l-15.93.02734v7.344h1.6563v-5.7795h16.86v-1.5958c-.64-.000024-1.28.0012-1.92.002v-2.2677zm1.9473 2.9044v.32032h-16.856v5.7795h-.38088v-6.0705l15.956-.02735z"/><path d="m393.66494 33.393456c-.62157.443059-1.17943.983819-1.86811 1.326546-.17903.08948-.36782.157051-.55702.221051-.59637.247944-1.26099.360087-1.90177.248905-.37349-.06181-.72613-.217005-1.042-.422956-.52213-.3227-1.01772-.703652-1.6005-.913819-.81941-.302764-1.73085-.325548-2.57328-.105197-.4628.119362-.91542.305689-1.29377.602654-.3922.299749-.71003.684608-.98161 1.094192-.21993.321374-.4397.657021-.75971.888548-.31165.216829-.68892.325631-1.0646.356203-.64763.04825-1.30233-.155928-1.82851-.531621-.41186-.287927-.8032-.618474-1.27037-.81565-.30588-.132202-.64529-.175928-.97595-.144306-.4849.0419-.96632.21737-1.33371.542372-.22925.198587-.3906.460551-.53214.725468-.29252.558653-.40944 1.190282-.4596 1.813547-.0119.09505-.003.193194-.031.28535-.0421.196708.0333.42918.21469.530535.139.06768.30091.0042.41414-.08481.17347-.136234.22868-.358678.3309-.543995.0616-.11592.14616-.217162.22656-.320235.24362-.291784.58273-.52207.96536-.572699.38408-.04869.76847.07825 1.095.274379.37214.219386.70182.504522 1.08382.708159.59873.338153 1.2784.550349 1.96963.549218.69595-.009 1.40159-.149977 2.01605-.486279.39967-.21498.72275-.544338 1.00139-.89753.22903-.285861.42676-.594833.64752-.886802.2971-.382303.73672-.647578 1.20908-.748128.23597-.04437.47524-.0802.71611-.07377.55972.0087 1.11839.191309 1.56452.531825.32285.229758.65227.451783.9989.644343.33267.183785.69031.327814 1.0661.392583.89619.170621 1.85618.05904 2.66411-.375494.36564-.193601.68852-.461641.9587-.774071.21211-.24502.42758-.497414.5484-.802339.0714-.163751.0954-.341426.12045-.516668.0891-.5729.18678-1.144595.26218-1.719509zm-8.73242.85547c.82091-.07111 1.66816.144399 2.34293.620653.51352.33195 1.02525.688172 1.61363.875029.51289.15442 1.06239.165331 1.58813.07484.58009-.10068 1.13423-.313513 1.66611-.561048.11781-.04767.21874-.125207.32675-.190299.0736-.03769.18457-.09562.25024-.01467.0647.07764.0302.181132-.0004.265035-.11287.309051-.34824.548538-.56117.790985-.3946.437639-.94501.716471-1.51958.828806-.44224.09082-.90239.111879-1.34702.02463-.42736-.07912-.83573-.247525-1.20179-.480775-.47187-.290605-.89481-.668312-1.41621-.872571-.41752-.171406-.8711-.258157-1.32272-.236763-.37562.01537-.75006.08311-1.10547.206077-.48626.174007-.9286.485466-1.22807.909379-.29466.38511-.55263.800488-.88839 1.152608-.21349.22241-.46594.412065-.75422.525719-.8288.353402-1.79665.397306-2.64105.07064-.44171-.174366-.83884-.439329-1.22947-.705289-.32092-.215468-.65004-.436712-1.02997-.531845-.52276-.135916-1.0983-.07453-1.57134.190346-.11077.05183-.2053.130193-.29426.21274-.0476.03934-.147.123747-.18127.02753-.0233-.09441.022-.188594.0533-.275992.13132-.349683.29931-.702418.58625-.951714.51568-.437701 1.30974-.494831 1.88842-.148398.15961.0945.29855.218773.45036.324709.43492.318246.89179.622086 1.4057.796441.54621.178773 1.14063.20283 1.70176.08244.50762-.110982.99257-.362814 1.34007-.75408.41607-.45782.68808-1.031068 1.13954-1.459012.35076-.333881.7941-.564942 1.26447-.67651.22176-.0556.44806-.09258.67478-.119638z"/><g fill-rule="evenodd"><path d="m319.14645 34.122758-.58007 14.254h-3.3047l1.041 1.957v6.7305h32.975v-8.1055l-2.2637-2.418-1.498 1.5v-3.6719l.94726-1.8047h-6.8398l-1.0215-1.5586v-2.998h1.8047l-3.7617-2.6309-3.4258 2.6309h1.7441v2.998l-.96875 1.5586h-4.5391v5.8125h-2.4473l-.73242-14.254h-2.6016l-.58008 14.254h-.58203l-.73438-14.254zm.64258.61133h1.377l.0312.64258h-.64258v.67188h.67187l.64258 12.328h-2.6602zm4.5274 0h1.377l.0312.58008h-.73438v.64258h.76368l.61328 12.42h-2.6309zm12.328 1.4375 1.7441 1.1934h-3.2734zm-1.041 1.8652h2.3555v2.7539h-2.3555zm-.1211 3.3965h1.0391v1.1309h-1.7598zm1.6816 0h.94922l.72461 1.1309h-1.6738zm-7.0664 1.7734h15.295l-.51953 1.0098v3.7637l-1.6211-1.4395-1.8965 1.6836-1.5606-1.5293-1.8965 1.8965-1.7441-1.8965-2.5078 2.7832v6.9434h-3.5488zm1.2539 1.0703v.64258h1.5606v-.64258zm2.5098 0v.64258h1.5586v-.64258zm2.5078 0v.64258h1.5606v-.64258zm2.5391 0v.64258h1.5293v-.64258zm2.5078 0v.64258h1.5293v-.64258zm1.8359 3.1211 2.0488 1.8047 1.7129-1.7441 1.6211 1.7441v3.916h-7.0039v3.3027h-7.373v-6.6992l1.8965-2.0801 1.7441 1.8672 1.8965-1.9277 1.5293 1.5293zm-26.92 1.6211h13.123v1.5293h-1.4375v.64257h1.4375v1.1309h-1.4375v.64258h1.4375v1.1934h-1.4375v.61133h1.4375v1.6523h-12.51v-6.2695zm1.6836 1.5293v.64257h1.5293v-.64257zm2.5078 0v.64257h1.5293v-.64257zm2.5078 0v.64257h1.5312v-.64257zm2.5098 0v.64257h1.5293v-.64257zm-7.5254 1.7734v.64258h1.5293v-.64258zm2.5078 0v.64258h1.5293v-.64258zm2.5078 0v.64258h1.5312v-.64258zm2.5098 0v.64258h1.5293v-.64258zm16.732 1.4082h1.9258v2.6914h-1.9258zm2.5684 0h1.6523v2.6914h-1.6523zm2.3262 0h1.4668v2.6914h-1.4668zm-29.152.42773v.61133h1.5293v-.61133zm2.5078 0v.61133h1.5293v-.61133zm2.5078 0v.61133h1.5312v-.61133zm2.5098 0v.61133h1.5293v-.61133zm-4.4356 3.916v.61132h26.613v-.61132zm-3.4258 1.5898v.64258h19.025v-.64258z"/><g stroke="#b6242a" stroke-linejoin="round"><path d="m180.64 63.834a2.5001 2.5001 0 0 0 -1.8399.52541 2.5001 2.5001 0 0 0 -.40236 3.5138c11.539 14.516 31.354 15.453 44.39 5.135.1174.29303.21101.59815.2793.9141l3.5919-9.225-8.7132 4.7014c.36785.03728.72685.10782 1.0723.20899-10.997 8.1755-27.02 7.3399-36.706-4.8459a2.5001 2.5001 0 0 0 -1.6719-.92777z"/><path d="m170.08 65.198.28126 9.8969c.52277-.82037 1.2242-1.4781 2.0255-1.9415 3.0783 6.6721 9.3154 11.415 17.192 14.426 9.3194 3.5632 20.967 4.7785 32.697 4.0587 11.73-.71971 23.541-3.3779 33.187-7.639s17.169-10.12 20.151-17.397a.75.75 0 0 0 -.41018-.97855.75.75 0 0 0 -.97855.41017c-2.7512 6.7134-9.9258 12.423-19.368 16.594-9.4421 4.171-21.108 6.8043-32.673 7.514s-23.033-.50853-32.068-3.963c-7.6204-2.9136-13.463-7.3791-16.346-13.604.94109-.25686 1.9493-.277 2.9357-.02148z"/><g stroke-width=".53149"><path d="m284.34 64.715 3.5919 9.225c.20452-.89468.60657-1.7054 1.1543-2.3868 5.9977 5.7827 12.207 8.4274 18.466 7.9964 7.1873-.49495 14.207-4.9591 21.048-12.633a1.15 1.15 0 0 0 -.0937-1.6231 1.15 1.15 0 0 0 -1.6231.09375c-6.6145 7.4208-13.151 11.433-19.489 11.87-5.4578.37584-10.945-1.848-16.528-7.1858.66461-.35678 1.405-.58437 2.1876-.65432z"/><path d="m336.81 64.653a1.5 1.5 0 0 0 -1.086.37892 1.5 1.5 0 0 0 -.1211 2.1192c6.922 7.7658 15.102 12.363 23.407 12.981 7.3878.54934 14.789-2.1298 21.2-8.2347.41324.60036.71669 1.2839.87698 2.0255l3.59-9.225-8.7113 4.7014c.69341.07028 1.3521.26073 1.9552.54885-5.8164 5.4676-12.234 7.6716-18.688 7.1917-7.3493-.54648-14.857-4.6556-21.389-11.985a1.5 1.5 0 0 0 -1.0332-.50197z"/><path d="m233.85 64.325-.50198 9.8851c.71006-.94038 1.6594-1.6223 2.711-2.0001 2.9901 5.625 8.6641 9.8247 15.801 12.659 8.4944 3.3729 19.076 4.8462 29.823 4.5256 10.748-.32064 21.662-2.4366 30.81-6.2834 9.1482-3.8469 16.55-9.4275 20.19-16.735a.5.5 0 0 0 -.22462-.66995.5.5 0 0 0 -.6719.22462c-3.4886 7.004-10.676 12.471-19.682 16.258-9.0068 3.7874-19.814 5.888-30.45 6.2053-10.637.31733-21.103-1.1489-29.425-4.4533-6.9033-2.7411-12.299-6.7324-15.178-11.989.92625-.15736 1.8932-.09204 2.8204.22852z"/></g></g></g></g><path d="m20.723 17.553v12.65q0 1.5812 1.5812 1.5812h14.277q1.5812 0 1.5812-1.5812v-12.65q0-1.5812-1.5812-1.5812h-14.277q-1.5812 0-1.5812 1.5812z" fill="#f36716" fill-rule="evenodd" stroke="#b6242a" stroke-width=".9921"/><text fill="#b6242a" x="24.14526" y="27.472265"><tspan fill="#b6242a" font-family="Arial" font-size="10">L2</tspan></text><path d="m6.0228 71.543v12.65q0 1.5811 1.5812 1.5811h14.277q1.5812 0 1.5812-1.5811v-12.65q0-1.5812-1.5812-1.5812h-14.277q-1.5812 0-1.5812 1.5812z" fill="#f36716" fill-rule="evenodd" stroke="#b6242a" stroke-width=".9921"/><text fill="#b6242a" x="10.103766" y="81.458046"><tspan fill="#b6242a" font-family="Arial" font-size="10">L1</tspan></text><text x="140.74448" y="108.53191"><tspan font-family="'DejaVu Sans'" font-size="10">the 5 workshops which need to be assigned to the 5</tspan></text><text font-size="12" x="140.22202" y="121.01107"><tspan font-family="'DejaVu Sans'" font-size="10">locations and the different material flows between them</tspan></text><text x="165.49249" y="129.89447"><tspan x="165.49249" y="139.33229"/></text></svg>