<svg height="35pt" preserveAspectRatio="none" viewBox="0 0 35 35" width="35pt" xmlns="http://www.w3.org/2000/svg"><path d="m1 1v7.9654h7.9654v-7.9654h-7.9654zm10.241 0v1.1378h1.1384v-1.1378zm5.6897 0v1.1378h1.1378v-1.1378zm1.1378 1.1378v1.1378h1.1384v-1.1378zm1.1384 0h1.1378v-1.1378h-1.1378zm0 1.1378v1.1378h1.1378v-1.1378zm1.1378 1.1378v2.2762h1.1378v3.4135h3.4135v-4.5519h-1.1378v-1.1378h-1.1378v1.1378h-1.1378v-1.1378h-1.1378zm1.1378 0h1.1378v-1.1378h-1.1378zm0 5.6897h-1.1378v1.1378h1.1378zm-1.1378 1.1378h-1.1378v1.1384h-3.4141v1.1378h3.4141v1.1378h1.1378v-3.4141zm0 3.4141v1.1378h1.1378v-1.1378zm1.1378 1.1378v1.1378h-1.1378v-1.1378h-1.1378v1.1378h-2.2762v-1.1378h-1.1378v2.2757h-1.1378v1.1384h2.2757v-1.1384h2.2762v1.1384h1.1378v-1.1384h1.1378v1.1384h-1.1378v2.2757h-2.2762v1.1378h-1.1378v1.1378h1.1378v1.1378h1.1384v-2.2757h2.2757v-1.1378h2.2757v1.1378h1.1378v-2.2757h-2.2757v-3.4141h1.1378v-2.2757h1.1378v-1.1378h-2.2757v2.2757c-.37928 0-.75856 0-1.1378-.000001zm3.4135-2.2757h1.1384v-1.1378h1.1378v2.2757h1.1378v-1.1378h1.1378v-2.2762h2.2762v-1.1378h-5.6897v1.1378h-3.4141v1.1384h2.2757zm4.5519 0v2.2757h2.2762v-1.1378h-1.1384v-1.1378h-1.1378zm2.2762 1.1378h1.1378v-1.1378h-1.1378zm-2.2762 1.1378h-3.4135v1.1378h1.1378v1.1378h-1.1378v1.1384h2.2757v-2.2762h1.1378zm0 1.1378v1.1378h2.2762v-1.1378zm2.2762 1.1378v1.1384h1.1378v-1.1384zm0 1.1384h-2.2762v1.1378h1.1378v2.2757h1.1384zm0 3.4135v1.1378h-1.1384v1.1378h-1.1378v-1.1378h-2.2757v-1.1378h-1.1378v1.1378h-2.2762v1.1378h-2.2757v-1.1378h-1.1378v1.1378h-1.1378v1.1384h-1.1384v-1.1384h-2.2757v2.2762h-1.1378v1.1378h2.2757v-1.1378h2.2762v1.1378h1.1378v-2.2757h1.1378v1.1378h1.1378v1.1378h1.1378v1.1378h5.6897v-2.2757h2.2762v-1.1378h2.2757v-2.2762h-1.1378v-1.1378h-1.1378zm-2.2762 6.8276v1.1378h-5.6897v2.2762h1.1378v-1.1378h3.4141v1.1378h-1.1378v1.1378h4.5519v-1.1378h-1.1384v-1.1378h1.1384v1.1378h1.1378v-2.2762h1.1378v-1.1378h-2.2757v-1.1378h-1.1384v1.1378zm-5.6897 3.4141h-3.4135v1.1378h3.4135zm-3.4135 0v-1.1378h1.1378v-1.1384h2.2757v-1.1378h-2.2757v-1.1378h-1.1378v1.1378h-1.1378v1.1378h-2.2762v1.1384h2.2762v1.1378zm-3.4141-1.1378h-1.1378v1.1378h1.1378zm-1.1378 1.1378h-1.1378v-3.4141h-1.1378v-2.2757h-3.4141v4.5519h1.1378v1.1378h1.1384v-1.1378h1.1378v1.1378h-1.1378v1.1378h3.4135c0-.37928 0-.75856.000001-1.1378zm-4.5519 0h-1.1378v1.1378h1.1378zm5.6897-4.5519v1.1378h1.1378v-1.1378zm-1.1378-3.4141v-2.2757h-1.1378v-1.1378h1.1378v-1.1378h-1.1378v-1.1378h-2.2757v-3.4141h3.4135v-1.1378h-1.1378v-1.1378h-1.1378v-1.1378h-2.2762v1.1378h1.1384v1.1378h-1.1384v-1.1378h-2.2757v1.1378h-2.2757v1.1378h3.4135v1.1378h1.1378v3.4141h1.1384v1.1378h1.1378v2.2757h1.1378v1.1378zm-3.4135-3.4135h-1.1384v1.1378h1.1384zm-1.1384 1.1378h-1.1378v3.4141h1.1378zm0-1.1378v-1.1378h-1.1378v1.1378zm-4.5513-5.6897h-3.4141v1.1378h-1.1378v2.2762h-1.1378v5.6892h1.1378v-3.4135h2.2757v-1.1378h-1.1378v-1.1378h1.1378v-2.2762h1.1378v1.1378h1.1384zm0 2.2757v3.4141h1.1378v-1.1378h1.1378v-1.1378h-1.1378v-1.1384h-1.1378zm1.1378 0h1.1378v-1.1378h-1.1378zm1.1378 0v1.1384h1.1378v-1.1384zm-1.1378 3.4141v1.1378h1.1378v-1.1378zm0 1.1378h-1.1378v1.1378h1.1378zm0 1.1378v1.1378h1.1378v-1.1378zm-1.1378-1.1378v-1.1378h-1.1384v1.1378zm0-7.9654v-1.1378h-1.1384v1.1378zm-1.1384-1.1378v-1.1378h-1.1378v1.1378zm-1.1378 0h-1.1378v-2.2762h-1.1378v-1.1378h-1.1378v3.4141h1.1378v1.1378h2.2757v-1.1378zm-2.2757 1.1378h-1.1378v1.1378h1.1378zm1.1378-3.4141h3.4141v1.1384h1.1378v-1.1384h1.1378v-1.1378h-5.6897zm5.6897 0v1.1384h2.2757v-1.1384zm0 1.1384h-1.1378v1.1378h1.1378zm4.5519 0h2.2757v-1.1384h3.4141v-2.2757h-1.1384v1.1378h-2.2757v-4.5519h-1.1378v-1.1378h1.1378v-1.1378h-1.1378v-1.1378h-1.1378v2.2757h-1.1378v4.5519h-1.1384v-4.5519h1.1384v-1.1378h-2.2762v6.8276h3.4141v-2.2757h1.1378v2.2757h-1.1378zm2.2757-7.966v1.1378h2.2757v-1.1378zm2.2757 4.5519v-1.1378h1.1384v1.1378h1.1378v-2.2757h-3.4141v2.2757zm3.4141 14.793h2.2757v-1.1378h-2.2757zm7.9654-3.4135h-3.4135v1.1378h2.2757v1.1378h1.1378v-2.2757zm-3.4135-2.2762v-1.1378h-2.2762v2.2762h1.1378v-1.1384zm-9.1038 1.1384v1.1378h1.1378v-1.1378zm-2.2757-1.1384v-1.1378h-1.1378v1.1378zm7.9654-17.069v1.1378h1.1378v1.1378h1.1378v-2.2757h-2.2757zm3.4141 0v7.9654h7.9654v-7.9654h-7.9654zm-23.897 1.1378h5.6897v5.6897h-5.6897zm25.035 0h5.6897v5.6897h-5.6897zm-23.897 1.1378v3.4141h3.4141v-3.4141zm25.035 0v3.4141h3.4141v-3.4141zm-5.6897 3.4141h1.1378v2.2757h-1.1378zm10.242 4.5513v1.1384h1.1378v-1.1384zm0 4.5519v1.1378h1.1378v-1.1378zm0 4.5519v1.1378h1.1378v-1.1378zm-29.586 3.4135v1.1378h1.1378v-1.1378zm21.621 1.1378h3.4141v3.4141h-3.4141zm-23.896 1.1384v7.9654h7.9654v-7.9654zm25.035 0v1.1378h1.1378v-1.1378zm-23.897 1.1378h5.6897v5.6897h-5.6897zm30.724 0v1.1378h1.1378v-1.1378zm-29.586 1.1378v3.4141h3.4141v-3.4141zm7.9654 0h1.1384v1.1378h-1.1384z"/></svg>