<svg height="35pt" preserveAspectRatio="none" viewBox="0 0 35 35" width="35pt" xmlns="http://www.w3.org/2000/svg"><path d="m1 1v7.9654h7.9654v-7.9654h-7.9654zm13.655 0v1.1378h-1.1378v1.1378h1.1378v1.1378h2.2757v-1.1378h1.1378v1.1378h-1.1378v1.1378h1.1378v1.1384h3.4141v3.4135h3.4135v-4.5519h-1.1378v-1.1378h-1.1378v1.1378h-1.1378v-1.1378h-1.1378v1.1378h-1.1378v-2.2757h1.1378v-1.1378h-1.1378v-1.1378h-4.5519zm6.8276 3.4135h1.1378v-1.1378h-1.1378zm0 5.6897h-1.1378v-2.2757h-1.1378v3.4135h2.2757v-1.1378zm-2.2757 1.1378h-3.4141v-4.5513h-1.1378v-2.2762h-1.1378v1.1378h-1.1378v-1.1378h-1.1384v-1.1378h-1.1378v6.8276h1.1378v-2.2757h1.1384v-1.1378h1.1378v1.1378h1.1378v1.1378h-1.1378v2.2757h-1.1378v2.2762h1.1378v-1.1378h2.2757v2.2757h1.1378v-1.1378h1.1378v1.1378h-1.1378v1.1378h1.1378v1.1378h2.2762v-1.1378h-1.1378v-2.2757h1.1378v-1.1378h-1.1378v-1.1384zm1.1378 4.5519h1.1378v-1.1378h-1.1378zm1.1378 0v1.1378h-1.1378v1.1378h1.1378v1.1384h-1.1378v2.2757h-1.1378v-1.1378h-5.6897v1.1378h-1.1378v-1.1378h-1.1384v-1.1378h1.1384v-1.1384h1.1378v-1.1378h-1.1378v-1.1378h-1.1384v-1.1378h-1.1378v2.2757h1.1378v1.1378h-1.1378v3.4141h1.1378v1.1378h1.1384v1.1378h1.1378v-1.1378h1.1378v-1.1378h1.1378v1.1378h-1.1378v1.1378h2.2757v-1.1378h1.1378v1.1378h-1.1378v1.1378h2.2762v-2.2757h2.2757v-1.1378h2.2757v1.1378h1.1378v-2.2757h-2.2757v-3.4141h1.1378v-2.2757h1.1378v-1.1378h-2.2757v2.2757c-.37928 0-.75856 0-1.1378-.000001zm3.4135-2.2757h1.1384v-1.1378h1.1378v2.2757h1.1378v-1.1378h1.1378v-2.2762h2.2762v-1.1378h-5.6897v1.1378h-3.4141v1.1384h2.2757zm4.5519 0v2.2757h2.2762v-1.1378h-1.1384v-1.1378h-1.1378zm2.2762 1.1378h1.1378v-1.1378h-1.1378zm-2.2762 1.1378h-3.4135v1.1378h1.1378v1.1378h-1.1378v1.1384h2.2757v-2.2762h1.1378zm0 1.1378v1.1378h2.2762v-1.1378zm2.2762 1.1378v1.1384h1.1378v-1.1384zm0 1.1384h-2.2762v1.1378h1.1378v2.2757h1.1384zm0 3.4135v1.1378h-1.1384v1.1378h-1.1378v-1.1378h-2.2757v-1.1378h-1.1378v1.1378h-2.2762v1.1378h-2.2757v-1.1378h-1.1378v1.1378h-1.1378v1.1384h-1.1384v1.1378h1.1384v1.1378h1.1378v-2.2757h1.1378v1.1378h1.1378v1.1378h1.1378v1.1378h5.6897v-2.2757h2.2762v-1.1378h2.2757v-2.2762h-1.1378v-1.1378h-1.1378zm0 4.5519v1.1378h-1.1384v1.1378h-1.1378v1.1378h-5.6897v2.2762h1.1378v-1.1378h3.4141v1.1378h-1.1378v1.1378h4.5519v-1.1378h-1.1384v-1.1378h1.1384v1.1378h1.1378v-2.2762h1.1378v-1.1378h-1.1378v-2.2757h-1.1378zm-7.966 5.6897h-3.4135v1.1378h3.4135zm-3.4135 0v-1.1378h1.1378v-1.1384h2.2757v-1.1378h-2.2757v-1.1378h-1.1378v1.1378h-1.1378v1.1378h-1.1384v1.1384h1.1384v1.1378zm-2.2762-2.2762v-1.1378h-1.1378v1.1378zm-1.1378 0h-1.1378v-3.4135h-1.1378v-1.1378h-1.1378v-1.1384h-1.1378v1.1384h-1.1384v1.1378h2.2762v1.1378h-1.1378v1.1378h-1.1384v-2.2757h-1.1378v4.5519h1.1378v-1.1384h3.4141v1.1384h2.2757v-1.1384zm-2.2757 1.1384h-1.1378v1.1378h-1.1378v1.1378h2.2757v-2.2757zm-2.2757 1.1378v-1.1378h-1.1384v1.1378zm-1.1384 0h-1.1378v1.1378h1.1378zm0-6.8276v-1.1384h1.1384v-1.1378h-2.2762v-2.2757h-2.2757v1.1378h1.1378v1.1378h-1.1378v-1.1378h-1.1378v1.1378h-2.2762v-1.1378h-1.1378v2.2757h6.8276v1.1384zm-3.4135-4.5519v-1.1378h-1.1378v1.1378zm0-1.1378h1.1378v-1.1378h-1.1378zm0-1.1378v-1.1384h-1.1378v1.1384zm0-1.1384h1.1378v-1.1378h-1.1378zm0-1.1378v-1.1378h-1.1378v-1.1378h1.1378v-1.1378h1.1378v1.1378h1.1378v-1.1378h1.1378v-2.2762h-2.2757v1.1384h-3.4141v-1.1384h3.4141v-1.1378h-5.6897v1.1378h1.1378v2.2762h-2.2757v2.2757h2.2757v-1.1378h1.1378v2.2757zm-2.2762 0h-1.1378v1.1378h-2.2757v1.1384h2.2757v2.2757h1.1378zm-3.4135 2.2762h-1.1378v5.6892h1.1378zm0-1.1384v-1.1378h-1.1378v1.1378zm0-4.5513v-1.1378h1.1378v-1.1384h-1.1378v-1.1378h-1.1378v3.4141zm9.1032 0v1.1378h1.1384v-1.1378zm-2.2757 1.1378h-1.1378v1.1378h1.1378zm4.5519 10.241h1.1378v-1.1378h-1.1378zm1.1378 0v1.1384h1.1378v-1.1384zm3.4135 2.2762h-1.1378v1.1378h1.1378zm3.4141-3.4141h2.2757v-1.1378h-2.2757zm7.9654-3.4135h-3.4135v1.1378h2.2757v1.1378h1.1378v-2.2757zm-3.4135-2.2762v-1.1378h-2.2762v2.2762h1.1378v-1.1384zm-12.517 0v1.1384h1.1378v-1.1384zm1.1378 0h1.1378v-2.2757h-1.1378zm-1.1378 1.1384h-1.1378v1.1378h1.1378zm6.8276 0v-1.1384h-1.1378v1.1384zm-6.8276-5.6897v1.1378h1.1378v-1.1378zm0-4.5519v-1.1378h-1.1378v1.1378zm-2.2762-5.6897h1.1384v-1.1378h-1.1384zm11.379-2.2757v1.1378h1.1378v1.1378h1.1378v-2.2757h-2.2757zm3.4141 0v7.9654h7.9654v-7.9654zm-23.897 1.1378h5.6897v5.6897h-5.6897zm25.035 0h5.6897v5.6897h-5.6897zm-23.897 1.1378v3.4141h3.4141v-3.4141zm25.035 0v3.4141h3.4141v-3.4141zm-5.6897 3.4141h1.1378v2.2757h-1.1378zm-5.6897 1.1378v2.2757h1.1378v-2.2757zm15.931 3.4135v1.1384h1.1378v-1.1384zm0 4.5519v1.1378h1.1378v-1.1378zm-15.931 2.2757v1.1384h1.1378v-1.1384zm15.931 2.2762v1.1378h1.1378v-1.1378zm-7.966 4.5513h3.4141v3.4141h-3.4141zm-23.896 1.1384v7.9654h7.9654v-7.9654h-7.9654zm25.035 0v1.1378h1.1378v-1.1378zm-23.897 1.1378h5.6897v5.6897h-5.6897zm1.1378 1.1378v3.4141h3.4141v-3.4141zm13.655 4.5519v1.1378h1.1378v-1.1378z"/></svg>