<svg height="91.728752pt" viewBox="0 0 422.29218 122.30634" width="316.71646pt" xmlns="http://www.w3.org/2000/svg"><text font-family="DejaVu Sans" x="91.497864" y="14.076396"><tspan font-family="DejaVu Sans" font-size="10">road</tspan></text><path d="m19.107871 8.9600177c17.107-5.337 49.912-16.964 57.333 6.5373003 8.8736 28.101 71.605999 29.556 33.176999 56.784-22.457999 15.912-35.020999 28.513002-60.293999 36.368002-3.0792.9569-36.284-16.431002-45.3000003-19.779002-4.79630001-1.7811-3.15520001-51.382 4.7158-59.734 5.6264003-5.9706 6.9395003-10.458 10.3670003-20.1760003z" fill="#ffbf68" fill-rule="evenodd"/><g stroke="#b6242a"><g fill="none" stroke-linecap="round" stroke-linejoin="round" stroke-width="5.6693"><path d="m29.257871 23.703018c4.2426 2.5111 8.1893 5.386 11.399 8.9666 2.5266 2.8183 4.502 2.6436 7.7979 3.899 2.1049.8018 3.8834 2.5261 5.7394 3.579"/><path d="m52.497871 47.683018-.1384 2.3794 3.899-2.3994c4.8398-2.9784 14.247 6.438 14.696-1.7995.1016-1.8647 3.4664-8.1515 4.2987-4.7875"/><path d="m83.247414 70.103065c-10.272 6.403.0858 2.3776-7.7956 2.1525-5.3644-.1531-12.485 1.1183-17.395-.2999-2.9407-.8493-3.5901-2.4663-7.1981-2.9992-2.916-.4307-7.8065-.2409-10.313-1.7513"/><path d="m14.561714 77.684065c3.1862.8385 4.6331.7803 7.8004.8688 2.7986.0784 5.5502 1.5365 8.0978 1.7996 1.083.1118 2.1153-.107 3.1923.131"/><path d="m32.127414 88.493065c6.1832-1.1995 11.647.2541 17.524.2541 3.5966 0 7.1993-.0486 10.795.031"/></g><path d="m74.527871 63.773018v12.65q0 1.5812 1.5812 1.5812h14.277q1.5812 0 1.5812-1.5812v-12.65q0-1.5812-1.5812-1.5812h-14.277q-1.5812 0-1.5812 1.5812z" fill="#f36716" fill-rule="evenodd" stroke-width=".9921"/></g><text fill="#b6242a" x="77.923523" y="73.681252"><tspan fill="#b6242a" font-family="Arial" font-size="10">L4</tspan></text><path d="m25.067871 96.533018c7.1631 1.7664 7.8534-13.907 9.2899-19.779 3.7621-15.378 19.28-9.2215 17.995-26.693-.356-4.8415 4.8378-16.543 2.3994-19.795" fill="none" stroke="#b6242a" stroke-linecap="round" stroke-linejoin="round" stroke-width="5.6693"/><path d="m65.827871 34.683018v12.65q0 1.5812 1.5812 1.5812h14.277q1.5812 0 1.5812-1.5812v-12.65q0-1.5811-1.5812-1.5811h-14.277q-1.5812 0-1.5812 1.5811z" fill="#f36716" fill-rule="evenodd" stroke="#b6242a" stroke-width=".9921"/><text fill="#b6242a" x="69.211807" y="44.667465"><tspan fill="#b6242a" font-family="Arial" font-size="10">L3</tspan></text><path d="m51.727871 82.453018v12.65q0 1.5812 1.5812 1.5812h14.277q1.5812 0 1.5812-1.5812v-12.65q0-1.5812-1.5812-1.5812h-14.277q-1.5812 0-1.5812 1.5812z" fill="#f36716" fill-rule="evenodd" stroke="#b6242a" stroke-width=".9921"/><text fill="#b6242a" x="55.087906" y="92.421059"><tspan fill="#b6242a" font-family="Arial" font-size="10">L5</tspan></text><text x="5.023528" y="120.83138"><tspan font-family="DejaVu Sans" font-size="10">the land with 5 locations</tspan></text><path d="m81.496871 88.374018 8.3713 23.045002" fill="none" stroke="#102a83" stroke-width=".216"/><text x="183.64366" y="118.84168"><tspan/></text><text x="89.33519" y="130.2704"><tspan x="89.33519" y="139.7079"/></text><path d="m87.736871 13.603018-32.982 16.662" fill="none" stroke="#102a83" stroke-width=".216"/><g fill="#b6242a"><path d="m161.55113 42.493068a.35439.35439 0 0 0 -.35547.35547v17.285a.35439.35439 0 0 0 .35547.35547h30.68a.35439.35439 0 0 0 .35351-.35547v-17.285a.35439.35439 0 0 0 -.35351-.35547zm.35351.70899h29.971v16.578h-29.971z"/><path d="m163.82113 30.903068a.35439.35439 0 0 0 -.35351.31836l-1.1777 11.586a.35439.35439 0 0 0 .35352.39063h7.4062a.35439.35439 0 0 0 .35156-.39063l-1.1777-11.586a.35439.35439 0 0 0 -.35157-.31836zm.31836.70898h4.4121l1.1055 10.877h-6.623z"/><path d="m184.86113 30.903068a.35439.35439 0 0 0 -.35156.31836l-1.1777 11.586a.35439.35439 0 0 0 .35156.39063h7.3594a.35439.35439 0 0 0 .35351-.39063l-1.1777-11.586a.35439.35439 0 0 0 -.35157-.31836zm.32032.70898h4.3652l1.1055 10.877h-6.5762z"/><path d="m174.34113 30.903068a.35439.35439 0 0 0 -.35351.31836l-1.207 11.586a.35439.35439 0 0 0 .35156.39063h7.3906a.35439.35439 0 0 0 .35352-.39063l-1.1777-11.586a.35439.35439 0 0 0 -.35352-.31836zm.31836.70898h4.3652l1.1074 10.877h-6.6055z"/><path d="m169.29199 21.217678a.35438544.35438544 0 0 0 -.0684.008l-.23242.0469a.35438544.35438544 0 0 0 -.0606.0176l-.23242.0918-.20899.084-.1621.041a.35438544.35438544 0 0 0 -.0977.0391l-.23047.14063a.35438544.35438544 0 0 0 -.0684.0527l-.55664.55664a.35438544.35438544 0 0 0 -.0508.0645l-.37109.60156a.35438544.35438544 0 0 0 -.0352.0742l-.23047.69531a.35438544.35438544 0 0 0 -.0137.0469l-.13867.74218a.35438544.35438544 0 0 0 -.006.0645v.74218a.35438544.35438544 0 0 0 0 .0195l.0469.78906a.35438544.35438544 0 0 0 .002.0215l.0918.73242.0254.39454-.45508.0547a.35438544.35438544 0 0 0 -.13476.043l-.64844.3711a.35438544.35438544 0 0 0 -.0644.0469l-.55469.50977a.35438544.35438544 0 0 0 -.0586.0684l-.41797.65039a.35438544.35438544 0 0 0 -.0352.0723l-.23242.64844a.35438544.35438544 0 0 0 -.0195.0937l-.0469.64844a.35438544.35438544 0 0 0 .01.11133l.13867.55664a.35438544.35438544 0 0 0 .11133.17968l.37109.32618a.35438544.35438544 0 0 0 .14649.0762l.0898.0234.0234.0215a.35438544.35438544 0 0 0 .0937.0664l.0918.0469a.35438544.35438544 0 0 0 .1582.0371h.55664a.35438544.35438544 0 0 0 .25-.10352l.12109-.12109.16602-.12305a.35438544.35438544 0 0 0 .0371-.0332l.13867-.13867a.35438544.35438544 0 0 0 .0332-.0391l.125-.16407.1211-.12304a.35438544.35438544 0 0 0 .0332-.0371l.10156-.13672.0899-.0586.0723-.0488.56836-.0801a.35438544.35438544 0 0 0 .0469-.0117l.64843-.18555a.35438544.35438544 0 0 0 .008-.002l.60156-.18359a.35438544.35438544 0 0 0 .0547-.0234l.55664-.27735a.35438544.35438544 0 0 0 .0195-.0117l.55664-.32422a.35438544.35438544 0 0 0 .043-.0293l.46289-.37109a.35438544.35438544 0 0 0 .0644-.0664l.3711-.50977a.35438544.35438544 0 0 0 .0312-.0508l.18945-.38086.25195-.0254h.35352a.35438544.35438544 0 0 0 .0703-.008l.44727-.0898.40234-.043a.35438544.35438544 0 0 0 .0859-.0215l.36914-.13867a.35438544.35438544 0 0 0 .0351-.0156l.3711-.18555a.35438544.35438544 0 0 0 .0469-.0273l.32422-.23243a.35438544.35438544 0 0 0 .0606-.0547l.32422-.3711a.35438544.35438544 0 0 0 .0566-.0859l.23054-.51006a.35438544.35438544 0 0 0 .0273-.0898l.0937-.55469a.35438544.35438544 0 0 0 .004-.0586v-.50977a.35438544.35438544 0 0 0 -.004-.0586l-.0937-.55664a.35438544.35438544 0 0 0 -.0156-.0625l-.18555-.50977a.35438544.35438544 0 0 0 -.043-.082l-.32422-.46289a.35438544.35438544 0 0 0 -.0254-.0332l-.37109-.41601a.35438544.35438544 0 0 0 -.0957-.0762l-.50976-.27735a.35438544.35438544 0 0 0 -.0723-.0293l-.32422-.0937a.35438544.35438544 0 0 0 -.0273-.006l-.23242-.0469a.35438544.35438544 0 0 0 -.0684-.008h-.60352a.35438544.35438544 0 0 0 -.0586.006l-.27735.0469a.35438544.35438544 0 0 0 -.0547.0117l-.25.084-.11719.0195a.35438544.35438544 0 0 0 -.0371-.15625l-.0918-.18555-.0937-.18555-.0918-.18554a.35438544.35438544 0 0 0 -.0664-.0918l-.12109-.12109-.125-.16602a.35438544.35438544 0 0 0 -.0703-.0703l-.18554-.13867a.35438544.35438544 0 0 0 -.14258-.0645l-.20117-.041-.20117-.0801a.35438544.35438544 0 0 0 -.13086-.0254zm.0352.70898h.17578l.16797.0684a.35438544.35438544 0 0 0 .0625.0176l.15234.0312.0801.0605.10937.14453a.35438544.35438544 0 0 0 .0332.0371l.0976.0996.0684.13281.0918.18555.0547.11133v.3789a.35438544.35438544 0 0 0 .46679.33594l.25196-.084.25-.041a.35438544.35438544 0 0 0 .0547-.0137l.25196-.084.2207-.0371h.53906l.1836.0371.27148.0781.42188.22851.3164.35743.28516.4082.1582.43359.082.4961v.45117l-.0801.48047-.18945.41992-.26367.30078-.26758.19141-.33008.16406-.3125.11719-.37304.043a.35438544.35438544 0 0 0 -.0293.004l-.42969.0859h-.33594a.35438544.35438544 0 0 0 -.0352.002l-.46289.0469a.35438544.35438544 0 0 0 -.28125.19336l-.26563.52929-.32617.44727-.40625.32617-.52344.30469-.51953.25976-.57031.17579-.62305.17773-.625.0898a.35438544.35438544 0 0 0 -.14648.0547l-.13867.0937-.13868.0918a.35438544.35438544 0 0 0 -.0859.082l-.125.16601-.1211.1211a.35438544.35438544 0 0 0 -.0332.0391l-.12305.16406-.10351.10352-.16602.125a.35438544.35438544 0 0 0 -.0371.0312l-.0351.0352h-.31055l-.0332-.0352a.35438544.35438544 0 0 0 -.16608-.09171l-.0996-.0254-.22461-.19531-.0996-.39453.0391-.54297.20313-.56641.36914-.57617.49414-.45117.55078-.31445.7168-.0859a.35438544.35438544 0 0 0 .3125-.37305l-.0469-.74219a.35438544.35438544 0 0 0 -.002-.0215l-.0918-.73047-.0449-.76562v-.69728l.12891-.68555.21094-.63281.32812-.5332.49609-.4961.14844-.0898.13477-.0332a.35438544.35438544 0 0 0 .0449-.0137l.23242-.0937.20117-.0801z"/><path d="m190.33301 21.264548a.35438544.35438544 0 0 0 -.0703.006l-.23047.0469-.23242.0469a.35438544.35438544 0 0 0 -.0625.0176l-.23047.0937-.23242.0918a.35438544.35438544 0 0 0 -.0273.0137l-.18555.0918a.35438544.35438544 0 0 0 -.10156.0762l-.55664.60352a.35438544.35438544 0 0 0 -.041.0547l-.37109.60156a.35438544.35438544 0 0 0 -.0274.0547l-.27734.69531a.35438544.35438544 0 0 0 -.0234.0879l-.0918.74023a.35438544.35438544 0 0 0 -.002.0449v.78711a.35438544.35438544 0 0 0 0 .0215l.0469.74218.0449.74219a.35438544.35438544 0 0 0 .002.0215l.0488.38672-.43359.0508a.35438544.35438544 0 0 0 -.125.0391l-.69531.37109a.35438544.35438544 0 0 0 -.084.0625l-.50977.50977a.35438544.35438544 0 0 0 -.0469.0586l-.41602.64844a.35438544.35438544 0 0 0 -.0391.0801l-.23242.69531a.35438544.35438544 0 0 0 -.0137.0586l-.0918.60156a.35438544.35438544 0 0 0 .0176.17579l.18359.50976a.35438544.35438544 0 0 0 .0996.14453l.3711.32422a.35438544.35438544 0 0 0 .0762.0508l.17383.0879v-.17187a.35438544.35438544 0 0 0 .0664.20508.35438544.35438544 0 0 0 .28906.14843h.41602a.35438544.35438544 0 0 0 .11328-.0176l.13867-.0469a.35438544.35438544 0 0 0 .084-.041l.13867-.0937a.35438544.35438544 0 0 0 .0156-.01l.18554-.14063a.35438544.35438544 0 0 0 .0391-.0312l.13868-.14063a.35438544.35438544 0 0 0 .0527-.0684l.0977-.16211.0742-.0488a.35438544.35438544 0 0 0 .0859-.082l.10352-.13672.0879-.0586.0723-.0488.56835-.082a.35438544.35438544 0 0 0 .0488-.01l.64844-.18554a.35438544.35438544 0 0 0 .006-.002l.60352-.18554a.35438544.35438544 0 0 0 .0527-.0215l.55664-.27734a.35438544.35438544 0 0 0 .0312-.0176l.50977-.32617a.35438544.35438544 0 0 0 .0469-.0352l.46484-.41601a.35438544.35438544 0 0 0 .0254-.0273l.41796-.46289a.35438544.35438544 0 0 0 .0586-.0879l.18164-.39648h.1914a.35438544.35438544 0 0 0 .0391-.004l.41406-.0449.46289-.0469a.35438544.35438544 0 0 0 .041-.006l.41796-.0937a.35438544.35438544 0 0 0 .008-.002l.37109-.0918a.35438544.35438544 0 0 0 .0723-.0274l.37109-.18555a.35438544.35438544 0 0 0 .0469-.0293l.32422-.23047a.35438544.35438544 0 0 0 .0781-.0762l.27734-.3711a.35438544.35438544 0 0 0 .0293-.043l.27734-.50976a.35438544.35438544 0 0 0 .0391-.11133l.0918-.55664a.35438544.35438544 0 0 0 .006-.0566v-.55664a.35438544.35438544 0 0 0 -.006-.0644l-.0937-.50977a.35438544.35438544 0 0 0 -.0117-.0488l-.18554-.55468a.35438544.35438544 0 0 0 -.0469-.0918l-.32422-.46289a.35438544.35438544 0 0 0 -.0547-.0625l-.41602-.3711a.35438544.35438544 0 0 0 -.0332-.0254l-.46289-.32422a.35438544.35438544 0 0 0 -.0918-.0449l-.27734-.0937a.35438544.35438544 0 0 0 -.0625-.0137l-.32422-.0469a.35438544.35438544 0 0 0 -.0508-.004h-.27735a.35438544.35438544 0 0 0 -.0684.008l-.22265.0449-.31446.0449a.35438544.35438544 0 0 0 -.0625.0137l-.25195.084-.1543.0254-.0156-.0742a.35438544.35438544 0 0 0 -.004-.0156l-.0449-.18555a.35438544.35438544 0 0 0 -.0156-.0469l-.0918-.23047a.35438544.35438544 0 0 0 -.0352-.0644l-.0918-.14063a.35438544.35438544 0 0 0 -.0117-.0156l-.13868-.18554a.35438544.35438544 0 0 0 -.0332-.0371l-.13867-.13867a.35438544.35438544 0 0 0 -.0391-.0332l-.18555-.14062a.35438544.35438544 0 0 0 -.0801-.0449l-.23242-.0918a.35438544.35438544 0 0 0 -.0625-.0195l-.23047-.0469a.35438544.35438544 0 0 0 -.0703-.006zm.0351.70899h.20703l.16602.0332.1582.0625.12695.0957.10352.10351.11914.1582.0664.0996.0703.17578.0371.15235.0391.18945v.19727a.35438544.35438544 0 0 0 .4668.33593l.25-.084.25195-.041a.35438544.35438544 0 0 0 .0527-.0137l.24804-.082.29297-.043a.35438544.35438544 0 0 0 .0195-.004l.19727-.0391h.2168l.26953.0391.19726.0664.4043.28321.37109.32812.27149.38867.16015.48242.084.45313v.49609l-.0781.4668-.23828.43555-.22851.30664-.25782.18359-.31054.15625-.33008.082-.39063.0859-.44336.0449a.35438544.35438544 0 0 0 -.004 0l-.39649.0449h-.39843a.35438544.35438544 0 0 0 -.32032.20508l-.25586.55469-.36914.4082-.42773.38477-.46875.29883-.51367.25781-.57227.17578-.62109.17773-.625.0899a.35438544.35438544 0 0 0 -.14649.0547l-.13867.0937-.14062.0918a.35438544.35438544 0 0 0 -.0859.082l-.10352.13672-.0879.0606a.35438544.35438544 0 0 0 -.10742.11133l-.11705.19553-.0898.0898-.15625.11719-.0918.0606-.0391.0137h-.18555a.35438544.35438544 0 0 0 -.0156-.008l-.0937-.0469-.0918-.0469-.14258-.0703-.27148-.23633-.12305-.33789.0742-.48438.20899-.625.37304-.57812.44531-.44532.58985-.31445.7207-.0859a.35438544.35438544 0 0 0 .31055-.39648l-.0918-.73047-.0449-.73047-.0469-.73047v-.7539l.0859-.67383.25-.625.33594-.54688.48828-.52929.11523-.0586.2168-.0859.20313-.082.19922-.0391z"/><path d="m179.5459 21.172758a.35438544.35438544 0 0 0 -.0957.0254l-.23242.0918-.23242.0918a.35438544.35438544 0 0 0 -.0254.0137l-.18555.0918a.35438544.35438544 0 0 0 -.0547.0332l-.18554.13868a.35438544.35438544 0 0 0 -.0156.0137l-.60351.50976a.35438544.35438544 0 0 0 -.0781.0957l-.37109.64843a.35438544.35438544 0 0 0 -.0274.0625l-.23242.69532a.35438544.35438544 0 0 0 -.0156.0684l-.0918.74218a.35438544.35438544 0 0 0 -.004.0215l-.0449.74218a.35438544.35438544 0 0 0 .002.0625l.0918.7793.0449.73047a.35438544.35438544 0 0 0 0 .002l.0254.38086-.43164.082a.35438544.35438544 0 0 0 -.0859.0273l-.69532.32422a.35438544.35438544 0 0 0 -.0996.0703l-.55664.55664a.35438544.35438544 0 0 0 -.0469.0586l-.41797.64844a.35438544.35438544 0 0 0 -.0352.0723l-.23242.64843a.35438544.35438544 0 0 0 -.0195.0937l-.0449.64844a.35438544.35438544 0 0 0 .01.11914l.14063.50977a.35438544.35438544 0 0 0 .10547.17187l.41797.3711a.35438544.35438544 0 0 0 .14843.0781l.14844.0371.006.004.0527.0508a.35438544.35438544 0 0 0 .25.10547h.50976a.35438544.35438544 0 0 0 .21289-.0723l.18555-.13867.18555-.13867a.35438544.35438544 0 0 0 .0703-.0703l.12304-.16602.12305-.12109a.35438544.35438544 0 0 0 .0312-.0371l.125-.16602.0957-.0957.10938-.0742a.35438544.35438544 0 0 0 .002 0l.0703-.0488.57031-.0801a.35438544.35438544 0 0 0 .0547-.0117l.59765-.18554.64649-.1836a.35438544.35438544 0 0 0 .0605-.0234l.55664-.2793a.35438544.35438544 0 0 0 .0312-.0176l.50977-.32422a.35438544.35438544 0 0 0 .0469-.0352l.4629-.41797a.35438544.35438544 0 0 0 .0371-.0391l.41797-.50977a.35438544.35438544 0 0 0 .0527-.0879l.15039-.36133.23437-.0234h.40039a.35438544.35438544 0 0 0 .0352-.002l.46289-.0449a.35438544.35438544 0 0 0 .0508-.01l.36719-.0918.41211-.0918a.35438544.35438544 0 0 0 .082-.0273l.36914-.18555a.35438544.35438544 0 0 0 .0488-.0293l.32422-.23242a.35438544.35438544 0 0 0 .0781-.0742l.27735-.37109a.35438544.35438544 0 0 0 .0391-.0664l.23242-.50977a.35438544.35438544 0 0 0 .0195-.0605l.14063-.55664a.35438544.35438544 0 0 0 .01-.0859v-.55664a.35438544.35438544 0 0 0 -.004-.0566l-.0937-.55664a.35438544.35438544 0 0 0 -.0156-.0625l-.18555-.50977a.35438544.35438544 0 0 0 -.043-.082l-.32422-.46484a.35438544.35438544 0 0 0 -.0547-.0605l-.41797-.37109a.35438544.35438544 0 0 0 -.0312-.0254l-.46484-.32422a.35438544.35438544 0 0 0 -.15235-.0605l-.29297-.043-.24804-.082a.35438544.35438544 0 0 0 -.11133-.0176h-.27734a.35438544.35438544 0 0 0 -.0586.004l-.27929.0469-.27735.0469-.27734.0469a.35438544.35438544 0 0 0 -.0547.0117l-.13086.043-.0117-.0527a.35438544.35438544 0 0 0 -.004-.0176l-.0469-.18555a.35438544.35438544 0 0 0 -.0254-.0723l-.0937-.18555-.0918-.18555a.35438544.35438544 0 0 0 -.0664-.0918l-.1211-.1211-.125-.16601a.35438544.35438544 0 0 0 -.0703-.0703l-.18555-.13867a.35438544.35438544 0 0 0 -.082-.0449l-.23047-.0937a.35438544.35438544 0 0 0 -.0625-.0176l-.23242-.0469a.35438544.35438544 0 0 0 -.0684-.006h-.55664a.35438544.35438544 0 0 0 -.0351 0zm.10351.70703h.45313l.16406.0332.1582.0645.10742.0801.10938.14453a.35438544.35438544 0 0 0 .0332.0371l.0977.0996.0684.13282.0742.15234.0351.13867.0371.18945v.1504a.35438544.35438544 0 0 0 .41211.3496l.2793-.0469a.35438544.35438544 0 0 0 .0527-.0137l.25196-.084.25195-.041.27734-.0469.25-.041h.18946l.2246.0742a.35438544.35438544 0 0 0 .0625.0137l.24024.0352.37695.26368.3711.33007.27343.39063.15821.43555.082.49414v.48437l-.1211.48242-.20117.44532-.22265.29492-.25782.18359-.30664.1543-.37304.084a.35438544.35438544 0 0 0 -.01.002l-.3457.0859-.41992.043h-.40039a.35438544.35438544 0 0 0 -.0352 0l-.46289.0469a.35438544.35438544 0 0 0 -.29102.21679l-.21289.50782-.36719.44921-.42187.37891-.46875.29883-.50977.25586-.61718.17578a.35438544.35438544 0 0 0 -.008.002l-.57617.17774-.62109.0879a.35438544.35438544 0 0 0 -.14649.0566l-.13867.0918-.13867.0937a.35438544.35438544 0 0 0 -.0547.043l-.13867.13868a.35438544.35438544 0 0 0 -.0332.0391l-.12305.16601-.12109.1211a.35438544.35438544 0 0 0 -.0332.0371l-.10937.14453-.14453.10937-.0899.0684h-.24609a.35438544.35438544 0 0 0 -.0801-.0566l-.0937-.0449a.35438544.35438544 0 0 0 -.0723-.0273l-.10157-.0254-.27148-.24219-.0957-.35156.0371-.53907.20312-.56445.375-.58398.48438-.48438.59765-.2793.69727-.13085a.35438544.35438544 0 0 0 .28906-.3711l-.0469-.69531-.0469-.74024a.35438544.35438544 0 0 0 -.002-.0195l-.0879-.75586.043-.69922.0879-.69531.20898-.6289.32227-.56446.54687-.46289.15234-.11328.14258-.0723.21875-.0859z"/><path d="m164.56113 44.853068a.35439.35439 0 0 0 -.35352.35546v2.3164a.35439.35439 0 0 0 .35352.35547h1.252a.35439.35439 0 0 0 .35352-.35547v-2.3164a.35439.35439 0 0 0 -.35352-.35546zm.35547.70898h.54101v1.6094h-.54101z"/><path d="m169.20113 44.853068a.35439.35439 0 0 0 -.35351.35546v2.3164a.35439.35439 0 0 0 .35351.35547h1.252a.35439.35439 0 0 0 .35351-.35547v-2.3164a.35439.35439 0 0 0 -.35351-.35546zm.35352.70898h.54297v1.6094h-.54297z"/><path d="m173.88113 44.853068a.35439.35439 0 0 0 -.35547.35546v2.3164a.35439.35439 0 0 0 .35547.35547h1.2031a.35439.35439 0 0 0 .35547-.35547v-2.3164a.35439.35439 0 0 0 -.35547-.35546zm.35352.70898h.49609v1.6094h-.49609z"/><path d="m178.51113 44.853068a.35439.35439 0 0 0 -.35352.35546v2.3164a.35439.35439 0 0 0 .35352.35547h1.2051a.35439.35439 0 0 0 .35547-.35547v-2.3164a.35439.35439 0 0 0 -.35547-.35546zm.35546.70898h.4961v1.6094h-.4961z"/><path d="m183.15113 44.853068a.35439.35439 0 0 0 -.35351.35546v2.3164a.35439.35439 0 0 0 .35351.35547h1.252a.35439.35439 0 0 0 .35352-.35547v-2.3164a.35439.35439 0 0 0 -.35352-.35546zm.35352.70898h.54297v1.6094h-.54297z"/><path d="m187.83113 44.853068a.35439.35439 0 0 0 -.35547.35546v2.3164a.35439.35439 0 0 0 .35547.35547h1.2051a.35439.35439 0 0 0 .35352-.35547v-2.3164a.35439.35439 0 0 0 -.35352-.35546zm.35352.70898h.49609v1.6094h-.49609z"/><path d="m164.56113 49.863068a.35439.35439 0 0 0 -.35352.35352v2.3652a.35439.35439 0 0 0 .35352.35352h1.252a.35439.35439 0 0 0 .35352-.35352v-2.3652a.35439.35439 0 0 0 -.35352-.35352zm.35547.70899h.54101v1.6543h-.54101z"/><path d="m169.20113 49.863068a.35439.35439 0 0 0 -.35351.35352v2.3652a.35439.35439 0 0 0 .35351.35352h1.252a.35439.35439 0 0 0 .35351-.35352v-2.3652a.35439.35439 0 0 0 -.35351-.35352zm.35352.70899h.54297v1.6543h-.54297z"/><path d="m173.88113 49.863068a.35439.35439 0 0 0 -.35547.35352v2.3652a.35439.35439 0 0 0 .35547.35352h1.2031a.35439.35439 0 0 0 .35547-.35352v-2.3652a.35439.35439 0 0 0 -.35547-.35352zm.35352.70899h.49609v1.6543h-.49609z"/><path d="m178.51113 49.863068a.35439.35439 0 0 0 -.35352.35352v2.3652a.35439.35439 0 0 0 .35352.35352h1.2051a.35439.35439 0 0 0 .35547-.35352v-2.3652a.35439.35439 0 0 0 -.35547-.35352zm.35546.70899h.4961v1.6543h-.4961z"/><path d="m183.15113 49.863068a.35439.35439 0 0 0 -.35351.35352v2.3652a.35439.35439 0 0 0 .35351.35352h1.252a.35439.35439 0 0 0 .35352-.35352v-2.3652a.35439.35439 0 0 0 -.35352-.35352zm.35352.70899h.54297v1.6543h-.54297z"/><path d="m187.83113 49.863068a.35439.35439 0 0 0 -.35547.35352v2.3652a.35439.35439 0 0 0 .35547.35352h1.2051a.35439.35439 0 0 0 .35352-.35352v-2.3652a.35439.35439 0 0 0 -.35352-.35352zm.35352.70899h.49609v1.6543h-.49609z"/><path d="m164.56113 54.773068a.35439.35439 0 0 0 -.35352.35547v2.3633a.35439.35439 0 0 0 .35352.35352h1.252a.35439.35439 0 0 0 .35352-.35352v-2.3633a.35439.35439 0 0 0 -.35352-.35547zm.35547.70899h.54101v1.6543h-.54101z"/><path d="m169.20113 54.773068a.35439.35439 0 0 0 -.35351.35547v2.3633a.35439.35439 0 0 0 .35351.35352h1.252a.35439.35439 0 0 0 .35351-.35352v-2.3633a.35439.35439 0 0 0 -.35351-.35547zm.35352.70899h.54297v1.6543h-.54297z"/><path d="m173.88113 54.773068a.35439.35439 0 0 0 -.35547.35547v2.3633a.35439.35439 0 0 0 .35547.35352h1.2031a.35439.35439 0 0 0 .35547-.35352v-2.3633a.35439.35439 0 0 0 -.35547-.35547zm.35352.70899h.49609v1.6543h-.49609z"/><path d="m178.51113 54.773068a.35439.35439 0 0 0 -.35352.35547v2.3633a.35439.35439 0 0 0 .35352.35352h1.2051a.35439.35439 0 0 0 .35547-.35352v-2.3633a.35439.35439 0 0 0 -.35547-.35547zm.35546.70899h.4961v1.6543h-.4961z"/><path d="m183.15113 54.773068a.35439.35439 0 0 0 -.35351.35547v2.3633a.35439.35439 0 0 0 .35351.35352h1.252a.35439.35439 0 0 0 .35352-.35352v-2.3633a.35439.35439 0 0 0 -.35352-.35547zm.35352.70899h.54297v1.6543h-.54297z"/><path d="m187.83113 54.773068a.35439.35439 0 0 0 -.35547.35547v2.3633a.35439.35439 0 0 0 .35547.35352h1.2051a.35439.35439 0 0 0 .35352-.35352v-2.3633a.35439.35439 0 0 0 -.35352-.35547zm.35352.70899h.49609v1.6543h-.49609z"/><path d="m230.75913 32.744068h.4027l-.0929-.4027-.1239-.3408-.0929-.3098-.155-.3408-.1549-.2788-.1859-.2788-.1858-.3098-.2478-.2478-.2479-.2479-.2479-.2168-.2477-.2169-.3099-.1859-.3098-.1549-.3097-.1549-.3099-.1239-.3407-.1239-.3408-.062v-.7435h-1.9517v.7435l-.3408.062-.3408.1239-.3408.1239-.3097.1549-.3099.1549-.2478.1859-.2788.2169-.2479.2168-.2788.2479-.2168.2478-.1859.3098-.2169.2788-.1548.2788-.155.3408-.0929.3098-.1239.3408-.0929.4027h.4027z" fill-rule="evenodd"/></g><g fill-rule="evenodd"><path d="m225.64753 29.305368.2788-.031v-.6816h.7125v.6816l.2788.031.2788.0619.3099.062.2788.0929.2788.124.2478.1239.2478.1239.2479.1858.2478.1859.1859.1549.2169.2169.1859.2169.1548.2168.1859.2479.124.2478.1238.2788.093.2788h-8.1167l.093-.2788.1548-.2788.124-.2478.1548-.2479.1859-.2168.1859-.2169.1859-.2169.2169-.1549.2478-.1859.2169-.1858.2788-.1239.2478-.1239.2788-.124.2788-.0929.2788-.062z" fill="#fff"/><g transform="translate(12.481131 .933068)"><g fill="#b6242a"><path d="m201.05 57.9h16.419v-.6196h-16.419z"/><path d="m206.16 59.2h22.089v-.6196h-22.089z"/><path d="m233.0243 46.7434v-.2169l-.0619-.8984-.1239-.8675-.2169-.8365-.2788-.8054-.4027-.7745-.4337-.7125-.4957-.7126-.5576-.6196-.6506-.5576-.6816-.4957-.7125-.4337-.7745-.3718-.8055-.3098-.8674-.2168-.8675-.124-.8984-.0619-.8054.031-.8055.1239-.7745.1858-.7435.2479-.7126.3098-.6815.3717-.6506.4338-.5886.4647-.5886.5267-.4957.5886-.4647.6196-.4027.6506-.3408.7124-.2788.7126-.2479.7745-.1549.7745h-.4647l-.0309-2.8811.062-2.1376.1548-1.4561.2169-.7435.0929-.1239.093-.0929.1239-.124.0929-.1549.1239-.1239.1549-.1549.155-.1549.1239-.1549.3408-.3408.3407-.3717.3408-.3718.3098-.4028.3098-.4027.2478-.4337.2169-.4337.1549-.4647h1.1772v-1.58h-11.9892v1.58h1.1463l.1239.3718.1859.3717.2169.3718.2168.3717.2788.3718.2479.3407.2788.3099.2788.3407.1859.2479.1859.2168.1858.2169.155.2478.1548.2169.1549.2168.155.1859.0929.2169.0929.4647.0619.9294.062 1.456-.0309 1.9518h-3.16l-.031-.3098-.0929-.3099-.093-.2477-.1239-.2479-.1858-.1859-.1859-.1239-.1859-.0929-.2168-.0311-.2169.0311-.1859.0929-.1859.1239-.1548.1859-.155.2479-.0929.2477-.0929.3099-.031.3098h-2.2925v3.5626h-4.3062v9.8516h17.8133v-3.6865l.2169.1859.2478.2168.2479.1859.2478.1859.2478.1858.2479.155.2788.1548.2479.1549v2.3855h-1.0224v.6196h2.5404v-.6196h-.8985v-2.0757l.2169.0929.1859.062.2168.093.2169.062.2169.0619.2168.0619.2168.062.217.031.2168.062.2478.0309.2169.031.2168.031h.2479l.2168.031.2479.0309h.5576l.1239-.0309h.2169l.1239-.031h.0929v1.3941h-1.0223v.6196h2.5094v-.6196h-.8674v-1.487l.2788-.0311.2788-.0929.2788-.0619.2788-.062.2789-.0929.2788-.093.2478-.1239.2788-.1239.2478-.093.2479-.1548.2478-.124.2169-.1548.2478-.155.2478-.1549.2169-.1548.2169-.1859v3.3458h-1.0223v.6196h2.5093v-.6196h-.8675v-3.9035l.5267-.5576.4338-.5887.4336-.6195.3718-.6816.2788-.7125.2479-.7126.1549-.7744.1239-.7746h1.2702v-.6195z"/></g><g fill="#fff"><path d="m224.1951 38.3478.8365.031.8364.1239.7746.2168.7744.2788.7126.3408.6506.4028.6505.4957.5886.5266.5267.5576.4647.6506.4027.6506.3718.7125.2478.7745.2169.7746.1239.8054.031.8365v.2169h-16.3883v-.124l-.031-.031v-.0619l.062-.8365.1239-.8054.1859-.7746.2788-.7745.3408-.7125.4336-.6506.4647-.6506.5267-.5576.5886-.5266.6196-.4957.6816-.4028.7125-.3408.7745-.2788.7745-.2168.8055-.1239z"/><path d="m215.3969 46.7434h-10.2233v-2.9741h7.0323l-.0619 1.487h-4.523v.6196h7.0324l.3407.031v-.031h.4338l-.031.1549v.6506z"/><path d="m217.4416 52.1648v3.7796h-16.5742v-2.1687h14.0028v-.6195h-14.0028v-5.8242h3.9963v.0309h10.5642l.0929.5887.0929.5576.1239.5266.1859.5267.2169.5267.2478.4956.2788.4957.3099.4337h-10.0065v.6506h1.6419l.7745-.0309h7.5901l.3407.0309z"/><path d="m211.2456 36.2101-.2788-.3407-.2788-.3408-.2789-.3717-.2478-.3718-.2168-.3408-.1859-.3407-.1549-.4028-.093-.3408-.0309-.2478h-1.0533v-.3408h10.7499v.3408h-1.0533l-.062.2478-.1239.4337-.1859.4338-.2478.4027-.2788.4028-.3098.4027-.3408.3717-.3098.3718-.3408.3408-.1548.1548-.155.155-.1549.1549-.1239.1548-.1239.155-.1239.1239-.093.1239-.0929.1549-.1859.3098-.1239.4647-.0929.6506-.062.8365-.0619 1.0223-.031 1.2082v1.4251l.031 1.6419-1.58-.031.0619-2.0756v-2.1686l-.0619-1.8278-.1859-1.0844-.1239-.2168-.1549-.2479-.1549-.2168-.1859-.2479-.1859-.2168-.1549-.2479-.1859-.2168z"/><path d="m225.7132 54.5812v-6.3818h-.6197v6.4748h-.2168l-.0929.0309h-.124l-.1239.0311h-.5576l-.2479-.0311-.2478-.0309h-.2169l-.2168-.031-.2479-.062-.2168-.0309-.2168-.031-.217-.0619-.2168-.062-.2168-.062-.2169-.0619-.2169-.093-.2168-.062-.1859-.0929-.2169-.0929v-5.7313h-.6195v5.3905l-.3718-.2478-.4028-.2788-.3717-.3099-.3408-.3098-.3408-.3408-.3097-.3407-.3099-.3718-.2788-.4027-.2478-.4028-.2169-.4027-.1859-.4337-.1858-.4647-.1549-.4647-.0929-.4957-.124-.4647-.0619-.4957h16.3263l-.093.6196-.1548.6197-.1859.6195-.2169.5887-.2478.5266-.3098.5576-.3718.4957-.3718.4957v-3.6866h-.6195v4.2442l-.2169.1859-.2169.1549-.2168.1549-.2478.1549-.2169.1859-.2478.1549-.2479.1549-.2478.1239-.2788.1549-.2479.1549-.2788.0929-.2788.1239-.2788.093-.2788.0929-.3098.093z"/></g><g fill="#b6242a"><path d="m212.86 49.81h1.3632v-1.3632h-1.3632z"/><path d="m210.29 49.81h1.363v-1.3632h-1.363z"/><path d="m207.71 49.81h1.3321v-1.3632h-1.3321z"/><path d="m205.11 49.81h1.3631v-1.3632h-1.3631z"/><path d="m202.54 49.81h1.3321v-1.3632h-1.3321z"/><path d="m282.5833 45.2988-.1269-.2222-.1586-.2221-.1587-.1903-.1586-.1904-.1904-.1587-.1904-.1904-.1904-.1586-.1904-.1587-.2221-.1269-.1904-.127-.2221-.0952-.2221-.1269-.2539-.0952-.2221-.0952-.2538-.0634-.2539-.0635-.2221-.0634-.2539-.0317h-.2538l-.2222-.0318h-.4759l-.2221.0318-.2539.0317-.2221.0317-.2221.0635-.2221.0317-.2221.0952-.2221.0951-.2222.0952-.1904.0952-.2221.0952-.0635-.1269-.0634-.0952-.0635-.1269-.0635-.0952-.1586-.2221-.1269-.1904-.1586-.1904-.1587-.1904-.1904-.1904-.1904-.1586-.1904-.1904-.1904-.127-.2221-.1269-.2221-.1269-.2221-.1586-.2221-.0635-.2539-.1269-.2221-.0635-.2539-.0952-.2538-.0634-.5077-.0952-.5077-.0318h-.5077l-.5077.0952-.476.0952-.4759.1587-.4443.1904-.4442.2538-.3808.2856-.3807.3173-.3491.3808-.3173.3808-.2539.4124-.222.4443-.1904.5077-.1587.476-.0952.5077-.0317.5077v.5077l.0634.5077.127.476.1586.476.1904.4759.2538.4442.1269.1904.1587.2222.1587.1904.1904.1904.1586.1903.1904.1587.1904.1586.1904.1587.2221.1269.1904.1269.2221.127.2221.0952.2539.1269.2221.0635.2538.0952.2539.0634.2221.0318.2539.0317.2221.0317.2538.0318h.2221l.2221-.0318.2539-.0317h.2221l.2539-.0317.2221-.0635.2221-.0635.2221-.0634.2221-.0635.1904-.0952.2222-.1269.2221-.0952.0635.0952.0634.1269.0635.0952.0634.1269.1586.1904.127.2221.1586.1904.1587.1904.1904.1586.1904.1587.1904.1904.2221.1269.1903.127.2222.1586.2221.0952.2221.127.2539.0952.2221.0634.2538.0952.2539.0634.2538.0318.2539.0634h.2539l.2221.0317h.2855l.2221-.0317h.2539l.2539-.0634.2538-.0318.2221-.0634.2538-.0635.2222-.0951.2538-.0952.2222-.0952.2221-.127.2221-.1269.4125-.2856.3808-.3173.349-.3808.3173-.3807.2856-.4443.2221-.4443.1587-.4759.1586-.476.0952-.5077.0318-.5077v-.5077l-.0952-.5077-.0952-.476-.1587-.4759-.1904-.4443z"/></g></g><path d="m294.52503 46.580868-.2538-.3808-.2856-.3173-.3173-.3173-.349-.2855-.3808-.2222-.3808-.1904-.4125-.1586-.4125-.127-.2221-.0317-.2222-.0317-.2221-.0318h-.6663l-.2221.0318h-.2222l-.2221.0634-.1904.0635-.2221.0635-.2221.0634-.1904.0635-.1904.0952-.1904.1269-.1904.0952-.1269.0952-.0952.0635-.1269.0952-.0952.0635-.0952-.2856-.0952-.2539-.1586-.2856-.1587-.2539-.2538-.3807-.2856-.3173-.3174-.3173-.3172-.2539-.3808-.2539-.3808-.1904-.4125-.1586-.4442-.1269-.2221-.0318-.2222-.0317-.2221-.0317h-.6346l-.2538.0317-.1904.0317-.2222.0318-.1904.0634-.2538.0635-.1904.0634-.1903.0952-.1904.0952-.2222.0952-.1904.127-.349.2538-.349.2856-.2856.3174-.2856.3489-.2221.3491-.1904.4125-.1587.4126-.1269.4124-.0635.4443-.0317.4442v.4443l.0635.4124.0951.4443.127.4125.1586.4126.2222.3807.2538.349.2856.3491.3173.3173.349.2539.3808.2221.3808.1903.4125.1904.4125.0952.2856.0635.2539.0317.2538.0318h.2538l.2856-.0318.2221-.0317.2539-.0317.2539-.0635.2538-.0317.2221-.0952.2221-.0952.2221-.0952.2222-.1269.2221-.1269.1904-.1269.2221-.1587.0951.2856.0952.2855.1587.2539.1587.2538.2538.3808.2856.3491.3173.2855.3173.2539.3808.2538.3808.1904.4125.1587.4442.1269.4443.0952.4759.0318.4125-.0318.4443-.0634.4442-.0952.4125-.127.3808-.1904.3808-.2221.349-.2221.3173-.2856.3173-.3173.2856-.3173.2221-.3808.2222-.4125.1269-.3807.1586-.4443.0634-.476.0318-.4125v-.4442l-.0635-.4443-.0952-.4125-.1269-.4442-.1903-.3808z" fill="#fff"/><path d="m291.76443 45.787568-4.4741 1.2059v-1.1742l-4.5375 1.1742v-1.079l-5.077 1.1107-.3173-7.0127h-2.6654l-.4443 7.1079h-.5394l-.3173-7.1079h-1.0472v-.2221l.0318-.3173.0634-.2856.0952-.3173.127-.3173.1269-.2856.1904-.2856.1904-.2539.1269-.1269.1586-.1269.1587-.0952.1586-.0952.1904-.0634.1904-.0317.1904-.0318h.1904l.2538.0318.2539.0317.2221.0952.1904.0951.1587.1269.1586.1587.1904.1269.1587.1904.1903.1587.1904.1904.2221.1904.2539.1587.2856.1269.2856.1269.349.0635.4125.0317.3808-.0317.349-.0635.2856-.1269.2538-.1269.2222-.127.1904-.1904.1904-.1586.1586-.1904.1904-.1904.1586-.1587.1587-.1587.1904-.1269.1904-.0951.2538-.0952.2856-.0317.3173-.0318.3173.0318.2856.0317.2221.0952.2222.0951.1904.1269.1903.1587.1586.1587.1587.1904.1904.1904.1904.1586.1904.1904.2539.127.2538.1269.3173.1269.3173.0635.3808.0317.3808-.0317.349-.0635.3173-.1269.2856-.1269.2221-.1587.2221-.1904.1904-.1904.1904-.1587.1586-.1904.1587-.1269.1587-.1587.1904-.1269.1904-.0951.1903-.0952.2538-.0317.2539-.0318v-.6346l-.349.0317-.349.0635-.2856.0952-.2222.1586-.2221.127-.2221.1904-.1904.1903-.1903.1586-.1587.1587-.1587.1587-.1586.1586-.1904.127-.2222.1269-.2221.0635-.2855.0634h-.5712l-.2539-.0634-.2221-.0635-.1904-.0952-.1903-.1269-.1587-.127-.1586-.1586-.1587-.1587-.1904-.1904-.1904-.1903-.2221-.1904-.2538-.1587-.2539-.1269-.3173-.1269-.3808-.0635-.4125-.0317-.4125.0317-.3808.0635-.3173.1269-.2539.1269-.2538.1587-.2221.1904-.1904.1903-.1586.1904-.1587.1587-.1587.1586-.1586.127-.1587.1269-.2221.0952-.1903.0635-.2856.0634h-.5712l-.2539-.0634-.2538-.0635-.1904-.1269-.1904-.127-.1904-.1586-.1586-.1587-.1587-.1587-.1904-.1586-.1903-.1903-.2221-.1904-.2222-.127-.2538-.1586-.2856-.0952-.3491-.0635-.349-.0317-.2538.0317h-.2539l-.2539.0952-.2538.0635-.2221.0952-.1904.1269-.2221.1587-.1904.1903-.2539.3173-.2221.3491-.1587.349-.1269.3808-.0951.3808-.0952.349-.0317.3491-.0318.2538h-.9837l-.4442 7.1079h-2.3481l.0317 9.0434h23.8301z" fill="#b6242a"/><path d="m285.89423 55.529168v-3.9347h-7.4569v-2.4751h-8.2183v.6029h7.552v2.5068h7.4885v3.3001h-16.6588l-.0317-7.7742h2.2846l.4442-7.0761h1.4597l.349 7.0761h1.7135l.4442-7.0761h1.4914l.3173 7.1713 5.0452-1.1106v1.1106l4.5058-1.2058v1.2058l4.4741-1.2058.0318 8.8848z" fill="#fff"/><path d="m266.95073 57.591668v-3.1731l.2221-.0318.2539-.0634.222-.0635.2221-.0635.1904-.1269.2222-.1269.1586-.1269.1904-.1586.1904-.2222.1587-.1904.1269-.2221.1269-.2539.0634-.2538.0635-.2538.0317-.2539.0318-.2856-.0318-.2538-.0317-.2539-.0635-.2539-.0634-.2538-.1269-.2538-.1269-.2221-.1587-.1904-.1904-.2222-.1904-.1586-.2221-.1904-.2221-.127-.2222-.0952-.2855-.0952-.2221-.0634-.2856-.0317-.2539-.0318-.5394.0635-.5394.1586-.4443.2539-.4125.3173-.3172.4126-.2539.4442-.1587.5077-.0634.5394.0317.2856.0317.2539.0635.2538.0635.2538.1269.2539.1269.2221.1587.1904.1903.2222.1904.1269.1587.1269.1904.1269.1904.0952.1904.0952.2221.0952.2221.0317.2221.0635v3.1731h-2.475v.6347h16.6271v-.6347z" fill="#b6242a"/><path d="m264.66603 51.721368v-.1904l.0317-.1904.0635-.2221.0634-.1587.0635-.1904.1269-.1903.127-.1586.1269-.1587.1587-.1269.1586-.0952.1587-.127.1904-.0952.1903-.0317.1904-.0635.1904-.0317h.4125l.1904.0317.2222.0635.1586.0317.1903.0952.1904.127.1587.0952.1587.1269.1269.1587.1269.1586.0952.1903.0952.1904.0318.1587.0634.2221.0318.1904v.1904l-.0318.4125-.1269.3808-.1904.3808-.2221.2856-.3174.2538-.349.1587-.3807.1587-.4126.0317-.2221-.0317h-.1904l-.1904-.0635-.1903-.0635-.1904-.0634-.1587-.127-.1586-.0952-.1587-.1269-.1269-.1587-.127-.1586-.1269-.1904-.0635-.1904-.0634-.1587-.0635-.2221-.0317-.1903z" fill="#fff"/><path d="m297.92023 51.499268v-.3808l-.0634-.3808-.0952-.349-.0952-.349-.1904-.3174-.1904-.2856-.2221-.3173-.2221-.2855-.2856-.2221-.3173-.2222-.2856-.1904-.349-.1586-.3174-.0952-.349-.0952-.349-.0635-.3808-.0317-.3808.0317-.3807.0635-.3491.0952-.349.1269-.3174.1269-.3172.1904-.2856.2222-.2539.2221-.2538.2855-.2222.2856-.1904.2856-.1269.3491-.1269.3173-.0952.3807-.0634.3491-.0317.4125.0317.3491.0634.349.0952.3807.0952.3174.1586.3173.1904.3173.2222.2856.2221.2855.2856.2222.2538.2221.3173.1904.2856.1269.3491.127.3173.0952.349.0634.349.0318v3.2048h.5712v-3.2366l.3173-.0634.3173-.0635.2856-.0952.2856-.0952.2539-.1587.2538-.1586.2855-.2222.2222-.1904.2221-.2855.2221-.2856.1904-.3173.1904-.3173.0952-.3174.0952-.3807.0634-.349z" fill="#b6242a"/><path d="m291.12983 51.499268v-.3173l.0634-.2856.0635-.3173.0952-.2538.1269-.2856.1587-.2539.1904-.2539.1904-.2221.2221-.1904.2538-.1903.2539-.1587.2856-.1269.2856-.0952.2855-.0635.2856-.0634h.6029l.3173.0634.2856.0635.2855.0952.2539.1269.2539.1587.2538.1903.2221.1904.1904.2221.1904.2539.1586.2539.127.2856.0952.2538.0634.3173.0635.2856v.6346l-.0635.2856-.0634.2856-.0952.2855-.1587.2539-.1269.2856-.1904.2221-.1904.2222-.2221.1586-.2221.1904-.2539.1586-.2856.1269-.2538.0952-.3173.0635-.2856.0635h-.6346l-.2856-.0635-.2855-.0635-.2856-.0952-.2856-.1269-.2539-.1586-.2538-.1587-.2221-.1903-.1904-.2222-.1904-.2538-.1587-.2539-.1269-.2539-.0952-.2855-.0635-.3173-.0634-.2856z" fill="#fff"/><path d="m289.95573 57.084068.2539-.0318.2221-.0317.2221-.0952.2221-.0952.1904-.0952.2221-.1269.1587-.127.1904-.1904.1904-.1904.1587-.1904.1269-.2221.1269-.2538.0634-.2538.0635-.2539.0317-.2539.0317-.2856-.0317-.2538-.0317-.2538-.0635-.2856-.0634-.2221-.1269-.2222-.1269-.2538-.1587-.1904-.1904-.2222-.2221-.1903-.1904-.1269-.2222-.1269-.2538-.127-.2538-.0952-.2539-.0634-.2538-.0318h-.2856l-.5394.0318-.5077.1586-.4443.2539-.4125.3172-.3173.4126-.2856.4442-.1269.5077-.0635.5394.0318.2856.0317.2539.0635.2539.0634.2538.127.2538.1269.2221.1587.1904.1903.1904.1904.1587.1586.1587.1904.0952.1904.1269.1904.0635.2222.0952.1903.0317.2221.0317v2.4433h-14.1838v.6347h16.8493v-.6347h-2.0626z" fill="#b6242a"/><path d="m287.67113 54.386768v-.1904l.0317-.1903.0635-.2221.0634-.1904.0635-.1587.1269-.1586.0952-.1587.1269-.1587.1587-.1269.1587-.1269.1904-.0952.1904-.0952.1586-.0635.2221-.0634h.1904l.1904-.0318.2221.0318h.1904l.2221.0634.1587.0635.1903.0952.1904.0952.1269.1269.1587.1269.1269.1587.127.1587.1269.1586.0635.1587.0952.1904.0317.2221.0317.1903v.1904l-.0317.4126-.1269.3808-.1904.349-.2539.3173-.2856.2538-.3807.1904-.3808.127-.4125.0317h-.1904l-.1904-.0317-.2221-.0635-.1586-.0635-.1904-.0634-.1904-.127-.1587-.1269-.1587-.1269-.1269-.1587-.0952-.1586-.1269-.1586-.0635-.1904-.0634-.1904-.0635-.1904-.0317-.1904z" fill="#fff"/></g><g fill="#b6242a"><g fill-rule="evenodd" transform="translate(12.481131 .933068)"><path d="m265.35 53.58h1.1741v-1.1423h-1.1741z"/><path d="m262.78 53.58h1.1423v-1.1423h-1.1423z"/><path d="m260.18 53.58h1.174v-1.1423h-1.174z"/><path d="m257.77 53.58h1.1423v-1.1423h-1.1423z"/><path d="m270.53 53.58h1.1423v-1.1423h-1.1423z"/><path d="m267.92 53.58h1.1423v-1.1423h-1.1423z"/><path d="m262.78 51.01h1.1423v-1.1742h-1.1423z"/><path d="m260.18 51.01h1.174v-1.1742h-1.174z"/><path d="m257.74 51.01h1.174v-1.1742h-1.174z"/><path d="m270.43 49.49h1.1741v-1.1742h-1.1741z"/><path d="m267.83 49.49h1.174v-1.1742h-1.174z"/><path d="m273.22 49.49h1.174v-1.1742h-1.174z"/><path d="m275.98 49.49h1.174v-1.1742h-1.174z"/></g><path d="m372.59113 39.693068-1.4961 11.977h-1.0508l-.0898.38476-4.0176-.0586v8.3359h17.158v.12109h17.496v-7.3457h-1.918v-2.2774l-.0293.0293v-8.2305l-4.4609 4.6719v-4.627l-4.2832 4.6094v-4.4629l-4.2578 4.377-.0293-4.334-4.6973 4.7598-.33985-7.9297h-3.5723l-.50391 9.5039-.35547-9.5039zm.5625.63671h2.377l.35938 9.6113h1.209l.50781-9.6113h2.3574l.37696 8.7812 4.6445-4.7031.0312 4.3477 4.2461-4.3672v4.5195l4.2812-4.6113v4.5957l4.4609-4.6719v7.4394h.0312v2.084h1.916v6.0703h-16.221v-.11914h-17.156v-7.0527l3.8848.0586.0918-.39258h1.1055zm25.029 11.33h.46094v.10156l-.0625.0625z"/><path d="m379.50113 54.183068v1.9258h1.9258v-1.9258zm.63672.63672h.65039v.65039h-.65039z"/><path d="m376.87113 54.183068v1.9258h1.9258v-1.9258zm.63672.63672h.65039v.65039h-.65039z"/><path d="m374.17113 54.183068v1.9258h1.9551v-1.9258zm.63867.63672h.67968v.65039h-.67968z"/><path d="m376.78113 56.993068v1.9258h1.9551v-1.9258zm.63672.63671h.67969v.6504h-.67969z"/><path d="m374.05113 56.993068v1.9258h1.9238v-1.9258zm.63672.63671h.65039v.6504h-.65039z"/><path d="m371.29113 56.993068v1.9258h1.8965v-1.9258zm.63867.63671h.61914v.6504h-.61914z"/><path d="m368.60113 56.993068v1.9258h1.9258v-1.9258zm.63867.63671h.6504v.6504h-.6504z"/><path d="m393.00113 49.933068v1.9258h1.9258v-1.9258zm.63867.63672h.64844v.65039h-.64844z"/><path d="m390.13113 49.933068v1.9258h1.9258v-1.9258zm.63867.63672h.65039v.65039h-.65039z"/><path d="m387.26113 49.933068v1.9258h1.9238v-1.9258zm.63672.63672h.65039v.65039h-.65039z"/><path d="m384.41113 49.933068v1.9258h1.9258v-1.9258zm.63867.63672h.64844v.65039h-.64844z"/><path d="m384.38113 55.143068v4.2012h1.9258v-4.2012zm.63672.63868h.65039v2.9258h-.65039z"/><path d="m386.95113 55.143068v4.2012h1.9258v-4.2012zm.63867.63868h.65039v2.9258h-.65039z"/><path d="m389.53113 55.143068v4.2012h1.9258v-4.2012zm.63672.63868h.65039v2.9258h-.65039z"/><path d="m392.11113 55.143068v4.2012h1.9258v-4.2012zm.63867.63868h.6504v2.9258h-.6504z"/><path d="m394.71113 55.143068v4.2012h1.8965v-4.2012zm.63867.63868h.61914v2.9258h-.61914z"/><path d="m397.29113 55.143068v4.2012h1.9238v-4.2012zm.63672.63868h.65039v2.9258h-.65039z"/><path d="m369.53113 51.663068v.0293h-3.5938v3.873h1.6856v-2.1856h11.139v-1.6875h-7.0664v-.0293zm.63672.63867h.89062v.0293h7.0664v.41015h-11.141v2.1856h-.40821v-2.5957h3.5918z"/><path d="m400.27113 52.953068-18.195.0312v7.3438h1.6562v-5.7793h16.859v-1.5957zm-.31836.63867v.32031h-16.857v5.7793h-.38086v-6.0703z"/><path d="m393.47949 33.213768-.75391.56446-.11914.11914-.10547.0801-.14453.11328-.16797.11328-.16992.11328-.19336.10937-.17773.0898-.17969.10351-.21484.0527-.26368.0996-.20898.0898-.19726.0742-.22266.0273-.24219.0606-.16992.0234h-.6543l-.29492-.0801-.24609-.0547-.23242-.10351-.22852-.11329-.24414-.13671-.23438-.17579-.16406-.0977-.15039-.0898-.13086-.0801-.17773-.14063-.19922-.0684-.13086-.0762-.21094-.10547-.20703-.0703-.21094-.0606-.18359-.0605-.26758-.0664-.24805-.0352h-.82031l-.30273.0332-.57227.12695-.48242.16016-.43945.20312-.33594.26953-.29102.25781-.25781.29102-.21875.2793-.18945.2539-.15039.24219-.13672.18945-.1543.17969-.17969.15625-.18359.13086-.23633.13086-.24804.0996-.3125.0508-.34961.0273-.33204-.0273-.29687-.0273-.25391-.0762-.26757-.10742-.24219-.13281-.25781-.17383-.26954-.17968-.26562-.17579-.20508-.14648-.23047-.16406-.27734-.13867-.29297-.11133-.35742-.0352h-.40625l-.51563.10352-.63476.28125-.49024.56054-.33203.62891-.19336.65039-.0957.63672-.0312.5332v.37696.11132h.63672v-.008l.0351-.10351.13868-.25.13671-.2754.21875-.27343.21094-.26367.23438-.16211.29492-.12305.26758-.0488h.25l.20117.0254.19531.0488.16992.0723.18946.10742.23242.14648.22461.14063.15234.12109.16797.0996.15039.0898.14258.0859.20898.14063.1875.0625.1543.0918.22266.0645.19922.0996.25976.0371.18945.0274.23047.0664h.83399l.26562-.0664.52539-.0937.46289-.16406.39649-.19922.34179-.24024.26758-.26562.22266-.25586.2168-.27735.18945-.2539.14453-.23047.16406-.19141.16992-.19922.18555-.18554.19336-.14453.22266-.0996.32812-.10938.37891-.0801.38672-.0273h.32031l.31445.0508.25977.0781.23828.10742.25781.14258.25.13867.23438.17578.14648.0879.14844.11914.16992.10156.14844.0899.17187.10351.16211.0645.1875.0937.20117.0664.17969.0606.20703.0684.23828.0332.21094.0312.26367.0332h.50391l.28906-.0644.53516-.0957.45898-.16211.4375-.20313.33594-.26953.28906-.25586.25977-.29297.2168-.27929.21679-.28907.082-.28515.0625-.4043.0899-.48047zm-8.73242.85547h.73828l.17187.0254.21094.0527.17578.0566.20899.0605.15234.0508.14844.0742.16797.10157.16015.0527.1211.0977.16797.10156.15039.0898.13476.0801.24414.1836.29492.16406.25196.125.30468.13672.29493.0644.36328.0996h.7832l.24805-.0352.23633-.0605.25781-.0312.28125-.10547.21094-.0898.21484-.0801.26563-.0664.24023-.13867.17969-.0898.22656-.1289.1875-.125.0645-.043-.0156.082-.0586.375-.0371.13281-.14257.19141-.20118.25781-.2207.24805-.25.22265-.26172.20899-.34179.1582-.38086.13477-.48828.0879h-.008l-.23437.0527h-.39453l-.2168-.0273-.20703-.0293-.18164-.0254-.15235-.0508-.17968-.0606-.15821-.0527-.17187-.0859-.13672-.0547-.12891-.0762-.14843-.0898-.13282-.0781-.14843-.12109-.1543-.0918-.24414-.18359-.28906-.16016-.28125-.15625-.30079-.13281-.33789-.10156-.40625-.0684h-.39648l-.45313.0332-.45898.0977-.39062.13086-.31641.14062-.28516.21485-.23437.23437-.1875.21875-.19532.22656-.15624.24805-.16993.22656-.20117.26172-.19726.22461-.2129.21094-.25585.17969-.32227.1621-.375.13282-.49414.0879-.21289.0527h-.66406l-.1875-.0527-.23047-.0332-.15821-.0234-.16015-.0801-.19727-.0566-.14453-.0859-.17187-.0566-.15039-.10156-.15625-.0937-.15039-.0899-.13086-.0781-.14844-.11719-.25391-.16015-.24609-.15235-.23047-.13281-.25-.10742-.2832-.0703-.27735-.0352h-.34961l-.39062.0723-.42383.17579-.36523.25585-.20508.25586.0195-.13086.16406-.54687.26758-.50977.34766-.39648.44336-.19727.38281-.0762h.3125l.24219.0234.18554.0684.20117.10156.18946.13477.21484.15429.27344.18164.26953.17969.2793.1875.29882.16602.33204.13086.34375.10351.36132.0332.38672.0332.42969-.0332.40625-.0684.34961-.14063.30273-.16797.23633-.16797.23828-.20507.20508-.23829.16406-.23046.14844-.23633.16992-.22656.20118-.25782.2207-.24804.24804-.22071.26368-.21093.33789-.15625.41601-.13868.50586-.11328z"/><g fill-rule="evenodd" transform="translate(12.481131 .933068)"><path d="m306.48 33.01-.58007 14.254h-3.3047l1.041 1.957v6.7305h32.975v-8.1055l-2.2637-2.418-1.498 1.5v-3.6719l.94726-1.8047h-6.8398l-1.0215-1.5586v-2.998h1.8047l-3.7617-2.6309-3.4258 2.6309h1.7441v2.998l-.96875 1.5586h-4.5391v5.8125h-2.4473l-.73242-14.254h-2.6016l-.58008 14.254h-.58203l-.73438-14.254zm.64258.61133h1.377l.0312.64258h-.64258v.67188h.67187l.64258 12.328h-2.6602zm4.5274 0h1.377l.0312.58008h-.73438v.64258h.76368l.61328 12.42h-2.6309zm12.328 1.4375 1.7441 1.1934h-3.2734zm-1.041 1.8652h2.3555v2.7539h-2.3555zm-.1211 3.3965h1.0391v1.1309h-1.7598zm1.6816 0h.94922l.72461 1.1309h-1.6738zm-7.0664 1.7734h15.295l-.51953 1.0098v3.7637l-1.6211-1.4395-1.8965 1.6836-1.5606-1.5293-1.8965 1.8965-1.7441-1.8965-2.5078 2.7832v6.9434h-3.5488zm1.2539 1.0703v.64258h1.5606v-.64258zm2.5098 0v.64258h1.5586v-.64258zm2.5078 0v.64258h1.5606v-.64258zm2.5391 0v.64258h1.5293v-.64258zm2.5078 0v.64258h1.5293v-.64258zm1.8359 3.1211 2.0488 1.8047 1.7129-1.7441 1.6211 1.7441v3.916h-7.0039v3.3027h-7.373v-6.6992l1.8965-2.0801 1.7441 1.8672 1.8965-1.9277 1.5293 1.5293zm-26.92 1.6211h13.123v1.5293h-1.4375v.64257h1.4375v1.1309h-1.4375v.64258h1.4375v1.1934h-1.4375v.61133h1.4375v1.6523h-12.51v-6.2695zm1.6836 1.5293v.64257h1.5293v-.64257zm2.5078 0v.64257h1.5293v-.64257zm2.5078 0v.64257h1.5312v-.64257zm2.5098 0v.64257h1.5293v-.64257zm-7.5254 1.7734v.64258h1.5293v-.64258zm2.5078 0v.64258h1.5293v-.64258zm2.5078 0v.64258h1.5312v-.64258zm2.5098 0v.64258h1.5293v-.64258zm16.732 1.4082h1.9258v2.6914h-1.9258zm2.5684 0h1.6523v2.6914h-1.6523zm2.3262 0h1.4668v2.6914h-1.4668zm-29.152.42773v.61133h1.5293v-.61133zm2.5078 0v.61133h1.5293v-.61133zm2.5078 0v.61133h1.5312v-.61133zm2.5098 0v.61133h1.5293v-.61133zm-4.4356 3.916v.61132h26.613v-.61132zm-3.4258 1.5898v.64258h19.025v-.64258z"/><g stroke="#b6242a" stroke-linejoin="round"><path d="m205.28 68.286 8.7118-4.7016-3.5905 9.2254c-.52914-2.4479-2.6032-4.2686-5.1212-4.5238z" stroke-width=".53149"/><path d="m160.82 73.158-.28241-9.8955 6.6258 7.3552c-2.4244-.62804-4.9833.40592-6.3434 2.5403z" stroke-width="1.5" transform="translate(-3.128 .82316)"/><g stroke-width=".53149"><path d="m275.26 72.828-3.5905-9.2254 8.7118 4.7016c-2.4945.22298-4.5572 2.0565-5.1212 4.5238z"/><path d="m363.3 68.286 8.7118-4.7016-3.5905 9.2254c-.52914-2.4479-2.6032-4.2686-5.1212-4.5238z"/><path d="m220.68 73.098.50314-9.8867 6.0217 7.8574c-2.367-.81831-4.9998.0095-6.5249 2.0293z"/></g></g></g></g><g stroke="#b6242a"><g fill="none" stroke-linecap="round" stroke-linejoin="round"><path d="m180.17113 66.137068c10.821 13.613 29.233 14.272 41.25 4.4451" stroke-width="5.0002"/><path d="m274.73113 66.137068c-11.467 27.981-94.647 36.617002-103.18 2.7987" stroke-width="1.5"/><path d="m327.55113 65.972068c-13.455 15.095-27.111 16.958-40.445 1.8626" stroke-width="2.3001"/><path d="m336.54113 65.972068c13.455 15.095 31.37 17.423 44.704 2.3282" stroke-width="3.0001"/><path d="m332.05113 65.972068c-14.257 28.623-88.215 31.175-97.117 2.5518"/></g><path d="m20.537871 17.373018v12.65q0 1.5812 1.5812 1.5812h14.277q1.5812 0 1.5812-1.5812v-12.65q0-1.5812-1.5812-1.5812h-14.277q-1.5812 0-1.5812 1.5812z" fill="#f36716" fill-rule="evenodd" stroke-width=".9921"/></g><text fill="#b6242a" x="23.959812" y="27.292578"><tspan fill="#b6242a" font-family="Arial" font-size="10">L2</tspan></text><path d="m5.8373707 71.363018v12.65q0 1.5811 1.5812 1.5811h14.2770003q1.5812 0 1.5812-1.5811v-12.65q0-1.5812-1.5812-1.5812h-14.2770003q-1.5812 0-1.5812 1.5812z" fill="#f36716" fill-rule="evenodd" stroke="#b6242a" stroke-width=".9921"/><text fill="#b6242a" x="9.918319" y="81.278358"><tspan fill="#b6242a" font-family="Arial" font-size="10">L1</tspan></text><text x="140.55902" y="108.35222"><tspan font-family="DejaVu Sans" font-size="10">the 5 workshops which need to be assigned to the 5</tspan></text><text font-size="12" x="140.03656" y="120.83138"><tspan font-family="DejaVu Sans" font-size="10">locations and the different material flows between them</tspan></text><text x="165.30704" y="129.71478"><tspan x="165.30704" y="139.1526"/></text></svg>