<svg clip-rule="evenodd" fill-rule="evenodd" height="235pt" image-rendering="optimizeQuality" shape-rendering="geometricPrecision" text-rendering="geometricPrecision" viewBox="0 0 288 235" width="288pt" xmlns="http://www.w3.org/2000/svg"><g stroke-linecap="round" stroke-linejoin="round"><g fill="none" stroke="#b20000" stroke-width="1.64"><path d="m179.1 216.35c-.54557-.87359-.73744-4.229-.2838-4.963.25944-.41978-1.9901-3.0194-2.6128-3.0194-.24271 0-.73054.43012-1.0841.95581l-.64276.95581-1.0294-.95581c-.56619-.52569-1.2561-.95581-1.5331-.95581s-.50363-.19116-.50363-.4248c0-.73345-1.236-.46316-2.1748.47559-.75412.75412-1.2152.85724-2.838.6348-1.0657-.14607-2.9022-.81051-4.081-1.4765-2.0762-1.173-2.1605-1.2956-2.6899-3.9113-.30061-1.4852-.69415-2.848-.87454-3.0284-.1804-.18039-1.3434-.52055-2.5844-.7559-1.2871-.24409-2.8002-.88549-3.5223-1.4931-.69627-.58586-1.6002-1.0652-2.0087-1.0652s-1.8727.87743-3.2538 1.9499c-2.3452 1.8211-2.6236 1.9284-4.2161 1.6245-2.0099-.38356-2.7239-.356-9.0842.35065l-4.8304.53667-.76788 1.911c-.50054 1.2456.20652 2.6542-.54672 3.6102-.15266.19377-.4389.27129-.68546.27896-1.1856.0369-.9212-1.4186-3.373-1.134-2.5588.29698-3.8699-.27999-3.8699-1.703 0-.32215-.84046-1.2883-1.8677-2.1469-1.8642-1.5583-1.8666-1.5639-1.2709-2.9896.58167-1.3921.55765-1.4718-.94479-3.1348-1.0981-1.2154-1.7585-2.5308-2.2952-4.5718l-.75362-2.8654-2.8059.13259c-3.089.14598-3.0558.18279-2.3971-2.6579.30585-1.3189 1.1211-2.359 3.829-4.8852l3.4404-3.2096 1.3981-6.6127-1.3522-3.3072c-.74371-1.819-1.3522-3.6373-1.3522-4.0408 0-1.3573-1.9382-2.819-3.7381-2.819-1.6345 0-3.0588.95515-3.0588 2.0513 0 .80863-.69427.58636-3.2248-1.0324-3.8995-2.4945-4.3536-2.521-9.0429-.52869-2.248.95513-5.3728 2.3825-6.9441 3.172-3.3552 1.6858-3.6108 1.7061-7.0164.55601-2.3131-.78113-2.6367-1.0304-2.8955-2.2302-.4609-2.1366-1.5138-4.5368-1.9902-4.5368-.23965 0-2.2517-.86022-4.4712-1.9116-2.2195-1.0514-4.3058-1.9116-4.6362-1.9116s-1.6702.6841-2.9772 1.5202c-2.6232 1.678-3.0868 1.53-3.0986-.98922l-.0065-1.3806h-3.5505c-3.2311 0-3.807-.13374-6.4027-1.4867-1.5687-.81769-3.61-1.6079-4.5363-1.756-1.0026-.16032-1.8547-.5883-2.106-1.0577-.23208-.43364-.98978-1.0821-1.6838-1.441-.83992-.43434-1.2618-.9766-1.2618-1.6218 0-.666-.59818-1.391-1.9116-2.3168-1.3978-.98529-1.9116-1.6333-1.9116-2.411 0-.84206-.42032-1.2767-2.0178-2.0868-1.548-.78493-2.8908-2.1329-5.7668-5.7887-3.9674-5.0431-4.0269-5.0788-6.724-4.0349-.50653.19605-1.0557-.24007-1.9685-1.5633-.69628-1.0094-2.7119-3.3027-4.4792-5.0964l-3.2132-3.2613.24904-3.1108c.13697-1.7109.32613-3.1984.42035-3.3055.09422-.10706 1.0714-.20264 2.1715-.2124l2.0002-.0178-.08295-1.6992c-.04562-.93457-.13372-2.655-.19576-3.8232-.09107-1.7146.10442-2.4431 1.0142-3.7796l1.127-1.6555-1.0943-2.1594c-.68492-1.3516-1.1743-3.1569-1.3083-4.826l-.21405-2.6667-2.4934-1.3708c-1.3714-.75392-2.5989-1.7032-2.7279-2.1096-.12897-.40635-.69335-1.0998-1.2542-1.5409-.84155-.66196-.97754-1.0619-.77837-2.2892.27748-1.7099-.17462-2.7183-2.2473-5.0126-1.4087-1.5593-1.4487-1.6895-.86772-2.8298.75847-1.4888 1.9897-5.7162 1.9897-6.8316 0-.48678-.68041-1.3042-1.638-1.9678-4.0635-2.816-2.8221-5.4581 3.7227-7.9236 2.5269-.95192 4.5955-.79517 5.0285.38104.45051 1.2238 1.0598 1.2998 3.2679.40753 1.1829-.47801 3.8711-1.0277 5.9739-1.2215 9.9712-.91896 12.776-1.5429 15.057-3.3491 4.5483-3.6023 6.3341-7.779 5.841-13.661l-.24526-2.9254h3.4426c2.9238 0 3.7212.16328 5.2913 1.0834 1.0168.59587 2.0504.95873 2.297.80635.24656-.15238.39937-1.0724.33959-2.0445-.08769-1.426.18234-2.1996 1.3977-4.0043.82853-1.2303 2.2245-2.7723 3.1023-3.4268l1.5958-1.1899 2.6057 1.4046c1.5802.8518 3.2227 1.4084 4.1735 1.4142 1.5391.0095 1.6048-.05906 3.5829-3.7387 1.9539-3.6346 2.1075-3.7979 5.0606-5.3793 1.7528-.93866 3.3344-1.5202 3.7258-1.37.37409.14356 1.0517.98718 1.5059 1.8747 1.2033 2.3517 4.1999 5.8881 5.9969 7.0774 1.7911 1.1853 3.2386 4.3898 3.6802 8.1472.21984 1.8705.10692 2.544-.63826 3.807-.49794.84395-.90535 1.7456-.90535 2.0036 0 .25806.70141 1.6682 1.5587 3.1337 1.0955 1.8727 1.8845 2.7433 2.655 2.9295.60298.1457 3.677 1.7682 6.8312 3.6056s6.2458 3.5708 6.8704 3.852c.94459.42536 1.2601 1.0202 1.8765 3.5379.94251 3.8496 2.4592 7.2949 3.3641 7.6422.38644.14829 1.3082.27143 2.0485.27365.74022.0021 3.831.4647 6.8683 1.0277 3.0374.56303 7.8164 1.3479 10.62 1.7442 4.5726.64634 5.2882.86667 6.9482 2.1392 1.0178.78022 2.8338 1.737 4.0356 2.1261 1.2018.38914 3.5684 1.2747 5.2591 1.968l3.074 1.2604 6.4841-2.1603c5.7349-1.9106 7.1407-2.2128 12.167-2.6152 6.6906-.53563 9.0485-1.3955 11.882-4.3334 1.7235-1.7869 1.8705-2.1253 2.2002-5.0651.35012-3.122 1.4775-6.7159 2.1068-6.7159.17974 0 1.0366.29656 1.904.65901 1.4753.61643 1.76.59912 4.4061-.26799 1.5559-.50985 4.6449-1.9432 6.8645-3.1852s4.5417-2.535 5.1602-2.8733c.64718-.35398 1.2382-1.1322 1.3921-1.8331.21746-.99012.921-1.5741 3.7606-3.1217 3.275-1.7849 3.7097-1.9076 6.9616-1.9654 3.8586-.06859 4.4813-.27308 4.0749-1.3383-.76473-2.0043-3.6608-6.4673-4.5931-7.0781-1.248-.81769-8.7795-.98894-11.231-.25537-.8162.24423-1.6286.44405-1.8054.44405-.73749 0-.22788-3.128 1.1161-6.8507l1.4375-3.9818 3.3772-.2124c4.2678-.26841 6.2165-1.5061 6.6511-4.2244.15133-.94636 1.1225-3.8878 2.1581-6.5366 2.2534-5.7636 3.107-8.8834 2.4869-9.0901-.23967-.07989-.7974-.42738-1.2394-.7722-.76666-.59809-.71568-.70487 1.108-2.3203 2.9233-2.5896 5.5079-3.2039 10.985-2.6108 6.429.69626 8.8027 1.5446 9.929 3.5485.49933.88844 1.0638 1.6153 1.2544 1.6153s.34658.37034.34658.82298 1.408 3.1767 3.129 6.0534c1.7209 2.8768 3.5884 6.0907 4.1501 7.1421l1.0211 1.9116 4.4522.43842c6.4137.63157 9.3374 2.4627 9.3374 5.848 0 .778.40268 1.2002 1.7048 1.7873 1.5288.6894 2.0112.714 4.6727.23836 2.6734-.47777 3.126-.70964 4.561-2.3367 2.1346-2.4203 4.7233-3.9852 5.2427-3.1694.20742.3258.26316.8791.12387 1.2296-.1393.35046-.41565 3.1223-.61412 6.1596-.19846 3.0373-.60828 6.7572-.9107 8.2664l-.54986 2.744-2.8596.89261c-1.5728.49094-3.5799 1.4771-4.4602 2.1914l-1.6006 1.2988 1.5052 4.6227c1.5629 4.8 1.6096 5.9616.31253 7.7846-.69.96982-.77548.98744-1.5203.31342-1.5378-1.3917-3.0331-.462-3.0768 1.9129-.0133.72342-.75181 1.4896-2.7908 2.8953-2.7871 1.9215-3.5631 2.9933-3.5631 4.921 0 .88754-.15781 1.0097-1.062.82195-.58411-.12127-1.5263-.3163-2.0938-.4334-.8517-.17575-1.4262.24202-3.2922 2.3939-4.8475 5.5903-10.756 11.284-12.031 11.593-.70093.16996-2.6743 1.361-4.3853 2.6467-4.1023 3.0827-5.4745 2.6963-3.25-.91532 1.3196-2.1426 1.4494-5.8294.25957-7.3765-1.3392-1.7413-2.9456-.96028-7.6656 3.7268-2.288 2.272-4.6725 5.0055-5.2989 6.0745-1.2285 2.0962-1.9427 2.4457-5.0172 2.4546l-1.9933.006-1.9135 5.9411 1.268 1.8085c1.2056 1.7195 1.3925 1.8189 3.7997 2.0209l2.5317.2124-.13339 1.3808c-.10887 1.1269.0524 1.4514.87724 1.765 1.5853.60274 5.8406 1.0377 5.8406.59697 0-.21491.65085-1.1013 1.4463-1.9698l1.4463-1.579 2.3175.86709c1.609.60203 2.616.75665 3.2941.50582.53713-.1987 1.4194-.27663 1.9605-.17318.8171.1562.91116.32411.55468.99019-.24458.45701-.88495.80209-1.4884.80209-.58255 0-2.1917.57169-3.5759 1.2704-2.1748 1.0979-2.554 1.4693-2.7913 2.7344-.20164 1.0748-.57398 1.5687-1.4006 1.8579-1.6591.58052-5.6385 7.3644-5.3032 9.0406.28421 1.4211.55316 1.6563 3.1152 2.7243 2.4598 1.0254 3.098 1.7832 5.1879 6.1613.94802 1.986 2.5917 4.6364 3.6526 5.89l1.9289 2.2791-2.942-.1551c-2.6993-.14229-2.9523-.0834-3.0663.71328-.10372.72471.42334 1.0819 3.186 2.1591 2.5346.98825 3.446 1.5684 3.8894 2.4758.54281 1.1108.50291 1.2485-.63721 2.1986-.66894.55744-2.2247 1.633-3.4573 2.3902-2.7629 1.6973-2.7934 2.6105-.0918 2.752 2.2315.1169 6.3684.92437 6.3684 1.243 0 .12103-.42562.56469-.94581.98592-.814.65913-.87656.90544-.44889 1.7673.27331.55079.61731 1.8616.76444 2.913.14714 1.0514.35796 2.2334.46851 2.6266.15456.54988-.12241.74611-1.1992.84961-1.056.10149-1.4322.35893-1.5303 1.0471-.0716.50188-.49237 1.0072-.93518 1.123-.60728.15882-.87765.75733-1.1003 2.4358-.21992 1.6578-.49597 2.2777-1.0826 2.4311-.43309.11326-.78744.53078-.78744.92782 0 .39705-.66906 1.3142-1.4868 2.0382-1.554 1.3758-1.7847 2.4485-1.5097 7.0175.0735 1.2212-.0638 1.593-.58835 1.593-.37633 0-.8803.51567-1.1199 1.1459-1.0007 2.6322-2.7203 4.6796-4.4285 5.273-1.3576.47162-1.7262.82476-1.8334 1.7566-.15341 1.3328-5.1019 6.0411-7.3372 6.981-1.0741.45163-1.2881.74466-1.0919 1.4951.31376 1.1998-.39353 2.0396-1.7177 2.0396-.57406 0-2.2233.46588-3.665 1.0353-1.4417.5694-3.0992 1.057-3.6833 1.0836-3.23.14682-5.4314.0832-6.3948-.18489-.90407-.25159-1.1694-.11607-1.593.8137-.27956.61356-.50829 1.4889-.50829 1.9452 0 .9897-.54449 1.0719-1.2744.19241-.85194-1.0265-1.663-.742-2.422.84961-.38996.81775-1.0194 1.4868-1.3988 1.4868-.37935 0-1.0528.26548-1.4965.58995s-1.0572.49386-1.3632.37643c-.73419-.28173-2.9714.66058-3.2419 1.3655-.11922.31069-1.5723.78417-3.302 1.0759-2.4315.41012-3.3494.78129-4.3116 1.7435-.99724.99723-1.1716 1.4542-.94634 2.4798.15188.69151.11433 1.5464-.0834 1.8999-.30334.54205-.44915.49916-.9321-.27417z"/><path d="m242.18 198.38c-.60305-.60304-1.0964-1.4382-1.0964-1.856 0-.41772-.13769-.89715-.30598-1.0654-1.0012-1.0012 1.4114-6.4966 3.9976-9.1058.30606-.30874.55647-.7252.55647-.9255 0-.78022 1.3948-1.6992 2.5792-1.6992 1.1077 0 1.2441.14421 1.2441 1.315 0 .72329-.26311 1.8225-.58469 2.4426-.32157.62015-.90765 2.4657-1.3024 4.1012-.44698 1.8519-1.3352 3.9008-2.3546 5.4314l-1.6368 2.4578z"/><path d="m173.85 229.74c-1.1098-.61772-2.0178-1.4087-2.0178-1.7578 0-1.0228 2.0703-4.2615 3.0641-4.7934 2.1452-1.1481 8.094-2.0738 8.553-1.331.10869.17586-.5013 1.7906-1.3556 3.5884-1.3419 2.824-1.821 3.4161-3.5222 4.3531-1.083.59647-2.1344 1.0798-2.3364 1.0742-.20202-.006-1.2753-.51573-2.3852-1.1334z"/></g><g stroke-width="1.0012"><g fill="#00f" stroke="#fff"><circle cx="253.94" cy="50.441" r="2.7438"/><circle cx="241.05" cy="144.53" r="2.7438"/><circle cx="228.54" cy="139.75" r="2.7438"/></g><circle cx="217.44" cy="143.17" fill="#f0f" r="2.7438" stroke="#f0f"/><g fill="#00f" stroke="#fff"><circle cx="203.27" cy="153.56" r="2.7438"/><circle cx="194.3" cy="167.91" r="2.7438"/><circle cx="204.28" cy="204.63" r="2.7438"/><circle cx="134.09" cy="188.1" r="2.7438"/><circle cx="159.71" cy="157.64" r="2.7438"/><circle cx="174.41" cy="128.36" r="2.7438"/><circle cx="209.65" cy="91.404" r="2.7438"/></g></g><g stroke-width=".61505"><path d="m178.2616 84.224535v2.409305h1.42709q.71793 0 1.0615-.295157.34769-.299289.34769-.911739 0-.616641-.34769-.907311-.34357-.295157-1.0615-.295157zm0-2.704403v1.982036h1.31693q.65189 0 .969-.242028.32172-.246751.32172-.748754 0-.497634-.32172-.744385-.317-.246751-.969-.246751zm-.88972-.731162h2.27271q1.01746 0 1.56799.422664.55076.422665.55076 1.20241 0 .603418-.28217.960203-.28217.35655-.82803.445097.65625.141085 1.01746.590313.36541.445096.36541 1.114335 0 .880925-.59899 1.361026-.59899.479925-1.70453.479925h-2.36084z"/><path d="m187.74454 84.695823v.396691h-3.72624q.0529.836887.50236 1.27732.45395.436242 1.25967.436242.46694 0 .90294-.114521.44038-.114521.87207-.343562v.766404q-.43624.184768-.89408.282169-.45809.09681-.92934.09681-1.18039 0-1.87194-.687125-.68712-.687125-.68712-1.85872 0-1.211264.65188-1.920349.65625-.713511 1.76622-.713511.99544 0 1.57242.643028.58145.63866.58145 1.739772zm-.81044-.237896q-.009-.665106-.37426-1.061502-.36127-.39669-.9602-.39669-.67827 0-1.08789.383113-.40496.383114-.46694 1.079093z"/><path d="m189.07 82.432h.81045v4.9331h-.81045zm0-1.9203h.81045v1.0263h-.81045z"/><path d="m191.58087 82.431895h.81045v5.021147q0 .942553-.36128 1.365395-.35655.422664-1.154.422664h-.30814v-.687125h.21605q.46222 0 .62987-.216055.16764-.211332.16764-.885293zm0-1.920349h.81045v1.02626h-.81045z"/><path d="m194.09 82.432h.81044v4.9331h-.81044zm0-1.9203h.81044v1.0263h-.81044z"/><path d="m200.69 84.388v2.9775h-.81043v-2.9511q0-.70035-.27332-1.0483-.27331-.34769-.81924-.34769-.65625 0-1.035.41853-.37898.41853-.37898 1.1408v2.788h-.81442v-4.9334h.81481v.7664q.29043-.4451.68269-.66511.3967-.22019.91174-.22019.85006 0 1.2861.52833.43624.5242.43624 1.546z"/><path d="m205.55642 84.84117q0-.880924-.3654-1.365395-.36128-.484647-1.01747-.484647-.65188 0-1.01746.484647-.36127.484648-.36127 1.365395 0 .876498.36127 1.360968.3654.484647 1.01746.484647.65625 0 1.01747-.484647.3654-.484647.3654-1.360968zm.81044 1.911553q0 1.25967-.55962 1.871943-.55961.616642-1.71338.616642-.42739 0-.80601-.06611-.37898-.06139-.73553-.193623v-.788423q.35655.193623.70471.286302.3477.09268.70915.09268.79721 0 1.19361-.418532.39669-.41381.39669-1.255301v-.400823q-.25088.436241-.64303.651883-.39197.216055-.93818.216055-.90732 0-1.46233-.691494-.55489-.691493-.55489-1.832273 0-1.145208.55489-1.836702.5549-.691493 1.46233-.691493.54604 0 .93818.216055.39197.216055.64303.651883v-.749491h.81044z"/><path d="m239.25 38.522h.88972v2.6956h3.2329v-2.6956h.88972v6.576h-.88972v-3.1316h-3.2329v3.1316h-.88972z"/><path d="m248.24382 42.618681q-.98222 0-1.36097.224614-.37898.224615-.37898.766387 0 .431637.28217.687107.2863.25106.7752.25106.6739 0 1.07909-.475675.40968-.480101.40968-1.272904v-.180577zm1.61646-.334767v2.814491h-.81045v-.748771q-.27744.449287-.69149.665082-.41381.211391-1.01304.211391-.7576 0-1.20683-.422841-.4451-.42721-.4451-1.140769 0-.832454.5549-1.25529.55961-.422841 1.66492-.422841h1.13635v-.07928q0-.559381-.37013-.863287-.3654-.30832-1.03068-.30832-.42267 0-.82367.101298-.40082.101297-.77077.303893v-.748771q.4451-.171782.86327-.255488.41854-.08808.81487-.08808 1.0703 0 1.59887.554954.52833.554954.52833 1.682529z"/><path d="m254.38813 40.92294q-.13636-.07928-.29929-.114521-.1588-.03964-.35242-.03964-.68712 0-1.05707.449288-.36541.44486-.36541 1.281718v2.598666h-.81481v-4.933066h.81481v.766386q.25561-.449288.66511-.665083.40968-.220246.99545-.220246.0838 0 .18476.01321.10154.0088.22491.03083z"/><path d="m258.77944 42.6363q0-.894119-.37013-1.400637-.3654-.510916-1.00861-.510916-.64302 0-1.01303.510916-.36541.506548-.36541 1.400637 0 .894118.36541 1.40504.37012.506548 1.01303.506548.64309 0 1.00861-.506548.37013-.510916.37013-1.40504zm-2.75723-1.722169q.25561-.440433.64303-.651871.39197-.215819.93376-.215819.89851 0 1.45789.71353.56375.713535.56375 1.876329 0 1.162793-.56375 1.876323-.55961.713529-1.45789.713529-.54191 0-.93376-.211391-.38784-.215819-.64303-.656275v.739958h-.81484v-6.853453h.81481z"/><path d="m260.96 40.166h.81044v4.9331h-.81044zm0-1.9203h.81044v1.0263h-.81044z"/><path d="m267.57087 42.12097v2.977458h-.81045v-2.951029q0-.700319-.27331-1.048279-.27332-.347931-.81924-.347931-.65625 0-1.03505.418414-.37898.418415-.37898 1.140769v2.788062h-.81481v-4.933066h.81481v.766386q.29043-.44486.68269-.665082.39669-.220246.91174-.220246.85005 0 1.28612.528566.43624.52414.43624 1.54599z"/><path d="m150.66 117.33h.95578l1.634 2.4445 1.6429-2.4445h.95577l-2.1141 3.1581 2.2551 3.4179h-.95578l-1.8499-2.7968-1.8631 2.7968h-.9602l2.3476-3.5104z"/><path d="m157.12 118.97h.81044v4.9331h-.81044zm0-1.9204h.81044v1.0263h-.81044z"/><path d="m160.39 117.32v2.4445h-.74875v-2.4445z"/><path d="m164.34935 121.42208q-.98222 0-1.36103.22491-.37898.22491-.37898.7664 0 .43152.28217.68713.2863.25088.7752.25088.6739 0 1.07909-.47579.40968-.47993.40968-1.2729v-.18063zm1.61646-.33471v2.8145h-.81045v-.74876q-.27744.44923-.69149.66511-.41381.21133-1.01304.21133-.7576 0-1.20683-.42266-.4451-.42739-.4451-1.14078 0-.83246.5549-1.25531.55961-.42266 1.66492-.42266h1.13635v-.0791q0-.55962-.37013-.86328-.3654-.30814-1.03063-.30814-.42266 0-.82366.10153-.40082.10154-.77077.30401v-.74875q.44509-.17178.86327-.2556.41853-.088.81481-.088 1.0703 0 1.59887.55489.52833.5549.52833 1.68251z"/><path d="m171.73573 120.92437v2.97748h-.81043v-2.95106q0-.70034-.27332-1.04827-.27331-.3477-.81923-.3477-.65625 0-1.03506.41853-.37898.41854-.37898 1.14078v2.78805h-.81442v-4.93342h.81481v.7664q.29043-.44509.6827-.6651.39669-.22019.91174-.22019.85005 0 1.28611.52833.43624.5242.43624 1.54597z"/><path d="m111.48359 152.15565v.93818q-.44923-.41853-.96021-.62543-.50648-.2072-1.07909-.2072-1.12756 0-1.72655.69149-.59899.68712-.59899 1.99083 0 1.29934.59899 1.99083.59899.68713 1.72655.68713.57261 0 1.07909-.2072.51122-.2072.96021-.62544v.92933q-.46694.317-.99102.47579-.51948.1588-1.10111.1588-1.49314 0-2.35199-.91174-.8589-.91617-.8589-2.49738 0-1.58564.8589-2.49738.85891-.91611 2.35199-.91611.59031 0 1.10997.1588.52419.15407.98222.46693z"/><path d="m116.92317 155.24762v2.97748h-.81044v-2.95103q0-.70035-.27331-1.04828-.27332-.3477-.81924-.3477-.65625 0-1.03506.41854-.37898.41853-.37898 1.14078v2.78805h-.81441v-6.85382h.81487v2.68675q.29043-.44509.6827-.6651.39669-.22019.91173-.22019.85006 0 1.28612.52833.43624.5242.43624 1.54597z"/><path d="m120.45119 153.8602q-.65188 0-1.03062.51121-.37899.50649-.37899 1.39184 0 .88529.37426 1.39627.37898.50649 1.03506.50649.64745 0 1.02626-.51122.37898-.51121.37898-1.39184 0-.87649-.37898-1.38741-.37898-.51534-1.02626-.51534zm0-.68713q1.05708 0 1.6605.68713.60341.68712.60341 1.90275 0 1.21127-.60341 1.90276-.60342.68712-1.6605.68712-1.0615 0-1.66492-.68712-.59899-.69149-.59899-1.90276 0-1.21563.59899-1.90275.60342-.68713 1.66492-.68713z"/><path d="m128.1591 155.24762v2.97748h-.81044v-2.95103q0-.70035-.27331-1.04828-.27332-.3477-.81924-.3477-.65625 0-1.03505.41854-.37899.41853-.37899 1.14078v2.78805h-.81481v-4.93308h.81481v.76641q.29044-.4451.6827-.66511.39669-.22018.91174-.22018.85005 0 1.28612.52833.43624.52419.43624 1.54597z"/><path d="m133.0217 155.70129q0-.88093-.3654-1.3654-.36128-.48464-1.01747-.48464-.65188 0-1.01746.48464-.36127.48465-.36127 1.3654 0 .8765.36127 1.36097.3654.48464 1.01746.48464.65625 0 1.01747-.48464.3654-.48465.3654-1.36097zm.81044 1.91155q0 1.25967-.55962 1.87194-.55961.61665-1.71338.61665-.42739 0-.80602-.0661-.37898-.0614-.73553-.19362v-.78842q.35655.19362.70472.2863.3477.0927.70914.0927.79722 0 1.19362-.41854.39669-.41381.39669-1.2553v-.40082q-.25088.43624-.64303.65188-.39197.21606-.93819.21606-.90731 0-1.46232-.6915-.55489-.69149-.55489-1.83227 0-1.14521.55489-1.8367.5549-.69149 1.46232-.69149.54604 0 .93819.21605.39197.21606.64303.65188v-.74875h.81044z"/><path d="m135.98594 155.76295q0 .89414.3654 1.40506.37013.50649 1.01304.50649.64303 0 1.01304-.50649.37012-.51121.37012-1.40506 0-.89409-.37012-1.40064-.37013-.51121-1.01304-.51121-.64303 0-1.01304.51121-.3654.50649-.3654 1.40064zm2.76166 1.72218q-.2556.44037-.64745.65625-.38784.21133-.93376.21133-.89409 0-1.4579-.71351-.55961-.71351-.55961-1.87631 0-1.1628.55961-1.87631.56375-.71352 1.4579-.71352.54604 0 .93376.21606.39197.21133.64745.65188v-.74875h.81045v6.80939h-.81045z"/><path d="m141.23 153.29h.81044v4.9331h-.81044zm0-1.9204h.81044v1.0263h-.81044z"/><path d="m147.8341 155.24762v2.97748h-.81044v-2.95103q0-.70035-.27331-1.04828-.27332-.3477-.81924-.3477-.65625 0-1.03506.41854-.37898.41853-.37898 1.14078v2.78805h-.81481v-4.93308h.81481v.76641q.29044-.4451.6827-.66511.39669-.22018.91174-.22018.85005 0 1.28612.52833.43624.52419.43624 1.54597z"/><path d="m152.6967 155.70129q0-.88093-.36541-1.3654-.36127-.48464-1.01746-.48464-.65188 0-1.01746.48464-.36128.48465-.36128 1.3654 0 .8765.36128 1.36097.3654.48464 1.01746.48464.65625 0 1.01746-.48464.36541-.48465.36541-1.36097zm.81044 1.91155q0 1.25967-.55962 1.87194-.55961.61665-1.71338.61665-.42739 0-.80602-.0661-.37898-.0614-.73553-.19362v-.78842q.35655.19362.70472.2863.34769.0927.70914.0927.79722 0 1.19362-.41854.39669-.41381.39669-1.2553v-.40082q-.25089.43624-.64303.65188-.39197.21606-.93819.21606-.90731 0-1.46232-.6915-.5549-.69149-.5549-1.83227 0-1.14521.5549-1.8367.55489-.69149 1.46232-.69149.54604 0 .93819.21605.39197.21606.64303.65188v-.74875h.81044z"/></g><g stroke-width="59.031"><path d="m168.74 146.47h.89851l1.383 5.5585 1.3786-5.5585h.99981l1.383 5.5585 1.3786-5.5585h.90295l-1.6517 6.576h-1.1188l-1.3874-5.7083-1.4006 5.7083h-1.1188z"/><path d="m177.80949 151.09873v-2.98627h.81044v2.95546q0 .70035.27331 1.0527.27332.3477.81924.3477.65625 0 1.03506-.41853.38311-.41854.38311-1.14078v-2.79685h.81044v4.93307h-.81044v-.75755q-.29516.44923-.68712.66948-.38784.21605-.90295.21605-.85005 0-1.29054-.52833-.44038-.52833-.44038-1.54597z"/><path d="m187.71085 150.06808v2.97748h-.81044v-2.95104q0-.70035-.27332-1.04828-.27331-.34769-.81923-.34769-.65625 0-1.03506.41853-.37898.41853-.37898 1.14078v2.78805h-.81441v-6.85382h.81486v2.68676q.29044-.4451.6827-.66511.39669-.22019.91174-.22019.85005 0 1.28612.52833.43624.5242.43624 1.54598z"/><path d="m191.56921 150.56579q-.98222 0-1.36097.22491-.37898.22491-.37898.7664 0 .43152.28217.68712.2863.25089.7752.25089.6739 0 1.07909-.4758.40968-.47992.40968-1.27289v-.18063zm1.61645-.33471v2.81449h-.81044v-.74875q-.27744.44923-.69149.66511-.41381.21133-1.01304.21133-.7576 0-1.20683-.42266-.4451-.42739-.4451-1.14079 0-.83246.5549-1.2553.55961-.42266 1.66492-.42266h1.13635v-.0791q0-.55962-.37013-.86328-.3654-.30814-1.03069-.30814-.42266 0-.82366.10153-.40082.10154-.77077.30401v-.74875q.44509-.17178.86327-.25561.41853-.088.81481-.088 1.0703 0 1.59887.55489.52833.5549.52833 1.68251z"/><path d="m198.9556 150.06808v2.97748h-.81043v-2.95104q0-.70035-.27332-1.04828-.27331-.34769-.81924-.34769-.65625 0-1.03505.41853-.37898.41853-.37898 1.14078v2.78805h-.81481v-4.93307h.81481v.7664q.29043-.44509.68269-.6651.39669-.22019.91174-.22019.85005 0 1.28612.52833.43624.5242.43624 1.54597z"/></g><g fill="#f0f" stroke-width=".61505"><path d="m192.86 132.52h.88972v2.6956h3.2329v-2.6956h.88972v6.576h-.88972v-3.1316h-3.2329v3.1316h-.88972z"/><path d="m203.82353 136.42669v.39669h-3.72623q.0528.83689.50235 1.27732.45395.43625 1.25967.43625.46694 0 .90295-.11452.44037-.11453.87207-.34357v.76641q-.43624.18476-.89415.28217-.45808.0968-.92933.0968-1.18039 0-1.87194-.68713-.68713-.68712-.68713-1.85872 0-1.21126.65188-1.92035.65626-.71351 1.76622-.71351.99545 0 1.57242.64303.58146.63866.58146 1.73977zm-.81044-.23789q-.009-.66511-.37426-1.0615-.36127-.3967-.9602-.3967-.67833 0-1.08795.38312-.40495.38311-.46694 1.07909z"/><path d="m207.65107 132.2424v.6739h-.7752q-.43625 0-.60785.17591-.16765.17592-.16765.63424v.43624h1.33458v.62986h-1.33458v4.30321h-.81454v-4.30321h-.7752v-.62986h.7752v-.34356q0-.82367.38312-1.19805.38311-.37898 1.21563-.37898z"/><path d="m212.54889 136.42669v.39669h-3.72624q.0529.83689.50236 1.27732.45395.43625 1.25967.43625.46694 0 .90294-.11452.44038-.11453.87207-.34357v.76641q-.43624.18476-.89408.28217-.45809.0968-.92939.0968-1.18039 0-1.87195-.68713-.68712-.68712-.68712-1.85872 0-1.21126.65188-1.92035.65625-.71351 1.76622-.71351.99545 0 1.57242.64303.58146.63866.58146 1.73977zm-.81044-.23789q-.009-.66511-.37426-1.0615-.36127-.3967-.9602-.3967-.67827 0-1.08789.38312-.40496.38311-.46694 1.07909z"/><path d="m213.88 134.16h.81044v4.9331h-.81044zm0-1.9204h.81044v1.0263h-.81044z"/></g><g fill="#fff" stroke="#fff" stroke-width="2.4601"><path d="m237.55188 173.05437c-.37981.91694.7018 2.27568 0 2.97748-.19102.19102-.61942.19102-.81044 0-.69556-.69556.12511-1.97534 0-2.95103-.0459-.35818-.0373-.77496-.27332-1.04828-.19387-.22454-.52259-.34515-.81923-.34769-.37214-.003-.78039.14715-1.03506.41853-.27419.29219-.315.74523-.37898 1.14078-.1484.91742.65715 2.1309 0 2.78805-.19196.19196-.62245.19196-.81441 0-1.61546-1.61546-1.61546-5.23836 0-6.85382.19207-.19207.6228-.19207.81487 0 .63327.63327-.82516 2.33863 0 2.68675.29272.12349.40459-.51149.68269-.6651.27368-.15117.6-.24405.91174-.22019.46212.0354.97773.18235 1.28612.52833.35628.39971.5714 1.02786.43624 1.54597-.00003.0001-.00018.00012-.00022.00022z"/><path d="m241.41024 173.55208c-.45827.0376-.99152-.0488-1.36097.22491-.22899.16967-.36907.48159-.37898.76641-.009.24745.10051.51888.28217.68712.19927.18455.50396.26476.7752.25088.39259-.0201.81593-.18376 1.07909-.47579.29839-.33112.34056-.83255.40968-1.27289.009-.0595.0426-.13806 0-.18064-.19002-.19002-.53836-.022-.80619 0zm1.61646-.3347c.88776.30337.66338 2.15111 0 2.81449-.19102.19102-.61943.19102-.81045 0-.17648-.17648.22965-.651 0-.74875-.29426-.12525-.40868.51577-.69149.6651-.30504.16107-.66883.23395-1.01304.21134-.42532-.0279-.90019-.12662-1.20683-.42267-.29365-.28351-.45412-.7327-.4451-1.14078.0101-.45738.20546-.96002.5549-1.2553.43734-.36956 1.09676-.35167 1.66492-.42266.37586-.047.86851.26784 1.13635 0 .0186-.0186.005-.0533 0-.0791-.063-.30669-.13643-.65491-.37013-.86327-.26764-.23862-.67332-.27808-1.03063-.30814-.27566-.0232-.55557.0333-.82366.10153-.26766.0681-.54244.4594-.77077.30401-.20633-.14042-.14934-.54878 0-.74875.17957-.24045.56901-.19666.86327-.25561.26786-.0537.54338-.11887.81481-.088.56053.0637 1.20595.15009 1.59887.55489.40943.42181-.0503 1.57892.52833 1.68251.00035.00006.00031-.00095.00065-.00084z"/><path d="m239.83964 152.63142c-.34608.9302.7018 2.27568 0 2.97748-.19102.19102-.61941.19102-.81043 0-.69557-.69557.1251-1.97535 0-2.95104-.0459-.35818-.0373-.77496-.27331-1.04828-.19387-.22454-.52259-.34515-.81924-.34769-.37214-.003-.78039.14715-1.03506.41853-.27419.29219-.315.74523-.37898 1.14078-.1484.91742.65715 2.1309 0 2.78805-.19196.19196-.62246.19196-.81442 0-1.61546-1.61546-1.61546-5.23835 0-6.85381.19206-.19206.62278-.19206.81484 0 .63327.63327-.82516 2.33864 0 2.68675.29272.12349.40459-.5115.68269-.66511.27368-.15117.6-.24405.91174-.22018.46212.0354.97773.18235 1.28612.52833.35628.39971.55239 1.02327.43624 1.54597-.00002.00009-.00016.00013-.00019.00022z"/><path d="m243.69801 153.12913c-.45827.0376-.99152-.0488-1.36097.22491-.22899.16966-.36907.48158-.37898.7664-.009.24745.10051.51889.28217.68713.19927.18455.50396.26476.7752.25088.39259-.0201.81593-.18376 1.07909-.47579.29839-.33112.34056-.83256.40968-1.2729.009-.0595.0426-.13806 0-.18063-.19002-.19002-.53836-.022-.80619 0zm1.61645-.33471c.88195.31989.66338 2.15112 0 2.8145-.19102.19102-.61942.19102-.81044 0-.17648-.17648.22965-.65101 0-.74876-.29427-.12525-.40868.51578-.69149.66511-.30504.16106-.66883.23394-1.01304.21133-.42532-.0279-.9002-.1266-1.20684-.42266-.29365-.28351-.45411-.7327-.44509-1.14078.0101-.45738.20545-.96003.55489-1.25531.43734-.36956 1.09676-.35167 1.66492-.42266.37586-.047.86851.26784 1.13635 0 .0186-.0186.005-.0533 0-.0791-.063-.30669-.13642-.65492-.37012-.86328-.26766-.23863-.67336-.27808-1.03069-.30814-.27566-.0232-.55557.0333-.82366.10153-.26766.0681-.54245.45941-.77078.30402-.20634-.14042-.14935-.54879 0-.74876.17958-.24045.56902-.19665.86328-.2556.26786-.0537.54338-.11887.81481-.088.56052.0637 1.20594.15009 1.59886.55489.40943.42181-.0483 1.56815.52833 1.68252.00036.00007.00036-.00098.00071-.00085z"/><path d="m251.08439 152.63142c.88159.45589.7018 2.27568 0 2.97748-.19102.19102-.61943.19102-.81045 0-.69557-.69557.1251-1.97535 0-2.95104-.0459-.35818-.0373-.77496-.27331-1.04828-.19387-.22454-.52259-.34515-.81924-.34769-.37214-.003-.78039.14715-1.03505.41853-.27419.29219-.315.74523-.37898 1.14078-.1484.91742.65715 2.1309 0 2.78805-.19205.19205-.62276.19205-.81481 0-1.16274-1.16274-1.16274-3.77033 0-4.93307.19205-.19205.62276-.19205.81481 0 .18064.18064-.23538.6671 0 .7664.29272.12349.40459-.51149.68269-.6651.27368-.15117.6-.24405.91174-.22019.46212.0354.97773.18235 1.28612.52833.35628.39971-.0686 1.36754.43624 1.54597.00009.00003.00015-.00022.00024-.00017z"/><path d="m235.71647 131.16963c.84872.51448.70179 2.27564 0 2.97743-.19102.19102-.61942.19102-.81044 0-.69557-.69557.1251-1.97535 0-2.95104-.0459-.35818-.0373-.77496-.27331-1.04828-.19387-.22454-.52259-.34515-.81924-.34769-.37214-.003-.78039.14715-1.03506.41853-.27419.29219-.315.74523-.37898 1.14078-.1484.91742.65715 2.1309 0 2.78805-.19207.19207-.6228.19207-.81487 0-1.16274-1.16274-1.16274-3.77033 0-4.93307.19207-.19207.6228-.19207.81487 0 .18064.18064-.23538.6671 0 .7664.29272.12349.4046-.51149.6827-.6651.27368-.15117.6-.24406.91174-.22019.46211.0354.97772.18236 1.28611.52833.35629.39971-.0554 1.33379.43625 1.54597.00008.00003.00016-.00016.00023-.00012z"/><path d="m237.33293 129.21403c.19101-.19104.61943-.19102.81045 0 1.18349 1.18349.21587 3.36141 0 5.02114-.0607.46686-.0441 1.01748-.36128 1.3654-.27598.30274-.75064.35112-1.154.42266-.10113.0179-.23551.0726-.30814 0-.16196-.16196-.16196-.52516 0-.68712.0509-.0509.14501.0118.21605 0 .21894-.0365.48455-.0483.62986-.21606.19663-.22703.1396-.58626.16765-.88529.15628-1.66626-1.18392-3.83726-.00059-5.02073zm0-1.92035c.19102-.19102.61943-.19102.81045 0 .24189.24189.24189.78437 0 1.02626-.19102.19102-.61943.19102-.81045 0-.24189-.24189-.24189-.78437 0-1.02626z"/><path d="m239.8391 129.21403c.19102-.19102.61942-.19102.81044 0 1.16274 1.16274 1.16274 3.77033 0 4.93307-.19102.19102-.61942.19102-.81044 0-1.16274-1.16274-1.16274-3.77033 0-4.93307zm0-1.92035c.19102-.19102.61942-.19102.81044 0 .24189.24189.24189.78437 0 1.02626-.19102.19102-.61942.19102-.81044 0-.24189-.24189-.24189-.78437 0-1.02626z"/><path d="m246.44589 131.16963c.84425.52178.70179 2.27564 0 2.97743-.19102.19102-.61943.19102-.81045 0-.69557-.69557.1251-1.97535 0-2.95104-.0459-.35818-.0373-.77496-.27331-1.04828-.19387-.22454-.52259-.34515-.81924-.34769-.37214-.003-.78039.14715-1.03505.41853-.27419.29219-.315.74523-.37898 1.14078-.1484.91742.65715 2.1309 0 2.78805-.19205.19205-.62276.19205-.81481 0-1.16274-1.16274-1.16274-3.77033 0-4.93307.19205-.19205.62276-.19205.81481 0 .18064.18064-.23538.6671 0 .7664.29272.12349.40459-.51149.68269-.6651.27368-.15117.6-.24405.91174-.22019.46212.0354.97773.18235 1.28612.52833.35628.39971-.0535 1.32956.43624 1.54597.00008.00004.00016-.00017.00024-.00012z"/></g><g stroke-width="59.031"><path d="m204.72498 169.9624v.93818q-.44923-.41853-.96021-.62543-.50649-.2072-1.07909-.2072-1.12756 0-1.72655.69149-.59899.68713-.59899 1.99083 0 1.29934.59899 1.99083.59899.68713 1.72655.68713.5726 0 1.07909-.2072.51121-.2072.96021-.62544v.92933q-.46694.317-.99102.4758-.51948.15879-1.10111.15879-1.49314 0-2.35199-.91174-.85891-.91617-.85891-2.49738 0-1.58564.85891-2.49738.85891-.91611 2.35199-.91611.59031 0 1.10996.1588.5242.15407.98223.46694z"/><path d="m210.16456 173.05437v2.97748h-.81044v-2.95103q0-.70035-.27332-1.04828-.27331-.34769-.81923-.34769-.65625 0-1.03506.41853-.37898.41853-.37898 1.14078v2.78805h-.81441v-6.85382h.81481v2.68675q.29044-.44509.6827-.6651.39669-.22019.91174-.22019.85005 0 1.28611.52833.43625.5242.43625 1.54597z"/><path d="m214.02293 173.55208q-.98223 0-1.36103.22491-.37898.22491-.37898.76641 0 .43152.28217.68712.2863.25088.7752.25088.6739 0 1.07909-.47579.40968-.47992.40968-1.27289v-.18064zm1.61645-.3347v2.81449h-.81044v-.74875q-.27745.44923-.69149.6651-.41381.21134-1.01304.21134-.75755 0-1.20684-.42267-.44509-.42738-.44509-1.14078 0-.83246.55489-1.2553.55962-.42266 1.66492-.42266h1.13636v-.0791q0-.55961-.37013-.86327-.36541-.30814-1.03063-.30814-.42266 0-.82366.10153-.40083.10153-.77078.30401v-.74875q.4451-.17178.86328-.25561.41853-.088.81481-.088 1.07029 0 1.59886.55489.52833.55489.52833 1.68251z"/><path d="m221.40931 173.05437v2.97748h-.81045v-2.95103q0-.70035-.27331-1.04828-.27332-.34769-.81924-.34769-.65625 0-1.03505.41853-.37898.41853-.37898 1.14078v2.78805h-.81481v-4.93307h.81481v.7664q.29043-.4451.68269-.66511.39669-.22018.91174-.22018.85005 0 1.28612.52833.43624.5242.43624 1.54597z"/><path d="m226.2719 173.50804q0-.88092-.3654-1.36539-.36128-.48465-1.01747-.48465-.65188 0-1.01746.48465-.36127.48464-.36127 1.36539 0 .8765.36127 1.36097.3654.48465 1.01746.48465.65625 0 1.01747-.48465.3654-.48465.3654-1.36097zm.81044 1.91155q0 1.25967-.55962 1.87195-.55961.61664-1.71338.61664-.42739 0-.80601-.0661-.37899-.0614-.73553-.19362v-.78842q.35654.19362.70471.2863.3477.0927.70915.0927.79721 0 1.19361-.41853.39669-.41381.39669-1.25531v-.40082q-.25088.43624-.64309.65188-.39197.21606-.93818.21606-.90731 0-1.46233-.69149-.55489-.6915-.55489-1.83228 0-1.14521.55489-1.8367.5549-.69149 1.46233-.69149.54604 0 .93818.21605.39197.21606.64309.65189v-.74876h.81044z"/><path d="m231.89647 171.24411v.76641q-.34356-.17592-.71351-.26447-.37013-.088-.7664-.088-.60342 0-.90732.18477-.29928.18476-.29928.55489 0 .28217.21605.4451.21605.15879.8677.30401l.27745.0614q.86327.18477 1.22443.5242.3654.33471.3654.93818 0 .68713-.54604 1.08789-.54191.40083-1.49314.40083-.39669 0-.82803-.0791-.42739-.075-.90294-.22904v-.83688q.44922.23317.88529.35241.43624.11452.86327.11452.57261 0 .88093-.19362.30814-.19834.30814-.55489 0-.33058-.22491-.50649-.22018-.17592-.97342-.33943l-.28217-.0661q-.75318-.15879-1.08789-.48465-.33471-.33057-.33471-.90294 0-.69592.4935-1.07472.4935-.37899 1.40064-.37899.44923 0 .84568.0661.39669.0661.73116.19835z"/><path d="m237.55188 173.05437v2.97748h-.81044v-2.95103q0-.70035-.27332-1.04828-.27331-.34769-.81923-.34769-.65625 0-1.03506.41853-.37898.41853-.37898 1.14078v2.78805h-.81441v-6.85382h.81487v2.68675q.29043-.44509.68269-.6651.39669-.22019.91174-.22019.85005 0 1.28612.52833.43624.5242.43624 1.54597z"/><path d="m241.41024 173.55208q-.98222 0-1.36097.22491-.37898.22491-.37898.76641 0 .43152.28217.68712.2863.25088.7752.25088.6739 0 1.07909-.47579.40968-.47992.40968-1.27289v-.18064zm1.61646-.3347v2.81449h-.81045v-.74875q-.27744.44923-.69149.6651-.41381.21134-1.01304.21134-.7576 0-1.20683-.42267-.4451-.42738-.4451-1.14078 0-.83246.5549-1.2553.55961-.42266 1.66492-.42266h1.13635v-.0791q0-.55961-.37013-.86327-.3654-.30814-1.03063-.30814-.42266 0-.82366.10153-.40082.10153-.77077.30401v-.74875q.44509-.17178.86327-.25561.41853-.088.81481-.088 1.0703 0 1.59887.55489.52833.55489.52833 1.68251z"/><path d="m233.99044 149.24874v.86771q-.50649-.24203-.95578-.36128-.44923-.11865-.8677-.11865-.72674 0-1.12313.28217-.39197.28217-.39197.80165 0 .43624.25974.66067.26446.22019.99544.35655l.53719.11039q.99544.18949 1.46669.66948.47579.47579.47579 1.27732 0 .95577-.64302 1.4491-.63866.4935-1.87631.4935-.46694 0-.99545-.10567-.5242-.10566-1.08789-.31286v-.91617q.54191.30401 1.0615.45809.51948.15407 1.02184.15407.76197 0 1.17602-.29929.41381-.29929.41381-.85448 0-.48465-.29929-.75755-.29516-.27331-.97343-.40968l-.54191-.10566q-.99544-.19835-1.44024-.62101-.4451-.42267-.4451-1.17603 0-.87207.61221-1.37419.61665-.50235 1.69574-.50235.46221 0 .94255.0838.47993.0838.98223.25089z"/><path d="m239.83964 152.63142v2.97748h-.81043v-2.95104q0-.70034-.27331-1.04828-.27332-.34769-.81924-.34769-.65625 0-1.03506.41853-.37898.41853-.37898 1.14078v2.78805h-.81442v-6.85381h.81484v2.68675q.29043-.4451.68269-.66511.39669-.22018.91174-.22018.85005 0 1.28612.52833.43624.52419.43624 1.54597z"/><path d="m243.69801 153.12913q-.98223 0-1.36097.22491-.37898.22491-.37898.7664 0 .43152.28217.68713.2863.25088.7752.25088.6739 0 1.07909-.47579.40968-.47993.40968-1.2729v-.18063zm1.61645-.33471v2.8145h-.81044v-.74876q-.27745.44923-.69149.66511-.41381.21133-1.01304.21133-.75755 0-1.20684-.42266-.44509-.42739-.44509-1.14078 0-.83246.55489-1.25531.55962-.42266 1.66492-.42266h1.13635v-.0791q0-.55962-.37012-.86328-.36541-.30814-1.03069-.30814-.42266 0-.82366.10153-.40083.10154-.77078.30402v-.74876q.4451-.17178.86328-.2556.41853-.088.81481-.088 1.0703 0 1.59886.55489.52833.5549.52833 1.68252z"/><path d="m251.08439 152.63142v2.97748h-.81045v-2.95104q0-.70034-.27331-1.04828-.27332-.34769-.81924-.34769-.65625 0-1.03505.41853-.37898.41853-.37898 1.14078v2.78805h-.81481v-4.93307h.81481v.7664q.29043-.44509.68269-.6651.39669-.22019.91174-.22019.85005 0 1.28612.52833.43624.5242.43624 1.54597z"/><path d="m255.94698 153.08508q0-.88093-.3654-1.3654-.36128-.48464-1.01747-.48464-.65188 0-1.01746.48464-.36127.48465-.36127 1.3654 0 .8765.36127 1.36097.3654.48464 1.01746.48464.65625 0 1.01747-.48464.3654-.48465.3654-1.36097zm.81044 1.91155q0 1.25967-.55962 1.87194-.55961.61665-1.71338.61665-.42739 0-.80601-.0661-.37899-.0614-.73553-.19362v-.78842q.35654.19362.70471.2863.3477.0927.70914.0927.79722 0 1.19362-.41854.39669-.41381.39669-1.2553v-.40082q-.25088.43624-.64303.65188-.39197.21606-.93818.21606-.90732 0-1.46233-.6915-.55489-.69149-.55489-1.83227 0-1.14515.55489-1.8367.5549-.69149 1.46233-.69149.54604 0 .93818.21605.39197.21606.64303.65188v-.74875h.81044z"/><path d="m262.52733 152.63142v2.97748h-.81043v-2.95104q0-.70034-.27331-1.04828-.27332-.34769-.81924-.34769-.65625 0-1.03505.41853-.37898.41853-.37898 1.14078v2.78805h-.81442v-6.85381h.81481v2.68675q.29043-.4451.68269-.66511.39669-.22018.91174-.22018.85005 0 1.28612.52833.43624.52419.43624 1.54597z"/><path d="m266.3857 153.12913q-.98222 0-1.36097.22491-.37898.22491-.37898.7664 0 .43152.28217.68713.2863.25088.7752.25088.6739 0 1.07909-.47579.40968-.47993.40968-1.2729v-.18063zm1.61645-.33471v2.8145h-.81044v-.74876q-.27744.44923-.69149.66511-.41381.21133-1.01304.21133-.75761 0-1.20683-.42266-.4451-.42739-.4451-1.14078 0-.83246.55489-1.25531.55962-.42266 1.66492-.42266h1.13636v-.0791q0-.55962-.37013-.86328-.3654-.30814-1.03069-.30814-.42266 0-.82366.10153-.40082.10154-.77077.30402v-.74876q.44509-.17178.86327-.2556.41853-.088.81481-.088 1.0703 0 1.59887.55489.52833.5549.52833 1.68252z"/><path d="m269.67 150.68h.81044v4.9331h-.81044zm0-1.9204h.81044v1.0263h-.81044z"/><path d="m219.38 127.57h1.198l2.9158 5.5012v-5.5012h.86327v6.576h-1.198l-2.9158-5.5012v5.5012h-.86328z"/><path d="m228.33009 131.66734q-.98223 0-1.36103.22491-.37898.22491-.37898.76641 0 .43152.28217.68712.2863.25089.7752.25089.6739 0 1.07909-.4758.40968-.47992.40968-1.27289v-.18064zm1.61645-.3347v2.81449h-.81044v-.74881q-.27745.44923-.69149.66511-.41381.21133-1.01304.21133-.75761 0-1.20684-.42267-.44509-.42738-.44509-1.14078 0-.83246.55489-1.2553.55962-.42266 1.66492-.42266h1.13636v-.0791q0-.55962-.37013-.86328-.3654-.30814-1.03063-.30814-.42266 0-.82366.10153-.40083.10154-.77078.30401v-.74875q.4451-.17178.86328-.25561.41853-.0879.81481-.0879 1.0703 0 1.59886.55489.52833.5549.52833 1.68251z"/><path d="m235.71647 131.16963v2.97743h-.81044v-2.95104q0-.70035-.27331-1.04828-.27332-.34769-.81924-.34769-.65625 0-1.03506.41853-.37898.41853-.37898 1.14078v2.78805h-.81487v-4.93307h.81487v.7664q.29044-.44509.6827-.6651.39669-.22019.91174-.22019.85005 0 1.28611.52833.43625.5242.43625 1.54597z"/><path d="m237.33293 129.21403h.81045v5.02114q0 .94256-.36128 1.3654-.35655.42266-1.154.42266h-.30814v-.68712h.21605q.46222 0 .62986-.21606.16765-.21133.16765-.88529zm0-1.92035h.81045v1.02626h-.81045z"/><path d="m239.84 129.21h.81044v4.9331h-.81044zm0-1.9204h.81044v1.0263h-.81044z"/><path d="m246.44589 131.16963v2.97743h-.81045v-2.95104q0-.70035-.27331-1.04828-.27332-.34769-.81924-.34769-.65625 0-1.03505.41853-.37898.41853-.37898 1.14078v2.78805h-.81481v-4.93307h.81481v.7664q.29043-.44509.68269-.6651.39669-.22019.91174-.22019.85005 0 1.28612.52833.43624.5242.43624 1.54597z"/><path d="m251.30848 131.6233q0-.88093-.3654-1.3654-.36128-.48465-1.01747-.48465-.65188 0-1.01746.48465-.36127.48465-.36127 1.3654 0 .87649.36127 1.36096.3654.48465 1.01746.48465.65625 0 1.01747-.48465.3654-.48464.3654-1.36096zm.81044 1.91155q0 1.25967-.55962 1.87194-.55961.61664-1.71338.61664-.42739 0-.80601-.0661-.37899-.0614-.73553-.19363v-.78842q.35654.19362.70471.2863.3477.0927.70914.0927.79722 0 1.19362-.41853.39669-.41381.39669-1.2553v-.40082q-.25088.43624-.64309.65188-.39197.21605-.93818.21605-.90732 0-1.46233-.69149-.55489-.69149-.55489-1.83227 0-1.14515.55489-1.8367.5549-.6915 1.46233-.6915.54604 0 .93818.21606.39197.21605.64309.65188v-.74875h.81044z"/></g><g fill="#fff" stroke="#fff" stroke-opacity=".8"><path d="m111.12922 198.49884v-2.98628h.81044v2.95546q0 .70035.27331 1.05265.27332.34769.81924.34769.65625 0 1.03506-.41853.38311-.41853.38311-1.14078v-2.79685h.81044v4.93308h-.81044v-.75755q-.29516.44923-.68713.66947-.38783.21606-.90294.21606-.85005 0-1.29054-.52833-.44038-.52833-.44038-1.54598z"/><path d="m121.03058 197.46818v2.97742h-.81044v-2.95103q0-.70035-.27331-1.04828-.27332-.3477-.81924-.3477-.65625 0-1.03505.41854-.37899.41853-.37899 1.14078v2.78805h-.81481v-4.93308h.81481v.76641q.29044-.4451.6827-.66511.39669-.22019.91174-.22019.85005 0 1.28612.52834.43624.52419.43624 1.54597z"/><path d="m131.43 195.51h.81044v4.9331h-.81044zm0-1.9204h.81044v1.0263h-.81044z"/><path d="m138.04085 197.46818v2.97742h-.81044v-2.95103q0-.70035-.27332-1.04828-.27331-.3477-.81923-.3477-.65626 0-1.03506.41854-.37898.41853-.37898 1.14078v2.78805h-.81441v-4.93308h.81486v.76641q.29044-.4451.6827-.66511.39669-.22019.91174-.22019.85005 0 1.28612.52834.43624.52419.43624 1.54597z"/><path d="m142.90344 197.92184q0-.88092-.36541-1.36539-.36127-.48465-1.01746-.48465-.65188 0-1.01746.48465-.36128.48464-.36128 1.36539 0 .8765.36128 1.36103.3654.48464 1.01746.48464.65625 0 1.01746-.48464.36541-.48465.36541-1.36103zm.81044 1.91155q0 1.25967-.55962 1.87195-.55961.61664-1.71338.61664-.42739 0-.80602-.0661-.37898-.0614-.73553-.19362v-.78842q.35655.19362.70472.2863.34769.0927.70914.0927.79722 0 1.19362-.41853.39669-.41381.39669-1.2553v-.40083q-.25089.43624-.64303.65189-.39197.21605-.93819.21605-.90731 0-1.46232-.69149-.55489-.6915-.55489-1.83228 0-1.14515.55489-1.8367.55489-.69149 1.46232-.69149.54604 0 .93819.21605.39197.21606.64303.65189v-.74876h.81044z"/><path d="m177.74816 212.60325q-.65188 0-1.03063.51121-.37898.50649-.37898 1.39184 0 .88529.37426 1.39627.37898.50649 1.03505.50649.64746 0 1.02626-.51121.37899-.51121.37899-1.39184 0-.8765-.37899-1.38742-.37898-.51534-1.02626-.51534zm0-.68713q1.05707 0 1.66049.68713.60342.68712.60342 1.90276 0 1.21126-.60342 1.90275-.60342.68713-1.66049.68713-1.0615 0-1.66492-.68713-.59899-.69149-.59899-1.90275 0-1.21564.59899-1.90276.60342-.68713 1.66492-.68713z"/><path d="m185.45607 213.99067v2.97749h-.81043v-2.95106q0-.70035-.27331-1.04828-.27332-.34769-.81924-.34769-.65625 0-1.03506.41853-.37898.41853-.37898 1.14078v2.78805h-.81442v-4.93342h.81481v.7664q.29044-.4451.6827-.66511.39669-.22018.91174-.22018.85005 0 1.28611.52833.43625.5242.43625 1.54597z"/></g><g stroke-width="59.031"><path d="m105.78 193.87h.88972v2.7793l2.951-2.7793h1.1452l-3.2637 3.0656 3.4972 3.5104h-1.1716l-3.1581-3.1669v3.1669h-.88972z"/><path d="m126.48778 196.45954q.30402-.54604.72674-.80601.42266-.25974.99544-.25974.77078 0 1.18925.54191.41853.53718.41853 1.53274v2.97743h-.81481v-2.95104q0-.70914-.25088-1.05265-.25088-.34356-.7664-.34356-.62987 0-.99545.41853-.3654.41854-.3654 1.14079v2.78805h-.81481v-2.95104q0-.71351-.25089-1.05265-.25088-.34356-.7752-.34356-.62107 0-.98659.42266-.3654.41854-.3654 1.13636v2.78805h-.81481v-4.93307h.81481v.7664q.27745-.45395.6651-.66947.38784-.21606.92054-.21606.53718 0 .91174.27332.37898.27331.55962.79279z"/><path d="m111.12922 198.49884v-2.98628h.81044v2.95546q0 .70035.27331 1.05265.27332.34769.81924.34769.65625 0 1.03506-.41853.38311-.41853.38311-1.14078v-2.79685h.81044v4.93308h-.81044v-.75755q-.29516.44923-.68713.66947-.38783.21606-.90294.21606-.85005 0-1.29054-.52833-.44038-.52833-.44038-1.54598z"/><path d="m121.03058 197.46818v2.97742h-.81044v-2.95103q0-.70035-.27331-1.04828-.27332-.3477-.81924-.3477-.65625 0-1.03505.41854-.37899.41853-.37899 1.14078v2.78805h-.81481v-4.93308h.81481v.76641q.29044-.4451.6827-.66511.39669-.22019.91174-.22019.85005 0 1.28612.52834.43624.52419.43624 1.54597z"/><path d="m131.43 195.51h.81044v4.9331h-.81044zm0-1.9204h.81044v1.0263h-.81044z"/><path d="m138.04085 197.46818v2.97742h-.81044v-2.95103q0-.70035-.27332-1.04828-.27331-.3477-.81923-.3477-.65626 0-1.03506.41854-.37898.41853-.37898 1.14078v2.78805h-.81441v-4.93308h.81486v.76641q.29044-.4451.6827-.66511.39669-.22019.91174-.22019.85005 0 1.28612.52834.43624.52419.43624 1.54597z"/><path d="m142.90344 197.92184q0-.88092-.36541-1.36539-.36127-.48465-1.01746-.48465-.65188 0-1.01746.48465-.36128.48464-.36128 1.36539 0 .8765.36128 1.36103.3654.48464 1.01746.48464.65625 0 1.01746-.48464.36541-.48465.36541-1.36103zm.81044 1.91155q0 1.25967-.55962 1.87195-.55961.61664-1.71338.61664-.42739 0-.80602-.0661-.37898-.0614-.73553-.19362v-.78842q.35655.19362.70472.2863.34769.0927.70914.0927.79722 0 1.19362-.41853.39669-.41381.39669-1.2553v-.40083q-.25089.43624-.64303.65189-.39197.21605-.93819.21605-.90731 0-1.46232-.69149-.55489-.6915-.55489-1.83228 0-1.14515.55489-1.8367.55489-.69149 1.46232-.69149.54604 0 .93819.21605.39197.21606.64303.65189v-.74876h.81044z"/><path d="m169.09 210.39h.88972v2.6955h3.2329v-2.6955h.88972v6.576h-.88972v-3.1316h-3.2329v3.1316h-.88972z"/><path d="m177.74846 212.60325q-.65188 0-1.03063.51121-.37898.50649-.37898 1.39184 0 .88529.37426 1.39627.37898.50649 1.03505.50649.64746 0 1.02626-.51121.37899-.51121.37899-1.39184 0-.8765-.37899-1.38742-.37898-.51534-1.02626-.51534zm0-.68713q1.05707 0 1.66049.68713.60342.68712.60342 1.90276 0 1.21126-.60342 1.90275-.60342.68713-1.66049.68713-1.0615 0-1.66492-.68713-.59899-.69149-.59899-1.90275 0-1.21564.59899-1.90276.60342-.68713 1.66492-.68713z"/><path d="m185.45637 213.99067v2.97749h-.81043v-2.95106q0-.70035-.27331-1.04828-.27332-.34769-.81924-.34769-.65625 0-1.03506.41853-.37898.41853-.37898 1.14078v2.78805h-.81442v-4.93342h.81481v.7664q.29044-.4451.6827-.66511.39669-.22018.91174-.22018.85005 0 1.28611.52833.43625.5242.43625 1.54597z"/><path d="m190.31897 214.44434q0-.88092-.36541-1.36539-.36127-.48465-1.01746-.48465-.65189 0-1.01747.48465-.36127.48464-.36127 1.36539 0 .8765.36127 1.36097.36541.48465 1.01747.48465.65625 0 1.01746-.48465.36541-.48465.36541-1.36097zm.81044 1.91155q0 1.25967-.55962 1.87195-.55962.61664-1.71333.61664-.42738 0-.80601-.0661-.37898-.0614-.73553-.19362v-.78842q.35655.19362.70472.2863.34769.0927.70914.0927.79722 0 1.19361-.41853.39669-.41381.39669-1.2553v-.40083q-.25088.43624-.64308.65189-.39197.21605-.93819.21605-.90731 0-1.46232-.69149-.5549-.6915-.5549-1.83228 0-1.1452.5549-1.8367.55489-.69149 1.46232-.69149.54604 0 .93819.21605.39196.21606.64308.65189v-.74949h.81045z"/><path d="m195.7 211.62h.88972v2.7792l2.951-2.7792h1.1452l-3.2637 3.0656 3.4972 3.5104h-1.1716l-3.1581-3.1668v3.1668h-.88972z"/><path d="m203.04363 213.83331q-.65188 0-1.03068.51121-.37899.50649-.37899 1.39184 0 .88529.37426 1.39627.37898.50649 1.03506.50649.64745 0 1.02626-.51121.37898-.51121.37898-1.39184 0-.8765-.37898-1.38742-.37898-.51534-1.02626-.51534zm0-.68713q1.05708 0 1.66049.68713.60342.68712.60342 1.90276 0 1.21126-.60342 1.90275-.60341.68713-1.66049.68713-1.0615 0-1.66492-.68713-.59899-.69149-.59899-1.90275 0-1.21564.59899-1.90276.60342-.68713 1.66492-.68713z"/><path d="m210.75154 215.22073v2.97749h-.81044v-2.95104q0-.70035-.27331-1.04828-.27332-.34769-.81924-.34769-.65625 0-1.03506.41853-.37898.41853-.37898 1.14078v2.78805h-.81439v-4.93343h.81481v.76641q.29043-.4451.68269-.66511.39669-.22019.91174-.22019.85005 0 1.28612.52833.43624.5242.43624 1.54598z"/><path d="m215.61413 215.6744q0-.88092-.3654-1.36539-.36127-.48465-1.01747-.48465-.65188 0-1.01746.48465-.36127.48464-.36127 1.36539 0 .8765.36127 1.36097.3654.48465 1.01746.48465.65626 0 1.01747-.48465.3654-.48465.3654-1.36097zm.81044 1.91155q0 1.25967-.55961 1.87195-.55962.61664-1.71339.61664-.42739 0-.80601-.0661-.37898-.0614-.73553-.19362v-.78842q.35655.19362.70471.2863.3477.0927.70915.0927.79722 0 1.19361-.41853.39669-.41381.39669-1.2553v-.40083q-.25088.43624-.64309.65189-.39196.21605-.93818.21605-.90731 0-1.46233-.69149-.55489-.6915-.55489-1.83228 0-1.1452.55489-1.8367.5549-.69149 1.46233-.69149.54604 0 .93818.21605.39197.21606.64309.65189v-.74952h.81044z"/></g></g></svg>